<?xml version="1.0"?><svg fill="#000000" xmlns="http://www.w3.org/2000/svg"  viewBox="0 0 24 24" width="24px" height="24px">    <path d="M 12 0 A 1 1 0 0 0 11 1 A 1 1 0 0 0 12 2 A 1 1 0 0 0 13 1 A 1 1 0 0 0 12 0 z M 4.2226562 3.2226562 A 1 1 0 0 0 3.2226562 4.2226562 A 1 1 0 0 0 4.2226562 5.2226562 A 1 1 0 0 0 5.2226562 4.2226562 A 1 1 0 0 0 4.2226562 3.2226562 z M 19.777344 3.2226562 A 1 1 0 0 0 18.777344 4.2226562 A 1 1 0 0 0 19.777344 5.2226562 A 1 1 0 0 0 20.777344 4.2226562 A 1 1 0 0 0 19.777344 3.2226562 z M 12 5 C 8.14 5 5 8.14 5 12 C 5 14.785 6.639 17.188453 9 18.314453 L 9 21 C 9 22.103 9.897 23 11 23 L 13 23 C 14.103 23 15 22.103 15 21 L 15 18.314453 C 17.361 17.188453 19 14.785 19 12 C 19 8.14 15.86 5 12 5 z M 1 11 A 1 1 0 0 0 0 12 A 1 1 0 0 0 1 13 A 1 1 0 0 0 2 12 A 1 1 0 0 0 1 11 z M 23 11 A 1 1 0 0 0 22 12 A 1 1 0 0 0 23 13 A 1 1 0 0 0 24 12 A 1 1 0 0 0 23 11 z M 4.2226562 18.777344 A 1 1 0 0 0 3.2226562 19.777344 A 1 1 0 0 0 4.2226562 20.777344 A 1 1 0 0 0 5.2226562 19.777344 A 1 1 0 0 0 4.2226562 18.777344 z M 19.777344 18.777344 A 1 1 0 0 0 18.777344 19.777344 A 1 1 0 0 0 19.777344 20.777344 A 1 1 0 0 0 20.777344 19.777344 A 1 1 0 0 0 19.777344 18.777344 z"/></svg>