<?xml version="1.0" encoding="UTF-8" standalone="no"?>
<svg
   xmlns:dc="http://purl.org/dc/elements/1.1/"
   xmlns:cc="http://creativecommons.org/ns#"
   xmlns:rdf="http://www.w3.org/1999/02/22-rdf-syntax-ns#"
   xmlns:svg="http://www.w3.org/2000/svg"
   xmlns="http://www.w3.org/2000/svg"
   xmlns:sodipodi="http://sodipodi.sourceforge.net/DTD/sodipodi-0.dtd"
   xmlns:inkscape="http://www.inkscape.org/namespaces/inkscape"
   version="1.1"
   viewBox="0 0 558.02625 91.413383"
   fill="none"
   stroke="none"
   stroke-linecap="square"
   stroke-miterlimit="10"
   id="svg50"
   sodipodi:docname="Technical Docs - Diagrams.svg"
   width="558.02625"
   height="91.413383"
   inkscape:version="1.0.2 (e86c870879, 2021-01-15)">
  <metadata
     id="metadata56">
    <rdf:RDF>
      <cc:Work
         rdf:about="">
        <dc:format>image/svg+xml</dc:format>
        <dc:type
           rdf:resource="http://purl.org/dc/dcmitype/StillImage" />
      </cc:Work>
    </rdf:RDF>
  </metadata>
  <defs
     id="defs54" />
  <sodipodi:namedview
     pagecolor="#ffffff"
     bordercolor="#666666"
     borderopacity="1"
     objecttolerance="10"
     gridtolerance="10"
     guidetolerance="10"
     inkscape:pageopacity="0"
     inkscape:pageshadow="2"
     inkscape:window-width="1848"
     inkscape:window-height="1016"
     id="namedview52"
     showgrid="false"
     inkscape:zoom="1.3885417"
     inkscape:cx="335.51122"
     inkscape:cy="75.24934"
     inkscape:window-x="72"
     inkscape:window-y="27"
     inkscape:window-maximized="1"
     inkscape:current-layer="g48" />
  <clipPath
     id="g12a9b3a53ae_0_2578.0">
    <path
       d="M 0,0 H 960 V 540 H 0 Z"
       clip-rule="nonzero"
       id="path2" />
  </clipPath>
  <g
     clip-path="url(#g12a9b3a53ae_0_2578.0)"
     id="g48"
     transform="translate(-184.9029,-194.75066)">
    <g
       id="g180">
      <path
         fill="#000000"
         fill-opacity="0"
         d="m 295.39108,264.65616 c 20.54083,0 30.81003,0.0158 41.08166,0.0315 10.27167,0.0157 20.54578,0.0315 41.09156,0.0315"
         fill-rule="evenodd"
         id="path16" />
      <path
         stroke="#000000"
         stroke-width="1"
         stroke-linejoin="round"
         stroke-linecap="butt"
         d="m 295.39108,264.65616 c 20.54083,0 30.81003,0.0158 41.0817,0.0315 5.1358,0.008 10.27224,0.0157 16.69299,0.0217 3.21033,0.003 6.74176,0.005 10.75467,0.007 l 10.21676,0.002"
         fill-rule="evenodd"
         id="path18" />
      <path
         fill="#000000"
         stroke="#000000"
         stroke-width="1"
         stroke-linecap="butt"
         d="m 374.1372,264.71848 -1.12479,1.12436 3.09,-1.12396 -3.08957,-1.12522 z"
         fill-rule="evenodd"
         id="path20" />
      <path
         fill="#ffffff"
         d="m 377.5538,245.43018 v 0 c 0,-0.9841 0.79779,-1.78188 1.78189,-1.78188 h 173.57007 c 0.4726,0 0.92584,0.18773 1.26001,0.5219 0.33417,0.33417 0.52191,0.7874 0.52191,1.25998 v 38.45196 c 0,0.98414 -0.79779,1.7819 -1.78192,1.7819 H 379.33569 c -0.9841,0 -1.78189,-0.79776 -1.78189,-1.7819 z"
         fill-rule="evenodd"
         id="path22" />
      <path
         stroke="#000000"
         stroke-width="1"
         stroke-linejoin="round"
         stroke-linecap="butt"
         d="m 377.5538,245.43018 v 0 c 0,-0.9841 0.79779,-1.78188 1.78189,-1.78188 h 173.57007 c 0.4726,0 0.92584,0.18773 1.26001,0.5219 0.33417,0.33417 0.52191,0.7874 0.52191,1.25998 v 38.45196 c 0,0.98414 -0.79779,1.7819 -1.78192,1.7819 H 379.33569 c -0.9841,0 -1.78189,-0.79776 -1.78189,-1.7819 z"
         fill-rule="evenodd"
         id="path24" />
      <path
         fill="#00aa73"
         d="m 401.86044,260.73618 -3.75,-10.48438 h 2.29687 l 2.64063,7.75 2.57812,-7.75 h 2.25 l -3.76562,10.48438 z m 7.77884,-5.28125 -1.82813,-0.32813 q 0.29688,-1.10937 1.04688,-1.625 0.76562,-0.53125 2.23437,-0.53125 1.35938,0 2.01563,0.3125 0.65625,0.3125 0.92187,0.8125 0.26563,0.48438 0.26563,1.79688 l -0.0156,2.34375 q 0,1 0.0937,1.48437 0.0937,0.46875 0.35938,1.01563 h -1.98438 q -0.0781,-0.20313 -0.20312,-0.59375 -0.0469,-0.17188 -0.0625,-0.23438 -0.51563,0.5 -1.10938,0.75 -0.57812,0.25 -1.25,0.25 -1.17187,0 -1.85937,-0.64062 -0.67188,-0.64063 -0.67188,-1.60938 0,-0.64062 0.3125,-1.14062 0.3125,-0.51563 0.85938,-0.78125 0.5625,-0.26563 1.60937,-0.46875 1.40625,-0.26563 1.95313,-0.48438 v -0.20312 q 0,-0.57813 -0.29688,-0.82813 -0.28125,-0.25 -1.07812,-0.25 -0.53125,0 -0.84375,0.21875 -0.29688,0.20313 -0.46875,0.73438 z m 2.6875,1.625 q -0.39063,0.14062 -1.23438,0.32812 -0.82812,0.17188 -1.09375,0.34375 -0.39062,0.26563 -0.39062,0.70313 0,0.42187 0.3125,0.73437 0.3125,0.29688 0.8125,0.29688 0.53125,0 1.03125,-0.35938 0.35937,-0.26562 0.48437,-0.65625 0.0781,-0.26562 0.0781,-0.98437 z m 3.948,3.65625 V 250.2518 h 2.01562 v 10.48438 z m 4.07196,-8.625 v -1.85938 h 2.01562 v 1.85938 z m 0,8.625 v -7.59375 h 2.01562 v 7.59375 z m 11.04074,0 h -1.85938 v -1.10938 q -0.46875,0.64063 -1.10937,0.96875 -0.625,0.3125 -1.26563,0.3125 -1.3125,0 -2.25,-1.04687 -0.9375,-1.0625 -0.9375,-2.95313 0,-1.9375 0.90625,-2.9375 0.92188,-1 2.3125,-1 1.26563,0 2.20313,1.04688 v -3.76563 h 2 z m -5.35938,-3.96875 q 0,1.21875 0.32813,1.76562 0.5,0.78125 1.35937,0.78125 0.70313,0 1.1875,-0.57812 0.48438,-0.59375 0.48438,-1.76563 0,-1.3125 -0.46875,-1.89062 -0.46875,-0.57813 -1.20313,-0.57813 -0.71875,0 -1.20312,0.57813 -0.48438,0.5625 -0.48438,1.6875 z m 8.85886,-1.3125 -1.82813,-0.32813 q 0.29688,-1.10937 1.04688,-1.625 0.76562,-0.53125 2.23437,-0.53125 1.35938,0 2.01563,0.3125 0.65625,0.3125 0.92187,0.8125 0.26563,0.48438 0.26563,1.79688 l -0.0156,2.34375 q 0,1 0.0937,1.48437 0.0937,0.46875 0.35938,1.01563 h -1.98438 q -0.0781,-0.20313 -0.20312,-0.59375 -0.0469,-0.17188 -0.0625,-0.23438 -0.51563,0.5 -1.10938,0.75 -0.57812,0.25 -1.25,0.25 -1.17187,0 -1.85937,-0.64062 -0.67188,-0.64063 -0.67188,-1.60938 0,-0.64062 0.3125,-1.14062 0.3125,-0.51563 0.85938,-0.78125 0.5625,-0.26563 1.60937,-0.46875 1.40625,-0.26563 1.95313,-0.48438 v -0.20312 q 0,-0.57813 -0.29688,-0.82813 -0.28125,-0.25 -1.07812,-0.25 -0.53125,0 -0.84375,0.21875 -0.29688,0.20313 -0.46875,0.73438 z m 2.6875,1.625 q -0.39063,0.14062 -1.23438,0.32812 -0.82812,0.17188 -1.09375,0.34375 -0.39062,0.26563 -0.39062,0.70313 0,0.42187 0.3125,0.73437 0.3125,0.29688 0.8125,0.29688 0.53125,0 1.03125,-0.35938 0.35937,-0.26562 0.48437,-0.65625 0.0781,-0.26562 0.0781,-0.98437 z m 7.43237,-3.9375 v 1.59375 h -1.375 v 3.0625 q 0,0.9375 0.0312,1.09375 0.0469,0.14062 0.1875,0.25 0.14063,0.0937 0.34375,0.0937 0.28125,0 0.8125,-0.1875 l 0.17188,1.5625 q -0.70313,0.29687 -1.59375,0.29687 -0.54688,0 -0.98438,-0.17187 -0.42187,-0.1875 -0.64062,-0.46875 -0.20313,-0.29688 -0.28125,-0.79688 -0.0625,-0.35937 -0.0625,-1.42187 v -3.3125 h -0.92188 v -1.59375 h 0.92188 v -1.51563 l 2.01562,-1.17187 v 2.6875 z m 5.80252,5.17187 2,0.34375 q -0.375,1.09375 -1.21875,1.67188 -0.82812,0.57812 -2.07812,0.57812 -1.98438,0 -2.9375,-1.29687 -0.75,-1.03125 -0.75,-2.625 0,-1.875 0.98437,-2.9375 0.98438,-1.07813 2.5,-1.07813 1.6875,0 2.67188,1.125 0.98437,1.10938 0.9375,3.42188 h -5.03125 q 0.0156,0.89062 0.48437,1.39062 0.46875,0.5 1.15625,0.5 0.46875,0 0.78125,-0.25 0.32813,-0.26562 0.5,-0.84375 z m 0.10938,-2.03125 q -0.0156,-0.875 -0.45313,-1.32812 -0.42187,-0.45313 -1.03125,-0.45313 -0.67187,0 -1.09375,0.48438 -0.42187,0.46875 -0.42187,1.29687 z m 3.58859,2.4375 h 2.01563 v 1.4375 q 0,0.875 -0.15625,1.375 -0.14063,0.51563 -0.5625,0.90625 -0.42188,0.40625 -1.0625,0.64063 l -0.39063,-0.82813 q 0.60938,-0.20312 0.85938,-0.5625 0.25,-0.34375 0.26562,-0.95312 h -0.96875 z m 13.60324,2.01563 h -2.3125 l -0.90625,-2.39063 h -4.20312 l -0.85938,2.39063 h -2.25 l 4.09375,-10.48438 h 2.23438 z m -3.90625,-4.15625 -1.4375,-3.89063 -1.42187,3.89063 z m 4.81864,4.65625 2.29687,0.28125 q 0.0625,0.40625 0.26563,0.54687 0.29687,0.21875 0.90625,0.21875 0.78125,0 1.1875,-0.23437 0.26562,-0.15625 0.39062,-0.51563 0.0937,-0.25 0.0937,-0.92187 v -1.10938 q -0.89062,1.23438 -2.26562,1.23438 -1.53125,0 -2.4375,-1.29688 -0.70313,-1.01562 -0.70313,-2.54687 0,-1.90625 0.92188,-2.90625 0.92187,-1.01563 2.29687,-1.01563 1.40625,0 2.32813,1.23438 v -1.0625 h 1.875 v 6.8125 q 0,1.34375 -0.21875,2 -0.21875,0.67187 -0.625,1.04687 -0.40625,0.39063 -1.07813,0.59375 -0.65625,0.21875 -1.6875,0.21875 -1.9375,0 -2.75,-0.65625 -0.79687,-0.65625 -0.79687,-1.67187 0,-0.10938 0,-0.25 z m 1.79687,-4.45313 q 0,1.20313 0.46875,1.76563 0.46875,0.5625 1.15625,0.5625 0.75,0 1.25,-0.57813 0.51563,-0.57812 0.51563,-1.70312 0,-1.1875 -0.5,-1.75 -0.48438,-0.57813 -1.21875,-0.57813 -0.73438,0 -1.20313,0.5625 -0.46875,0.5625 -0.46875,1.71875 z m 7.15576,4.45313 2.29688,0.28125 q 0.0625,0.40625 0.26562,0.54687 0.29688,0.21875 0.90625,0.21875 0.78125,0 1.1875,-0.23437 0.26563,-0.15625 0.39063,-0.51563 0.0937,-0.25 0.0937,-0.92187 v -1.10938 q -0.89063,1.23438 -2.26563,1.23438 -1.53125,0 -2.4375,-1.29688 -0.70312,-1.01562 -0.70312,-2.54687 0,-1.90625 0.92187,-2.90625 0.92188,-1.01563 2.29688,-1.01563 1.40625,0 2.32812,1.23438 v -1.0625 h 1.875 v 6.8125 q 0,1.34375 -0.21875,2 -0.21875,0.67187 -0.625,1.04687 -0.40625,0.39063 -1.07812,0.59375 -0.65625,0.21875 -1.6875,0.21875 -1.9375,0 -2.75,-0.65625 -0.79688,-0.65625 -0.79688,-1.67187 0,-0.10938 0,-0.25 z m 1.79688,-4.45313 q 0,1.20313 0.46875,1.76563 0.46875,0.5625 1.15625,0.5625 0.75,0 1.25,-0.57813 0.51562,-0.57812 0.51562,-1.70312 0,-1.1875 -0.5,-1.75 -0.48437,-0.57813 -1.21875,-0.57813 -0.73437,0 -1.20312,0.5625 -0.46875,0.5625 -0.46875,1.71875 z m 9.28073,3.95313 h -2.01563 v -7.59375 h 1.85938 v 1.07812 q 0.48437,-0.76562 0.85937,-1 0.39063,-0.25 0.875,-0.25 0.6875,0 1.32813,0.375 l -0.625,1.75 q -0.5,-0.32812 -0.9375,-0.32812 -0.42188,0 -0.71875,0.23437 -0.29688,0.23438 -0.46875,0.84375 -0.15625,0.60938 -0.15625,2.54688 z m 8.17239,-2.42188 2,0.34375 q -0.375,1.09375 -1.21875,1.67188 -0.82812,0.57812 -2.07812,0.57812 -1.98438,0 -2.9375,-1.29687 -0.75,-1.03125 -0.75,-2.625 0,-1.875 0.98437,-2.9375 0.98438,-1.07813 2.5,-1.07813 1.6875,0 2.67188,1.125 0.98437,1.10938 0.9375,3.42188 h -5.03125 q 0.0156,0.89062 0.48437,1.39062 0.46875,0.5 1.15625,0.5 0.46875,0 0.78125,-0.25 0.32813,-0.26562 0.5,-0.84375 z m 0.10938,-2.03125 q -0.0156,-0.875 -0.45313,-1.32812 -0.42187,-0.45313 -1.03125,-0.45313 -0.67187,0 -1.09375,0.48438 -0.42187,0.46875 -0.42187,1.29687 z m 3.44796,4.95313 2.29688,0.28125 q 0.0625,0.40625 0.26562,0.54687 0.29688,0.21875 0.90625,0.21875 0.78125,0 1.1875,-0.23437 0.26563,-0.15625 0.39063,-0.51563 0.0937,-0.25 0.0937,-0.92187 v -1.10938 q -0.89063,1.23438 -2.26563,1.23438 -1.53125,0 -2.4375,-1.29688 -0.70312,-1.01562 -0.70312,-2.54687 0,-1.90625 0.92187,-2.90625 0.92188,-1.01563 2.29688,-1.01563 1.40625,0 2.32812,1.23438 v -1.0625 h 1.87504 v 6.8125 q 0,1.34375 -0.21875,2 -0.21875,0.67187 -0.625,1.04687 -0.40625,0.39063 -1.07816,0.59375 -0.65625,0.21875 -1.6875,0.21875 -1.9375,0 -2.75,-0.65625 -0.79688,-0.65625 -0.79688,-1.67187 0,-0.10938 0,-0.25 z m 1.79688,-4.45313 q 0,1.20313 0.46875,1.76563 0.46875,0.5625 1.15625,0.5625 0.75,0 1.25,-0.57813 0.51562,-0.57812 0.51562,-1.70312 0,-1.1875 -0.5,-1.75 -0.48437,-0.57813 -1.21875,-0.57813 -0.73437,0 -1.20312,0.5625 -0.46875,0.5625 -0.46875,1.71875 z m 8.85889,-1.32812 -1.82813,-0.32813 q 0.29688,-1.10937 1.04688,-1.625 0.76562,-0.53125 2.23434,-0.53125 1.35938,0 2.01563,0.3125 0.65625,0.3125 0.92187,0.8125 0.26563,0.48438 0.26563,1.79688 l -0.0156,2.34375 q 0,1 0.0937,1.48437 0.0937,0.46875 0.35938,1.01563 h -1.98438 q -0.0781,-0.20313 -0.20312,-0.59375 -0.0469,-0.17188 -0.0625,-0.23438 -0.51563,0.5 -1.10938,0.75 -0.57812,0.25 -1.24997,0.25 -1.17187,0 -1.85937,-0.64062 -0.67188,-0.64063 -0.67188,-1.60938 0,-0.64062 0.3125,-1.14062 0.3125,-0.51563 0.85938,-0.78125 0.5625,-0.26563 1.60934,-0.46875 1.40625,-0.26563 1.95313,-0.48438 v -0.20312 q 0,-0.57813 -0.29688,-0.82813 -0.28125,-0.25 -1.07812,-0.25 -0.53125,0 -0.84372,0.21875 -0.29688,0.20313 -0.46875,0.73438 z m 2.68747,1.625 q -0.39063,0.14062 -1.23438,0.32812 -0.82812,0.17188 -1.09372,0.34375 -0.39062,0.26563 -0.39062,0.70313 0,0.42187 0.3125,0.73437 0.31247,0.29688 0.81247,0.29688 0.53125,0 1.03125,-0.35938 0.35937,-0.26562 0.48437,-0.65625 0.0781,-0.26562 0.0781,-0.98437 z m 7.43237,-3.9375 v 1.59375 h -1.375 v 3.0625 q 0,0.9375 0.0312,1.09375 0.0469,0.14062 0.1875,0.25 0.14062,0.0937 0.34375,0.0937 0.28125,0 0.8125,-0.1875 l 0.17187,1.5625 q -0.70312,0.29687 -1.59375,0.29687 -0.54687,0 -0.98437,-0.17187 -0.42188,-0.1875 -0.64063,-0.46875 -0.20312,-0.29688 -0.28125,-0.79688 -0.0625,-0.35937 -0.0625,-1.42187 v -3.3125 h -0.92187 v -1.59375 h 0.92187 v -1.51563 l 2.01563,-1.17187 v 2.6875 z m 5.80255,5.17187 2,0.34375 q -0.375,1.09375 -1.21875,1.67188 -0.82812,0.57812 -2.07812,0.57812 -1.98438,0 -2.9375,-1.29687 -0.75,-1.03125 -0.75,-2.625 0,-1.875 0.98437,-2.9375 0.98438,-1.07813 2.5,-1.07813 1.6875,0 2.67188,1.125 0.98437,1.10938 0.9375,3.42188 h -5.03125 q 0.0156,0.89062 0.48437,1.39062 0.46875,0.5 1.15625,0.5 0.46875,0 0.78125,-0.25 0.32813,-0.26562 0.5,-0.84375 z m 0.10938,-2.03125 q -0.0156,-0.875 -0.45313,-1.32812 -0.42187,-0.45313 -1.03125,-0.45313 -0.67187,0 -1.09375,0.48438 -0.42187,0.46875 -0.42187,1.29687 z m 3.58856,2.4375 h 2.01562 v 1.4375 q 0,0.875 -0.15625,1.375 -0.14062,0.51563 -0.5625,0.90625 -0.42187,0.40625 -1.0625,0.64063 l -0.39062,-0.82813 q 0.60937,-0.20312 0.85937,-0.5625 0.25,-0.34375 0.26563,-0.95312 h -0.96875 z"
         fill-rule="nonzero"
         id="path26" />
      <path
         fill="#00aa73"
         d="M 400.82022,278.73618 V 268.2518 h 4.45312 q 1.6875,0 2.4375,0.28125 0.76563,0.28125 1.21875,1 0.46875,0.71875 0.46875,1.65625 0,1.17188 -0.70312,1.95313 -0.6875,0.76562 -2.0625,0.96875 0.6875,0.39062 1.125,0.875 0.45312,0.48437 1.20312,1.70312 l 1.28125,2.04688 h -2.53125 l -1.53125,-2.28125 q -0.8125,-1.21875 -1.10937,-1.53125 -0.29688,-0.32813 -0.64063,-0.4375 -0.34375,-0.125 -1.0625,-0.125 h -0.4375 v 4.375 z m 2.10937,-6.04688 h 1.57813 q 1.51562,0 1.89062,-0.125 0.39063,-0.14062 0.59375,-0.45312 0.21875,-0.3125 0.21875,-0.78125 0,-0.53125 -0.28125,-0.85938 -0.28125,-0.32812 -0.79687,-0.42187 -0.25,-0.0312 -1.54688,-0.0312 h -1.65625 z m 12.84989,3.625 2,0.34375 q -0.375,1.09375 -1.21875,1.67188 -0.82813,0.57812 -2.07813,0.57812 -1.98437,0 -2.9375,-1.29687 -0.75,-1.03125 -0.75,-2.625 0,-1.875 0.98438,-2.9375 0.98437,-1.07813 2.5,-1.07813 1.6875,0 2.67187,1.125 0.98438,1.10938 0.9375,3.42188 h -5.03125 q 0.0156,0.89062 0.48438,1.39062 0.46875,0.5 1.15625,0.5 0.46875,0 0.78125,-0.25 0.32812,-0.26562 0.5,-0.84375 z m 0.10937,-2.03125 q -0.0156,-0.875 -0.45312,-1.32812 -0.42188,-0.45313 -1.03125,-0.45313 -0.67188,0 -1.09375,0.48438 -0.42188,0.46875 -0.42188,1.29687 z m 10.60425,4.45313 h -1.85937 v -1.10938 q -0.46875,0.64063 -1.10938,0.96875 -0.625,0.3125 -1.26562,0.3125 -1.3125,0 -2.25,-1.04687 -0.9375,-1.0625 -0.9375,-2.95313 0,-1.9375 0.90625,-2.9375 0.92187,-1 2.3125,-1 1.26562,0 2.20312,1.04688 v -3.76563 h 2 z m -5.35937,-3.96875 q 0,1.21875 0.32812,1.76562 0.5,0.78125 1.35938,0.78125 0.70312,0 1.1875,-0.57812 0.48437,-0.59375 0.48437,-1.76563 0,-1.3125 -0.46875,-1.89062 -0.46875,-0.57813 -1.20312,-0.57813 -0.71875,0 -1.20313,0.57813 -0.48437,0.5625 -0.48437,1.6875 z m 12.34323,3.96875 v -1.14063 q -0.40625,0.60938 -1.09375,0.96875 -0.67188,0.34375 -1.42188,0.34375 -0.76562,0 -1.375,-0.32812 -0.60937,-0.34375 -0.875,-0.95313 -0.26562,-0.60937 -0.26562,-1.6875 v -4.79687 h 2 v 3.48437 q 0,1.60938 0.10937,1.96875 0.10938,0.35938 0.40625,0.57813 0.29688,0.20312 0.75,0.20312 0.51563,0 0.92188,-0.28125 0.40625,-0.28125 0.54687,-0.70312 0.15625,-0.42188 0.15625,-2.04688 v -3.20312 h 2.01563 v 7.59375 z m 10.57763,-5.35938 -1.96875,0.35938 q -0.10937,-0.59375 -0.46875,-0.89063 -0.34375,-0.29687 -0.90625,-0.29687 -0.75,0 -1.20312,0.51562 -0.45313,0.51563 -0.45313,1.73438 0,1.35937 0.45313,1.92187 0.45312,0.54688 1.21875,0.54688 0.57812,0 0.9375,-0.32813 0.375,-0.32812 0.51562,-1.10937 l 1.98438,0.32812 q -0.3125,1.35938 -1.1875,2.0625 -0.875,0.6875 -2.32813,0.6875 -1.67187,0 -2.67187,-1.04687 -0.98438,-1.0625 -0.98438,-2.92188 0,-1.875 0.98438,-2.92187 1,-1.04688 2.70312,-1.04688 1.39063,0 2.20313,0.59375 0.82812,0.59375 1.17187,1.8125 z m 5.93235,2.9375 2,0.34375 q -0.375,1.09375 -1.21875,1.67188 -0.82813,0.57812 -2.07813,0.57812 -1.98437,0 -2.9375,-1.29687 -0.75,-1.03125 -0.75,-2.625 0,-1.875 0.98438,-2.9375 0.98437,-1.07813 2.5,-1.07813 1.6875,0 2.67187,1.125 0.98438,1.10938 0.9375,3.42188 h -5.03125 q 0.0156,0.89062 0.48438,1.39062 0.46875,0.5 1.15625,0.5 0.46875,0 0.78125,-0.25 0.32812,-0.26562 0.5,-0.84375 z m 0.10937,-2.03125 q -0.0156,-0.875 -0.45312,-1.32812 -0.42188,-0.45313 -1.03125,-0.45313 -0.67188,0 -1.09375,0.48438 -0.42188,0.46875 -0.42188,1.29687 z m 3.58863,2.4375 h 2.01562 v 1.4375 q 0,0.875 -0.15625,1.375 -0.14062,0.51563 -0.5625,0.90625 -0.42187,0.40625 -1.0625,0.64063 l -0.39062,-0.82813 q 0.60937,-0.20312 0.85937,-0.5625 0.25,-0.34375 0.26563,-0.95312 h -0.96875 z m 10.56582,2.01563 v -8.71875 h -3.10937 v -1.76563 h 8.34375 v 1.76563 h -3.10938 v 8.71875 z m 7.70587,0 h -2.01562 v -7.59375 h 1.85937 v 1.07812 q 0.48438,-0.76562 0.85938,-1 0.39062,-0.25 0.875,-0.25 0.6875,0 1.32812,0.375 l -0.625,1.75 q -0.5,-0.32812 -0.9375,-0.32812 -0.42187,0 -0.71875,0.23437 -0.29687,0.23438 -0.46875,0.84375 -0.15625,0.60938 -0.15625,2.54688 z m 5.28174,-5.28125 -1.82812,-0.32813 q 0.29687,-1.10937 1.04687,-1.625 0.76563,-0.53125 2.23438,-0.53125 1.35937,0 2.01562,0.3125 0.65625,0.3125 0.92188,0.8125 0.26562,0.48438 0.26562,1.79688 l -0.0156,2.34375 q 0,1 0.0937,1.48437 0.0937,0.46875 0.35937,1.01563 h -1.98437 q -0.0781,-0.20313 -0.20313,-0.59375 -0.0469,-0.17188 -0.0625,-0.23438 -0.51562,0.5 -1.10937,0.75 -0.57813,0.25 -1.25,0.25 -1.17188,0 -1.85938,-0.64062 -0.67187,-0.64063 -0.67187,-1.60938 0,-0.64062 0.3125,-1.14062 0.3125,-0.51563 0.85937,-0.78125 0.5625,-0.26563 1.60938,-0.46875 1.40625,-0.26563 1.95312,-0.48438 v -0.20312 q 0,-0.57813 -0.29687,-0.82813 -0.28125,-0.25 -1.07813,-0.25 -0.53125,0 -0.84375,0.21875 -0.29687,0.20313 -0.46875,0.73438 z m 2.6875,1.625 q -0.39062,0.14062 -1.23437,0.32812 -0.82813,0.17188 -1.09375,0.34375 -0.39063,0.26563 -0.39063,0.70313 0,0.42187 0.3125,0.73437 0.3125,0.29688 0.8125,0.29688 0.53125,0 1.03125,-0.35938 0.35938,-0.26562 0.48438,-0.65625 0.0781,-0.26562 0.0781,-0.98437 z m 10.86987,3.65625 h -2.01562 v -3.875 q 0,-1.23438 -0.125,-1.59375 -0.125,-0.35938 -0.42188,-0.5625 -0.29687,-0.20313 -0.70312,-0.20313 -0.51563,0 -0.9375,0.29688 -0.40625,0.28125 -0.5625,0.75 -0.15625,0.46875 -0.15625,1.75 v 3.4375 h -2.01563 v -7.59375 h 1.875 v 1.10937 q 1,-1.28125 2.5,-1.28125 0.67188,0 1.21875,0.23438 0.54688,0.23437 0.82813,0.60937 0.29687,0.375 0.40625,0.84375 0.10937,0.46875 0.10937,1.35938 z m 1.32761,-2.17188 2.01563,-0.29687 q 0.125,0.57812 0.51562,0.89062 0.40625,0.29688 1.10938,0.29688 0.78125,0 1.17187,-0.28125 0.26563,-0.20313 0.26563,-0.54688 0,-0.21875 -0.14063,-0.375 -0.15625,-0.14062 -0.67187,-0.26562 -2.4375,-0.53125 -3.07813,-0.98438 -0.90625,-0.60937 -0.90625,-1.70312 0,-0.98438 0.78125,-1.65625 0.78125,-0.67188 2.42188,-0.67188 1.54687,0 2.3125,0.51563 0.76562,0.5 1.04687,1.48437 l -1.90625,0.35938 q -0.10937,-0.45313 -0.45312,-0.6875 -0.34375,-0.23438 -0.96875,-0.23438 -0.79688,0 -1.14063,0.21875 -0.23437,0.15625 -0.23437,0.40625 0,0.21875 0.20312,0.375 0.28125,0.20313 1.875,0.5625 1.60938,0.35938 2.25,0.89063 0.625,0.54687 0.625,1.5 0,1.04687 -0.875,1.79687 -0.85937,0.75 -2.57812,0.75 -1.54688,0 -2.45313,-0.625 -0.90625,-0.64062 -1.1875,-1.71875 z m 7.97925,-5.42187 h 1.10937 v -0.57813 q 0,-0.95312 0.20313,-1.42187 0.21875,-0.48438 0.76562,-0.78125 0.54688,-0.29688 1.375,-0.29688 0.85938,0 1.6875,0.26563 l -0.28125,1.39062 q -0.46875,-0.10937 -0.92187,-0.10937 -0.4375,0 -0.625,0.20312 -0.1875,0.20313 -0.1875,0.78125 v 0.54688 h 1.5 v 1.57812 h -1.5 v 6.01563 h -2.01563 v -6.01563 h -1.10937 z m 5.30252,3.6875 q 0,-1 0.48437,-1.9375 0.5,-0.9375 1.40625,-1.42188 0.90625,-0.5 2.01563,-0.5 1.71875,0 2.82809,1.125 1.10938,1.10938 1.10938,2.8125 0,1.73438 -1.125,2.875 -1.10935,1.125 -2.79685,1.125 -1.04687,0 -2,-0.46875 -0.9375,-0.46875 -1.4375,-1.375 -0.48437,-0.92187 -0.48437,-2.23437 z m 2.04687,0.10937 q 0,1.125 0.53125,1.73438 0.54688,0.59375 1.34375,0.59375 0.78125,0 1.3125,-0.59375 0.53125,-0.60938 0.53125,-1.75 0,-1.125 -0.53125,-1.71875 -0.53125,-0.60938 -1.3125,-0.60938 -0.79687,0 -1.34375,0.60938 -0.53125,0.59375 -0.53125,1.73437 z m 9.29636,3.79688 h -2.01562 v -7.59375 h 1.85937 v 1.07812 q 0.48438,-0.76562 0.85938,-1 0.39062,-0.25 0.875,-0.25 0.6875,0 1.32812,0.375 l -0.625,1.75 q -0.5,-0.32812 -0.9375,-0.32812 -0.42187,0 -0.71875,0.23437 -0.29687,0.23438 -0.46875,0.84375 -0.15625,0.60938 -0.15625,2.54688 z m 3.62549,-7.59375 h 1.84375 v 1.03125 q 1,-1.20313 2.375,-1.20313 0.73437,0 1.26562,0.29688 0.53125,0.29687 0.875,0.90625 0.5,-0.60938 1.07813,-0.90625 0.59375,-0.29688 1.25,-0.29688 0.82812,0 1.40625,0.34375 0.59375,0.32813 0.875,0.98438 0.20312,0.48437 0.20312,1.57812 v 4.85938 h -2.01562 v -4.34375 q 0,-1.125 -0.20313,-1.45313 -0.28125,-0.4375 -0.85937,-0.4375 -0.42188,0 -0.79688,0.26563 -0.35937,0.25 -0.53125,0.75 -0.17187,0.5 -0.17187,1.5625 v 3.65625 h -2 v -4.17188 q 0,-1.10937 -0.10938,-1.42187 -0.10937,-0.32813 -0.34375,-0.48438 -0.21875,-0.15625 -0.60937,-0.15625 -0.45313,0 -0.82813,0.25 -0.375,0.25 -0.54687,0.73438 -0.15625,0.46875 -0.15625,1.5625 v 3.6875 h -2 z"
         fill-rule="nonzero"
         id="path28" />
      <path
         fill="#000000"
         fill-opacity="0"
         d="m 184.9029,246.07349 h 110.48819 v 37.16534 H 184.9029 Z"
         fill-rule="evenodd"
         id="path30" />
      <path
         fill="#000000"
         d="m 205.32219,269.1535 v -10.48438 h 2.125 v 10.48438 z m 11.04073,0 h -2.01563 v -3.875 q 0,-1.23438 -0.125,-1.59375 -0.125,-0.35938 -0.42187,-0.5625 -0.29688,-0.20313 -0.70313,-0.20313 -0.51562,0 -0.9375,0.29688 -0.40625,0.28125 -0.5625,0.75 -0.15625,0.46875 -0.15625,1.75 v 3.4375 h -2.01562 v -7.59375 h 1.875 v 1.10937 q 1,-1.28125 2.5,-1.28125 0.67187,0 1.21875,0.23438 0.54687,0.23437 0.82812,0.60937 0.29688,0.375 0.40625,0.84375 0.10938,0.46875 0.10938,1.35938 z m 1.98387,-7.59375 h 1.875 v 1.10937 q 0.35937,-0.57812 0.98437,-0.92187 0.625,-0.35938 1.375,-0.35938 1.32813,0 2.25,1.03125 0.92188,1.03125 0.92188,2.89063 0,1.90625 -0.9375,2.96875 -0.92188,1.04687 -2.25,1.04687 -0.625,0 -1.14063,-0.25 -0.5,-0.25 -1.07812,-0.85937 v 3.82812 h -2 z m 1.98437,3.67187 q 0,1.28125 0.5,1.89063 0.51563,0.60937 1.25,0.60937 0.70313,0 1.15625,-0.5625 0.46875,-0.5625 0.46875,-1.84375 0,-1.20312 -0.48437,-1.78125 -0.46875,-0.57812 -1.1875,-0.57812 -0.73438,0 -1.21875,0.57812 -0.48438,0.5625 -0.48438,1.6875 z m 12.01512,3.92188 v -1.14063 q -0.40625,0.60938 -1.09375,0.96875 -0.67187,0.34375 -1.42187,0.34375 -0.76563,0 -1.375,-0.32812 -0.60938,-0.34375 -0.875,-0.95313 -0.26563,-0.60937 -0.26563,-1.6875 v -4.79687 h 2 v 3.48437 q 0,1.60938 0.10938,1.96875 0.10937,0.35938 0.40625,0.57813 0.29687,0.20312 0.75,0.20312 0.51562,0 0.92187,-0.28125 0.40625,-0.28125 0.54688,-0.70312 0.15625,-0.42188 0.15625,-2.04688 v -3.20312 h 2.01562 v 7.59375 z m 7.437,-7.59375 v 1.59375 h -1.375 v 3.0625 q 0,0.9375 0.0312,1.09375 0.0469,0.14062 0.1875,0.25 0.14062,0.0937 0.34375,0.0937 0.28125,0 0.8125,-0.1875 l 0.17187,1.5625 q -0.70312,0.29687 -1.59375,0.29687 -0.54687,0 -0.98437,-0.17187 -0.42188,-0.1875 -0.64063,-0.46875 -0.20312,-0.29688 -0.28125,-0.79688 -0.0625,-0.35937 -0.0625,-1.42187 v -3.3125 h -0.92187 v -1.59375 h 0.92187 v -1.51563 l 2.01563,-1.17187 v 2.6875 z m 5.48387,-2.89063 h 3.875 q 1.29688,0 1.98438,0.1875 0.92187,0.28125 1.57812,0.98438 0.67188,0.6875 1.01563,1.6875 0.34375,1 0.34375,2.48437 0,1.29688 -0.32813,2.23438 -0.39062,1.14062 -1.125,1.84375 -0.54687,0.54687 -1.48437,0.84375 -0.70313,0.21875 -1.875,0.21875 h -3.98438 z m 2.10938,1.76563 v 6.95312 h 1.59375 q 0.875,0 1.28125,-0.10937 0.51562,-0.125 0.84375,-0.42188 0.34375,-0.3125 0.5625,-1.01562 0.21875,-0.70313 0.21875,-1.92188 0,-1.21875 -0.21875,-1.85937 -0.21875,-0.65625 -0.60938,-1.01563 -0.375,-0.375 -0.96875,-0.5 -0.45312,-0.10937 -1.75,-0.10937 z m 9.97488,3.4375 -1.82811,-0.32813 q 0.29688,-1.10937 1.04686,-1.625 0.76563,-0.53125 2.23438,-0.53125 1.35937,0 2.01562,0.3125 0.65625,0.3125 0.92188,0.8125 0.26562,0.48438 0.26562,1.79688 l -0.0156,2.34375 q 0,1 0.0937,1.48437 0.0937,0.46875 0.35937,1.01563 h -1.98437 q -0.0781,-0.20313 -0.20313,-0.59375 -0.0469,-0.17188 -0.0625,-0.23438 -0.51562,0.5 -1.10937,0.75 -0.57813,0.25 -1.25,0.25 -1.17188,0 -1.85936,-0.64062 -0.67188,-0.64063 -0.67188,-1.60938 0,-0.64062 0.3125,-1.14062 0.3125,-0.51563 0.85936,-0.78125 0.5625,-0.26563 1.60938,-0.46875 1.40625,-0.26563 1.95312,-0.48438 v -0.20312 q 0,-0.57813 -0.29687,-0.82813 -0.28125,-0.25 -1.07813,-0.25 -0.53125,0 -0.84375,0.21875 -0.29687,0.20313 -0.46875,0.73438 z m 2.6875,1.625 q -0.39062,0.14062 -1.23437,0.32812 -0.82813,0.17188 -1.09375,0.34375 -0.39063,0.26563 -0.39063,0.70313 0,0.42187 0.3125,0.73437 0.3125,0.29688 0.8125,0.29688 0.53125,0 1.03125,-0.35938 0.35938,-0.26562 0.48438,-0.65625 0.0781,-0.26562 0.0781,-0.98437 z m 7.43237,-3.9375 v 1.59375 h -1.375 v 3.0625 q 0,0.9375 0.0312,1.09375 0.0469,0.14062 0.1875,0.25 0.14063,0.0937 0.34375,0.0937 0.28125,0 0.8125,-0.1875 l 0.17188,1.5625 q -0.70313,0.29687 -1.59375,0.29687 -0.54688,0 -0.98438,-0.17187 -0.42187,-0.1875 -0.64062,-0.46875 -0.20313,-0.29688 -0.28125,-0.79688 -0.0625,-0.35937 -0.0625,-1.42187 v -3.3125 h -0.92188 v -1.59375 h 0.92188 v -1.51563 l 2.01562,-1.17187 v 2.6875 z m 2.9119,2.3125 -1.82813,-0.32813 q 0.29688,-1.10937 1.04688,-1.625 0.76562,-0.53125 2.23437,-0.53125 1.35938,0 2.01563,0.3125 0.65625,0.3125 0.92187,0.8125 0.26563,0.48438 0.26563,1.79688 l -0.0156,2.34375 q 0,1 0.0937,1.48437 0.0937,0.46875 0.35938,1.01563 h -1.98438 q -0.0781,-0.20313 -0.20312,-0.59375 -0.0469,-0.17188 -0.0625,-0.23438 -0.51563,0.5 -1.10938,0.75 -0.57812,0.25 -1.25,0.25 -1.17187,0 -1.85937,-0.64062 -0.67188,-0.64063 -0.67188,-1.60938 0,-0.64062 0.3125,-1.14062 0.3125,-0.51563 0.85938,-0.78125 0.5625,-0.26563 1.60937,-0.46875 1.40625,-0.26563 1.95313,-0.48438 v -0.20312 q 0,-0.57813 -0.29688,-0.82813 -0.28125,-0.25 -1.07812,-0.25 -0.53125,0 -0.84375,0.21875 -0.29688,0.20313 -0.46875,0.73438 z m 2.6875,1.625 q -0.39063,0.14062 -1.23438,0.32812 -0.82812,0.17188 -1.09375,0.34375 -0.39062,0.26563 -0.39062,0.70313 0,0.42187 0.3125,0.73437 0.3125,0.29688 0.8125,0.29688 0.53125,0 1.03125,-0.35938 0.35937,-0.26562 0.48437,-0.65625 0.0781,-0.26562 0.0781,-0.98437 z"
         fill-rule="nonzero"
         id="path32" />
      <path
         fill="#000000"
         fill-opacity="0"
         d="m 632.4409,246.07349 h 110.48822 v 37.16534 H 632.4409 Z"
         fill-rule="evenodd"
         id="path34" />
      <path
         fill="#000000"
         d="m 653.3356,269.1535 v -10.48438 h 7.1875 v 1.76563 h -5.0625 v 2.48437 h 4.375 v 1.78125 h -4.375 v 4.45313 z m 13.32758,-2.42188 2,0.34375 q -0.375,1.09375 -1.21875,1.67188 -0.82813,0.57812 -2.07813,0.57812 -1.98437,0 -2.9375,-1.29687 -0.75,-1.03125 -0.75,-2.625 0,-1.875 0.98438,-2.9375 0.98437,-1.07813 2.5,-1.07813 1.6875,0 2.67187,1.125 0.98438,1.10938 0.9375,3.42188 h -5.03125 q 0.0156,0.89062 0.48438,1.39062 0.46875,0.5 1.15625,0.5 0.46875,0 0.78125,-0.25 0.32812,-0.26562 0.5,-0.84375 z m 0.10937,-2.03125 q -0.0156,-0.875 -0.45312,-1.32812 -0.42188,-0.45313 -1.03125,-0.45313 -0.67188,0 -1.09375,0.48438 -0.42188,0.46875 -0.42188,1.29687 z m 5.15112,-0.82812 -1.82812,-0.32813 q 0.29687,-1.10937 1.04687,-1.625 0.76563,-0.53125 2.23438,-0.53125 1.35937,0 2.01562,0.3125 0.65625,0.3125 0.92188,0.8125 0.26562,0.48438 0.26562,1.79688 l -0.0156,2.34375 q 0,1 0.0937,1.48437 0.0937,0.46875 0.35937,1.01563 h -1.98437 q -0.0781,-0.20313 -0.20313,-0.59375 -0.0469,-0.17188 -0.0625,-0.23438 -0.51562,0.5 -1.10937,0.75 -0.57813,0.25 -1.25,0.25 -1.17188,0 -1.85938,-0.64062 -0.67187,-0.64063 -0.67187,-1.60938 0,-0.64062 0.3125,-1.14062 0.3125,-0.51563 0.85937,-0.78125 0.5625,-0.26563 1.60938,-0.46875 1.40625,-0.26563 1.95312,-0.48438 v -0.20312 q 0,-0.57813 -0.29687,-0.82813 -0.28125,-0.25 -1.07813,-0.25 -0.53125,0 -0.84375,0.21875 -0.29687,0.20313 -0.46875,0.73438 z m 2.6875,1.625 q -0.39062,0.14062 -1.23437,0.32812 -0.82813,0.17188 -1.09375,0.34375 -0.39063,0.26563 -0.39063,0.70313 0,0.42187 0.3125,0.73437 0.3125,0.29688 0.8125,0.29688 0.53125,0 1.03125,-0.35938 0.35938,-0.26562 0.48438,-0.65625 0.0781,-0.26562 0.0781,-0.98437 z m 7.43238,-3.9375 v 1.59375 h -1.375 v 3.0625 q 0,0.9375 0.0312,1.09375 0.0469,0.14062 0.1875,0.25 0.14062,0.0937 0.34375,0.0937 0.28125,0 0.8125,-0.1875 l 0.17187,1.5625 q -0.70312,0.29687 -1.59375,0.29687 -0.54687,0 -0.98437,-0.17187 -0.42188,-0.1875 -0.64063,-0.46875 -0.20312,-0.29688 -0.28125,-0.79688 -0.0625,-0.35937 -0.0625,-1.42187 v -3.3125 H 677.731 v -1.59375 h 0.92187 v -1.51563 l 2.01563,-1.17187 v 2.6875 z m 6.39624,7.59375 v -1.14063 q -0.40625,0.60938 -1.09375,0.96875 -0.67188,0.34375 -1.42188,0.34375 -0.76562,0 -1.375,-0.32812 -0.60937,-0.34375 -0.875,-0.95313 -0.26562,-0.60937 -0.26562,-1.6875 v -4.79687 h 2 v 3.48437 q 0,1.60938 0.10937,1.96875 0.10938,0.35938 0.40625,0.57813 0.29688,0.20312 0.75,0.20312 0.51563,0 0.92188,-0.28125 0.40625,-0.28125 0.54687,-0.70312 0.15625,-0.42188 0.15625,-2.04688 v -3.20312 h 2.01563 v 7.59375 z m 5.89013,0 h -2.01562 v -7.59375 h 1.85937 v 1.07812 q 0.48438,-0.76562 0.85938,-1 0.39062,-0.25 0.875,-0.25 0.6875,0 1.32812,0.375 l -0.625,1.75 q -0.5,-0.32812 -0.9375,-0.32812 -0.42187,0 -0.71875,0.23437 -0.29687,0.23438 -0.46875,0.84375 -0.15625,0.60938 -0.15625,2.54688 z m 8.17237,-2.42188 2,0.34375 q -0.375,1.09375 -1.21875,1.67188 -0.82813,0.57812 -2.07813,0.57812 -1.98437,0 -2.9375,-1.29687 -0.75,-1.03125 -0.75,-2.625 0,-1.875 0.98438,-2.9375 0.98437,-1.07813 2.5,-1.07813 1.6875,0 2.67187,1.125 0.98438,1.10938 0.9375,3.42188 h -5.03125 q 0.0156,0.89062 0.48438,1.39062 0.46875,0.5 1.15625,0.5 0.46875,0 0.78125,-0.25 0.32812,-0.26562 0.5,-0.84375 z m 0.10937,-2.03125 q -0.0156,-0.875 -0.45312,-1.32812 -0.42188,-0.45313 -1.03125,-0.45313 -0.67188,0 -1.09375,0.48438 -0.42188,0.46875 -0.42188,1.29687 z m 6.97925,7.53125 h -1.39063 q -1.09375,-1.64062 -1.67187,-3.42187 -0.5625,-1.78125 -0.5625,-3.45313 0,-2.07812 0.70312,-3.92187 0.625,-1.59375 1.5625,-2.95313 h 1.375 q -0.98437,2.17188 -1.35937,3.70313 -0.35938,1.51562 -0.35938,3.21875 0,1.17187 0.21875,2.40625 0.21875,1.21875 0.59375,2.32812 0.25,0.73438 0.89063,2.09375 z m 0.8338,-5.25 2.01563,-0.29687 q 0.125,0.57812 0.51562,0.89062 0.40625,0.29688 1.10938,0.29688 0.78125,0 1.17187,-0.28125 0.26563,-0.20313 0.26563,-0.54688 0,-0.21875 -0.14063,-0.375 -0.15625,-0.14062 -0.67187,-0.26562 -2.4375,-0.53125 -3.07813,-0.98438 -0.90625,-0.60937 -0.90625,-1.70312 0,-0.98438 0.78125,-1.65625 0.78125,-0.67188 2.42188,-0.67188 1.54687,0 2.3125,0.51563 0.76562,0.5 1.04687,1.48437 l -1.90625,0.35938 q -0.10937,-0.45313 -0.45312,-0.6875 -0.34375,-0.23438 -0.96875,-0.23438 -0.79688,0 -1.14063,0.21875 -0.23437,0.15625 -0.23437,0.40625 0,0.21875 0.20312,0.375 0.28125,0.20313 1.875,0.5625 1.60938,0.35938 2.25,0.89063 0.625,0.54687 0.625,1.5 0,1.04687 -0.875,1.79687 -0.85937,0.75 -2.57812,0.75 -1.54688,0 -2.45313,-0.625 -0.90625,-0.64062 -1.1875,-1.71875 z m 8.30731,5.25 q 0.59375,-1.26562 0.82813,-1.95312 0.25,-0.67188 0.45312,-1.5625 0.20313,-0.89063 0.29688,-1.6875 0.10937,-0.79688 0.10937,-1.625 0,-1.70313 -0.375,-3.21875 -0.35937,-1.53125 -1.32812,-3.70313 h 1.35937 q 1.07813,1.54688 1.67188,3.26563 0.60937,1.71875 0.60937,3.5 0,1.5 -0.46875,3.20312 -0.54687,1.92188 -1.78125,3.78125 z"
         fill-rule="nonzero"
         id="path36" />
      <path
         fill="#000000"
         fill-opacity="0"
         d="m 554.6877,264.65616 c 19.43823,0 29.15594,0.0158 38.8764,0.0315 9.72052,0.0157 19.44367,0.0315 38.88733,0.0315"
         fill-rule="evenodd"
         id="path38" />
      <path
         stroke="#000000"
         stroke-width="1"
         stroke-linejoin="round"
         stroke-linecap="butt"
         d="m 554.6877,264.65616 c 19.43823,0 29.15594,0.0158 38.8764,0.0315 4.86023,0.008 9.72119,0.0157 15.79749,0.0217 3.03815,0.003 6.38019,0.005 10.17785,0.007 l 9.48493,0.002"
         fill-rule="evenodd"
         id="path40" />
      <path
         fill="#000000"
         stroke="#000000"
         stroke-width="1"
         stroke-linecap="butt"
         d="m 629.02435,264.71844 -1.12482,1.12436 3.09003,-1.12396 -3.08954,-1.12522 z"
         fill-rule="evenodd"
         id="path42" />
      <path
         fill="#000000"
         fill-opacity="0"
         d="m 393.63647,194.75066 h 140.62994 v 38.77165 H 393.63647 Z"
         fill-rule="evenodd"
         id="path44" />
      <path
         fill="#000000"
         d="m 403.37085,219.11066 2.39063,-11.45313 h 7.4375 l -0.26563,1.29688 h -5.92187 l -0.75,3.65625 h 6.01562 l -0.26562,1.29687 h -6.03125 l -1.07813,5.20313 z m 15.66406,-2.82813 1.375,0.14063 q -0.29687,1.03125 -1.35937,1.95312 -1.0625,0.92188 -2.54688,0.92188 -0.92187,0 -1.6875,-0.42188 -0.76562,-0.4375 -1.17187,-1.25 -0.40625,-0.8125 -0.40625,-1.84375 0,-1.35937 0.625,-2.64062 0.64062,-1.28125 1.64062,-1.89063 1,-0.625 2.15625,-0.625 1.48438,0 2.375,0.92188 0.89063,0.92187 0.89063,2.51562 0,0.60938 -0.10938,1.25 h -6.10937 q -0.0312,0.23438 -0.0312,0.4375 0,1.15625 0.53125,1.78125 0.53125,0.60938 1.3125,0.60938 0.71875,0 1.42187,-0.46875 0.70313,-0.48438 1.09375,-1.39063 z m -4.10937,-2.04687 h 4.65625 q 0.0156,-0.21875 0.0156,-0.3125 0,-1.0625 -0.53125,-1.625 -0.53125,-0.57813 -1.375,-0.57813 -0.90625,0 -1.65625,0.625 -0.73437,0.625 -1.10937,1.89063 z m 12.50781,3.84375 q -0.73437,0.625 -1.42187,0.92187 -0.67188,0.29688 -1.4375,0.29688 -1.15625,0 -1.85938,-0.67188 -0.70312,-0.6875 -0.70312,-1.73437 0,-0.70313 0.3125,-1.23438 0.32812,-0.53125 0.84375,-0.85937 0.53125,-0.32813 1.28125,-0.46875 0.48437,-0.0937 1.8125,-0.14063 1.32812,-0.0625 1.90625,-0.28125 0.17187,-0.57812 0.17187,-0.96875 0,-0.48437 -0.35937,-0.76562 -0.5,-0.39063 -1.4375,-0.39063 -0.89063,0 -1.46875,0.39063 -0.5625,0.39062 -0.8125,1.125 l -1.4375,-0.125 q 0.4375,-1.23438 1.39062,-1.89063 0.95313,-0.65625 2.39063,-0.65625 1.54687,0 2.4375,0.73438 0.6875,0.54687 0.6875,1.42187 0,0.65625 -0.1875,1.53125 l -0.46875,2.0625 q -0.21875,0.98438 -0.21875,1.60938 0,0.39062 0.17187,1.125 h -1.42187 q -0.125,-0.40625 -0.17188,-1.03125 z m 0.53125,-3.17188 q -0.29687,0.10938 -0.64062,0.17188 -0.34375,0.0625 -1.14063,0.14062 -1.23437,0.10938 -1.75,0.28125 -0.5,0.15625 -0.76562,0.53125 -0.25,0.35938 -0.25,0.8125 0,0.59375 0.40625,0.98438 0.42187,0.375 1.17187,0.375 0.70313,0 1.34375,-0.375 0.65625,-0.375 1.03125,-1.03125 0.375,-0.67188 0.59375,-1.89063 z m 6.08594,3.04688 -0.23438,1.17187 q -0.51562,0.125 -0.98437,0.125 -0.84375,0 -1.34375,-0.42187 -0.375,-0.3125 -0.375,-0.84375 0,-0.28125 0.20312,-1.26563 l 1,-4.8125 h -1.10937 l 0.21875,-1.09375 h 1.125 l 0.42187,-2.04687 1.625,-0.96875 -0.64062,3.01562 h 1.39062 l -0.23437,1.09375 h -1.375 l -0.96875,4.57813 q -0.17188,0.875 -0.17188,1.04687 0,0.25 0.14063,0.39063 0.14062,0.125 0.46875,0.125 0.46875,0 0.84375,-0.0937 z m 6.80469,-0.34375 q -1.5,1.6875 -3.0625,1.6875 -0.95313,0 -1.54688,-0.54688 -0.59375,-0.5625 -0.59375,-1.35937 0,-0.51563 0.26563,-1.79688 l 1,-4.78125 h 1.42187 l -1.10937,5.29688 q -0.14063,0.67187 -0.14063,1.03125 0,0.46875 0.28125,0.73437 0.28125,0.26563 0.84375,0.26563 0.59375,0 1.15625,-0.28125 0.5625,-0.29688 0.96875,-0.78125 0.42188,-0.5 0.67188,-1.17188 0.17187,-0.4375 0.40625,-1.51562 l 0.75,-3.57813 h 1.40625 l -1.73438,8.29688 h -1.29687 z m 3.22656,1.5 1.73437,-8.29688 h 1.25 l -0.34375,1.6875 q 0.64063,-0.95312 1.25,-1.40625 0.60938,-0.46875 1.25,-0.46875 0.42188,0 1.04688,0.29688 l -0.57813,1.3125 q -0.375,-0.26563 -0.8125,-0.26563 -0.73437,0 -1.51562,0.82813 -0.78125,0.82812 -1.23438,2.98437 l -0.70312,3.32813 z m 11.42187,-2.82813 1.375,0.14063 q -0.29687,1.03125 -1.35937,1.95312 -1.0625,0.92188 -2.54688,0.92188 -0.92187,0 -1.6875,-0.42188 -0.76562,-0.4375 -1.17187,-1.25 -0.40625,-0.8125 -0.40625,-1.84375 0,-1.35937 0.625,-2.64062 0.64062,-1.28125 1.64062,-1.89063 1,-0.625 2.15625,-0.625 1.48438,0 2.375,0.92188 0.89063,0.92187 0.89063,2.51562 0,0.60938 -0.10938,1.25 h -6.10937 q -0.0312,0.23438 -0.0312,0.4375 0,1.15625 0.53125,1.78125 0.53125,0.60938 1.3125,0.60938 0.71875,0 1.42187,-0.46875 0.70313,-0.48438 1.09375,-1.39063 z m -4.10937,-2.04687 h 4.65625 q 0.0156,-0.21875 0.0156,-0.3125 0,-1.0625 -0.53125,-1.625 -0.53125,-0.57813 -1.375,-0.57813 -0.90625,0 -1.65625,0.625 -0.73437,0.625 -1.10937,1.89063 z m 11.51562,4.875 2.40625,-11.45313 h 4.78125 q 1.23438,0 1.85938,0.28125 0.625,0.28125 1.03125,0.98438 0.40625,0.6875 0.40625,1.54687 0,0.70313 -0.29688,1.4375 -0.28125,0.73438 -0.73437,1.21875 -0.4375,0.46875 -0.89063,0.71875 -0.45312,0.23438 -0.96875,0.35938 -1.09375,0.25 -2.21875,0.25 h -2.875 l -0.96875,4.65625 z m 2.78125,-5.95313 h 2.51563 q 1.46875,0 2.15625,-0.3125 0.6875,-0.3125 1.09375,-0.95312 0.42187,-0.65625 0.42187,-1.39063 0,-0.5625 -0.21875,-0.90625 -0.21875,-0.35937 -0.625,-0.53125 -0.39062,-0.17187 -1.51562,-0.17187 h -2.9375 z m 9.75,-3.90625 0.32813,-1.59375 h 1.40625 l -0.32813,1.59375 z m -2.0625,9.85938 1.73438,-8.29688 h 1.40625 l -1.73438,8.29688 z m 2.89844,3.1875 2.40625,-11.48438 h 1.3125 l -0.25,1.15625 q 0.73438,-0.76562 1.29688,-1.04687 0.57812,-0.29688 1.21875,-0.29688 1.1875,0 1.96875,0.85938 0.78125,0.85937 0.78125,2.46875 0,1.29687 -0.4375,2.375 -0.42188,1.0625 -1.04688,1.71875 -0.625,0.64062 -1.26562,0.95312 -0.64063,0.29688 -1.3125,0.29688 -1.48438,0 -2.3125,-1.51563 l -0.9375,4.51563 z m 2.8125,-6.57813 q 0,0.92188 0.125,1.28125 0.20313,0.51563 0.64063,0.82813 0.45312,0.3125 1.03125,0.3125 1.21875,0 1.96875,-1.375 0.75,-1.375 0.75,-2.79688 0,-1.0625 -0.5,-1.625 -0.5,-0.57812 -1.25,-0.57812 -0.54688,0 -1.01563,0.28125 -0.45312,0.28125 -0.84375,0.85937 -0.39062,0.5625 -0.65625,1.39063 -0.25,0.8125 -0.25,1.42187 z m 12.88281,0.5625 1.375,0.14063 q -0.29687,1.03125 -1.35937,1.95312 -1.0625,0.92188 -2.54688,0.92188 -0.92187,0 -1.6875,-0.42188 -0.76562,-0.4375 -1.17187,-1.25 -0.40625,-0.8125 -0.40625,-1.84375 0,-1.35937 0.625,-2.64062 0.64062,-1.28125 1.64062,-1.89063 1,-0.625 2.15625,-0.625 1.48438,0 2.375,0.92188 0.89063,0.92187 0.89063,2.51562 0,0.60938 -0.10938,1.25 h -6.10937 q -0.0312,0.23438 -0.0312,0.4375 0,1.15625 0.53125,1.78125 0.53125,0.60938 1.3125,0.60938 0.71875,0 1.42187,-0.46875 0.70313,-0.48438 1.09375,-1.39063 z m -4.10937,-2.04687 h 4.65625 q 0.0156,-0.21875 0.0156,-0.3125 0,-1.0625 -0.53125,-1.625 -0.53125,-0.57813 -1.375,-0.57813 -0.90625,0 -1.65625,0.625 -0.73437,0.625 -1.10937,1.89063 z m 6.80469,4.875 2.39062,-11.45313 h 1.42188 l -2.39063,11.45313 z m 5.67968,-9.85938 0.32813,-1.59375 h 1.40625 l -0.32813,1.59375 z m -2.0625,9.85938 1.73438,-8.29688 h 1.40625 l -1.73438,8.29688 z m 3.60157,0 1.73437,-8.29688 h 1.28125 l -0.29687,1.4375 q 0.82812,-0.84375 1.54687,-1.23437 0.73438,-0.39063 1.5,-0.39063 1,0 1.57813,0.54688 0.57812,0.54687 0.57812,1.45312 0,0.46875 -0.20312,1.45313 l -1.0625,5.03125 h -1.40625 l 1.09375,-5.26563 q 0.17187,-0.76562 0.17187,-1.125 0,-0.42187 -0.29687,-0.67187 -0.28125,-0.26563 -0.8125,-0.26563 -1.09375,0 -1.9375,0.78125 -0.84375,0.78125 -1.25,2.6875 l -0.79688,3.85938 z m 14.99218,-2.82813 1.375,0.14063 q -0.29687,1.03125 -1.35937,1.95312 -1.0625,0.92188 -2.54688,0.92188 -0.92187,0 -1.6875,-0.42188 -0.76562,-0.4375 -1.17187,-1.25 -0.40625,-0.8125 -0.40625,-1.84375 0,-1.35937 0.625,-2.64062 0.64062,-1.28125 1.64062,-1.89063 1,-0.625 2.15625,-0.625 1.48438,0 2.375,0.92188 0.89063,0.92187 0.89063,2.51562 0,0.60938 -0.10938,1.25 h -6.10937 q -0.0312,0.23438 -0.0312,0.4375 0,1.15625 0.53125,1.78125 0.53125,0.60938 1.3125,0.60938 0.71875,0 1.42187,-0.46875 0.70313,-0.48438 1.09375,-1.39063 z m -4.10937,-2.04687 h 4.65625 q 0.0156,-0.21875 0.0156,-0.3125 0,-1.0625 -0.53125,-1.625 -0.53125,-0.57813 -1.375,-0.57813 -0.90625,0 -1.65625,0.625 -0.73437,0.625 -1.10937,1.89063 z"
         fill-rule="nonzero"
         id="path46" />
      <path
         fill="#000000"
         fill-opacity="0"
         d="m 295.39108,264.65616 c 20.54083,0 30.81003,0.0158 41.08166,0.0315 10.27167,0.0157 20.54578,0.0315 41.09156,0.0315"
         fill-rule="evenodd"
         id="path116" />
      <path
         stroke="#000000"
         stroke-width="1"
         stroke-linejoin="round"
         stroke-linecap="butt"
         d="m 295.39108,264.65616 c 20.54083,0 30.81003,0.0158 41.0817,0.0315 5.1358,0.008 10.27224,0.0157 16.69299,0.0217 3.21033,0.003 6.74176,0.005 10.75467,0.007 l 10.21676,0.002"
         fill-rule="evenodd"
         id="path118" />
      <path
         fill="#000000"
         stroke="#000000"
         stroke-width="1"
         stroke-linecap="butt"
         d="m 374.1372,264.71848 -1.12479,1.12436 3.09,-1.12396 -3.08957,-1.12522 z"
         fill-rule="evenodd"
         id="path120" />
      <path
         fill="#ffffff"
         d="m 377.5538,245.43018 v 0 c 0,-0.9841 0.79779,-1.78188 1.78189,-1.78188 h 173.57007 c 0.4726,0 0.92584,0.18773 1.26001,0.5219 0.33417,0.33417 0.52191,0.7874 0.52191,1.25998 v 38.45196 c 0,0.98414 -0.79779,1.7819 -1.78192,1.7819 H 379.33569 c -0.9841,0 -1.78189,-0.79776 -1.78189,-1.7819 z"
         fill-rule="evenodd"
         id="path122" />
      <path
         stroke="#000000"
         stroke-width="1"
         stroke-linejoin="round"
         stroke-linecap="butt"
         d="m 377.5538,245.43018 v 0 c 0,-0.9841 0.79779,-1.78188 1.78189,-1.78188 h 173.57007 c 0.4726,0 0.92584,0.18773 1.26001,0.5219 0.33417,0.33417 0.52191,0.7874 0.52191,1.25998 v 38.45196 c 0,0.98414 -0.79779,1.7819 -1.78192,1.7819 H 379.33569 c -0.9841,0 -1.78189,-0.79776 -1.78189,-1.7819 z"
         fill-rule="evenodd"
         id="path124" />
      <path
         fill="#00aa73"
         d="m 401.86044,260.73618 -3.75,-10.48438 h 2.29687 l 2.64063,7.75 2.57812,-7.75 h 2.25 l -3.76562,10.48438 z m 7.77884,-5.28125 -1.82813,-0.32813 q 0.29688,-1.10937 1.04688,-1.625 0.76562,-0.53125 2.23437,-0.53125 1.35938,0 2.01563,0.3125 0.65625,0.3125 0.92187,0.8125 0.26563,0.48438 0.26563,1.79688 l -0.0156,2.34375 q 0,1 0.0937,1.48437 0.0937,0.46875 0.35938,1.01563 h -1.98438 q -0.0781,-0.20313 -0.20312,-0.59375 -0.0469,-0.17188 -0.0625,-0.23438 -0.51563,0.5 -1.10938,0.75 -0.57812,0.25 -1.25,0.25 -1.17187,0 -1.85937,-0.64062 -0.67188,-0.64063 -0.67188,-1.60938 0,-0.64062 0.3125,-1.14062 0.3125,-0.51563 0.85938,-0.78125 0.5625,-0.26563 1.60937,-0.46875 1.40625,-0.26563 1.95313,-0.48438 v -0.20312 q 0,-0.57813 -0.29688,-0.82813 -0.28125,-0.25 -1.07812,-0.25 -0.53125,0 -0.84375,0.21875 -0.29688,0.20313 -0.46875,0.73438 z m 2.6875,1.625 q -0.39063,0.14062 -1.23438,0.32812 -0.82812,0.17188 -1.09375,0.34375 -0.39062,0.26563 -0.39062,0.70313 0,0.42187 0.3125,0.73437 0.3125,0.29688 0.8125,0.29688 0.53125,0 1.03125,-0.35938 0.35937,-0.26562 0.48437,-0.65625 0.0781,-0.26562 0.0781,-0.98437 z m 3.948,3.65625 V 250.2518 h 2.01562 v 10.48438 z m 4.07196,-8.625 v -1.85938 h 2.01562 v 1.85938 z m 0,8.625 v -7.59375 h 2.01562 v 7.59375 z m 11.04074,0 h -1.85938 v -1.10938 q -0.46875,0.64063 -1.10937,0.96875 -0.625,0.3125 -1.26563,0.3125 -1.3125,0 -2.25,-1.04687 -0.9375,-1.0625 -0.9375,-2.95313 0,-1.9375 0.90625,-2.9375 0.92188,-1 2.3125,-1 1.26563,0 2.20313,1.04688 v -3.76563 h 2 z m -5.35938,-3.96875 q 0,1.21875 0.32813,1.76562 0.5,0.78125 1.35937,0.78125 0.70313,0 1.1875,-0.57812 0.48438,-0.59375 0.48438,-1.76563 0,-1.3125 -0.46875,-1.89062 -0.46875,-0.57813 -1.20313,-0.57813 -0.71875,0 -1.20312,0.57813 -0.48438,0.5625 -0.48438,1.6875 z m 8.85886,-1.3125 -1.82813,-0.32813 q 0.29688,-1.10937 1.04688,-1.625 0.76562,-0.53125 2.23437,-0.53125 1.35938,0 2.01563,0.3125 0.65625,0.3125 0.92187,0.8125 0.26563,0.48438 0.26563,1.79688 l -0.0156,2.34375 q 0,1 0.0937,1.48437 0.0937,0.46875 0.35938,1.01563 h -1.98438 q -0.0781,-0.20313 -0.20312,-0.59375 -0.0469,-0.17188 -0.0625,-0.23438 -0.51563,0.5 -1.10938,0.75 -0.57812,0.25 -1.25,0.25 -1.17187,0 -1.85937,-0.64062 -0.67188,-0.64063 -0.67188,-1.60938 0,-0.64062 0.3125,-1.14062 0.3125,-0.51563 0.85938,-0.78125 0.5625,-0.26563 1.60937,-0.46875 1.40625,-0.26563 1.95313,-0.48438 v -0.20312 q 0,-0.57813 -0.29688,-0.82813 -0.28125,-0.25 -1.07812,-0.25 -0.53125,0 -0.84375,0.21875 -0.29688,0.20313 -0.46875,0.73438 z m 2.6875,1.625 q -0.39063,0.14062 -1.23438,0.32812 -0.82812,0.17188 -1.09375,0.34375 -0.39062,0.26563 -0.39062,0.70313 0,0.42187 0.3125,0.73437 0.3125,0.29688 0.8125,0.29688 0.53125,0 1.03125,-0.35938 0.35937,-0.26562 0.48437,-0.65625 0.0781,-0.26562 0.0781,-0.98437 z m 7.43237,-3.9375 v 1.59375 h -1.375 v 3.0625 q 0,0.9375 0.0312,1.09375 0.0469,0.14062 0.1875,0.25 0.14063,0.0937 0.34375,0.0937 0.28125,0 0.8125,-0.1875 l 0.17188,1.5625 q -0.70313,0.29687 -1.59375,0.29687 -0.54688,0 -0.98438,-0.17187 -0.42187,-0.1875 -0.64062,-0.46875 -0.20313,-0.29688 -0.28125,-0.79688 -0.0625,-0.35937 -0.0625,-1.42187 v -3.3125 h -0.92188 v -1.59375 h 0.92188 v -1.51563 l 2.01562,-1.17187 v 2.6875 z m 5.80252,5.17187 2,0.34375 q -0.375,1.09375 -1.21875,1.67188 -0.82812,0.57812 -2.07812,0.57812 -1.98438,0 -2.9375,-1.29687 -0.75,-1.03125 -0.75,-2.625 0,-1.875 0.98437,-2.9375 0.98438,-1.07813 2.5,-1.07813 1.6875,0 2.67188,1.125 0.98437,1.10938 0.9375,3.42188 h -5.03125 q 0.0156,0.89062 0.48437,1.39062 0.46875,0.5 1.15625,0.5 0.46875,0 0.78125,-0.25 0.32813,-0.26562 0.5,-0.84375 z m 0.10938,-2.03125 q -0.0156,-0.875 -0.45313,-1.32812 -0.42187,-0.45313 -1.03125,-0.45313 -0.67187,0 -1.09375,0.48438 -0.42187,0.46875 -0.42187,1.29687 z m 3.58859,2.4375 h 2.01563 v 1.4375 q 0,0.875 -0.15625,1.375 -0.14063,0.51563 -0.5625,0.90625 -0.42188,0.40625 -1.0625,0.64063 l -0.39063,-0.82813 q 0.60938,-0.20312 0.85938,-0.5625 0.25,-0.34375 0.26562,-0.95312 h -0.96875 z m 13.60324,2.01563 h -2.3125 l -0.90625,-2.39063 h -4.20312 l -0.85938,2.39063 h -2.25 l 4.09375,-10.48438 h 2.23438 z m -3.90625,-4.15625 -1.4375,-3.89063 -1.42187,3.89063 z m 4.81864,4.65625 2.29687,0.28125 q 0.0625,0.40625 0.26563,0.54687 0.29687,0.21875 0.90625,0.21875 0.78125,0 1.1875,-0.23437 0.26562,-0.15625 0.39062,-0.51563 0.0937,-0.25 0.0937,-0.92187 v -1.10938 q -0.89062,1.23438 -2.26562,1.23438 -1.53125,0 -2.4375,-1.29688 -0.70313,-1.01562 -0.70313,-2.54687 0,-1.90625 0.92188,-2.90625 0.92187,-1.01563 2.29687,-1.01563 1.40625,0 2.32813,1.23438 v -1.0625 h 1.875 v 6.8125 q 0,1.34375 -0.21875,2 -0.21875,0.67187 -0.625,1.04687 -0.40625,0.39063 -1.07813,0.59375 -0.65625,0.21875 -1.6875,0.21875 -1.9375,0 -2.75,-0.65625 -0.79687,-0.65625 -0.79687,-1.67187 0,-0.10938 0,-0.25 z m 1.79687,-4.45313 q 0,1.20313 0.46875,1.76563 0.46875,0.5625 1.15625,0.5625 0.75,0 1.25,-0.57813 0.51563,-0.57812 0.51563,-1.70312 0,-1.1875 -0.5,-1.75 -0.48438,-0.57813 -1.21875,-0.57813 -0.73438,0 -1.20313,0.5625 -0.46875,0.5625 -0.46875,1.71875 z m 7.15576,4.45313 2.29688,0.28125 q 0.0625,0.40625 0.26562,0.54687 0.29688,0.21875 0.90625,0.21875 0.78125,0 1.1875,-0.23437 0.26563,-0.15625 0.39063,-0.51563 0.0937,-0.25 0.0937,-0.92187 v -1.10938 q -0.89063,1.23438 -2.26563,1.23438 -1.53125,0 -2.4375,-1.29688 -0.70312,-1.01562 -0.70312,-2.54687 0,-1.90625 0.92187,-2.90625 0.92188,-1.01563 2.29688,-1.01563 1.40625,0 2.32812,1.23438 v -1.0625 h 1.875 v 6.8125 q 0,1.34375 -0.21875,2 -0.21875,0.67187 -0.625,1.04687 -0.40625,0.39063 -1.07812,0.59375 -0.65625,0.21875 -1.6875,0.21875 -1.9375,0 -2.75,-0.65625 -0.79688,-0.65625 -0.79688,-1.67187 0,-0.10938 0,-0.25 z m 1.79688,-4.45313 q 0,1.20313 0.46875,1.76563 0.46875,0.5625 1.15625,0.5625 0.75,0 1.25,-0.57813 0.51562,-0.57812 0.51562,-1.70312 0,-1.1875 -0.5,-1.75 -0.48437,-0.57813 -1.21875,-0.57813 -0.73437,0 -1.20312,0.5625 -0.46875,0.5625 -0.46875,1.71875 z m 9.28073,3.95313 h -2.01563 v -7.59375 h 1.85938 v 1.07812 q 0.48437,-0.76562 0.85937,-1 0.39063,-0.25 0.875,-0.25 0.6875,0 1.32813,0.375 l -0.625,1.75 q -0.5,-0.32812 -0.9375,-0.32812 -0.42188,0 -0.71875,0.23437 -0.29688,0.23438 -0.46875,0.84375 -0.15625,0.60938 -0.15625,2.54688 z m 8.17239,-2.42188 2,0.34375 q -0.375,1.09375 -1.21875,1.67188 -0.82812,0.57812 -2.07812,0.57812 -1.98438,0 -2.9375,-1.29687 -0.75,-1.03125 -0.75,-2.625 0,-1.875 0.98437,-2.9375 0.98438,-1.07813 2.5,-1.07813 1.6875,0 2.67188,1.125 0.98437,1.10938 0.9375,3.42188 h -5.03125 q 0.0156,0.89062 0.48437,1.39062 0.46875,0.5 1.15625,0.5 0.46875,0 0.78125,-0.25 0.32813,-0.26562 0.5,-0.84375 z m 0.10938,-2.03125 q -0.0156,-0.875 -0.45313,-1.32812 -0.42187,-0.45313 -1.03125,-0.45313 -0.67187,0 -1.09375,0.48438 -0.42187,0.46875 -0.42187,1.29687 z m 3.44796,4.95313 2.29688,0.28125 q 0.0625,0.40625 0.26562,0.54687 0.29688,0.21875 0.90625,0.21875 0.78125,0 1.1875,-0.23437 0.26563,-0.15625 0.39063,-0.51563 0.0937,-0.25 0.0937,-0.92187 v -1.10938 q -0.89063,1.23438 -2.26563,1.23438 -1.53125,0 -2.4375,-1.29688 -0.70312,-1.01562 -0.70312,-2.54687 0,-1.90625 0.92187,-2.90625 0.92188,-1.01563 2.29688,-1.01563 1.40625,0 2.32812,1.23438 v -1.0625 h 1.87504 v 6.8125 q 0,1.34375 -0.21875,2 -0.21875,0.67187 -0.625,1.04687 -0.40625,0.39063 -1.07816,0.59375 -0.65625,0.21875 -1.6875,0.21875 -1.9375,0 -2.75,-0.65625 -0.79688,-0.65625 -0.79688,-1.67187 0,-0.10938 0,-0.25 z m 1.79688,-4.45313 q 0,1.20313 0.46875,1.76563 0.46875,0.5625 1.15625,0.5625 0.75,0 1.25,-0.57813 0.51562,-0.57812 0.51562,-1.70312 0,-1.1875 -0.5,-1.75 -0.48437,-0.57813 -1.21875,-0.57813 -0.73437,0 -1.20312,0.5625 -0.46875,0.5625 -0.46875,1.71875 z m 8.85889,-1.32812 -1.82813,-0.32813 q 0.29688,-1.10937 1.04688,-1.625 0.76562,-0.53125 2.23434,-0.53125 1.35938,0 2.01563,0.3125 0.65625,0.3125 0.92187,0.8125 0.26563,0.48438 0.26563,1.79688 l -0.0156,2.34375 q 0,1 0.0937,1.48437 0.0937,0.46875 0.35938,1.01563 h -1.98438 q -0.0781,-0.20313 -0.20312,-0.59375 -0.0469,-0.17188 -0.0625,-0.23438 -0.51563,0.5 -1.10938,0.75 -0.57812,0.25 -1.24997,0.25 -1.17187,0 -1.85937,-0.64062 -0.67188,-0.64063 -0.67188,-1.60938 0,-0.64062 0.3125,-1.14062 0.3125,-0.51563 0.85938,-0.78125 0.5625,-0.26563 1.60934,-0.46875 1.40625,-0.26563 1.95313,-0.48438 v -0.20312 q 0,-0.57813 -0.29688,-0.82813 -0.28125,-0.25 -1.07812,-0.25 -0.53125,0 -0.84372,0.21875 -0.29688,0.20313 -0.46875,0.73438 z m 2.68747,1.625 q -0.39063,0.14062 -1.23438,0.32812 -0.82812,0.17188 -1.09372,0.34375 -0.39062,0.26563 -0.39062,0.70313 0,0.42187 0.3125,0.73437 0.31247,0.29688 0.81247,0.29688 0.53125,0 1.03125,-0.35938 0.35937,-0.26562 0.48437,-0.65625 0.0781,-0.26562 0.0781,-0.98437 z m 7.43237,-3.9375 v 1.59375 h -1.375 v 3.0625 q 0,0.9375 0.0312,1.09375 0.0469,0.14062 0.1875,0.25 0.14062,0.0937 0.34375,0.0937 0.28125,0 0.8125,-0.1875 l 0.17187,1.5625 q -0.70312,0.29687 -1.59375,0.29687 -0.54687,0 -0.98437,-0.17187 -0.42188,-0.1875 -0.64063,-0.46875 -0.20312,-0.29688 -0.28125,-0.79688 -0.0625,-0.35937 -0.0625,-1.42187 v -3.3125 h -0.92187 v -1.59375 h 0.92187 v -1.51563 l 2.01563,-1.17187 v 2.6875 z m 5.80255,5.17187 2,0.34375 q -0.375,1.09375 -1.21875,1.67188 -0.82812,0.57812 -2.07812,0.57812 -1.98438,0 -2.9375,-1.29687 -0.75,-1.03125 -0.75,-2.625 0,-1.875 0.98437,-2.9375 0.98438,-1.07813 2.5,-1.07813 1.6875,0 2.67188,1.125 0.98437,1.10938 0.9375,3.42188 h -5.03125 q 0.0156,0.89062 0.48437,1.39062 0.46875,0.5 1.15625,0.5 0.46875,0 0.78125,-0.25 0.32813,-0.26562 0.5,-0.84375 z m 0.10938,-2.03125 q -0.0156,-0.875 -0.45313,-1.32812 -0.42187,-0.45313 -1.03125,-0.45313 -0.67187,0 -1.09375,0.48438 -0.42187,0.46875 -0.42187,1.29687 z m 3.58856,2.4375 h 2.01562 v 1.4375 q 0,0.875 -0.15625,1.375 -0.14062,0.51563 -0.5625,0.90625 -0.42187,0.40625 -1.0625,0.64063 l -0.39062,-0.82813 q 0.60937,-0.20312 0.85937,-0.5625 0.25,-0.34375 0.26563,-0.95312 h -0.96875 z"
         fill-rule="nonzero"
         id="path126" />
      <path
         fill="#00aa73"
         d="M 400.82022,278.73618 V 268.2518 h 4.45312 q 1.6875,0 2.4375,0.28125 0.76563,0.28125 1.21875,1 0.46875,0.71875 0.46875,1.65625 0,1.17188 -0.70312,1.95313 -0.6875,0.76562 -2.0625,0.96875 0.6875,0.39062 1.125,0.875 0.45312,0.48437 1.20312,1.70312 l 1.28125,2.04688 h -2.53125 l -1.53125,-2.28125 q -0.8125,-1.21875 -1.10937,-1.53125 -0.29688,-0.32813 -0.64063,-0.4375 -0.34375,-0.125 -1.0625,-0.125 h -0.4375 v 4.375 z m 2.10937,-6.04688 h 1.57813 q 1.51562,0 1.89062,-0.125 0.39063,-0.14062 0.59375,-0.45312 0.21875,-0.3125 0.21875,-0.78125 0,-0.53125 -0.28125,-0.85938 -0.28125,-0.32812 -0.79687,-0.42187 -0.25,-0.0312 -1.54688,-0.0312 h -1.65625 z m 12.84989,3.625 2,0.34375 q -0.375,1.09375 -1.21875,1.67188 -0.82813,0.57812 -2.07813,0.57812 -1.98437,0 -2.9375,-1.29687 -0.75,-1.03125 -0.75,-2.625 0,-1.875 0.98438,-2.9375 0.98437,-1.07813 2.5,-1.07813 1.6875,0 2.67187,1.125 0.98438,1.10938 0.9375,3.42188 h -5.03125 q 0.0156,0.89062 0.48438,1.39062 0.46875,0.5 1.15625,0.5 0.46875,0 0.78125,-0.25 0.32812,-0.26562 0.5,-0.84375 z m 0.10937,-2.03125 q -0.0156,-0.875 -0.45312,-1.32812 -0.42188,-0.45313 -1.03125,-0.45313 -0.67188,0 -1.09375,0.48438 -0.42188,0.46875 -0.42188,1.29687 z m 10.60425,4.45313 h -1.85937 v -1.10938 q -0.46875,0.64063 -1.10938,0.96875 -0.625,0.3125 -1.26562,0.3125 -1.3125,0 -2.25,-1.04687 -0.9375,-1.0625 -0.9375,-2.95313 0,-1.9375 0.90625,-2.9375 0.92187,-1 2.3125,-1 1.26562,0 2.20312,1.04688 v -3.76563 h 2 z m -5.35937,-3.96875 q 0,1.21875 0.32812,1.76562 0.5,0.78125 1.35938,0.78125 0.70312,0 1.1875,-0.57812 0.48437,-0.59375 0.48437,-1.76563 0,-1.3125 -0.46875,-1.89062 -0.46875,-0.57813 -1.20312,-0.57813 -0.71875,0 -1.20313,0.57813 -0.48437,0.5625 -0.48437,1.6875 z m 12.34323,3.96875 v -1.14063 q -0.40625,0.60938 -1.09375,0.96875 -0.67188,0.34375 -1.42188,0.34375 -0.76562,0 -1.375,-0.32812 -0.60937,-0.34375 -0.875,-0.95313 -0.26562,-0.60937 -0.26562,-1.6875 v -4.79687 h 2 v 3.48437 q 0,1.60938 0.10937,1.96875 0.10938,0.35938 0.40625,0.57813 0.29688,0.20312 0.75,0.20312 0.51563,0 0.92188,-0.28125 0.40625,-0.28125 0.54687,-0.70312 0.15625,-0.42188 0.15625,-2.04688 v -3.20312 h 2.01563 v 7.59375 z m 10.57763,-5.35938 -1.96875,0.35938 q -0.10937,-0.59375 -0.46875,-0.89063 -0.34375,-0.29687 -0.90625,-0.29687 -0.75,0 -1.20312,0.51562 -0.45313,0.51563 -0.45313,1.73438 0,1.35937 0.45313,1.92187 0.45312,0.54688 1.21875,0.54688 0.57812,0 0.9375,-0.32813 0.375,-0.32812 0.51562,-1.10937 l 1.98438,0.32812 q -0.3125,1.35938 -1.1875,2.0625 -0.875,0.6875 -2.32813,0.6875 -1.67187,0 -2.67187,-1.04687 -0.98438,-1.0625 -0.98438,-2.92188 0,-1.875 0.98438,-2.92187 1,-1.04688 2.70312,-1.04688 1.39063,0 2.20313,0.59375 0.82812,0.59375 1.17187,1.8125 z m 5.93235,2.9375 2,0.34375 q -0.375,1.09375 -1.21875,1.67188 -0.82813,0.57812 -2.07813,0.57812 -1.98437,0 -2.9375,-1.29687 -0.75,-1.03125 -0.75,-2.625 0,-1.875 0.98438,-2.9375 0.98437,-1.07813 2.5,-1.07813 1.6875,0 2.67187,1.125 0.98438,1.10938 0.9375,3.42188 h -5.03125 q 0.0156,0.89062 0.48438,1.39062 0.46875,0.5 1.15625,0.5 0.46875,0 0.78125,-0.25 0.32812,-0.26562 0.5,-0.84375 z m 0.10937,-2.03125 q -0.0156,-0.875 -0.45312,-1.32812 -0.42188,-0.45313 -1.03125,-0.45313 -0.67188,0 -1.09375,0.48438 -0.42188,0.46875 -0.42188,1.29687 z m 3.58863,2.4375 h 2.01562 v 1.4375 q 0,0.875 -0.15625,1.375 -0.14062,0.51563 -0.5625,0.90625 -0.42187,0.40625 -1.0625,0.64063 l -0.39062,-0.82813 q 0.60937,-0.20312 0.85937,-0.5625 0.25,-0.34375 0.26563,-0.95312 h -0.96875 z m 10.56582,2.01563 v -8.71875 h -3.10937 v -1.76563 h 8.34375 v 1.76563 h -3.10938 v 8.71875 z m 7.70587,0 h -2.01562 v -7.59375 h 1.85937 v 1.07812 q 0.48438,-0.76562 0.85938,-1 0.39062,-0.25 0.875,-0.25 0.6875,0 1.32812,0.375 l -0.625,1.75 q -0.5,-0.32812 -0.9375,-0.32812 -0.42187,0 -0.71875,0.23437 -0.29687,0.23438 -0.46875,0.84375 -0.15625,0.60938 -0.15625,2.54688 z m 5.28174,-5.28125 -1.82812,-0.32813 q 0.29687,-1.10937 1.04687,-1.625 0.76563,-0.53125 2.23438,-0.53125 1.35937,0 2.01562,0.3125 0.65625,0.3125 0.92188,0.8125 0.26562,0.48438 0.26562,1.79688 l -0.0156,2.34375 q 0,1 0.0937,1.48437 0.0937,0.46875 0.35937,1.01563 h -1.98437 q -0.0781,-0.20313 -0.20313,-0.59375 -0.0469,-0.17188 -0.0625,-0.23438 -0.51562,0.5 -1.10937,0.75 -0.57813,0.25 -1.25,0.25 -1.17188,0 -1.85938,-0.64062 -0.67187,-0.64063 -0.67187,-1.60938 0,-0.64062 0.3125,-1.14062 0.3125,-0.51563 0.85937,-0.78125 0.5625,-0.26563 1.60938,-0.46875 1.40625,-0.26563 1.95312,-0.48438 v -0.20312 q 0,-0.57813 -0.29687,-0.82813 -0.28125,-0.25 -1.07813,-0.25 -0.53125,0 -0.84375,0.21875 -0.29687,0.20313 -0.46875,0.73438 z m 2.6875,1.625 q -0.39062,0.14062 -1.23437,0.32812 -0.82813,0.17188 -1.09375,0.34375 -0.39063,0.26563 -0.39063,0.70313 0,0.42187 0.3125,0.73437 0.3125,0.29688 0.8125,0.29688 0.53125,0 1.03125,-0.35938 0.35938,-0.26562 0.48438,-0.65625 0.0781,-0.26562 0.0781,-0.98437 z m 10.86987,3.65625 h -2.01562 v -3.875 q 0,-1.23438 -0.125,-1.59375 -0.125,-0.35938 -0.42188,-0.5625 -0.29687,-0.20313 -0.70312,-0.20313 -0.51563,0 -0.9375,0.29688 -0.40625,0.28125 -0.5625,0.75 -0.15625,0.46875 -0.15625,1.75 v 3.4375 h -2.01563 v -7.59375 h 1.875 v 1.10937 q 1,-1.28125 2.5,-1.28125 0.67188,0 1.21875,0.23438 0.54688,0.23437 0.82813,0.60937 0.29687,0.375 0.40625,0.84375 0.10937,0.46875 0.10937,1.35938 z m 1.32761,-2.17188 2.01563,-0.29687 q 0.125,0.57812 0.51562,0.89062 0.40625,0.29688 1.10938,0.29688 0.78125,0 1.17187,-0.28125 0.26563,-0.20313 0.26563,-0.54688 0,-0.21875 -0.14063,-0.375 -0.15625,-0.14062 -0.67187,-0.26562 -2.4375,-0.53125 -3.07813,-0.98438 -0.90625,-0.60937 -0.90625,-1.70312 0,-0.98438 0.78125,-1.65625 0.78125,-0.67188 2.42188,-0.67188 1.54687,0 2.3125,0.51563 0.76562,0.5 1.04687,1.48437 l -1.90625,0.35938 q -0.10937,-0.45313 -0.45312,-0.6875 -0.34375,-0.23438 -0.96875,-0.23438 -0.79688,0 -1.14063,0.21875 -0.23437,0.15625 -0.23437,0.40625 0,0.21875 0.20312,0.375 0.28125,0.20313 1.875,0.5625 1.60938,0.35938 2.25,0.89063 0.625,0.54687 0.625,1.5 0,1.04687 -0.875,1.79687 -0.85937,0.75 -2.57812,0.75 -1.54688,0 -2.45313,-0.625 -0.90625,-0.64062 -1.1875,-1.71875 z m 7.97925,-5.42187 h 1.10937 v -0.57813 q 0,-0.95312 0.20313,-1.42187 0.21875,-0.48438 0.76562,-0.78125 0.54688,-0.29688 1.375,-0.29688 0.85938,0 1.6875,0.26563 l -0.28125,1.39062 q -0.46875,-0.10937 -0.92187,-0.10937 -0.4375,0 -0.625,0.20312 -0.1875,0.20313 -0.1875,0.78125 v 0.54688 h 1.5 v 1.57812 h -1.5 v 6.01563 h -2.01563 v -6.01563 h -1.10937 z m 5.30252,3.6875 q 0,-1 0.48437,-1.9375 0.5,-0.9375 1.40625,-1.42188 0.90625,-0.5 2.01563,-0.5 1.71875,0 2.82809,1.125 1.10938,1.10938 1.10938,2.8125 0,1.73438 -1.125,2.875 -1.10935,1.125 -2.79685,1.125 -1.04687,0 -2,-0.46875 -0.9375,-0.46875 -1.4375,-1.375 -0.48437,-0.92187 -0.48437,-2.23437 z m 2.04687,0.10937 q 0,1.125 0.53125,1.73438 0.54688,0.59375 1.34375,0.59375 0.78125,0 1.3125,-0.59375 0.53125,-0.60938 0.53125,-1.75 0,-1.125 -0.53125,-1.71875 -0.53125,-0.60938 -1.3125,-0.60938 -0.79687,0 -1.34375,0.60938 -0.53125,0.59375 -0.53125,1.73437 z m 9.29636,3.79688 h -2.01562 v -7.59375 h 1.85937 v 1.07812 q 0.48438,-0.76562 0.85938,-1 0.39062,-0.25 0.875,-0.25 0.6875,0 1.32812,0.375 l -0.625,1.75 q -0.5,-0.32812 -0.9375,-0.32812 -0.42187,0 -0.71875,0.23437 -0.29687,0.23438 -0.46875,0.84375 -0.15625,0.60938 -0.15625,2.54688 z m 3.62549,-7.59375 h 1.84375 v 1.03125 q 1,-1.20313 2.375,-1.20313 0.73437,0 1.26562,0.29688 0.53125,0.29687 0.875,0.90625 0.5,-0.60938 1.07813,-0.90625 0.59375,-0.29688 1.25,-0.29688 0.82812,0 1.40625,0.34375 0.59375,0.32813 0.875,0.98438 0.20312,0.48437 0.20312,1.57812 v 4.85938 h -2.01562 v -4.34375 q 0,-1.125 -0.20313,-1.45313 -0.28125,-0.4375 -0.85937,-0.4375 -0.42188,0 -0.79688,0.26563 -0.35937,0.25 -0.53125,0.75 -0.17187,0.5 -0.17187,1.5625 v 3.65625 h -2 v -4.17188 q 0,-1.10937 -0.10938,-1.42187 -0.10937,-0.32813 -0.34375,-0.48438 -0.21875,-0.15625 -0.60937,-0.15625 -0.45313,0 -0.82813,0.25 -0.375,0.25 -0.54687,0.73438 -0.15625,0.46875 -0.15625,1.5625 v 3.6875 h -2 z"
         fill-rule="nonzero"
         id="path128" />
      <path
         fill="#000000"
         fill-opacity="0"
         d="m 184.9029,246.07349 h 110.48819 v 37.16534 H 184.9029 Z"
         fill-rule="evenodd"
         id="path130" />
      <path
         fill="#000000"
         d="m 205.32219,269.1535 v -10.48438 h 2.125 v 10.48438 z m 11.04073,0 h -2.01563 v -3.875 q 0,-1.23438 -0.125,-1.59375 -0.125,-0.35938 -0.42187,-0.5625 -0.29688,-0.20313 -0.70313,-0.20313 -0.51562,0 -0.9375,0.29688 -0.40625,0.28125 -0.5625,0.75 -0.15625,0.46875 -0.15625,1.75 v 3.4375 h -2.01562 v -7.59375 h 1.875 v 1.10937 q 1,-1.28125 2.5,-1.28125 0.67187,0 1.21875,0.23438 0.54687,0.23437 0.82812,0.60937 0.29688,0.375 0.40625,0.84375 0.10938,0.46875 0.10938,1.35938 z m 1.98387,-7.59375 h 1.875 v 1.10937 q 0.35937,-0.57812 0.98437,-0.92187 0.625,-0.35938 1.375,-0.35938 1.32813,0 2.25,1.03125 0.92188,1.03125 0.92188,2.89063 0,1.90625 -0.9375,2.96875 -0.92188,1.04687 -2.25,1.04687 -0.625,0 -1.14063,-0.25 -0.5,-0.25 -1.07812,-0.85937 v 3.82812 h -2 z m 1.98437,3.67187 q 0,1.28125 0.5,1.89063 0.51563,0.60937 1.25,0.60937 0.70313,0 1.15625,-0.5625 0.46875,-0.5625 0.46875,-1.84375 0,-1.20312 -0.48437,-1.78125 -0.46875,-0.57812 -1.1875,-0.57812 -0.73438,0 -1.21875,0.57812 -0.48438,0.5625 -0.48438,1.6875 z m 12.01512,3.92188 v -1.14063 q -0.40625,0.60938 -1.09375,0.96875 -0.67187,0.34375 -1.42187,0.34375 -0.76563,0 -1.375,-0.32812 -0.60938,-0.34375 -0.875,-0.95313 -0.26563,-0.60937 -0.26563,-1.6875 v -4.79687 h 2 v 3.48437 q 0,1.60938 0.10938,1.96875 0.10937,0.35938 0.40625,0.57813 0.29687,0.20312 0.75,0.20312 0.51562,0 0.92187,-0.28125 0.40625,-0.28125 0.54688,-0.70312 0.15625,-0.42188 0.15625,-2.04688 v -3.20312 h 2.01562 v 7.59375 z m 7.437,-7.59375 v 1.59375 h -1.375 v 3.0625 q 0,0.9375 0.0312,1.09375 0.0469,0.14062 0.1875,0.25 0.14062,0.0937 0.34375,0.0937 0.28125,0 0.8125,-0.1875 l 0.17187,1.5625 q -0.70312,0.29687 -1.59375,0.29687 -0.54687,0 -0.98437,-0.17187 -0.42188,-0.1875 -0.64063,-0.46875 -0.20312,-0.29688 -0.28125,-0.79688 -0.0625,-0.35937 -0.0625,-1.42187 v -3.3125 h -0.92187 v -1.59375 h 0.92187 v -1.51563 l 2.01563,-1.17187 v 2.6875 z m 5.48387,-2.89063 h 3.875 q 1.29688,0 1.98438,0.1875 0.92187,0.28125 1.57812,0.98438 0.67188,0.6875 1.01563,1.6875 0.34375,1 0.34375,2.48437 0,1.29688 -0.32813,2.23438 -0.39062,1.14062 -1.125,1.84375 -0.54687,0.54687 -1.48437,0.84375 -0.70313,0.21875 -1.875,0.21875 h -3.98438 z m 2.10938,1.76563 v 6.95312 h 1.59375 q 0.875,0 1.28125,-0.10937 0.51562,-0.125 0.84375,-0.42188 0.34375,-0.3125 0.5625,-1.01562 0.21875,-0.70313 0.21875,-1.92188 0,-1.21875 -0.21875,-1.85937 -0.21875,-0.65625 -0.60938,-1.01563 -0.375,-0.375 -0.96875,-0.5 -0.45312,-0.10937 -1.75,-0.10937 z m 9.97488,3.4375 -1.82811,-0.32813 q 0.29688,-1.10937 1.04686,-1.625 0.76563,-0.53125 2.23438,-0.53125 1.35937,0 2.01562,0.3125 0.65625,0.3125 0.92188,0.8125 0.26562,0.48438 0.26562,1.79688 l -0.0156,2.34375 q 0,1 0.0937,1.48437 0.0937,0.46875 0.35937,1.01563 h -1.98437 q -0.0781,-0.20313 -0.20313,-0.59375 -0.0469,-0.17188 -0.0625,-0.23438 -0.51562,0.5 -1.10937,0.75 -0.57813,0.25 -1.25,0.25 -1.17188,0 -1.85936,-0.64062 -0.67188,-0.64063 -0.67188,-1.60938 0,-0.64062 0.3125,-1.14062 0.3125,-0.51563 0.85936,-0.78125 0.5625,-0.26563 1.60938,-0.46875 1.40625,-0.26563 1.95312,-0.48438 v -0.20312 q 0,-0.57813 -0.29687,-0.82813 -0.28125,-0.25 -1.07813,-0.25 -0.53125,0 -0.84375,0.21875 -0.29687,0.20313 -0.46875,0.73438 z m 2.6875,1.625 q -0.39062,0.14062 -1.23437,0.32812 -0.82813,0.17188 -1.09375,0.34375 -0.39063,0.26563 -0.39063,0.70313 0,0.42187 0.3125,0.73437 0.3125,0.29688 0.8125,0.29688 0.53125,0 1.03125,-0.35938 0.35938,-0.26562 0.48438,-0.65625 0.0781,-0.26562 0.0781,-0.98437 z m 7.43237,-3.9375 v 1.59375 h -1.375 v 3.0625 q 0,0.9375 0.0312,1.09375 0.0469,0.14062 0.1875,0.25 0.14063,0.0937 0.34375,0.0937 0.28125,0 0.8125,-0.1875 l 0.17188,1.5625 q -0.70313,0.29687 -1.59375,0.29687 -0.54688,0 -0.98438,-0.17187 -0.42187,-0.1875 -0.64062,-0.46875 -0.20313,-0.29688 -0.28125,-0.79688 -0.0625,-0.35937 -0.0625,-1.42187 v -3.3125 h -0.92188 v -1.59375 h 0.92188 v -1.51563 l 2.01562,-1.17187 v 2.6875 z m 2.9119,2.3125 -1.82813,-0.32813 q 0.29688,-1.10937 1.04688,-1.625 0.76562,-0.53125 2.23437,-0.53125 1.35938,0 2.01563,0.3125 0.65625,0.3125 0.92187,0.8125 0.26563,0.48438 0.26563,1.79688 l -0.0156,2.34375 q 0,1 0.0937,1.48437 0.0937,0.46875 0.35938,1.01563 h -1.98438 q -0.0781,-0.20313 -0.20312,-0.59375 -0.0469,-0.17188 -0.0625,-0.23438 -0.51563,0.5 -1.10938,0.75 -0.57812,0.25 -1.25,0.25 -1.17187,0 -1.85937,-0.64062 -0.67188,-0.64063 -0.67188,-1.60938 0,-0.64062 0.3125,-1.14062 0.3125,-0.51563 0.85938,-0.78125 0.5625,-0.26563 1.60937,-0.46875 1.40625,-0.26563 1.95313,-0.48438 v -0.20312 q 0,-0.57813 -0.29688,-0.82813 -0.28125,-0.25 -1.07812,-0.25 -0.53125,0 -0.84375,0.21875 -0.29688,0.20313 -0.46875,0.73438 z m 2.6875,1.625 q -0.39063,0.14062 -1.23438,0.32812 -0.82812,0.17188 -1.09375,0.34375 -0.39062,0.26563 -0.39062,0.70313 0,0.42187 0.3125,0.73437 0.3125,0.29688 0.8125,0.29688 0.53125,0 1.03125,-0.35938 0.35937,-0.26562 0.48437,-0.65625 0.0781,-0.26562 0.0781,-0.98437 z"
         fill-rule="nonzero"
         id="path132" />
      <path
         fill="#000000"
         fill-opacity="0"
         d="m 632.4409,246.07349 h 110.48822 v 37.16534 H 632.4409 Z"
         fill-rule="evenodd"
         id="path134" />
      <path
         fill="#000000"
         d="m 653.3356,269.1535 v -10.48438 h 7.1875 v 1.76563 h -5.0625 v 2.48437 h 4.375 v 1.78125 h -4.375 v 4.45313 z m 13.32758,-2.42188 2,0.34375 q -0.375,1.09375 -1.21875,1.67188 -0.82813,0.57812 -2.07813,0.57812 -1.98437,0 -2.9375,-1.29687 -0.75,-1.03125 -0.75,-2.625 0,-1.875 0.98438,-2.9375 0.98437,-1.07813 2.5,-1.07813 1.6875,0 2.67187,1.125 0.98438,1.10938 0.9375,3.42188 h -5.03125 q 0.0156,0.89062 0.48438,1.39062 0.46875,0.5 1.15625,0.5 0.46875,0 0.78125,-0.25 0.32812,-0.26562 0.5,-0.84375 z m 0.10937,-2.03125 q -0.0156,-0.875 -0.45312,-1.32812 -0.42188,-0.45313 -1.03125,-0.45313 -0.67188,0 -1.09375,0.48438 -0.42188,0.46875 -0.42188,1.29687 z m 5.15112,-0.82812 -1.82812,-0.32813 q 0.29687,-1.10937 1.04687,-1.625 0.76563,-0.53125 2.23438,-0.53125 1.35937,0 2.01562,0.3125 0.65625,0.3125 0.92188,0.8125 0.26562,0.48438 0.26562,1.79688 l -0.0156,2.34375 q 0,1 0.0937,1.48437 0.0937,0.46875 0.35937,1.01563 h -1.98437 q -0.0781,-0.20313 -0.20313,-0.59375 -0.0469,-0.17188 -0.0625,-0.23438 -0.51562,0.5 -1.10937,0.75 -0.57813,0.25 -1.25,0.25 -1.17188,0 -1.85938,-0.64062 -0.67187,-0.64063 -0.67187,-1.60938 0,-0.64062 0.3125,-1.14062 0.3125,-0.51563 0.85937,-0.78125 0.5625,-0.26563 1.60938,-0.46875 1.40625,-0.26563 1.95312,-0.48438 v -0.20312 q 0,-0.57813 -0.29687,-0.82813 -0.28125,-0.25 -1.07813,-0.25 -0.53125,0 -0.84375,0.21875 -0.29687,0.20313 -0.46875,0.73438 z m 2.6875,1.625 q -0.39062,0.14062 -1.23437,0.32812 -0.82813,0.17188 -1.09375,0.34375 -0.39063,0.26563 -0.39063,0.70313 0,0.42187 0.3125,0.73437 0.3125,0.29688 0.8125,0.29688 0.53125,0 1.03125,-0.35938 0.35938,-0.26562 0.48438,-0.65625 0.0781,-0.26562 0.0781,-0.98437 z m 7.43238,-3.9375 v 1.59375 h -1.375 v 3.0625 q 0,0.9375 0.0312,1.09375 0.0469,0.14062 0.1875,0.25 0.14062,0.0937 0.34375,0.0937 0.28125,0 0.8125,-0.1875 l 0.17187,1.5625 q -0.70312,0.29687 -1.59375,0.29687 -0.54687,0 -0.98437,-0.17187 -0.42188,-0.1875 -0.64063,-0.46875 -0.20312,-0.29688 -0.28125,-0.79688 -0.0625,-0.35937 -0.0625,-1.42187 v -3.3125 H 677.731 v -1.59375 h 0.92187 v -1.51563 l 2.01563,-1.17187 v 2.6875 z m 6.39624,7.59375 v -1.14063 q -0.40625,0.60938 -1.09375,0.96875 -0.67188,0.34375 -1.42188,0.34375 -0.76562,0 -1.375,-0.32812 -0.60937,-0.34375 -0.875,-0.95313 -0.26562,-0.60937 -0.26562,-1.6875 v -4.79687 h 2 v 3.48437 q 0,1.60938 0.10937,1.96875 0.10938,0.35938 0.40625,0.57813 0.29688,0.20312 0.75,0.20312 0.51563,0 0.92188,-0.28125 0.40625,-0.28125 0.54687,-0.70312 0.15625,-0.42188 0.15625,-2.04688 v -3.20312 h 2.01563 v 7.59375 z m 5.89013,0 h -2.01562 v -7.59375 h 1.85937 v 1.07812 q 0.48438,-0.76562 0.85938,-1 0.39062,-0.25 0.875,-0.25 0.6875,0 1.32812,0.375 l -0.625,1.75 q -0.5,-0.32812 -0.9375,-0.32812 -0.42187,0 -0.71875,0.23437 -0.29687,0.23438 -0.46875,0.84375 -0.15625,0.60938 -0.15625,2.54688 z m 8.17237,-2.42188 2,0.34375 q -0.375,1.09375 -1.21875,1.67188 -0.82813,0.57812 -2.07813,0.57812 -1.98437,0 -2.9375,-1.29687 -0.75,-1.03125 -0.75,-2.625 0,-1.875 0.98438,-2.9375 0.98437,-1.07813 2.5,-1.07813 1.6875,0 2.67187,1.125 0.98438,1.10938 0.9375,3.42188 h -5.03125 q 0.0156,0.89062 0.48438,1.39062 0.46875,0.5 1.15625,0.5 0.46875,0 0.78125,-0.25 0.32812,-0.26562 0.5,-0.84375 z m 0.10937,-2.03125 q -0.0156,-0.875 -0.45312,-1.32812 -0.42188,-0.45313 -1.03125,-0.45313 -0.67188,0 -1.09375,0.48438 -0.42188,0.46875 -0.42188,1.29687 z m 6.97925,7.53125 h -1.39063 q -1.09375,-1.64062 -1.67187,-3.42187 -0.5625,-1.78125 -0.5625,-3.45313 0,-2.07812 0.70312,-3.92187 0.625,-1.59375 1.5625,-2.95313 h 1.375 q -0.98437,2.17188 -1.35937,3.70313 -0.35938,1.51562 -0.35938,3.21875 0,1.17187 0.21875,2.40625 0.21875,1.21875 0.59375,2.32812 0.25,0.73438 0.89063,2.09375 z m 0.8338,-5.25 2.01563,-0.29687 q 0.125,0.57812 0.51562,0.89062 0.40625,0.29688 1.10938,0.29688 0.78125,0 1.17187,-0.28125 0.26563,-0.20313 0.26563,-0.54688 0,-0.21875 -0.14063,-0.375 -0.15625,-0.14062 -0.67187,-0.26562 -2.4375,-0.53125 -3.07813,-0.98438 -0.90625,-0.60937 -0.90625,-1.70312 0,-0.98438 0.78125,-1.65625 0.78125,-0.67188 2.42188,-0.67188 1.54687,0 2.3125,0.51563 0.76562,0.5 1.04687,1.48437 l -1.90625,0.35938 q -0.10937,-0.45313 -0.45312,-0.6875 -0.34375,-0.23438 -0.96875,-0.23438 -0.79688,0 -1.14063,0.21875 -0.23437,0.15625 -0.23437,0.40625 0,0.21875 0.20312,0.375 0.28125,0.20313 1.875,0.5625 1.60938,0.35938 2.25,0.89063 0.625,0.54687 0.625,1.5 0,1.04687 -0.875,1.79687 -0.85937,0.75 -2.57812,0.75 -1.54688,0 -2.45313,-0.625 -0.90625,-0.64062 -1.1875,-1.71875 z m 8.30731,5.25 q 0.59375,-1.26562 0.82813,-1.95312 0.25,-0.67188 0.45312,-1.5625 0.20313,-0.89063 0.29688,-1.6875 0.10937,-0.79688 0.10937,-1.625 0,-1.70313 -0.375,-3.21875 -0.35937,-1.53125 -1.32812,-3.70313 h 1.35937 q 1.07813,1.54688 1.67188,3.26563 0.60937,1.71875 0.60937,3.5 0,1.5 -0.46875,3.20312 -0.54687,1.92188 -1.78125,3.78125 z"
         fill-rule="nonzero"
         id="path136" />
      <path
         fill="#000000"
         fill-opacity="0"
         d="m 554.6877,264.65616 c 19.43823,0 29.15594,0.0158 38.8764,0.0315 9.72052,0.0157 19.44367,0.0315 38.88733,0.0315"
         fill-rule="evenodd"
         id="path138" />
      <path
         stroke="#000000"
         stroke-width="1"
         stroke-linejoin="round"
         stroke-linecap="butt"
         d="m 554.6877,264.65616 c 19.43823,0 29.15594,0.0158 38.8764,0.0315 4.86023,0.008 9.72119,0.0157 15.79749,0.0217 3.03815,0.003 6.38019,0.005 10.17785,0.007 l 9.48493,0.002"
         fill-rule="evenodd"
         id="path140" />
      <path
         fill="#000000"
         stroke="#000000"
         stroke-width="1"
         stroke-linecap="butt"
         d="m 629.02435,264.71844 -1.12482,1.12436 3.09003,-1.12396 -3.08954,-1.12522 z"
         fill-rule="evenodd"
         id="path142" />
      <path
         fill="#000000"
         fill-opacity="0"
         d="m 393.63647,194.75066 h 140.62994 v 38.77165 H 393.63647 Z"
         fill-rule="evenodd"
         id="path144" />
      <path
         fill="#000000"
         d="m 403.37085,219.11066 2.39063,-11.45313 h 7.4375 l -0.26563,1.29688 h -5.92187 l -0.75,3.65625 h 6.01562 l -0.26562,1.29687 h -6.03125 l -1.07813,5.20313 z m 15.66406,-2.82813 1.375,0.14063 q -0.29687,1.03125 -1.35937,1.95312 -1.0625,0.92188 -2.54688,0.92188 -0.92187,0 -1.6875,-0.42188 -0.76562,-0.4375 -1.17187,-1.25 -0.40625,-0.8125 -0.40625,-1.84375 0,-1.35937 0.625,-2.64062 0.64062,-1.28125 1.64062,-1.89063 1,-0.625 2.15625,-0.625 1.48438,0 2.375,0.92188 0.89063,0.92187 0.89063,2.51562 0,0.60938 -0.10938,1.25 h -6.10937 q -0.0312,0.23438 -0.0312,0.4375 0,1.15625 0.53125,1.78125 0.53125,0.60938 1.3125,0.60938 0.71875,0 1.42187,-0.46875 0.70313,-0.48438 1.09375,-1.39063 z m -4.10937,-2.04687 h 4.65625 q 0.0156,-0.21875 0.0156,-0.3125 0,-1.0625 -0.53125,-1.625 -0.53125,-0.57813 -1.375,-0.57813 -0.90625,0 -1.65625,0.625 -0.73437,0.625 -1.10937,1.89063 z m 12.50781,3.84375 q -0.73437,0.625 -1.42187,0.92187 -0.67188,0.29688 -1.4375,0.29688 -1.15625,0 -1.85938,-0.67188 -0.70312,-0.6875 -0.70312,-1.73437 0,-0.70313 0.3125,-1.23438 0.32812,-0.53125 0.84375,-0.85937 0.53125,-0.32813 1.28125,-0.46875 0.48437,-0.0937 1.8125,-0.14063 1.32812,-0.0625 1.90625,-0.28125 0.17187,-0.57812 0.17187,-0.96875 0,-0.48437 -0.35937,-0.76562 -0.5,-0.39063 -1.4375,-0.39063 -0.89063,0 -1.46875,0.39063 -0.5625,0.39062 -0.8125,1.125 l -1.4375,-0.125 q 0.4375,-1.23438 1.39062,-1.89063 0.95313,-0.65625 2.39063,-0.65625 1.54687,0 2.4375,0.73438 0.6875,0.54687 0.6875,1.42187 0,0.65625 -0.1875,1.53125 l -0.46875,2.0625 q -0.21875,0.98438 -0.21875,1.60938 0,0.39062 0.17187,1.125 h -1.42187 q -0.125,-0.40625 -0.17188,-1.03125 z m 0.53125,-3.17188 q -0.29687,0.10938 -0.64062,0.17188 -0.34375,0.0625 -1.14063,0.14062 -1.23437,0.10938 -1.75,0.28125 -0.5,0.15625 -0.76562,0.53125 -0.25,0.35938 -0.25,0.8125 0,0.59375 0.40625,0.98438 0.42187,0.375 1.17187,0.375 0.70313,0 1.34375,-0.375 0.65625,-0.375 1.03125,-1.03125 0.375,-0.67188 0.59375,-1.89063 z m 6.08594,3.04688 -0.23438,1.17187 q -0.51562,0.125 -0.98437,0.125 -0.84375,0 -1.34375,-0.42187 -0.375,-0.3125 -0.375,-0.84375 0,-0.28125 0.20312,-1.26563 l 1,-4.8125 h -1.10937 l 0.21875,-1.09375 h 1.125 l 0.42187,-2.04687 1.625,-0.96875 -0.64062,3.01562 h 1.39062 l -0.23437,1.09375 h -1.375 l -0.96875,4.57813 q -0.17188,0.875 -0.17188,1.04687 0,0.25 0.14063,0.39063 0.14062,0.125 0.46875,0.125 0.46875,0 0.84375,-0.0937 z m 6.80469,-0.34375 q -1.5,1.6875 -3.0625,1.6875 -0.95313,0 -1.54688,-0.54688 -0.59375,-0.5625 -0.59375,-1.35937 0,-0.51563 0.26563,-1.79688 l 1,-4.78125 h 1.42187 l -1.10937,5.29688 q -0.14063,0.67187 -0.14063,1.03125 0,0.46875 0.28125,0.73437 0.28125,0.26563 0.84375,0.26563 0.59375,0 1.15625,-0.28125 0.5625,-0.29688 0.96875,-0.78125 0.42188,-0.5 0.67188,-1.17188 0.17187,-0.4375 0.40625,-1.51562 l 0.75,-3.57813 h 1.40625 l -1.73438,8.29688 h -1.29687 z m 3.22656,1.5 1.73437,-8.29688 h 1.25 l -0.34375,1.6875 q 0.64063,-0.95312 1.25,-1.40625 0.60938,-0.46875 1.25,-0.46875 0.42188,0 1.04688,0.29688 l -0.57813,1.3125 q -0.375,-0.26563 -0.8125,-0.26563 -0.73437,0 -1.51562,0.82813 -0.78125,0.82812 -1.23438,2.98437 l -0.70312,3.32813 z m 11.42187,-2.82813 1.375,0.14063 q -0.29687,1.03125 -1.35937,1.95312 -1.0625,0.92188 -2.54688,0.92188 -0.92187,0 -1.6875,-0.42188 -0.76562,-0.4375 -1.17187,-1.25 -0.40625,-0.8125 -0.40625,-1.84375 0,-1.35937 0.625,-2.64062 0.64062,-1.28125 1.64062,-1.89063 1,-0.625 2.15625,-0.625 1.48438,0 2.375,0.92188 0.89063,0.92187 0.89063,2.51562 0,0.60938 -0.10938,1.25 h -6.10937 q -0.0312,0.23438 -0.0312,0.4375 0,1.15625 0.53125,1.78125 0.53125,0.60938 1.3125,0.60938 0.71875,0 1.42187,-0.46875 0.70313,-0.48438 1.09375,-1.39063 z m -4.10937,-2.04687 h 4.65625 q 0.0156,-0.21875 0.0156,-0.3125 0,-1.0625 -0.53125,-1.625 -0.53125,-0.57813 -1.375,-0.57813 -0.90625,0 -1.65625,0.625 -0.73437,0.625 -1.10937,1.89063 z m 11.51562,4.875 2.40625,-11.45313 h 4.78125 q 1.23438,0 1.85938,0.28125 0.625,0.28125 1.03125,0.98438 0.40625,0.6875 0.40625,1.54687 0,0.70313 -0.29688,1.4375 -0.28125,0.73438 -0.73437,1.21875 -0.4375,0.46875 -0.89063,0.71875 -0.45312,0.23438 -0.96875,0.35938 -1.09375,0.25 -2.21875,0.25 h -2.875 l -0.96875,4.65625 z m 2.78125,-5.95313 h 2.51563 q 1.46875,0 2.15625,-0.3125 0.6875,-0.3125 1.09375,-0.95312 0.42187,-0.65625 0.42187,-1.39063 0,-0.5625 -0.21875,-0.90625 -0.21875,-0.35937 -0.625,-0.53125 -0.39062,-0.17187 -1.51562,-0.17187 h -2.9375 z m 9.75,-3.90625 0.32813,-1.59375 h 1.40625 l -0.32813,1.59375 z m -2.0625,9.85938 1.73438,-8.29688 h 1.40625 l -1.73438,8.29688 z m 2.89844,3.1875 2.40625,-11.48438 h 1.3125 l -0.25,1.15625 q 0.73438,-0.76562 1.29688,-1.04687 0.57812,-0.29688 1.21875,-0.29688 1.1875,0 1.96875,0.85938 0.78125,0.85937 0.78125,2.46875 0,1.29687 -0.4375,2.375 -0.42188,1.0625 -1.04688,1.71875 -0.625,0.64062 -1.26562,0.95312 -0.64063,0.29688 -1.3125,0.29688 -1.48438,0 -2.3125,-1.51563 l -0.9375,4.51563 z m 2.8125,-6.57813 q 0,0.92188 0.125,1.28125 0.20313,0.51563 0.64063,0.82813 0.45312,0.3125 1.03125,0.3125 1.21875,0 1.96875,-1.375 0.75,-1.375 0.75,-2.79688 0,-1.0625 -0.5,-1.625 -0.5,-0.57812 -1.25,-0.57812 -0.54688,0 -1.01563,0.28125 -0.45312,0.28125 -0.84375,0.85937 -0.39062,0.5625 -0.65625,1.39063 -0.25,0.8125 -0.25,1.42187 z m 12.88281,0.5625 1.375,0.14063 q -0.29687,1.03125 -1.35937,1.95312 -1.0625,0.92188 -2.54688,0.92188 -0.92187,0 -1.6875,-0.42188 -0.76562,-0.4375 -1.17187,-1.25 -0.40625,-0.8125 -0.40625,-1.84375 0,-1.35937 0.625,-2.64062 0.64062,-1.28125 1.64062,-1.89063 1,-0.625 2.15625,-0.625 1.48438,0 2.375,0.92188 0.89063,0.92187 0.89063,2.51562 0,0.60938 -0.10938,1.25 h -6.10937 q -0.0312,0.23438 -0.0312,0.4375 0,1.15625 0.53125,1.78125 0.53125,0.60938 1.3125,0.60938 0.71875,0 1.42187,-0.46875 0.70313,-0.48438 1.09375,-1.39063 z m -4.10937,-2.04687 h 4.65625 q 0.0156,-0.21875 0.0156,-0.3125 0,-1.0625 -0.53125,-1.625 -0.53125,-0.57813 -1.375,-0.57813 -0.90625,0 -1.65625,0.625 -0.73437,0.625 -1.10937,1.89063 z m 6.80469,4.875 2.39062,-11.45313 h 1.42188 l -2.39063,11.45313 z m 5.67968,-9.85938 0.32813,-1.59375 h 1.40625 l -0.32813,1.59375 z m -2.0625,9.85938 1.73438,-8.29688 h 1.40625 l -1.73438,8.29688 z m 3.60157,0 1.73437,-8.29688 h 1.28125 l -0.29687,1.4375 q 0.82812,-0.84375 1.54687,-1.23437 0.73438,-0.39063 1.5,-0.39063 1,0 1.57813,0.54688 0.57812,0.54687 0.57812,1.45312 0,0.46875 -0.20312,1.45313 l -1.0625,5.03125 h -1.40625 l 1.09375,-5.26563 q 0.17187,-0.76562 0.17187,-1.125 0,-0.42187 -0.29687,-0.67187 -0.28125,-0.26563 -0.8125,-0.26563 -1.09375,0 -1.9375,0.78125 -0.84375,0.78125 -1.25,2.6875 l -0.79688,3.85938 z m 14.99218,-2.82813 1.375,0.14063 q -0.29687,1.03125 -1.35937,1.95312 -1.0625,0.92188 -2.54688,0.92188 -0.92187,0 -1.6875,-0.42188 -0.76562,-0.4375 -1.17187,-1.25 -0.40625,-0.8125 -0.40625,-1.84375 0,-1.35937 0.625,-2.64062 0.64062,-1.28125 1.64062,-1.89063 1,-0.625 2.15625,-0.625 1.48438,0 2.375,0.92188 0.89063,0.92187 0.89063,2.51562 0,0.60938 -0.10938,1.25 h -6.10937 q -0.0312,0.23438 -0.0312,0.4375 0,1.15625 0.53125,1.78125 0.53125,0.60938 1.3125,0.60938 0.71875,0 1.42187,-0.46875 0.70313,-0.48438 1.09375,-1.39063 z m -4.10937,-2.04687 h 4.65625 q 0.0156,-0.21875 0.0156,-0.3125 0,-1.0625 -0.53125,-1.625 -0.53125,-0.57813 -1.375,-0.57813 -0.90625,0 -1.65625,0.625 -0.73437,0.625 -1.10937,1.89063 z"
         fill-rule="nonzero"
         id="path146" />
    </g>
  </g>
</svg>
