<svg id="Layer_1" data-name="Layer 1" xmlns="http://www.w3.org/2000/svg" viewBox="0 0 309.96 47.86"><defs><style>.cls-1{fill:#1cb182;}.cls-2{fill:#252829;}</style></defs><path class="cls-1" d="M23.55,55.2a11.93,11.93,0,0,1-3.49,1.2,15.86,15.86,0,0,1-2.92.18,26.91,26.91,0,0,1-3.1-.32.65.65,0,0,1-.21-.07l-.06,0,0,0a.86.86,0,0,1-.07-.21,27.07,27.07,0,0,1-.31-3.11,15.08,15.08,0,0,1,.18-2.92,11.59,11.59,0,0,1,1.2-3.48c.08-.15.18-.22.31-.17a14.61,14.61,0,0,0,4,0,10.11,10.11,0,0,0,3.17-.87,2.52,2.52,0,0,1,.16.75,1.74,1.74,0,0,0,.4,1,1.7,1.7,0,0,0,1,.4,3.56,3.56,0,0,1,.76.16,10.17,10.17,0,0,0-.87,3.18,15,15,0,0,0,0,4C23.76,55,23.7,55.12,23.55,55.2Z" transform="translate(-12.08 -9.99)"/><path class="cls-1" d="M13.73,56.1l0,0" transform="translate(-12.08 -9.99)"/><path class="cls-1" d="M25.78,51.7a10.23,10.23,0,0,1,.93-3.45.55.55,0,0,1,.6-.35,17.71,17.71,0,0,0,3.09-.1,17.94,17.94,0,0,0,4.26-1c.8-.31,1.54-.73,2.37-1.14a11.76,11.76,0,0,0,.7,4.58,7.44,7.44,0,0,0,.58,1.32.44.44,0,0,1-.05.54,15.78,15.78,0,0,1-5.91,4.74,11,11,0,0,1-5.24,1,.44.44,0,0,1-.46-.35A13,13,0,0,1,25.78,51.7Z" transform="translate(-12.08 -9.99)"/><path class="cls-1" d="M41.36,52.29a9.89,9.89,0,0,1-1.67-3.22,11.88,11.88,0,0,1-.52-3.5,13.76,13.76,0,0,1,1.91-6.48c.65-1.11,1.39-2.15,2.1-3.22a2.21,2.21,0,0,1,2-1,8.83,8.83,0,0,0,2.11-.2.42.42,0,0,1,.55.29,26.23,26.23,0,0,0,2.42,4.64A33.88,33.88,0,0,0,53,43.35a.26.26,0,0,1,0,.35,17.17,17.17,0,0,1-2.24,3.37,17.76,17.76,0,0,1-4.13,3.5A20.49,20.49,0,0,1,42,52.69C41.62,52.82,41.5,52.48,41.36,52.29Z" transform="translate(-12.08 -9.99)"/><path class="cls-1" d="M56,42.76A25.63,25.63,0,0,0,59,36.51a20.57,20.57,0,0,0,.69-8.81,19.08,19.08,0,0,0-2.88-7,26.93,26.93,0,0,0-3.39-4.12l-.2-.2a26.12,26.12,0,0,0-4.07-3.34,19.15,19.15,0,0,0-7-2.89,20.51,20.51,0,0,0-8.8.7A25.28,25.28,0,0,0,27.17,14c-.28.18-.27.3,0,.52A34.86,34.86,0,0,0,35,19.62c.53.25,1.08.46,1.61.69.81.34,1.37.57,1.06,1.79a13.21,13.21,0,0,0-.38,4,20.81,20.81,0,0,0,.88,5.13.69.69,0,0,0,.16.28l0,.05,0,0a.83.83,0,0,0,.28.16,21.29,21.29,0,0,0,5.12.88,13.27,13.27,0,0,0,4.06-.38c1.21-.31,1.45.24,1.79,1.06.23.53.43,1.08.68,1.6a35.19,35.19,0,0,0,5.13,7.82C55.64,43,55.76,43,56,42.76Z" transform="translate(-12.08 -9.99)"/><path class="cls-1" d="M36.49,43.28a12.89,12.89,0,0,1-5.42,2.17,18.07,18.07,0,0,1-3.67.3c-.84,0-1.67-.13-2.51-.2a1,1,0,0,1-.32-.1l-.05,0h0l0,0a.67.67,0,0,1-.1-.31c-.08-.84-.17-1.68-.21-2.51a18.75,18.75,0,0,1,.3-3.67,13.25,13.25,0,0,1,2.17-5.43,2.37,2.37,0,0,1,1.6-1.08,9.82,9.82,0,0,0,2.7-1,24.24,24.24,0,0,0,4.31-2.72,27.38,27.38,0,0,0,1,4.11,1.44,1.44,0,0,0,.35.57l0,0a1.54,1.54,0,0,0,.57.36,29.3,29.3,0,0,0,4.11,1A24.63,24.63,0,0,0,38.6,39a9.66,9.66,0,0,0-1,2.69A2.35,2.35,0,0,1,36.49,43.28Z" transform="translate(-12.08 -9.99)"/><path class="cls-1" d="M13.77,56.15l.06,0" transform="translate(-12.08 -9.99)"/><path class="cls-1" d="M18.23,44.14a9.79,9.79,0,0,0,3.45-.93.55.55,0,0,0,.35-.59,17.85,17.85,0,0,1,1.15-7.35c.3-.8.73-1.54,1.14-2.38a11.58,11.58,0,0,1-4.58-.69,7.44,7.44,0,0,1-1.32-.58.42.42,0,0,0-.54.05,15.78,15.78,0,0,0-4.74,5.91,11,11,0,0,0-1,5.24c0,.26.09.36.35.46A12.82,12.82,0,0,0,18.23,44.14Z" transform="translate(-12.08 -9.99)"/><path class="cls-1" d="M17.64,28.57a10.19,10.19,0,0,0,3.22,1.67,11.83,11.83,0,0,0,3.5.52,13.88,13.88,0,0,0,6.48-1.91C32,28.2,33,27.46,34.06,26.74a2.16,2.16,0,0,0,1-2,9.23,9.23,0,0,1,.2-2.1.41.41,0,0,0-.28-.55,26.32,26.32,0,0,1-4.65-2.42,32.62,32.62,0,0,1-3.76-2.75.26.26,0,0,0-.35,0,16.88,16.88,0,0,0-3.37,2.24,17.71,17.71,0,0,0-3.5,4.12,20.76,20.76,0,0,0-2.12,4.68C17.11,28.31,17.44,28.42,17.64,28.57Z" transform="translate(-12.08 -9.99)"/><path class="cls-2" d="M76.86,20.66h7.2v10.6h8V20.66h7.19V47.24H92.08V37.56h-8v9.68h-7.2Z" transform="translate(-12.08 -9.99)"/><path class="cls-2" d="M112.1,46.62a12.67,12.67,0,0,1-4.38-2.8,12.47,12.47,0,0,1-2.83-4.33,15.67,15.67,0,0,1,0-11.07,12.33,12.33,0,0,1,7.21-7.14,16.14,16.14,0,0,1,11.16,0,12.73,12.73,0,0,1,4.36,2.78,12.42,12.42,0,0,1,2.83,4.34,15.55,15.55,0,0,1,0,11.13,12.23,12.23,0,0,1-7.19,7.1,15.08,15.08,0,0,1-5.55,1A15.28,15.28,0,0,1,112.1,46.62Zm8.9-6.57a6.27,6.27,0,0,0,2.27-2.54,8.37,8.37,0,0,0,0-7.1A6.21,6.21,0,0,0,121,27.87a6,6,0,0,0-3.31-.94,6.05,6.05,0,0,0-3.31.93,6.35,6.35,0,0,0-2.27,2.54,8.21,8.21,0,0,0,0,7.11,6.37,6.37,0,0,0,2.28,2.54,6.28,6.28,0,0,0,6.61,0Z" transform="translate(-12.08 -9.99)"/><path class="cls-2" d="M136.06,20.66H146.4a12.67,12.67,0,0,1,3.55.46,8.39,8.39,0,0,1,2.74,1.3,7.86,7.86,0,0,1,1.89,2,8.42,8.42,0,0,1,1.13,2.6,12.44,12.44,0,0,1,.35,3.07,9.37,9.37,0,0,1-1.26,5,7.63,7.63,0,0,1-3.5,3,13.19,13.19,0,0,1-5.34,1h-3v8.11h-6.91ZM144.81,33a4.61,4.61,0,0,0,2.81-.78,2.66,2.66,0,0,0,1-2.25,2.72,2.72,0,0,0-1-2.16,4.18,4.18,0,0,0-2.84-.87H143V33Z" transform="translate(-12.08 -9.99)"/><path class="cls-2" d="M163.12,46.55a14.11,14.11,0,0,1-4.63-3.18l4-4.95a10.4,10.4,0,0,0,3.1,2.21,7.25,7.25,0,0,0,3,.73,2.48,2.48,0,0,0,1.71-.51,1.55,1.55,0,0,0,.57-1.21,1.63,1.63,0,0,0-.65-1.34,9.69,9.69,0,0,0-2.71-1.22c-.65-.22-1.22-.43-1.73-.63s-1-.45-1.62-.75a11.89,11.89,0,0,1-1.53-.92,9,9,0,0,1-1.28-1.15,6.22,6.22,0,0,1-1-1.43,8.52,8.52,0,0,1-.64-1.75,8.94,8.94,0,0,1-.24-2.12,7.45,7.45,0,0,1,1.14-4,8.12,8.12,0,0,1,3.17-2.88,10,10,0,0,1,4.54-1.11,13.1,13.1,0,0,1,5.06.88,14.76,14.76,0,0,1,4.35,2.66l-3.94,5.08a16.24,16.24,0,0,0-2.86-1.85,5.35,5.35,0,0,0-2.2-.55,2,2,0,0,0-1.39.43,1.44,1.44,0,0,0-.48,1.15,1.76,1.76,0,0,0,.68,1.32,8.91,8.91,0,0,0,2.59,1.32q3.36,1.31,4.46,1.89a6.77,6.77,0,0,1,3.23,3.21,7.34,7.34,0,0,1,.55,3,10,10,0,0,1-.32,2.57,7.28,7.28,0,0,1-.88,2.08,7.54,7.54,0,0,1-1.34,1.59,8.46,8.46,0,0,1-1.66,1.19,10.2,10.2,0,0,1-1.88.79,13.49,13.49,0,0,1-2,.44,12.83,12.83,0,0,1-2,.14A13.3,13.3,0,0,1,163.12,46.55Z" transform="translate(-12.08 -9.99)"/><path class="cls-2" d="M218.46,20.66,210.2,47.24h-6.46l-4-16.17h-.07l-4.15,16.17h-6.46l-8.26-26.58h7.58l3.87,14.81h.1l3.54-14.81h7.49l3.49,14.81H207l3.85-14.81Z" transform="translate(-12.08 -9.99)"/><path class="cls-2" d="M228.2,46.62a12.67,12.67,0,0,1-4.38-2.8A12.47,12.47,0,0,1,221,39.49a15.67,15.67,0,0,1,0-11.07,12.33,12.33,0,0,1,7.21-7.14,16.14,16.14,0,0,1,11.16,0,12.73,12.73,0,0,1,4.36,2.78,12.59,12.59,0,0,1,2.84,4.34,15.69,15.69,0,0,1,0,11.13,12.28,12.28,0,0,1-7.2,7.1,15.08,15.08,0,0,1-5.55,1A15.28,15.28,0,0,1,228.2,46.62Zm8.9-6.57a6.27,6.27,0,0,0,2.27-2.54,8.37,8.37,0,0,0,0-7.1,6.21,6.21,0,0,0-2.27-2.54,6,6,0,0,0-3.31-.94,6.05,6.05,0,0,0-3.31.93,6.35,6.35,0,0,0-2.27,2.54,8.12,8.12,0,0,0,0,7.11,6.37,6.37,0,0,0,2.28,2.54,6.28,6.28,0,0,0,6.61,0Z" transform="translate(-12.08 -9.99)"/><path class="cls-2" d="M265.72,47.24l-5-8.11h-1.64v8.11h-6.91V20.66h10.65a12.23,12.23,0,0,1,4.32.71,7.41,7.41,0,0,1,3,2,8.37,8.37,0,0,1,1.75,3,11.62,11.62,0,0,1,.58,3.78,11.28,11.28,0,0,1-.3,2.68,8.11,8.11,0,0,1-.88,2.22,7.47,7.47,0,0,1-1.41,1.74A8.26,8.26,0,0,1,268,38l0,0,6,9.19ZM259.07,33h2.15a4.72,4.72,0,0,0,2.83-.78,2.64,2.64,0,0,0,1.06-2.25,2.7,2.7,0,0,0-1-2.16,4.29,4.29,0,0,0-2.88-.87h-2.15Z" transform="translate(-12.08 -9.99)"/><path class="cls-2" d="M286.21,37.68l-1.51,1.85v7.71h-7.07V20.66h7.07v9h.07l6.46-8.95h9L290.87,32l9.73,15.22h-8.73l-5.64-9.56Z" transform="translate(-12.08 -9.99)"/><path class="cls-2" d="M306.82,46.55a14,14,0,0,1-4.62-3.18l4-4.95a10.4,10.4,0,0,0,3.1,2.21,7.25,7.25,0,0,0,3,.73,2.46,2.46,0,0,0,1.71-.51,1.55,1.55,0,0,0,.57-1.21,1.61,1.61,0,0,0-.65-1.34,9.69,9.69,0,0,0-2.71-1.22c-.64-.22-1.22-.43-1.73-.63s-1-.45-1.62-.75a11.89,11.89,0,0,1-1.53-.92A9.55,9.55,0,0,1,305,33.63a6.54,6.54,0,0,1-1-1.43,8.52,8.52,0,0,1-.64-1.75,8.94,8.94,0,0,1-.24-2.12,7.45,7.45,0,0,1,1.14-4,8.12,8.12,0,0,1,3.17-2.88A10,10,0,0,1,312,20.3a13.08,13.08,0,0,1,5.05.88,14.76,14.76,0,0,1,4.35,2.66l-3.94,5.08a16.24,16.24,0,0,0-2.86-1.85,5.35,5.35,0,0,0-2.2-.55A2,2,0,0,0,311,27a1.44,1.44,0,0,0-.48,1.15,1.76,1.76,0,0,0,.68,1.32,8.91,8.91,0,0,0,2.59,1.32q3.36,1.31,4.46,1.89a6.77,6.77,0,0,1,3.23,3.21,7.34,7.34,0,0,1,.55,3,10,10,0,0,1-.32,2.57,7.08,7.08,0,0,1-2.22,3.67,8.46,8.46,0,0,1-1.66,1.19A10.2,10.2,0,0,1,316,47a13.49,13.49,0,0,1-2,.44,12.83,12.83,0,0,1-2,.14A13.3,13.3,0,0,1,306.82,46.55Z" transform="translate(-12.08 -9.99)"/></svg>