<?xml version="1.0" encoding="UTF-8" standalone="no"?>
<svg
   xmlns:dc="http://purl.org/dc/elements/1.1/"
   xmlns:cc="http://creativecommons.org/ns#"
   xmlns:rdf="http://www.w3.org/1999/02/22-rdf-syntax-ns#"
   xmlns:svg="http://www.w3.org/2000/svg"
   xmlns="http://www.w3.org/2000/svg"
   xmlns:sodipodi="http://sodipodi.sourceforge.net/DTD/sodipodi-0.dtd"
   xmlns:inkscape="http://www.inkscape.org/namespaces/inkscape"
   version="1.1"
   viewBox="0 0 363.86356 178.35565"
   fill="none"
   stroke="none"
   stroke-linecap="square"
   stroke-miterlimit="10"
   id="svg87"
   sodipodi:docname="feature-vector.svg"
   width="363.86356"
   height="178.35565"
   inkscape:version="1.0.2 (e86c870879, 2021-01-15)">
  <metadata
     id="metadata93">
    <rdf:RDF>
      <cc:Work
         rdf:about="">
        <dc:format>image/svg+xml</dc:format>
        <dc:type
           rdf:resource="http://purl.org/dc/dcmitype/StillImage" />
      </cc:Work>
    </rdf:RDF>
  </metadata>
  <defs
     id="defs91" />
  <sodipodi:namedview
     pagecolor="#ffffff"
     bordercolor="#666666"
     borderopacity="1"
     objecttolerance="10"
     gridtolerance="10"
     guidetolerance="10"
     inkscape:pageopacity="0"
     inkscape:pageshadow="2"
     inkscape:window-width="1848"
     inkscape:window-height="1016"
     id="namedview89"
     showgrid="false"
     inkscape:zoom="1.3885417"
     inkscape:cx="322.26247"
     inkscape:cy="142.45932"
     inkscape:window-x="72"
     inkscape:window-y="27"
     inkscape:window-maximized="1"
     inkscape:current-layer="svg87" />
  <clipPath
     id="g12a9b3a53ae_0_1343.0">
    <path
       d="M 0,0 H 960 V 540 H 0 Z"
       clip-rule="nonzero"
       id="path2" />
  </clipPath>
  <g
     id="g174"
     transform="translate(-157.73753,-127.54068)">
    <path
       fill="#000000"
       fill-opacity="0"
       d="m 157.73753,127.54068 h 358.61414 v 130.4252 H 157.73753 Z"
       fill-rule="evenodd"
       id="path7" />
    <path
       stroke="#000000"
       stroke-width="2"
       stroke-linecap="butt"
       d="m 220.23885,190.87927 v 30.66928"
       fill-rule="nonzero"
       id="path9" />
    <path
       stroke="#000000"
       stroke-width="2"
       stroke-linecap="butt"
       d="m 320.3596,190.87927 v 30.66928"
       fill-rule="nonzero"
       id="path11" />
    <path
       stroke="#000000"
       stroke-width="2"
       stroke-linecap="butt"
       d="m 420.48032,190.87927 v 30.66928"
       fill-rule="nonzero"
       id="path13" />
    <path
       stroke="#000000"
       stroke-width="2"
       stroke-linecap="butt"
       d="m 520.6011,190.87927 v 30.66928"
       fill-rule="nonzero"
       id="path15" />
    <path
       stroke="#000000"
       stroke-width="2"
       stroke-linecap="butt"
       d="M 219.23885,191.87927 H 521.60109"
       fill-rule="nonzero"
       id="path17" />
    <path
       stroke="#000000"
       stroke-width="2"
       stroke-linecap="butt"
       d="M 219.23885,220.54855 H 521.60109"
       fill-rule="nonzero"
       id="path19" />
    <path
       fill="#000000"
       d="m 321.66214,150.90068 v -6.79688 h -1.25 v -1.65625 h 1.25 v -0.71875 q 0,-1.42187 0.8125,-2.20312 0.82813,-0.79688 2.29688,-0.79688 0.46875,0 1.14062,0.15625 l -0.0156,1.75 q -0.28125,-0.0625 -0.6875,-0.0625 -1.28125,0 -1.28125,1.1875 v 0.6875 h 1.6875 v 1.65625 h -1.6875 v 6.79688 z m 8.82813,0.15625 q -1.85938,0 -3.03125,-1.14063 -1.17188,-1.14062 -1.17188,-3.04687 v -0.21875 q 0,-1.26563 0.48438,-2.26563 0.5,-1.01562 1.40625,-1.54687 0.90625,-0.54688 2.0625,-0.54688 1.73437,0 2.71875,1.09375 1,1.09375 1,3.09375 v 0.92188 h -5.375 q 0.10937,0.82812 0.65625,1.32812 0.54687,0.5 1.39062,0.5 1.3125,0 2.04688,-0.9375 l 1.10937,1.23438 q -0.51562,0.71875 -1.39062,1.125 -0.85938,0.40625 -1.90625,0.40625 z m -0.26563,-6.9375 q -0.67187,0 -1.09375,0.45312 -0.40625,0.45313 -0.53125,1.29688 h 3.14063 v -0.1875 q -0.0156,-0.75 -0.40625,-1.15625 -0.39063,-0.40625 -1.10938,-0.40625 z m 9.91406,6.78125 q -0.15625,-0.3125 -0.21875,-0.76563 -0.82812,0.92188 -2.14062,0.92188 -1.23438,0 -2.0625,-0.71875 -0.8125,-0.71875 -0.8125,-1.8125 0,-1.34375 1,-2.0625 1,-0.71875 2.875,-0.73438 h 1.04687 v -0.48437 q 0,-0.57813 -0.3125,-0.92188 -0.29687,-0.35937 -0.9375,-0.35937 -0.57812,0 -0.90625,0.28125 -0.3125,0.26562 -0.3125,0.73437 h -2.26562 q 0,-0.73437 0.45312,-1.35937 0.45313,-0.625 1.28125,-0.96875 0.82813,-0.35938 1.85938,-0.35938 1.5625,0 2.48437,0.78125 0.92188,0.78125 0.92188,2.20313 v 3.67187 q 0,1.20313 0.32812,1.8125 v 0.14063 z m -1.85937,-1.57813 q 0.5,0 0.92187,-0.21875 0.42188,-0.21875 0.625,-0.59375 v -1.45312 h -0.84375 q -1.70312,0 -1.8125,1.17187 v 0.125 q 0,0.42188 0.29688,0.70313 0.29687,0.26562 0.8125,0.26562 z m 8.25,-8.95312 v 2.07812 h 1.4375 v 1.65625 h -1.4375 v 4.21875 q 0,0.46875 0.17187,0.67188 0.1875,0.20312 0.6875,0.20312 0.375,0 0.67188,-0.0625 v 1.71875 q -0.67188,0.20313 -1.375,0.20313 -2.375,0 -2.42188,-2.40625 v -4.54688 h -1.23437 v -1.65625 h 1.23437 v -2.07812 z m 7.76562,9.67187 q -0.84375,1.01563 -2.3125,1.01563 -1.35937,0 -2.07812,-0.78125 -0.71875,-0.78125 -0.73438,-2.29688 v -5.53125 h 2.26563 v 5.45313 q 0,1.32812 1.20312,1.32812 1.14063,0 1.57813,-0.79687 v -5.98438 h 2.26562 v 8.45313 h -2.125 z m 8.64063,-5.48437 q -0.46875,-0.0625 -0.8125,-0.0625 -1.28125,0 -1.6875,0.875 v 5.53125 h -2.25 v -8.45313 h 2.125 l 0.0625,1 q 0.6875,-1.15625 1.89062,-1.15625 0.375,0 0.70313,0.0937 z m 4.82812,6.5 q -1.85937,0 -3.03125,-1.14063 -1.17187,-1.14062 -1.17187,-3.04687 v -0.21875 q 0,-1.26563 0.48437,-2.26563 0.5,-1.01562 1.40625,-1.54687 0.90625,-0.54688 2.0625,-0.54688 1.73438,0 2.71875,1.09375 1,1.09375 1,3.09375 v 0.92188 h -5.375 q 0.10938,0.82812 0.65625,1.32812 0.54688,0.5 1.39063,0.5 1.3125,0 2.04687,-0.9375 l 1.10938,1.23438 q -0.51563,0.71875 -1.39063,1.125 -0.85937,0.40625 -1.90625,0.40625 z m -0.26562,-6.9375 q -0.67188,0 -1.09375,0.45312 -0.40625,0.45313 -0.53125,1.29688 h 3.14062 v -0.1875 q -0.0156,-0.75 -0.40625,-1.15625 -0.39062,-0.40625 -1.10937,-0.40625 z m 12.16406,4.01562 1.57813,-5.6875 h 2.35937 l -2.85937,8.45313 h -2.15625 l -2.84375,-8.45313 h 2.35937 z m 8.71875,2.92188 q -1.85937,0 -3.03125,-1.14063 -1.17187,-1.14062 -1.17187,-3.04687 v -0.21875 q 0,-1.26563 0.48437,-2.26563 0.5,-1.01562 1.40625,-1.54687 0.90625,-0.54688 2.0625,-0.54688 1.73438,0 2.71875,1.09375 1,1.09375 1,3.09375 v 0.92188 h -5.375 q 0.10938,0.82812 0.65625,1.32812 0.54688,0.5 1.39063,0.5 1.3125,0 2.04687,-0.9375 l 1.10938,1.23438 q -0.51563,0.71875 -1.39063,1.125 -0.85937,0.40625 -1.90625,0.40625 z m -0.26562,-6.9375 q -0.67188,0 -1.09375,0.45312 -0.40625,0.45313 -0.53125,1.29688 h 3.14062 v -0.1875 q -0.0156,-0.75 -0.40625,-1.15625 -0.39062,-0.40625 -1.10937,-0.40625 z m 8.53906,5.10937 q 0.625,0 1.01562,-0.34375 0.39063,-0.34375 0.40625,-0.90625 h 2.10938 q 0,0.85938 -0.46875,1.57813 -0.45313,0.70312 -1.26563,1.10937 -0.79687,0.39063 -1.76562,0.39063 -1.8125,0 -2.85938,-1.15625 -1.04687,-1.15625 -1.04687,-3.1875 v -0.14063 q 0,-1.95312 1.03125,-3.10937 1.04687,-1.17188 2.85937,-1.17188 1.59375,0 2.54688,0.90625 0.95312,0.89063 0.96875,2.39063 h -2.10938 q -0.0156,-0.65625 -0.40625,-1.0625 -0.39062,-0.40625 -1.03125,-0.40625 -0.79687,0 -1.20312,0.57812 -0.39063,0.5625 -0.39063,1.85938 v 0.23437 q 0,1.29688 0.39063,1.875 0.40625,0.5625 1.21875,0.5625 z m 7.53125,-8.85937 v 2.07812 h 1.4375 v 1.65625 h -1.4375 v 4.21875 q 0,0.46875 0.17187,0.67188 0.1875,0.20312 0.6875,0.20312 0.375,0 0.67188,-0.0625 v 1.71875 q -0.67188,0.20313 -1.375,0.20313 -2.375,0 -2.42188,-2.40625 v -4.54688 h -1.23437 v -1.65625 h 1.23437 v -2.07812 z m 2.10937,6.21875 q 0,-1.25 0.48438,-2.23438 0.48437,-0.98437 1.39062,-1.51562 0.92188,-0.54688 2.125,-0.54688 1.70313,0 2.78125,1.04688 1.09375,1.04687 1.21875,2.84375 l 0.0156,0.57812 q 0,1.9375 -1.09375,3.125 -1.07813,1.17188 -2.90625,1.17188 -1.82813,0 -2.92188,-1.17188 -1.09375,-1.17187 -1.09375,-3.1875 z m 2.26563,0.17187 q 0,1.20313 0.45312,1.84375 0.45313,0.625 1.29688,0.625 0.8125,0 1.26562,-0.625 0.46875,-0.625 0.46875,-2.01562 0,-1.17188 -0.46875,-1.8125 -0.45312,-0.65625 -1.28125,-0.65625 -0.82812,0 -1.28125,0.64062 -0.45312,0.64063 -0.45312,2 z m 11.89062,-2.20312 q -0.46875,-0.0625 -0.8125,-0.0625 -1.28125,0 -1.6875,0.875 v 5.53125 h -2.25 v -8.45313 h 2.125 l 0.0625,1 q 0.6875,-1.15625 1.89063,-1.15625 0.375,0 0.70312,0.0937 z"
       fill-rule="nonzero"
       id="path21" />
    <path
       fill="#000000"
       d="m 237.20149,178.28998 h -1.28125 l 1.89062,-11 h 1.29688 z m 6.41156,-7.89062 q 0.98438,0.0156 1.67188,0.53125 0.70312,0.51562 1.03125,1.42187 0.32812,0.90625 0.21875,1.98438 l -0.0156,0.15625 q -0.125,1.125 -0.67187,2.04687 -0.53125,0.90625 -1.39063,1.42188 -0.84375,0.5 -1.85937,0.46875 -0.96875,-0.0156 -1.67188,-0.53125 -0.6875,-0.51563 -1.01562,-1.39063 -0.3125,-0.89062 -0.21875,-1.96875 0.0937,-1.1875 0.64062,-2.14062 0.54688,-0.96875 1.40625,-1.5 0.85938,-0.53125 1.875,-0.5 z m -2.625,4.15625 q -0.0469,0.45312 0,0.9375 0.0625,0.84375 0.5,1.34375 0.4375,0.5 1.15625,0.51562 0.64063,0.0312 1.1875,-0.3125 0.54688,-0.34375 0.92188,-1.03125 0.375,-0.6875 0.48437,-1.51562 0.0469,-0.65625 0.0156,-1.10938 -0.0937,-0.875 -0.53125,-1.375 -0.42188,-0.5 -1.15625,-0.53125 -1,-0.0156 -1.70313,0.79688 -0.70312,0.8125 -0.85937,2.10937 z m 9.78911,2.79687 q 0.6875,0.0156 1.23437,-0.39062 0.5625,-0.42188 0.73438,-1.10938 h 1.23437 q -0.10937,0.73438 -0.59375,1.32813 -0.46875,0.59375 -1.20312,0.9375 -0.71875,0.34375 -1.46875,0.3125 -0.96875,-0.0156 -1.64063,-0.5 -0.67187,-0.5 -0.98437,-1.375 -0.3125,-0.875 -0.21875,-1.96875 l 0.0469,-0.35938 q 0.125,-1.10937 0.64063,-1.98437 0.51562,-0.89063 1.34375,-1.375 0.84375,-0.5 1.84375,-0.46875 1.21875,0.0312 1.9375,0.82812 0.73437,0.78125 0.73437,1.98438 h -1.20312 q -0.0156,-0.76563 -0.42188,-1.23438 -0.40625,-0.46875 -1.10937,-0.5 -1,-0.0156 -1.67188,0.76563 -0.67187,0.76562 -0.84375,2.15625 l -0.0156,0.1875 q -0.0469,0.45312 -0.0156,0.9375 0.0469,0.84375 0.46875,1.32812 0.42188,0.48438 1.17188,0.5 z m 8.96731,0.9375 q -0.0469,-0.20312 -0.0469,-0.40625 l 0.0312,-0.40625 q -1.07813,0.98438 -2.26563,0.95313 -1.03125,-0.0156 -1.67187,-0.64063 -0.64063,-0.64062 -0.57813,-1.59375 0.0781,-1.23437 1.07813,-1.92187 1,-0.6875 2.64062,-0.6875 l 1.35938,0.0156 0.0781,-0.625 q 0.0781,-0.6875 -0.26562,-1.09375 -0.34375,-0.40625 -1.01563,-0.42187 -0.67187,-0.0156 -1.1875,0.32812 -0.5,0.34375 -0.625,0.89063 l -1.29687,0.0156 q 0.0625,-0.6875 0.53125,-1.20312 0.46875,-0.53125 1.1875,-0.8125 0.73437,-0.29688 1.51562,-0.28125 1.20313,0.0312 1.875,0.73437 0.6875,0.70313 0.57813,1.875 l -0.64063,3.82813 -0.0312,0.54687 q -0.0156,0.39063 0.0937,0.78125 l -0.0156,0.125 z m -2.03125,-1 q 0.625,0.0156 1.17188,-0.29687 0.5625,-0.3125 0.96875,-0.85938 l 0.28125,-1.59375 -0.98438,-0.0156 q -1.21875,0 -1.875,0.39062 -0.65625,0.39063 -0.73437,1.09375 -0.0625,0.54688 0.25,0.90625 0.3125,0.35938 0.92187,0.375 z m 8.52637,-8.625 -0.32812,1.875 h 1.40625 l -0.17188,1.03125 h -1.40625 l -0.8125,4.8125 q -0.0156,0.1875 0,0.34375 0.0469,0.5625 0.60938,0.5625 0.23437,0 0.625,-0.0781 l -0.0937,1.07812 q -0.46875,0.14063 -0.95313,0.14063 -0.76562,-0.0156 -1.15625,-0.5625 -0.39062,-0.5625 -0.29687,-1.5 l 0.78125,-4.79688 h -1.35938 l 0.17188,-1.03125 h 1.375 l 0.32812,-1.875 z m 2.70041,9.625 h -1.28125 l 1.34375,-7.75 h 1.28125 z m 1.0625,-10.5625 q 0.32812,-0.0156 0.54687,0.20313 0.21875,0.20312 0.21875,0.54687 0,0.32813 -0.21875,0.54688 -0.20312,0.21875 -0.54687,0.23437 -0.32813,0 -0.54688,-0.20312 -0.21875,-0.20313 -0.21875,-0.53125 0.0156,-0.34375 0.21875,-0.5625 0.21875,-0.23438 0.54688,-0.23438 z m 5.34906,2.67188 q 0.98437,0.0156 1.67187,0.53125 0.70313,0.51562 1.03125,1.42187 0.32813,0.90625 0.21875,1.98438 l -0.0156,0.15625 q -0.125,1.125 -0.67188,2.04687 -0.53125,0.90625 -1.39062,1.42188 -0.84375,0.5 -1.85938,0.46875 -0.96875,-0.0156 -1.67187,-0.53125 -0.6875,-0.51563 -1.01563,-1.39063 -0.3125,-0.89062 -0.21875,-1.96875 0.0937,-1.1875 0.64063,-2.14062 0.54687,-0.96875 1.40625,-1.5 0.85937,-0.53125 1.875,-0.5 z m -2.625,4.15625 q -0.0469,0.45312 0,0.9375 0.0625,0.84375 0.5,1.34375 0.4375,0.5 1.15625,0.51562 0.64062,0.0312 1.1875,-0.3125 0.54687,-0.34375 0.92187,-1.03125 0.375,-0.6875 0.48438,-1.51562 0.0469,-0.65625 0.0156,-1.10938 -0.0937,-0.875 -0.53125,-1.375 -0.42187,-0.5 -1.15625,-0.53125 -1,-0.0156 -1.70312,0.79688 -0.70313,0.8125 -0.85938,2.10937 z m 9.086,-4.01563 -0.1875,0.98438 q 1.04687,-1.15625 2.375,-1.125 1.09372,0.0312 1.60934,0.76562 0.53125,0.73438 0.39063,2.04688 l -0.84375,5.07812 h -1.29685 l 0.85935,-5.09375 q 0.0312,-0.35937 0,-0.65625 -0.125,-1 -1.18747,-1.01562 -1.15625,-0.0312 -2.04688,1.23437 l -0.95312,5.53125 h -1.29688 l 1.34375,-7.75 z m 10.57117,8.82813 h -6.35938 l 0.1875,-1.07813 h 6.375 z m 2.65554,-1.07813 h -1.28125 l 1.34375,-7.75 h 1.28125 z m 1.0625,-10.5625 q 0.32813,-0.0156 0.54688,0.20313 0.21875,0.20312 0.21875,0.54687 0,0.32813 -0.21875,0.54688 -0.20313,0.21875 -0.54688,0.23437 -0.32812,0 -0.54687,-0.20312 -0.21875,-0.20313 -0.21875,-0.53125 0.0156,-0.34375 0.21875,-0.5625 0.21875,-0.23438 0.54687,-0.23438 z m 1.42719,6.67188 q 0.14062,-1.17188 0.64062,-2.125 0.51563,-0.95313 1.25,-1.42188 0.75,-0.48437 1.65625,-0.45312 1.29688,0.0312 1.98438,0.9375 l 0.75,-4.04688 h 1.29687 l -1.90625,11 h -1.1875 l 0.14063,-0.82812 q -0.92188,1 -2.26563,0.96875 -1.07812,-0.0312 -1.71875,-0.84375 -0.625,-0.8125 -0.67187,-2.17188 -0.0312,-0.42187 0.0312,-1.01562 z m 1.25,0.75 q -0.0312,1.01562 0.35937,1.59375 0.39063,0.5625 1.125,0.57812 1.125,0.0469 2,-1.14062 l 0.625,-3.57813 q -0.4375,-1.04687 -1.5625,-1.07812 -0.76562,-0.0312 -1.35937,0.45312 -0.57813,0.48438 -0.89063,1.35938 -0.29687,0.85937 -0.29687,1.8125 z"
       fill-rule="nonzero"
       id="path23" />
    <path
       fill="#000000"
       d="m 335.12646,168.66498 -0.32813,1.875 h 1.40625 l -0.17187,1.03125 h -1.40625 l -0.8125,4.8125 q -0.0156,0.1875 0,0.34375 0.0469,0.5625 0.60937,0.5625 0.23438,0 0.625,-0.0781 l -0.0937,1.07812 q -0.46875,0.14063 -0.95312,0.14063 -0.76563,-0.0156 -1.15625,-0.5625 -0.39063,-0.5625 -0.29688,-1.5 l 0.78125,-4.79688 h -1.35937 l 0.17187,-1.03125 h 1.375 l 0.32813,-1.875 z m 4.65356,9.76563 q -1.45312,-0.0312 -2.26562,-1.0625 -0.8125,-1.03125 -0.6875,-2.65625 l 0.0312,-0.3125 q 0.125,-1.14063 0.6875,-2.09375 0.5625,-0.95313 1.35937,-1.4375 0.8125,-0.48438 1.75,-0.46875 1.20313,0.0312 1.875,0.79687 0.6875,0.76563 0.75,2.07813 0.0156,0.46875 -0.0312,0.92187 l -0.0781,0.59375 h -5.0625 q -0.125,1.0625 0.34375,1.79688 0.48437,0.73437 1.42187,0.76562 1.15625,0.0312 2.125,-1.03125 l 0.75,0.625 q -0.5,0.70313 -1.26562,1.10938 -0.76563,0.39062 -1.70313,0.375 z m 0.8125,-6.95313 q -0.79687,-0.0156 -1.40625,0.54688 -0.59375,0.5625 -0.9375,1.6875 h 3.76563 l 0.0312,-0.10938 q 0.10937,-0.90625 -0.29688,-1.5 -0.40625,-0.59375 -1.15625,-0.625 z m 5.9907,-0.9375 -0.17188,0.85938 q 0.96875,-1.03125 2.35938,-1 0.73437,0.0156 1.25,0.34375 0.51562,0.3125 0.70312,0.90625 1.09375,-1.28125 2.5625,-1.25 1.17188,0.0312 1.71875,0.78125 0.54688,0.75 0.40625,2.01562 l -0.85937,5.09375 h -1.28125 l 0.84375,-5.10937 q 0.0469,-0.35938 0,-0.67188 -0.14063,-0.96875 -1.28125,-1 -0.70313,-0.0156 -1.28125,0.45313 -0.57813,0.45312 -0.73438,1.1875 l -0.875,5.14062 h -1.3125 l 0.85938,-5.09375 q 0.0937,-0.79687 -0.25,-1.21875 -0.32813,-0.4375 -1.01563,-0.45312 -1.21875,-0.0312 -1.9375,1.10937 l -0.96875,5.65625 h -1.29687 l 1.34375,-7.75 z m 16.98391,3.92188 q -0.14062,1.17187 -0.64062,2.125 -0.48438,0.9375 -1.21875,1.40625 -0.73438,0.46875 -1.625,0.45312 -1.34375,-0.0312 -2.04688,-0.92187 l -0.70312,3.75 h -1.29688 l 1.85938,-10.73438 h 1.17187 l -0.14062,0.85938 q 0.96875,-1.03125 2.29687,-1 1.125,0.0312 1.73438,0.82812 0.625,0.79688 0.67187,2.1875 0,0.45313 -0.0469,0.89063 z m -1.26562,-0.15625 0.0312,-0.60938 q 0,-1.03125 -0.40625,-1.57812 -0.39063,-0.5625 -1.14063,-0.59375 -1.125,-0.0312 -1.9375,1.0625 l -0.65625,3.71875 q 0.4375,1.03125 1.5625,1.04687 0.96875,0.0312 1.64063,-0.75 0.6875,-0.78125 0.90625,-2.29687 z m 5.66031,4.125 q -1.45313,-0.0312 -2.26563,-1.0625 -0.8125,-1.03125 -0.6875,-2.65625 l 0.0312,-0.3125 q 0.125,-1.14063 0.6875,-2.09375 0.5625,-0.95313 1.35938,-1.4375 0.8125,-0.48438 1.75,-0.46875 1.20312,0.0312 1.875,0.79687 0.6875,0.76563 0.75,2.07813 0.0156,0.46875 -0.0312,0.92187 l -0.0781,0.59375 h -5.0625 q -0.125,1.0625 0.34375,1.79688 0.48438,0.73437 1.42188,0.76562 1.15625,0.0312 2.125,-1.03125 l 0.75,0.625 q -0.5,0.70313 -1.26563,1.10938 -0.76562,0.39062 -1.70312,0.375 z m 0.8125,-6.95313 q -0.79688,-0.0156 -1.40625,0.54688 -0.59375,0.5625 -0.9375,1.6875 h 3.76562 l 0.0312,-0.10938 q 0.10938,-0.90625 -0.29687,-1.5 -0.40625,-0.59375 -1.15625,-0.625 z m 8.24069,0.25 -0.59375,-0.0625 q -1.25,0 -1.96875,1.125 l -0.95313,5.5 h -1.29687 l 1.34375,-7.75 h 1.25 l -0.1875,0.90625 q 0.82812,-1.07812 1.9375,-1.0625 0.23437,0 0.625,0.10938 z m 4.51605,6.5625 q -0.0469,-0.20312 -0.0469,-0.40625 l 0.0312,-0.40625 q -1.07813,0.98438 -2.26563,0.95313 -1.03125,-0.0156 -1.67187,-0.64063 -0.64063,-0.64062 -0.57813,-1.59375 0.0781,-1.23437 1.07813,-1.92187 1,-0.6875 2.64062,-0.6875 l 1.35938,0.0156 0.0781,-0.625 q 0.0781,-0.6875 -0.26562,-1.09375 -0.34375,-0.40625 -1.01563,-0.42187 -0.67187,-0.0156 -1.1875,0.32812 -0.5,0.34375 -0.625,0.89063 l -1.29687,0.0156 q 0.0625,-0.6875 0.53125,-1.20312 0.46875,-0.53125 1.1875,-0.8125 0.73437,-0.29688 1.51562,-0.28125 1.20313,0.0312 1.875,0.73437 0.6875,0.70313 0.57813,1.875 l -0.64063,3.82813 -0.0312,0.54687 q -0.0156,0.39063 0.0937,0.78125 l -0.0156,0.125 z m -2.03125,-1 q 0.625,0.0156 1.17188,-0.29687 0.5625,-0.3125 0.96875,-0.85938 l 0.28125,-1.59375 -0.98438,-0.0156 q -1.21875,0 -1.875,0.39062 -0.65625,0.39063 -0.73437,1.09375 -0.0625,0.54688 0.25,0.90625 0.3125,0.35938 0.92187,0.375 z m 8.52637,-8.625 -0.32813,1.875 h 1.40625 l -0.17187,1.03125 h -1.40625 l -0.8125,4.8125 q -0.0156,0.1875 0,0.34375 0.0469,0.5625 0.60937,0.5625 0.23438,0 0.625,-0.0781 l -0.0937,1.07812 q -0.46875,0.14063 -0.95312,0.14063 -0.76563,-0.0156 -1.15625,-0.5625 -0.39063,-0.5625 -0.29688,-1.5 l 0.78125,-4.79688 h -1.35937 l 0.17187,-1.03125 h 1.375 l 0.32813,-1.875 z m 6.21603,8.85938 q -0.90625,0.9375 -2.3125,0.90625 -1.10937,-0.0312 -1.64062,-0.79688 -0.53125,-0.76562 -0.40625,-2.07812 l 0.84375,-5.01563 h 1.28125 l -0.82813,5.03125 q -0.0312,0.3125 -0.0156,0.60938 0.0312,0.51562 0.29687,0.8125 0.28125,0.29687 0.76563,0.3125 1.39062,0.0469 2.15625,-1.125 l 0.96875,-5.64063 h 1.29687 l -1.34375,7.75 h -1.23437 z m 7.79843,-5.79688 -0.59375,-0.0625 q -1.25,0 -1.96875,1.125 l -0.95312,5.5 h -1.29688 l 1.34375,-7.75 h 1.25 l -0.1875,0.90625 q 0.82813,-1.07812 1.9375,-1.0625 0.23438,0 0.625,0.10938 z m 3.29145,6.70313 q -1.45313,-0.0312 -2.26563,-1.0625 -0.8125,-1.03125 -0.6875,-2.65625 l 0.0312,-0.3125 q 0.125,-1.14063 0.6875,-2.09375 0.5625,-0.95313 1.35938,-1.4375 0.8125,-0.48438 1.75,-0.46875 1.20312,0.0312 1.875,0.79687 0.6875,0.76563 0.75,2.07813 0.0156,0.46875 -0.0312,0.92187 l -0.0781,0.59375 h -5.0625 q -0.125,1.0625 0.34375,1.79688 0.48438,0.73437 1.42188,0.76562 1.15625,0.0312 2.125,-1.03125 l 0.75,0.625 q -0.5,0.70313 -1.26563,1.10938 -0.76562,0.39062 -1.70312,0.375 z m 0.8125,-6.95313 q -0.79688,-0.0156 -1.40625,0.54688 -0.59375,0.5625 -0.9375,1.6875 h 3.76562 l 0.0312,-0.10938 q 0.10938,-0.90625 -0.29687,-1.5 -0.40625,-0.59375 -1.15625,-0.625 z"
       fill-rule="nonzero"
       id="path25" />
    <path
       fill="#000000"
       d="m 453.72363,171.72748 -0.59375,-0.0625 q -1.25,0 -1.96875,1.125 l -0.95312,5.5 h -1.29688 l 1.34375,-7.75 h 1.25 l -0.1875,0.90625 q 0.82813,-1.07812 1.9375,-1.0625 0.23438,0 0.625,0.10938 z m 4.51605,6.5625 q -0.0469,-0.20312 -0.0469,-0.40625 l 0.0312,-0.40625 q -1.07813,0.98438 -2.26563,0.95313 -1.03125,-0.0156 -1.67187,-0.64063 -0.64063,-0.64062 -0.57813,-1.59375 0.0781,-1.23437 1.07813,-1.92187 1,-0.6875 2.64062,-0.6875 l 1.35938,0.0156 0.0781,-0.625 q 0.0781,-0.6875 -0.26562,-1.09375 -0.34375,-0.40625 -1.01563,-0.42187 -0.67187,-0.0156 -1.1875,0.32812 -0.5,0.34375 -0.625,0.89063 l -1.29687,0.0156 q 0.0625,-0.6875 0.53125,-1.20312 0.46875,-0.53125 1.1875,-0.8125 0.73437,-0.29688 1.51562,-0.28125 1.20313,0.0312 1.875,0.73437 0.6875,0.70313 0.57813,1.875 l -0.64063,3.82813 -0.0312,0.54687 q -0.0156,0.39063 0.0937,0.78125 l -0.0156,0.125 z m -2.03125,-1 q 0.625,0.0156 1.17188,-0.29687 0.5625,-0.3125 0.96875,-0.85938 l 0.28125,-1.59375 -0.98438,-0.0156 q -1.21875,0 -1.875,0.39062 -0.65625,0.39063 -0.73437,1.09375 -0.0625,0.54688 0.25,0.90625 0.3125,0.35938 0.92187,0.375 z m 6.51074,1 h -1.28125 l 1.34375,-7.75 h 1.28125 z m 1.0625,-10.5625 q 0.32813,-0.0156 0.54688,0.20313 0.21875,0.20312 0.21875,0.54687 0,0.32813 -0.21875,0.54688 -0.20313,0.21875 -0.54688,0.23437 -0.32812,0 -0.54687,-0.20312 -0.21875,-0.20313 -0.21875,-0.53125 0.0156,-0.34375 0.21875,-0.5625 0.21875,-0.23438 0.54687,-0.23438 z m 3.63031,2.8125 -0.1875,0.98438 q 1.04688,-1.15625 2.375,-1.125 1.09375,0.0312 1.60938,0.76562 0.53125,0.73438 0.39062,2.04688 l -0.84375,5.07812 h -1.29687 l 0.85937,-5.09375 q 0.0312,-0.35937 0,-0.65625 -0.125,-1 -1.1875,-1.01562 -1.15625,-0.0312 -2.04687,1.23437 l -0.95313,5.53125 h -1.29687 l 1.34375,-7.75 z m 5.97745,7.75 1.17188,-6.71875 h -1.20313 l 0.1875,-1.03125 h 1.1875 l 0.125,-0.90625 q 0.1875,-1.17187 0.90625,-1.82812 0.75,-0.6875 1.90625,-0.67188 0.375,0 0.92188,0.125 l -0.15625,1.07813 q -0.34375,-0.0781 -0.6875,-0.0937 -0.67188,0 -1.09375,0.42187 -0.42188,0.42188 -0.51563,1.10938 l -0.10937,0.76562 h 1.59375 l -0.17188,1.03125 h -1.60937 l -1.17188,6.71875 z m 9.10321,0 q -0.0469,-0.20312 -0.0469,-0.40625 l 0.0312,-0.40625 q -1.07813,0.98438 -2.26563,0.95313 -1.03125,-0.0156 -1.67187,-0.64063 -0.64063,-0.64062 -0.57813,-1.59375 0.0781,-1.23437 1.07813,-1.92187 1,-0.6875 2.64062,-0.6875 l 1.35938,0.0156 0.0781,-0.625 q 0.0781,-0.6875 -0.26562,-1.09375 -0.34375,-0.40625 -1.01563,-0.42187 -0.67187,-0.0156 -1.1875,0.32812 -0.5,0.34375 -0.625,0.89063 l -1.29687,0.0156 q 0.0625,-0.6875 0.53125,-1.20312 0.46875,-0.53125 1.1875,-0.8125 0.73437,-0.29688 1.51562,-0.28125 1.20313,0.0312 1.875,0.73437 0.6875,0.70313 0.57813,1.875 l -0.64063,3.82813 -0.0312,0.54687 q -0.0156,0.39063 0.0937,0.78125 l -0.0156,0.125 z m -2.03125,-1 q 0.625,0.0156 1.17188,-0.29687 0.5625,-0.3125 0.96875,-0.85938 l 0.28125,-1.59375 -0.98438,-0.0156 q -1.21875,0 -1.875,0.39062 -0.65625,0.39063 -0.73437,1.09375 -0.0625,0.54688 0.25,0.90625 0.3125,0.35938 0.92187,0.375 z m 6.51071,1 h -1.28125 l 1.89063,-11 h 1.29687 z m 3.52094,0 h -1.28125 l 1.89062,-11 h 1.29688 z"
       fill-rule="nonzero"
       id="path27" />
    <path
       fill="#000000"
       d="m 242.2621,202.41489 1.01562,-0.0937 q 0.125,0.71875 0.48438,1.04688 0.375,0.3125 0.9375,0.3125 0.48437,0 0.84375,-0.21875 0.375,-0.23438 0.60937,-0.59375 0.23438,-0.375 0.39063,-1 0.15625,-0.64063 0.15625,-1.29688 0,-0.0781 0,-0.21875 -0.3125,0.5 -0.85938,0.82813 -0.54687,0.3125 -1.1875,0.3125 -1.07812,0 -1.8125,-0.76563 -0.73437,-0.78125 -0.73437,-2.04687 0,-1.3125 0.76562,-2.10938 0.78125,-0.79687 1.9375,-0.79687 0.82813,0 1.51563,0.45312 0.70312,0.45313 1.0625,1.29688 0.35937,0.82812 0.35937,2.40625 0,1.64062 -0.35937,2.625 -0.34375,0.96875 -1.0625,1.48437 -0.70313,0.5 -1.64063,0.5 -1.01562,0 -1.65625,-0.54687 -0.64062,-0.5625 -0.76562,-1.57813 z m 4.3125,-3.79687 q 0,-0.90625 -0.48438,-1.4375 -0.46875,-0.53125 -1.15625,-0.53125 -0.70312,0 -1.23437,0.57812 -0.51563,0.5625 -0.51563,1.48438 0,0.8125 0.5,1.32812 0.5,0.51563 1.21875,0.51563 0.73438,0 1.20313,-0.51563 0.46875,-0.51562 0.46875,-1.42187 z m 3.83008,1.125 q -0.65625,-0.25 -0.98438,-0.6875 -0.3125,-0.45313 -0.3125,-1.0625 0,-0.9375 0.67188,-1.57813 0.6875,-0.64062 1.79687,-0.64062 1.125,0 1.8125,0.65625 0.6875,0.65625 0.6875,1.59375 0,0.59375 -0.3125,1.03125 -0.3125,0.4375 -0.95312,0.6875 0.79687,0.25 1.20312,0.82812 0.40625,0.57813 0.40625,1.375 0,1.09375 -0.78125,1.84375 -0.76562,0.75 -2.04687,0.75 -1.26563,0 -2.04688,-0.75 -0.78125,-0.75 -0.78125,-1.875 0,-0.84375 0.42188,-1.40625 0.4375,-0.5625 1.21875,-0.76562 z m -0.21875,-1.79688 q 0,0.60938 0.39062,1 0.40625,0.39063 1.03125,0.39063 0.60938,0 1,-0.375 0.39063,-0.39063 0.39063,-0.95313 0,-0.57812 -0.40625,-0.96875 -0.40625,-0.40625 -1,-0.40625 -0.60938,0 -1.01563,0.39063 -0.39062,0.39062 -0.39062,0.92187 z m -0.32813,3.96875 q 0,0.45313 0.20313,0.875 0.21875,0.42188 0.64062,0.65625 0.42188,0.23438 0.90625,0.23438 0.75,0 1.23438,-0.48438 0.5,-0.48437 0.5,-1.23437 0,-0.76563 -0.5,-1.26563 -0.5,-0.5 -1.26563,-0.5 -0.75,0 -1.23437,0.5 -0.48438,0.48438 -0.48438,1.21875 z m 8.97072,2.48438 v -2.0625 h -3.71876 v -0.96875 l 3.92189,-5.5625 h 0.85937 v 5.5625 h 1.15625 v 0.96875 h -1.15625 v 2.0625 z m 0,-3.03125 v -3.85938 l -2.6875,3.85938 z m 6.67383,3.03125 v -2.0625 h -3.71875 v -0.96875 l 3.92187,-5.5625 h 0.85938 v 5.5625 h 1.15625 v 0.96875 h -1.15625 v 2.0625 z m 0,-3.03125 v -3.85938 l -2.6875,3.85938 z m 3.17383,0.45312 v -1.0625 h 3.25 v 1.0625 z m 4.12109,0.3125 1.0625,-0.14062 q 0.17188,0.89062 0.60938,1.29687 0.4375,0.39063 1.0625,0.39063 0.75,0 1.26562,-0.51563 0.51563,-0.51562 0.51563,-1.28125 0,-0.71875 -0.48438,-1.1875 -0.46875,-0.48437 -1.20312,-0.48437 -0.29688,0 -0.75,0.125 l 0.125,-0.9375 q 0.10937,0.0156 0.17187,0.0156 0.67188,0 1.20313,-0.34375 0.54687,-0.35937 0.54687,-1.09375 0,-0.57812 -0.39062,-0.95312 -0.39063,-0.39063 -1.01563,-0.39063 -0.60937,0 -1.03125,0.39063 -0.40625,0.39062 -0.51562,1.15625 l -1.0625,-0.1875 q 0.1875,-1.04688 0.875,-1.625 0.6875,-0.59375 1.70312,-0.59375 0.70313,0 1.29688,0.3125 0.59375,0.29687 0.90625,0.8125 0.3125,0.51562 0.3125,1.10937 0,0.54688 -0.29688,1.01563 -0.29687,0.45312 -0.875,0.71875 0.75,0.17187 1.17188,0.73437 0.42187,0.54688 0.42187,1.39063 0,1.125 -0.82812,1.90625 -0.8125,0.78125 -2.0625,0.78125 -1.125,0 -1.875,-0.67188 -0.75,-0.6875 -0.85938,-1.75 z m 6.67383,0 1.0625,-0.14062 q 0.17187,0.89062 0.60937,1.29687 0.4375,0.39063 1.0625,0.39063 0.75,0 1.26563,-0.51563 0.51562,-0.51562 0.51562,-1.28125 0,-0.71875 -0.48437,-1.1875 -0.46875,-0.48437 -1.20313,-0.48437 -0.29687,0 -0.75,0.125 l 0.125,-0.9375 q 0.10938,0.0156 0.17188,0.0156 0.67187,0 1.20312,-0.34375 0.54688,-0.35937 0.54688,-1.09375 0,-0.57812 -0.39063,-0.95312 -0.39062,-0.39063 -1.01562,-0.39063 -0.60938,0 -1.03125,0.39063 -0.40625,0.39062 -0.51563,1.15625 l -1.0625,-0.1875 q 0.1875,-1.04688 0.875,-1.625 0.6875,-0.59375 1.70313,-0.59375 0.70312,0 1.29687,0.3125 0.59375,0.29687 0.90622,0.8125 0.3125,0.51562 0.3125,1.10937 0,0.54688 -0.29687,1.01563 -0.29685,0.45312 -0.87497,0.71875 0.74997,0.17187 1.17184,0.73437 0.42188,0.54688 0.42188,1.39063 0,1.125 -0.82813,1.90625 -0.81247,0.78125 -2.06247,0.78125 -1.125,0 -1.875,-0.67188 -0.75,-0.6875 -0.85937,-1.75 z m 6.6738,0 1.0625,-0.14062 q 0.17187,0.89062 0.60937,1.29687 0.4375,0.39063 1.0625,0.39063 0.75,0 1.26563,-0.51563 0.51562,-0.51562 0.51562,-1.28125 0,-0.71875 -0.48437,-1.1875 -0.46875,-0.48437 -1.20313,-0.48437 -0.29687,0 -0.75,0.125 l 0.125,-0.9375 q 0.10938,0.0156 0.17188,0.0156 0.67187,0 1.20312,-0.34375 0.54688,-0.35937 0.54688,-1.09375 0,-0.57812 -0.39063,-0.95312 -0.39062,-0.39063 -1.01562,-0.39063 -0.60938,0 -1.03125,0.39063 -0.40625,0.39062 -0.51563,1.15625 l -1.0625,-0.1875 q 0.1875,-1.04688 0.875,-1.625 0.6875,-0.59375 1.70313,-0.59375 0.70312,0 1.29687,0.3125 0.59375,0.29687 0.90625,0.8125 0.3125,0.51562 0.3125,1.10937 0,0.54688 -0.29687,1.01563 -0.29688,0.45312 -0.875,0.71875 0.75,0.17187 1.17187,0.73437 0.42188,0.54688 0.42188,1.39063 0,1.125 -0.82813,1.90625 -0.8125,0.78125 -2.0625,0.78125 -1.125,0 -1.875,-0.67188 -0.75,-0.6875 -0.85937,-1.75 z m 6.67382,0 1.0625,-0.14062 q 0.17188,0.89062 0.60938,1.29687 0.4375,0.39063 1.0625,0.39063 0.75,0 1.26562,-0.51563 0.51563,-0.51562 0.51563,-1.28125 0,-0.71875 -0.48438,-1.1875 -0.46875,-0.48437 -1.20312,-0.48437 -0.29688,0 -0.75,0.125 l 0.125,-0.9375 q 0.10937,0.0156 0.17187,0.0156 0.67188,0 1.20313,-0.34375 0.54687,-0.35937 0.54687,-1.09375 0,-0.57812 -0.39062,-0.95312 -0.39063,-0.39063 -1.01563,-0.39063 -0.60937,0 -1.03125,0.39063 -0.40625,0.39062 -0.51562,1.15625 l -1.0625,-0.1875 q 0.1875,-1.04688 0.875,-1.625 0.6875,-0.59375 1.70312,-0.59375 0.70313,0 1.29688,0.3125 0.59375,0.29687 0.90625,0.8125 0.3125,0.51562 0.3125,1.10937 0,0.54688 -0.29688,1.01563 -0.29687,0.45312 -0.875,0.71875 0.75,0.17187 1.17188,0.73437 0.42187,0.54688 0.42187,1.39063 0,1.125 -0.82812,1.90625 -0.8125,0.78125 -2.0625,0.78125 -1.125,0 -1.875,-0.67188 -0.75,-0.6875 -0.85938,-1.75 z"
       fill-rule="nonzero"
       id="path29" />
    <path
       fill="#000000"
       d="m 357.2504,206.95926 h -1.32812 v -8.82813 l -2.67188,0.98438 v -1.20313 l 3.79688,-1.42187 h 0.20312 z m 10.69858,0 h -6.82813 v -0.95313 l 3.60938,-4 q 0.8125,-0.92187 1.10937,-1.48437 0.29688,-0.5625 0.29688,-1.17188 0,-0.82812 -0.5,-1.34375 -0.48438,-0.51562 -1.29688,-0.51562 -1,0 -1.54687,0.5625 -0.54688,0.5625 -0.54688,1.5625 h -1.3125 q 0,-1.4375 0.92188,-2.32813 0.92187,-0.89062 2.48437,-0.89062 1.45313,0 2.29688,0.76562 0.84375,0.76563 0.84375,2.03125 0,1.53125 -1.96875,3.65625 l -2.78125,3.03125 h 5.21875 z m 1.57358,-0.6875 q 0,-0.34375 0.20312,-0.57813 0.20313,-0.23437 0.60938,-0.23437 0.40625,0 0.60937,0.23437 0.21875,0.23438 0.21875,0.57813 0,0.32812 -0.21875,0.54687 -0.20312,0.21875 -0.60937,0.21875 -0.40625,0 -0.60938,-0.21875 -0.20312,-0.21875 -0.20312,-0.54687 z m 9.27917,-2.8125 h 1.45313 v 1.07812 h -1.45313 v 2.42188 h -1.32812 v -2.42188 h -4.75 v -0.78125 l 4.67187,-7.21875 h 1.40625 z m -4.57812,0 h 3.25 v -5.10938 l -0.15625,0.28125 z m 7.82357,-1.71875 0.53125,-5.20313 h 5.34375 v 1.21875 h -4.21875 l -0.3125,2.84375 q 0.76563,-0.45312 1.73438,-0.45312 1.42187,0 2.26562,0.95312 0.84375,0.9375 0.84375,2.53125 0,1.625 -0.875,2.54688 -0.875,0.92187 -2.4375,0.92187 -1.375,0 -2.25,-0.76562 -0.875,-0.76563 -0.98437,-2.10938 h 1.25 q 0.10937,0.89063 0.625,1.34375 0.51562,0.45313 1.35937,0.45313 0.9375,0 1.45313,-0.625 0.53125,-0.64063 0.53125,-1.75 0,-1.03125 -0.57813,-1.67188 -0.5625,-0.64062 -1.5,-0.64062 -0.875,0 -1.35937,0.39062 l -0.35938,0.28125 z"
       fill-rule="nonzero"
       id="path31" />
    <path
       fill="#000000"
       d="m 468.76398,203.45926 h 1.45312 v 1.07812 h -1.45312 v 2.42188 h -1.32813 v -2.42188 h -4.75 v -0.78125 l 4.67188,-7.21875 h 1.40625 z m -4.57813,0 h 3.25 v -5.10938 l -0.15625,0.28125 z m 12.80796,0 h 1.45312 v 1.07812 h -1.45312 v 2.42188 h -1.32813 v -2.42188 h -4.75 v -0.78125 l 4.67188,-7.21875 h 1.40625 z m -4.57813,0 h 3.25 v -5.10938 l -0.15625,0.28125 z"
       fill-rule="nonzero"
       id="path33" />
    <path
       fill="#ffffff"
       d="m 227.46194,265.00278 v 0 c 0,-4.46185 3.61705,-8.07889 8.0789,-8.07889 h 66.92882 c 2.14264,0 4.19754,0.85117 5.71265,2.36624 1.51508,1.51511 2.36624,3.57001 2.36624,5.71265 v 32.31464 c 0,4.46185 -3.61703,8.07891 -8.07889,8.07891 h -66.92882 c -4.46185,0 -8.0789,-3.61706 -8.0789,-8.07891 z"
       fill-rule="evenodd"
       id="path35" />
    <path
       stroke="#595959"
       stroke-width="1"
       stroke-linejoin="round"
       stroke-linecap="butt"
       d="m 227.46194,265.00278 v 0 c 0,-4.46185 3.61705,-8.07889 8.0789,-8.07889 h 66.92882 c 2.14264,0 4.19754,0.85117 5.71265,2.36624 1.51508,1.51511 2.36624,3.57001 2.36624,5.71265 v 32.31464 c 0,4.46185 -3.61703,8.07891 -8.07889,8.07891 h -66.92882 c -4.46185,0 -8.0789,-3.61706 -8.0789,-8.07891 z"
       fill-rule="evenodd"
       id="path37" />
    <path
       fill="#000000"
       d="m 239.24841,268.33636 v 3.34375 h -1.125 v -8.53125 h 3.15625 q 1.39062,0 2.1875,0.71875 0.79687,0.70313 0.79687,1.89063 0,1.23437 -0.78125,1.90625 -0.76562,0.67187 -2.21875,0.67187 z m 0,-0.92187 h 2.03125 q 0.90625,0 1.375,-0.42188 0.48437,-0.42187 0.48437,-1.21875 0,-0.76562 -0.48437,-1.21875 -0.46875,-0.46875 -1.3125,-0.48437 h -2.09375 z m 9.35156,-1.10938 q -0.25,-0.0312 -0.53125,-0.0312 -1.07812,0 -1.45312,0.90625 v 4.5 h -1.07813 v -6.34375 h 1.04688 l 0.0156,0.73438 q 0.53125,-0.84375 1.51563,-0.84375 0.3125,0 0.48437,0.0781 z m 2.16992,5.375 h -1.07812 v -6.34375 h 1.07812 z m -1.17187,-8.01562 q 0,-0.26563 0.15625,-0.45313 0.17187,-0.1875 0.48437,-0.1875 0.3125,0 0.46875,0.1875 0.17188,0.1875 0.17188,0.45313 0,0.25 -0.17188,0.4375 -0.15625,0.17187 -0.46875,0.17187 -0.3125,0 -0.48437,-0.17187 -0.15625,-0.1875 -0.15625,-0.4375 z m 3.92773,1.67187 0.0312,0.70313 q 0.6875,-0.8125 1.875,-0.8125 1.32813,0 1.8125,1.01562 0.3125,-0.45312 0.8125,-0.73437 0.51563,-0.28125 1.20313,-0.28125 2.09375,0 2.125,2.20312 v 4.25 H 260.307 v -4.1875 q 0,-0.67187 -0.3125,-1 -0.3125,-0.34375 -1.04687,-0.34375 -0.60938,0 -1.01563,0.35938 -0.39062,0.35937 -0.45312,0.96875 v 4.20312 h -1.07813 v -4.15625 q 0,-1.375 -1.35937,-1.375 -1.0625,0 -1.45313,0.90625 v 4.625 h -1.09375 v -6.34375 z m 13.40821,6.34375 q -0.0937,-0.1875 -0.15625,-0.67187 -0.75,0.79687 -1.79688,0.79687 -0.9375,0 -1.54687,-0.53125 -0.59375,-0.53125 -0.59375,-1.35937 0,-0.98438 0.75,-1.53125 0.75,-0.54688 2.125,-0.54688 h 1.04687 v -0.5 q 0,-0.5625 -0.34375,-0.89062 -0.32812,-0.34375 -1,-0.34375 -0.57812,0 -0.96875,0.29687 -0.39062,0.28125 -0.39062,0.70313 h -1.09375 q 0,-0.48438 0.32812,-0.92188 0.34375,-0.4375 0.92188,-0.6875 0.57812,-0.26562 1.26562,-0.26562 1.10938,0 1.71875,0.54687 0.625,0.54688 0.65625,1.5 v 2.92188 q 0,0.875 0.21875,1.39062 v 0.0937 z m -1.79688,-0.82812 q 0.51563,0 0.96875,-0.26563 0.45313,-0.26562 0.65625,-0.6875 v -1.29687 h -0.84375 q -2,0 -2,1.17187 0,0.5 0.34375,0.79688 0.34375,0.28125 0.875,0.28125 z m 7.48047,-4.54688 q -0.25,-0.0312 -0.53125,-0.0312 -1.07812,0 -1.45312,0.90625 v 4.5 h -1.07813 v -6.34375 h 1.04688 l 0.0156,0.73438 q 0.53125,-0.84375 1.51563,-0.84375 0.3125,0 0.48437,0.0781 z m 3.16602,3.78125 1.48437,-4.75 h 1.15625 l -2.54687,7.32813 q -0.59375,1.57812 -1.875,1.57812 l -0.21875,-0.0156 -0.39063,-0.0781 v -0.875 l 0.28125,0.0156 q 0.5625,0 0.85938,-0.21875 0.3125,-0.21875 0.51562,-0.8125 l 0.23438,-0.65625 -2.26563,-6.26563 h 1.1875 z m 8.91406,-2.375 -1.04688,1.07813 v 2.89062 h -1.125 v -8.53125 h 1.125 v 4.21875 l 3.79688,-4.21875 h 1.35937 l -3.35937,3.76563 3.625,4.76562 h -1.34375 z m 7.66797,4.09375 q -1.29688,0 -2.10938,-0.84375 -0.79687,-0.85937 -0.79687,-2.28125 v -0.1875 q 0,-0.95312 0.35937,-1.6875 0.35938,-0.75 1,-1.15625 0.65625,-0.42187 1.40625,-0.42187 1.23438,0 1.92188,0.8125 0.6875,0.8125 0.6875,2.32812 v 0.45313 h -4.29688 q 0.0312,0.9375 0.54688,1.51562 0.53125,0.57813 1.34375,0.57813 0.5625,0 0.95312,-0.23438 0.40625,-0.23437 0.71875,-0.625 l 0.65625,0.51563 q -0.79687,1.23437 -2.39062,1.23437 z m -0.14063,-5.6875 q -0.65625,0 -1.10937,0.48438 -0.4375,0.46875 -0.53125,1.32812 h 3.17187 v -0.0781 q -0.0469,-0.82813 -0.45312,-1.28125 -0.39063,-0.45313 -1.07813,-0.45313 z m 5.85938,3.96875 1.48437,-4.75 h 1.15625 l -2.54687,7.32813 q -0.59375,1.57812 -1.875,1.57812 l -0.21875,-0.0156 -0.39063,-0.0781 v -0.875 l 0.28125,0.0156 q 0.5625,0 0.85938,-0.21875 0.3125,-0.21875 0.51562,-0.8125 l 0.23438,-0.65625 -2.26563,-6.26563 h 1.1875 z"
       fill-rule="nonzero"
       id="path39" />
    <path
       fill="#000000"
       d="m 246.14783,285.6801 v -5.5 h -1 v -0.84375 h 1 v -0.64063 q 0,-1.03125 0.53125,-1.57812 0.54687,-0.5625 1.54687,-0.5625 0.375,0 0.75,0.0937 l -0.0625,0.89062 q -0.28125,-0.0625 -0.57812,-0.0625 -0.53125,0 -0.82813,0.3125 -0.28125,0.3125 -0.28125,0.875 v 0.67188 h 1.35938 v 0.84375 h -1.35938 v 5.5 z m 6.69727,-5.375 q -0.25,-0.0312 -0.53125,-0.0312 -1.07813,0 -1.45313,0.90625 v 4.5 h -1.07812 v -6.34375 h 1.04687 l 0.0156,0.73437 q 0.53125,-0.84375 1.51562,-0.84375 0.3125,0 0.48438,0.0781 z m 0.58398,2.14062 q 0,-0.92187 0.35937,-1.67187 0.375,-0.75 1.03125,-1.14063 0.65625,-0.40625 1.48438,-0.40625 1.29687,0 2.09375,0.89063 0.8125,0.89062 0.8125,2.39062 v 0.0781 q 0,0.92187 -0.35938,1.65625 -0.35937,0.73437 -1.01562,1.15625 -0.65625,0.40625 -1.51563,0.40625 -1.28125,0 -2.09375,-0.89063 -0.79687,-0.90625 -0.79687,-2.39062 z m 1.09375,0.14063 q 0,1.04687 0.48437,1.6875 0.5,0.64062 1.3125,0.64062 0.82813,0 1.3125,-0.64062 0.48438,-0.65625 0.48438,-1.82813 0,-1.03125 -0.5,-1.67187 -0.48438,-0.65625 -1.3125,-0.65625 -0.79688,0 -1.29688,0.64062 -0.48437,0.625 -0.48437,1.82813 z m 7.0625,-3.25 0.0312,0.70312 q 0.6875,-0.8125 1.875,-0.8125 1.32812,0 1.8125,1.01563 0.3125,-0.45313 0.8125,-0.73438 0.51562,-0.28125 1.20312,-0.28125 2.09375,0 2.125,2.20313 v 4.25 h -1.07812 v -4.1875 q 0,-0.67188 -0.3125,-1 -0.3125,-0.34375 -1.04688,-0.34375 -0.60937,0 -1.01562,0.35937 -0.39063,0.35938 -0.45313,0.96875 v 4.20313 h -1.07812 v -4.15625 q 0,-1.375 -1.35938,-1.375 -1.0625,0 -1.45312,0.90625 v 4.625 h -1.09375 v -6.34375 z m 16.37891,6.34375 q -0.0937,-0.1875 -0.15625,-0.67188 -0.75,0.79688 -1.79688,0.79688 -0.9375,0 -1.54687,-0.53125 -0.59375,-0.53125 -0.59375,-1.35938 0,-0.98437 0.75,-1.53125 0.75,-0.54687 2.125,-0.54687 h 1.04687 v -0.5 q 0,-0.5625 -0.34375,-0.89063 -0.32812,-0.34375 -1,-0.34375 -0.57812,0 -0.96875,0.29688 -0.39062,0.28125 -0.39062,0.70312 h -1.09375 q 0,-0.48437 0.32812,-0.92187 0.34375,-0.4375 0.92188,-0.6875 0.57812,-0.26563 1.26562,-0.26563 1.10938,0 1.71875,0.54688 0.625,0.54687 0.65625,1.5 v 2.92187 q 0,0.875 0.21875,1.39063 v 0.0937 z m -1.79688,-0.82813 q 0.51563,0 0.96875,-0.26562 0.45313,-0.26563 0.65625,-0.6875 v -1.29688 h -0.84375 q -2,0 -2,1.17188 0,0.5 0.34375,0.79687 0.34375,0.28125 0.875,0.28125 z m 9.76172,-2.26562 q 0,1.4375 -0.65625,2.32812 -0.65625,0.89063 -1.79688,0.89063 -1.15625,0 -1.8125,-0.73438 v 3.04688 h -1.07812 v -8.78125 h 0.98437 l 0.0469,0.70312 q 0.67187,-0.8125 1.84375,-0.8125 1.14062,0 1.79687,0.85938 0.67188,0.85937 0.67188,2.39062 z m -1.07813,-0.125 q 0,-1.07813 -0.46875,-1.6875 -0.45312,-0.625 -1.25,-0.625 -0.98437,0 -1.46875,0.85937 v 3.03125 q 0.48438,0.875 1.48438,0.875 0.78125,0 1.23437,-0.60937 0.46875,-0.625 0.46875,-1.84375 z m 7.81055,0.125 q 0,1.4375 -0.65625,2.32812 -0.65625,0.89063 -1.79687,0.89063 -1.15625,0 -1.8125,-0.73438 v 3.04688 h -1.07813 v -8.78125 h 0.98438 l 0.0469,0.70312 q 0.67188,-0.8125 1.84375,-0.8125 1.14063,0 1.79688,0.85938 0.67187,0.85937 0.67187,2.39062 z m -1.07812,-0.125 q 0,-1.07813 -0.46875,-1.6875 -0.45313,-0.625 -1.25,-0.625 -0.98438,0 -1.46875,0.85937 v 3.03125 q 0.48437,0.875 1.48437,0.875 0.78125,0 1.23438,-0.60937 0.46875,-0.625 0.46875,-1.84375 z"
       fill-rule="nonzero"
       id="path41" />
    <path
       fill="#000000"
       d="m 252.87244,297.9926 q 0,-0.4375 -0.34375,-0.67188 -0.32813,-0.25 -1.15625,-0.42187 -0.8125,-0.17188 -1.29688,-0.42188 -0.48437,-0.25 -0.71875,-0.57812 -0.21875,-0.34375 -0.21875,-0.8125 0,-0.78125 0.65625,-1.3125 0.65625,-0.54688 1.6875,-0.54688 1.07813,0 1.73438,0.5625 0.67187,0.54688 0.67187,1.40625 h -1.07812 q 0,-0.4375 -0.39063,-0.75 -0.375,-0.32812 -0.9375,-0.32812 -0.59375,0 -0.9375,0.26562 -0.32812,0.25 -0.32812,0.65625 0,0.39063 0.3125,0.59375 0.3125,0.20313 1.125,0.39063 0.8125,0.17187 1.3125,0.42187 0.5,0.25 0.73437,0.60938 0.25,0.35937 0.25,0.85937 0,0.85938 -0.6875,1.375 -0.67187,0.51563 -1.75,0.51563 -0.76562,0 -1.35937,-0.26563 -0.57813,-0.28125 -0.90625,-0.76562 -0.32813,-0.48438 -0.32813,-1.04688 h 1.07813 q 0.0312,0.54688 0.4375,0.875 0.40625,0.3125 1.07812,0.3125 0.60938,0 0.98438,-0.25 0.375,-0.25 0.375,-0.67187 z m 5.125,1.8125 q -1.29688,0 -2.10938,-0.84375 -0.79687,-0.85938 -0.79687,-2.28125 v -0.1875 q 0,-0.95313 0.35937,-1.6875 0.35938,-0.75 1,-1.15625 0.65625,-0.42188 1.40625,-0.42188 1.23438,0 1.92188,0.8125 0.6875,0.8125 0.6875,2.32813 v 0.45312 h -4.29688 q 0.0312,0.9375 0.54688,1.51563 0.53125,0.57812 1.34375,0.57812 0.5625,0 0.95312,-0.23437 0.40625,-0.23438 0.71875,-0.625 l 0.65625,0.51562 q -0.79687,1.23438 -2.39062,1.23438 z m -0.14063,-5.6875 q -0.65625,0 -1.10937,0.48437 -0.4375,0.46875 -0.53125,1.32813 h 3.17187 v -0.0781 q -0.0469,-0.82812 -0.45312,-1.28125 -0.39063,-0.45312 -1.07813,-0.45312 z m 7.56055,3.875 q 0,-0.4375 -0.34375,-0.67188 -0.32812,-0.25 -1.15625,-0.42187 -0.8125,-0.17188 -1.29687,-0.42188 -0.48438,-0.25 -0.71875,-0.57812 -0.21875,-0.34375 -0.21875,-0.8125 0,-0.78125 0.65625,-1.3125 0.65625,-0.54688 1.6875,-0.54688 1.07812,0 1.73437,0.5625 0.67188,0.54688 0.67188,1.40625 h -1.07813 q 0,-0.4375 -0.39062,-0.75 -0.375,-0.32812 -0.9375,-0.32812 -0.59375,0 -0.9375,0.26562 -0.32813,0.25 -0.32813,0.65625 0,0.39063 0.3125,0.59375 0.3125,0.20313 1.125,0.39063 0.8125,0.17187 1.3125,0.42187 0.5,0.25 0.73438,0.60938 0.25,0.35937 0.25,0.85937 0,0.85938 -0.6875,1.375 -0.67188,0.51563 -1.75,0.51563 -0.76563,0 -1.35938,-0.26563 -0.57812,-0.28125 -0.90625,-0.76562 -0.32812,-0.48438 -0.32812,-1.04688 h 1.07812 q 0.0312,0.54688 0.4375,0.875 0.40625,0.3125 1.07813,0.3125 0.60937,0 0.98437,-0.25 0.375,-0.25 0.375,-0.67187 z m 6.1875,0 q 0,-0.4375 -0.34375,-0.67188 -0.32812,-0.25 -1.15625,-0.42187 -0.8125,-0.17188 -1.29687,-0.42188 -0.48438,-0.25 -0.71875,-0.57812 -0.21875,-0.34375 -0.21875,-0.8125 0,-0.78125 0.65625,-1.3125 0.65625,-0.54688 1.6875,-0.54688 1.07812,0 1.73437,0.5625 0.67188,0.54688 0.67188,1.40625 h -1.07813 q 0,-0.4375 -0.39062,-0.75 -0.375,-0.32812 -0.9375,-0.32812 -0.59375,0 -0.9375,0.26562 -0.32813,0.25 -0.32813,0.65625 0,0.39063 0.3125,0.59375 0.3125,0.20313 1.125,0.39063 0.8125,0.17187 1.3125,0.42187 0.5,0.25 0.73438,0.60938 0.25,0.35937 0.25,0.85937 0,0.85938 -0.6875,1.375 -0.67188,0.51563 -1.75,0.51563 -0.76563,0 -1.35938,-0.26563 -0.57812,-0.28125 -0.90625,-0.76562 -0.32812,-0.48438 -0.32812,-1.04688 h 1.07812 q 0.0312,0.54688 0.4375,0.875 0.40625,0.3125 1.07813,0.3125 0.60937,0 0.98437,-0.25 0.375,-0.25 0.375,-0.67187 z m 3.67188,1.6875 h -1.07813 v -6.34375 h 1.07813 z m -1.17188,-8.01563 q 0,-0.26562 0.15625,-0.45312 0.17188,-0.1875 0.48438,-0.1875 0.3125,0 0.46875,0.1875 0.17187,0.1875 0.17187,0.45312 0,0.25 -0.17187,0.4375 -0.15625,0.17188 -0.46875,0.17188 -0.3125,0 -0.48438,-0.17188 -0.15625,-0.1875 -0.15625,-0.4375 z m 2.61524,4.78125 q 0,-0.92187 0.35937,-1.67187 0.375,-0.75 1.03125,-1.14063 0.65625,-0.40625 1.48438,-0.40625 1.29687,0 2.09375,0.89063 0.8125,0.89062 0.8125,2.39062 v 0.0781 q 0,0.92187 -0.35938,1.65625 -0.35937,0.73437 -1.01562,1.15625 -0.65625,0.40625 -1.51563,0.40625 -1.28125,0 -2.09375,-0.89063 -0.79687,-0.90625 -0.79687,-2.39062 z m 1.09375,0.14063 q 0,1.04687 0.48437,1.6875 0.5,0.64062 1.3125,0.64062 0.82813,0 1.3125,-0.64062 0.48438,-0.65625 0.48438,-1.82813 0,-1.03125 -0.5,-1.67187 -0.48438,-0.65625 -1.3125,-0.65625 -0.79688,0 -1.29688,0.64062 -0.48437,0.625 -0.48437,1.82813 z m 7.0625,-3.25 0.0312,0.79687 q 0.73437,-0.90625 1.90625,-0.90625 2.01562,0 2.03125,2.26563 v 4.1875 h -1.09375 v -4.20313 q 0,-0.67187 -0.3125,-1 -0.29688,-0.32812 -0.95313,-0.32812 -0.53125,0 -0.9375,0.28125 -0.39062,0.28125 -0.60937,0.73437 v 4.51563 h -1.07813 v -6.34375 z"
       fill-rule="nonzero"
       id="path43" />
    <path
       fill="#000000"
       fill-opacity="0"
       d="M 269.00525,256.9239 V 217.6798"
       fill-rule="evenodd"
       id="path45" />
    <path
       stroke="#595959"
       stroke-width="1"
       stroke-linejoin="round"
       stroke-linecap="butt"
       d="M 269.00525,256.9239 V 217.6798"
       fill-rule="evenodd"
       id="path47" />
    <path
       fill="#ffffff"
       d="m 264.53806,217.59317 v 0 c 0,-2.40918 1.95303,-4.3622 4.36221,-4.3622 v 0 c 1.15692,0 2.26648,0.45958 3.08454,1.27767 0.81808,0.81807 1.27768,1.92761 1.27768,3.08453 v 0 c 0,2.40918 -1.95304,4.36221 -4.36222,4.36221 v 0 c -2.40918,0 -4.36221,-1.95303 -4.36221,-4.36221 z"
       fill-rule="evenodd"
       id="path49" />
    <path
       stroke="#595959"
       stroke-width="1"
       stroke-linejoin="round"
       stroke-linecap="butt"
       d="m 264.53806,217.59317 v 0 c 0,-2.40918 1.95303,-4.3622 4.36221,-4.3622 v 0 c 1.15692,0 2.26648,0.45958 3.08454,1.27767 0.81808,0.81807 1.27768,1.92761 1.27768,3.08453 v 0 c 0,2.40918 -1.95304,4.36221 -4.36222,4.36221 v 0 c -2.40918,0 -4.36221,-1.95303 -4.36221,-4.36221 z"
       fill-rule="evenodd"
       id="path51" />
    <path
       fill="#ffffff"
       d="m 323.46194,265.00278 v 0 c 0,-4.46185 3.61704,-8.07889 8.07889,-8.07889 h 66.92883 c 2.14264,0 4.19754,0.85117 5.71264,2.36624 1.51508,1.51511 2.36625,3.57001 2.36625,5.71265 v 32.31464 c 0,4.46185 -3.61704,8.07891 -8.07889,8.07891 h -66.92883 c -4.46185,0 -8.07889,-3.61706 -8.07889,-8.07891 z"
       fill-rule="evenodd"
       id="path53" />
    <path
       stroke="#595959"
       stroke-width="1"
       stroke-linejoin="round"
       stroke-linecap="butt"
       d="m 323.46194,265.00278 v 0 c 0,-4.46185 3.61704,-8.07889 8.07889,-8.07889 h 66.92883 c 2.14264,0 4.19754,0.85117 5.71264,2.36624 1.51508,1.51511 2.36625,3.57001 2.36625,5.71265 v 32.31464 c 0,4.46185 -3.61704,8.07891 -8.07889,8.07891 h -66.92883 c -4.46185,0 -8.07889,-3.61706 -8.07889,-8.07891 z"
       fill-rule="evenodd"
       id="path55" />
    <path
       fill="#000000"
       d="m 356.8158,274.9145 h -3.59375 v 3.76562 h -1.125 v -8.53125 h 5.29688 v 0.92188 h -4.17188 v 2.92187 h 3.59375 z m 4.66797,-1.60938 q -0.25,-0.0312 -0.53125,-0.0312 -1.07813,0 -1.45313,0.90625 v 4.5 h -1.07812 v -6.34375 h 1.04687 l 0.0156,0.73438 q 0.53125,-0.84375 1.51562,-0.84375 0.3125,0 0.48438,0.0781 z m 0.58398,2.14063 q 0,-0.92188 0.35938,-1.67188 0.375,-0.75 1.03125,-1.14062 0.65625,-0.40625 1.48437,-0.40625 1.29688,0 2.09375,0.89062 0.8125,0.89063 0.8125,2.39063 v 0.0781 q 0,0.92188 -0.35937,1.65625 -0.35938,0.73438 -1.01563,1.15625 -0.65625,0.40625 -1.51562,0.40625 -1.28125,0 -2.09375,-0.89062 -0.79688,-0.90625 -0.79688,-2.39063 z m 1.09375,0.14062 q 0,1.04688 0.48438,1.6875 0.5,0.64063 1.3125,0.64063 0.82812,0 1.3125,-0.64063 0.48437,-0.65625 0.48437,-1.82812 0,-1.03125 -0.5,-1.67188 -0.48437,-0.65625 -1.3125,-0.65625 -0.79687,0 -1.29687,0.64063 -0.48438,0.625 -0.48438,1.82812 z m 7.0625,-3.25 0.0312,0.70313 q 0.6875,-0.8125 1.875,-0.8125 1.32813,0 1.8125,1.01562 0.3125,-0.45312 0.8125,-0.73437 0.51563,-0.28125 1.20313,-0.28125 2.09375,0 2.125,2.20312 v 4.25 h -1.07813 v -4.1875 q 0,-0.67187 -0.3125,-1 -0.3125,-0.34375 -1.04687,-0.34375 -0.60938,0 -1.01563,0.35938 -0.39062,0.35937 -0.45312,0.96875 v 4.20312 H 373.099 v -4.15625 q 0,-1.375 -1.35937,-1.375 -1.0625,0 -1.45313,0.90625 v 4.625 h -1.09375 v -6.34375 z"
       fill-rule="nonzero"
       id="path57" />
    <path
       fill="#000000"
       d="m 332.43298,292.6801 v -5.5 h -1 v -0.84375 h 1 v -0.64063 q 0,-1.03125 0.53125,-1.57812 0.54687,-0.5625 1.54687,-0.5625 0.375,0 0.75,0.0937 l -0.0625,0.89062 q -0.28125,-0.0625 -0.57812,-0.0625 -0.53125,0 -0.82813,0.3125 -0.28125,0.3125 -0.28125,0.875 v 0.67188 h 1.35938 v 0.84375 h -1.35938 v 5.5 z m 6.11914,0.125 q -1.29687,0 -2.10937,-0.84375 -0.79688,-0.85938 -0.79688,-2.28125 v -0.1875 q 0,-0.95313 0.35938,-1.6875 0.35937,-0.75 1,-1.15625 0.65625,-0.42188 1.40625,-0.42188 1.23437,0 1.92187,0.8125 0.6875,0.8125 0.6875,2.32813 v 0.45312 H 336.724 q 0.0312,0.9375 0.54687,1.51563 0.53125,0.57812 1.34375,0.57812 0.5625,0 0.95313,-0.23437 0.40625,-0.23438 0.71875,-0.625 l 0.65625,0.51562 q -0.79688,1.23438 -2.39063,1.23438 z m -0.14062,-5.6875 q -0.65625,0 -1.10938,0.48437 -0.4375,0.46875 -0.53125,1.32813 h 3.17188 v -0.0781 q -0.0469,-0.82812 -0.45313,-1.28125 -0.39062,-0.45312 -1.07812,-0.45312 z m 7.77929,5.5625 q -0.0937,-0.1875 -0.15625,-0.67188 -0.75,0.79688 -1.79687,0.79688 -0.9375,0 -1.54688,-0.53125 -0.59375,-0.53125 -0.59375,-1.35938 0,-0.98437 0.75,-1.53125 0.75,-0.54687 2.125,-0.54687 h 1.04688 v -0.5 q 0,-0.5625 -0.34375,-0.89063 -0.32813,-0.34375 -1,-0.34375 -0.57813,0 -0.96875,0.29688 -0.39063,0.28125 -0.39063,0.70312 h -1.09375 q 0,-0.48437 0.32813,-0.92187 0.34375,-0.4375 0.92187,-0.6875 0.57813,-0.26563 1.26563,-0.26563 1.10937,0 1.71875,0.54688 0.625,0.54687 0.65625,1.5 v 2.92187 q 0,0.875 0.21875,1.39063 v 0.0937 z m -1.79687,-0.82813 q 0.51562,0 0.96875,-0.26562 0.45312,-0.26563 0.65625,-0.6875 v -1.29688 h -0.84375 q -2,0 -2,1.17188 0,0.5 0.34375,0.79687 0.34375,0.28125 0.875,0.28125 z m 5.88672,-7.04687 v 1.53125 h 1.17187 v 0.84375 h -1.17187 v 3.92187 q 0,0.39063 0.15625,0.57813 0.15625,0.1875 0.53125,0.1875 0.1875,0 0.51562,-0.0625 v 0.875 q -0.42187,0.125 -0.82812,0.125 -0.71875,0 -1.09375,-0.4375 -0.375,-0.45313 -0.375,-1.26563 v -3.92187 h -1.15625 v -0.84375 h 1.15625 v -1.53125 z m 6.35742,7.25 q -0.625,0.75 -1.85938,0.75 -1.01562,0 -1.54687,-0.59375 -0.53125,-0.59375 -0.53125,-1.75 v -4.125 h 1.07812 v 4.09375 q 0,1.45312 1.17188,1.45312 1.25,0 1.65625,-0.9375 v -4.60937 h 1.09375 v 6.34375 h -1.03125 z m 5.77148,-4.75 q -0.25,-0.0312 -0.53125,-0.0312 -1.07812,0 -1.45312,0.90625 v 4.5 h -1.07813 v -6.34375 h 1.04688 l 0.0156,0.73437 q 0.53125,-0.84375 1.51563,-0.84375 0.3125,0 0.48437,0.0781 z m 3.51172,5.5 q -1.29687,0 -2.10937,-0.84375 -0.79688,-0.85938 -0.79688,-2.28125 v -0.1875 q 0,-0.95313 0.35938,-1.6875 0.35937,-0.75 1,-1.15625 0.65625,-0.42188 1.40625,-0.42188 1.23437,0 1.92187,0.8125 0.6875,0.8125 0.6875,2.32813 v 0.45312 h -4.29687 q 0.0312,0.9375 0.54687,1.51563 0.53125,0.57812 1.34375,0.57812 0.5625,0 0.95313,-0.23437 0.40625,-0.23438 0.71875,-0.625 l 0.65625,0.51562 q -0.79688,1.23438 -2.39063,1.23438 z m -0.14062,-5.6875 q -0.65625,0 -1.10938,0.48437 -0.4375,0.46875 -0.53125,1.32813 h 3.17188 v -0.0781 q -0.0469,-0.82812 -0.45313,-1.28125 -0.39062,-0.45312 -1.07812,-0.45312 z m 10.53125,3.875 q 0,-0.4375 -0.34375,-0.67188 -0.32813,-0.25 -1.15625,-0.42187 -0.8125,-0.17188 -1.29688,-0.42188 -0.48437,-0.25 -0.71875,-0.57812 -0.21875,-0.34375 -0.21875,-0.8125 0,-0.78125 0.65625,-1.3125 0.65625,-0.54688 1.6875,-0.54688 1.07813,0 1.73438,0.5625 0.67187,0.54688 0.67187,1.40625 h -1.07812 q 0,-0.4375 -0.39063,-0.75 -0.375,-0.32812 -0.9375,-0.32812 -0.59375,0 -0.9375,0.26562 -0.32812,0.25 -0.32812,0.65625 0,0.39063 0.3125,0.59375 0.3125,0.20313 1.125,0.39063 0.8125,0.17187 1.3125,0.42187 0.5,0.25 0.73437,0.60938 0.25,0.35937 0.25,0.85937 0,0.85938 -0.6875,1.375 -0.67187,0.51563 -1.75,0.51563 -0.76562,0 -1.35937,-0.26563 -0.57813,-0.28125 -0.90625,-0.76562 -0.32813,-0.48438 -0.32813,-1.04688 h 1.07813 q 0.0312,0.54688 0.4375,0.875 0.40625,0.3125 1.07812,0.3125 0.60938,0 0.98438,-0.25 0.375,-0.25 0.375,-0.67187 z m 3.96875,-6.1875 v 1.53125 h 1.17187 v 0.84375 h -1.17187 v 3.92187 q 0,0.39063 0.15625,0.57813 0.15625,0.1875 0.53125,0.1875 0.1875,0 0.51562,-0.0625 v 0.875 q -0.42187,0.125 -0.82812,0.125 -0.71875,0 -1.09375,-0.4375 -0.375,-0.45313 -0.375,-1.26563 v -3.92187 h -1.15625 v -0.84375 h 1.15625 v -1.53125 z m 2.03711,4.64062 q 0,-0.92187 0.35937,-1.67187 0.375,-0.75 1.03125,-1.14063 0.65625,-0.40625 1.48438,-0.40625 1.29687,0 2.09375,0.89063 0.8125,0.89062 0.8125,2.39062 v 0.0781 q 0,0.92187 -0.35938,1.65625 -0.35937,0.73437 -1.01562,1.15625 -0.65625,0.40625 -1.51563,0.40625 -1.28125,0 -2.09375,-0.89063 -0.79687,-0.90625 -0.79687,-2.39062 z m 1.09375,0.14063 q 0,1.04687 0.48437,1.6875 0.5,0.64062 1.3125,0.64062 0.82813,0 1.3125,-0.64062 0.48438,-0.65625 0.48438,-1.82813 0,-1.03125 -0.5,-1.67187 -0.48438,-0.65625 -1.3125,-0.65625 -0.79688,0 -1.29688,0.64062 -0.48437,0.625 -0.48437,1.82813 z m 9.10937,-2.28125 q -0.25,-0.0312 -0.53125,-0.0312 -1.07812,0 -1.45312,0.90625 v 4.5 h -1.07813 v -6.34375 h 1.04688 l 0.0156,0.73437 q 0.53125,-0.84375 1.51563,-0.84375 0.3125,0 0.48437,0.0781 z m 3.51172,5.5 q -1.29688,0 -2.10938,-0.84375 -0.79687,-0.85938 -0.79687,-2.28125 v -0.1875 q 0,-0.95313 0.35937,-1.6875 0.35938,-0.75 1,-1.15625 0.65625,-0.42188 1.40625,-0.42188 1.23438,0 1.92188,0.8125 0.6875,0.8125 0.6875,2.32813 v 0.45312 h -4.29688 q 0.0312,0.9375 0.54688,1.51563 0.53125,0.57812 1.34375,0.57812 0.5625,0 0.95312,-0.23437 0.40625,-0.23438 0.71875,-0.625 l 0.65625,0.51562 q -0.79687,1.23438 -2.39062,1.23438 z m -0.14063,-5.6875 q -0.65625,0 -1.10937,0.48437 -0.4375,0.46875 -0.53125,1.32813 h 3.17187 v -0.0781 q -0.0469,-0.82812 -0.45312,-1.28125 -0.39063,-0.45312 -1.07813,-0.45312 z"
       fill-rule="nonzero"
       id="path59" />
    <path
       fill="#000000"
       fill-opacity="0"
       d="M 365.00525,256.9239 V 217.6798"
       fill-rule="evenodd"
       id="path61" />
    <path
       stroke="#595959"
       stroke-width="1"
       stroke-linejoin="round"
       stroke-linecap="butt"
       d="M 365.00525,256.9239 V 217.6798"
       fill-rule="evenodd"
       id="path63" />
    <path
       fill="#ffffff"
       d="m 360.53806,217.59317 v 0 c 0,-2.40918 1.95303,-4.3622 4.36221,-4.3622 v 0 c 1.15692,0 2.26648,0.45958 3.08454,1.27767 0.81808,0.81807 1.27768,1.92761 1.27768,3.08453 v 0 c 0,2.40918 -1.95304,4.36221 -4.36222,4.36221 v 0 c -2.40918,0 -4.36221,-1.95303 -4.36221,-4.36221 z"
       fill-rule="evenodd"
       id="path65" />
    <path
       stroke="#595959"
       stroke-width="1"
       stroke-linejoin="round"
       stroke-linecap="butt"
       d="m 360.53806,217.59317 v 0 c 0,-2.40918 1.95303,-4.3622 4.36221,-4.3622 v 0 c 1.15692,0 2.26648,0.45958 3.08454,1.27767 0.81808,0.81807 1.27768,1.92761 1.27768,3.08453 v 0 c 0,2.40918 -1.95304,4.36221 -4.36222,4.36221 v 0 c -2.40918,0 -4.36221,-1.95303 -4.36221,-4.36221 z"
       fill-rule="evenodd"
       id="path67" />
    <path
       fill="#ffffff"
       d="m 427.46194,265.00278 v 0 c 0,-4.46185 3.61704,-8.07889 8.07889,-8.07889 h 66.92883 c 2.14264,0 4.19754,0.85117 5.71264,2.36624 1.51508,1.51511 2.36625,3.57001 2.36625,5.71265 v 32.31464 c 0,4.46185 -3.61704,8.07891 -8.07889,8.07891 h -66.92883 c -4.46185,0 -8.07889,-3.61706 -8.07889,-8.07891 z"
       fill-rule="evenodd"
       id="path69" />
    <path
       stroke="#595959"
       stroke-width="1"
       stroke-linejoin="round"
       stroke-linecap="butt"
       d="m 427.46194,265.00278 v 0 c 0,-4.46185 3.61704,-8.07889 8.07889,-8.07889 h 66.92883 c 2.14264,0 4.19754,0.85117 5.71264,2.36624 1.51508,1.51511 2.36625,3.57001 2.36625,5.71265 v 32.31464 c 0,4.46185 -3.61704,8.07891 -8.07889,8.07891 h -66.92883 c -4.46185,0 -8.07889,-3.61706 -8.07889,-8.07891 z"
       fill-rule="evenodd"
       id="path71" />
    <path
       fill="#000000"
       d="m 460.8158,274.9145 h -3.59375 v 3.76562 h -1.125 v -8.53125 h 5.29688 v 0.92188 h -4.17188 v 2.92187 h 3.59375 z m 4.66797,-1.60938 q -0.25,-0.0312 -0.53125,-0.0312 -1.07813,0 -1.45313,0.90625 v 4.5 h -1.07812 v -6.34375 h 1.04687 l 0.0156,0.73438 q 0.53125,-0.84375 1.51562,-0.84375 0.3125,0 0.48438,0.0781 z m 0.58398,2.14063 q 0,-0.92188 0.35938,-1.67188 0.375,-0.75 1.03125,-1.14062 0.65625,-0.40625 1.48437,-0.40625 1.29688,0 2.09375,0.89062 0.8125,0.89063 0.8125,2.39063 v 0.0781 q 0,0.92188 -0.35937,1.65625 -0.35938,0.73438 -1.01563,1.15625 -0.65625,0.40625 -1.51562,0.40625 -1.28125,0 -2.09375,-0.89062 -0.79688,-0.90625 -0.79688,-2.39063 z m 1.09375,0.14062 q 0,1.04688 0.48438,1.6875 0.5,0.64063 1.3125,0.64063 0.82812,0 1.3125,-0.64063 0.48437,-0.65625 0.48437,-1.82812 0,-1.03125 -0.5,-1.67188 -0.48437,-0.65625 -1.3125,-0.65625 -0.79687,0 -1.29687,0.64063 -0.48438,0.625 -0.48438,1.82812 z m 7.0625,-3.25 0.0312,0.70313 q 0.6875,-0.8125 1.875,-0.8125 1.32813,0 1.8125,1.01562 0.3125,-0.45312 0.8125,-0.73437 0.51563,-0.28125 1.20313,-0.28125 2.09375,0 2.125,2.20312 v 4.25 h -1.07813 v -4.1875 q 0,-0.67187 -0.3125,-1 -0.3125,-0.34375 -1.04687,-0.34375 -0.60938,0 -1.01563,0.35938 -0.39062,0.35937 -0.45312,0.96875 v 4.20312 H 477.099 v -4.15625 q 0,-1.375 -1.35937,-1.375 -1.0625,0 -1.45313,0.90625 v 4.625 h -1.09375 v -6.34375 z"
       fill-rule="nonzero"
       id="path73" />
    <path
       fill="#000000"
       d="m 436.43298,292.6801 v -5.5 h -1 v -0.84375 h 1 v -0.64063 q 0,-1.03125 0.53125,-1.57812 0.54687,-0.5625 1.54687,-0.5625 0.375,0 0.75,0.0937 l -0.0625,0.89062 q -0.28125,-0.0625 -0.57812,-0.0625 -0.53125,0 -0.82813,0.3125 -0.28125,0.3125 -0.28125,0.875 v 0.67188 h 1.35938 v 0.84375 h -1.35938 v 5.5 z m 6.11914,0.125 q -1.29687,0 -2.10937,-0.84375 -0.79688,-0.85938 -0.79688,-2.28125 v -0.1875 q 0,-0.95313 0.35938,-1.6875 0.35937,-0.75 1,-1.15625 0.65625,-0.42188 1.40625,-0.42188 1.23437,0 1.92187,0.8125 0.6875,0.8125 0.6875,2.32813 v 0.45312 H 440.724 q 0.0312,0.9375 0.54687,1.51563 0.53125,0.57812 1.34375,0.57812 0.5625,0 0.95313,-0.23437 0.40625,-0.23438 0.71875,-0.625 l 0.65625,0.51562 q -0.79688,1.23438 -2.39063,1.23438 z m -0.14062,-5.6875 q -0.65625,0 -1.10938,0.48437 -0.4375,0.46875 -0.53125,1.32813 h 3.17188 v -0.0781 q -0.0469,-0.82812 -0.45313,-1.28125 -0.39062,-0.45312 -1.07812,-0.45312 z m 7.77929,5.5625 q -0.0937,-0.1875 -0.15625,-0.67188 -0.75,0.79688 -1.79687,0.79688 -0.9375,0 -1.54688,-0.53125 -0.59375,-0.53125 -0.59375,-1.35938 0,-0.98437 0.75,-1.53125 0.75,-0.54687 2.125,-0.54687 h 1.04688 v -0.5 q 0,-0.5625 -0.34375,-0.89063 -0.32813,-0.34375 -1,-0.34375 -0.57813,0 -0.96875,0.29688 -0.39063,0.28125 -0.39063,0.70312 h -1.09375 q 0,-0.48437 0.32813,-0.92187 0.34375,-0.4375 0.92187,-0.6875 0.57813,-0.26563 1.26563,-0.26563 1.10937,0 1.71875,0.54688 0.625,0.54687 0.65625,1.5 v 2.92187 q 0,0.875 0.21875,1.39063 v 0.0937 z m -1.79687,-0.82813 q 0.51562,0 0.96875,-0.26562 0.45312,-0.26563 0.65625,-0.6875 v -1.29688 h -0.84375 q -2,0 -2,1.17188 0,0.5 0.34375,0.79687 0.34375,0.28125 0.875,0.28125 z m 5.88672,-7.04687 v 1.53125 h 1.17187 v 0.84375 h -1.17187 v 3.92187 q 0,0.39063 0.15625,0.57813 0.15625,0.1875 0.53125,0.1875 0.1875,0 0.51562,-0.0625 v 0.875 q -0.42187,0.125 -0.82812,0.125 -0.71875,0 -1.09375,-0.4375 -0.375,-0.45313 -0.375,-1.26563 v -3.92187 h -1.15625 v -0.84375 h 1.15625 v -1.53125 z m 6.35742,7.25 q -0.625,0.75 -1.85938,0.75 -1.01562,0 -1.54687,-0.59375 -0.53125,-0.59375 -0.53125,-1.75 v -4.125 h 1.07812 v 4.09375 q 0,1.45312 1.17188,1.45312 1.25,0 1.65625,-0.9375 v -4.60937 h 1.09375 v 6.34375 h -1.03125 z m 5.77148,-4.75 q -0.25,-0.0312 -0.53125,-0.0312 -1.07812,0 -1.45312,0.90625 v 4.5 h -1.07813 v -6.34375 h 1.04688 l 0.0156,0.73437 q 0.53125,-0.84375 1.51563,-0.84375 0.3125,0 0.48437,0.0781 z m 3.51172,5.5 q -1.29687,0 -2.10937,-0.84375 -0.79688,-0.85938 -0.79688,-2.28125 v -0.1875 q 0,-0.95313 0.35938,-1.6875 0.35937,-0.75 1,-1.15625 0.65625,-0.42188 1.40625,-0.42188 1.23437,0 1.92187,0.8125 0.6875,0.8125 0.6875,2.32813 v 0.45312 h -4.29687 q 0.0312,0.9375 0.54687,1.51563 0.53125,0.57812 1.34375,0.57812 0.5625,0 0.95313,-0.23437 0.40625,-0.23438 0.71875,-0.625 l 0.65625,0.51562 q -0.79688,1.23438 -2.39063,1.23438 z m -0.14062,-5.6875 q -0.65625,0 -1.10938,0.48437 -0.4375,0.46875 -0.53125,1.32813 h 3.17188 v -0.0781 q -0.0469,-0.82812 -0.45313,-1.28125 -0.39062,-0.45312 -1.07812,-0.45312 z m 10.53125,3.875 q 0,-0.4375 -0.34375,-0.67188 -0.32813,-0.25 -1.15625,-0.42187 -0.8125,-0.17188 -1.29688,-0.42188 -0.48437,-0.25 -0.71875,-0.57812 -0.21875,-0.34375 -0.21875,-0.8125 0,-0.78125 0.65625,-1.3125 0.65625,-0.54688 1.6875,-0.54688 1.07813,0 1.73438,0.5625 0.67187,0.54688 0.67187,1.40625 h -1.07812 q 0,-0.4375 -0.39063,-0.75 -0.375,-0.32812 -0.9375,-0.32812 -0.59375,0 -0.9375,0.26562 -0.32812,0.25 -0.32812,0.65625 0,0.39063 0.3125,0.59375 0.3125,0.20313 1.125,0.39063 0.8125,0.17187 1.3125,0.42187 0.5,0.25 0.73437,0.60938 0.25,0.35937 0.25,0.85937 0,0.85938 -0.6875,1.375 -0.67187,0.51563 -1.75,0.51563 -0.76562,0 -1.35937,-0.26563 -0.57813,-0.28125 -0.90625,-0.76562 -0.32813,-0.48438 -0.32813,-1.04688 h 1.07813 q 0.0312,0.54688 0.4375,0.875 0.40625,0.3125 1.07812,0.3125 0.60938,0 0.98438,-0.25 0.375,-0.25 0.375,-0.67187 z m 3.96875,-6.1875 v 1.53125 h 1.17187 v 0.84375 h -1.17187 v 3.92187 q 0,0.39063 0.15625,0.57813 0.15625,0.1875 0.53125,0.1875 0.1875,0 0.51562,-0.0625 v 0.875 q -0.42187,0.125 -0.82812,0.125 -0.71875,0 -1.09375,-0.4375 -0.375,-0.45313 -0.375,-1.26563 v -3.92187 h -1.15625 v -0.84375 h 1.15625 v -1.53125 z m 2.03711,4.64062 q 0,-0.92187 0.35937,-1.67187 0.375,-0.75 1.03125,-1.14063 0.65625,-0.40625 1.48438,-0.40625 1.29687,0 2.09375,0.89063 0.8125,0.89062 0.8125,2.39062 v 0.0781 q 0,0.92187 -0.35938,1.65625 -0.35937,0.73437 -1.01562,1.15625 -0.65625,0.40625 -1.51563,0.40625 -1.28125,0 -2.09375,-0.89063 -0.79687,-0.90625 -0.79687,-2.39062 z m 1.09375,0.14063 q 0,1.04687 0.48437,1.6875 0.5,0.64062 1.3125,0.64062 0.82813,0 1.3125,-0.64062 0.48438,-0.65625 0.48438,-1.82813 0,-1.03125 -0.5,-1.67187 -0.48438,-0.65625 -1.3125,-0.65625 -0.79688,0 -1.29688,0.64062 -0.48437,0.625 -0.48437,1.82813 z m 9.10937,-2.28125 q -0.25,-0.0312 -0.53125,-0.0312 -1.07812,0 -1.45312,0.90625 v 4.5 h -1.07813 v -6.34375 h 1.04688 l 0.0156,0.73437 q 0.53125,-0.84375 1.51563,-0.84375 0.3125,0 0.48437,0.0781 z m 3.51172,5.5 q -1.29688,0 -2.10938,-0.84375 -0.79687,-0.85938 -0.79687,-2.28125 v -0.1875 q 0,-0.95313 0.35937,-1.6875 0.35938,-0.75 1,-1.15625 0.65625,-0.42188 1.40625,-0.42188 1.23438,0 1.92188,0.8125 0.6875,0.8125 0.6875,2.32813 v 0.45312 h -4.29688 q 0.0312,0.9375 0.54688,1.51563 0.53125,0.57812 1.34375,0.57812 0.5625,0 0.95312,-0.23437 0.40625,-0.23438 0.71875,-0.625 l 0.65625,0.51562 q -0.79687,1.23438 -2.39062,1.23438 z m -0.14063,-5.6875 q -0.65625,0 -1.10937,0.48437 -0.4375,0.46875 -0.53125,1.32813 h 3.17187 v -0.0781 q -0.0469,-0.82812 -0.45312,-1.28125 -0.39063,-0.45312 -1.07813,-0.45312 z"
       fill-rule="nonzero"
       id="path75" />
    <path
       fill="#000000"
       fill-opacity="0"
       d="M 469.00525,256.9239 V 217.6798"
       fill-rule="evenodd"
       id="path77" />
    <path
       stroke="#595959"
       stroke-width="1"
       stroke-linejoin="round"
       stroke-linecap="butt"
       d="M 469.00525,256.9239 V 217.6798"
       fill-rule="evenodd"
       id="path79" />
    <path
       fill="#ffffff"
       d="m 464.53806,217.59317 v 0 c 0,-2.40918 1.95303,-4.3622 4.36221,-4.3622 v 0 c 1.15692,0 2.26648,0.45958 3.08454,1.27767 0.81808,0.81807 1.27768,1.92761 1.27768,3.08453 v 0 c 0,2.40918 -1.95304,4.36221 -4.36222,4.36221 v 0 c -2.40918,0 -4.36221,-1.95303 -4.36221,-4.36221 z"
       fill-rule="evenodd"
       id="path81" />
    <path
       stroke="#595959"
       stroke-width="1"
       stroke-linejoin="round"
       stroke-linecap="butt"
       d="m 464.53806,217.59317 v 0 c 0,-2.40918 1.95303,-4.3622 4.36221,-4.3622 v 0 c 1.15692,0 2.26648,0.45958 3.08454,1.27767 0.81808,0.81807 1.27768,1.92761 1.27768,3.08453 v 0 c 0,2.40918 -1.95304,4.36221 -4.36222,4.36221 v 0 c -2.40918,0 -4.36221,-1.95303 -4.36221,-4.36221 z"
       fill-rule="evenodd"
       id="path83" />
  </g>
</svg>
