<?xml version="1.0" encoding="UTF-8" standalone="no"?>
<svg
   xmlns:dc="http://purl.org/dc/elements/1.1/"
   xmlns:cc="http://creativecommons.org/ns#"
   xmlns:rdf="http://www.w3.org/1999/02/22-rdf-syntax-ns#"
   xmlns:svg="http://www.w3.org/2000/svg"
   xmlns="http://www.w3.org/2000/svg"
   xmlns:sodipodi="http://sodipodi.sourceforge.net/DTD/sodipodi-0.dtd"
   xmlns:inkscape="http://www.inkscape.org/namespaces/inkscape"
   version="1.1"
   viewBox="0 0 850.76379 152.48686"
   fill="none"
   stroke="none"
   stroke-linecap="square"
   stroke-miterlimit="10"
   id="svg79"
   sodipodi:docname="batch-scoring-data.svg"
   width="850.76379"
   height="152.48686"
   inkscape:version="1.0.2 (e86c870879, 2021-01-15)">
  <metadata
     id="metadata85">
    <rdf:RDF>
      <cc:Work
         rdf:about="">
        <dc:format>image/svg+xml</dc:format>
        <dc:type
           rdf:resource="http://purl.org/dc/dcmitype/StillImage" />
      </cc:Work>
    </rdf:RDF>
  </metadata>
  <defs
     id="defs83">
    <defs
       id="defs24">
      <filter
         id="shadowFilter-g11efac50411_0_565.1"
         filterUnits="userSpaceOnUse">
        <feGaussianBlur
           in="SourceAlpha"
           stdDeviation="13.0"
           result="blur"
           id="feGaussianBlur11" />
        <feComponentTransfer
           in="blur"
           color-interpolation-filters="sRGB"
           id="feComponentTransfer21">
          <feFuncR
             type="linear"
             slope="0"
             intercept="0.07450981"
             id="feFuncR13" />
          <feFuncG
             type="linear"
             slope="0"
             intercept="0.30980393"
             id="feFuncG15" />
          <feFuncB
             type="linear"
             slope="0"
             intercept="0.36078432"
             id="feFuncB17" />
          <feFuncA
             type="linear"
             slope="0.2"
             intercept="0"
             id="feFuncA19" />
        </feComponentTransfer>
      </filter>
    </defs>
  </defs>
  <sodipodi:namedview
     pagecolor="#ffffff"
     bordercolor="#666666"
     borderopacity="1"
     objecttolerance="10"
     gridtolerance="10"
     guidetolerance="10"
     inkscape:pageopacity="0"
     inkscape:pageshadow="2"
     inkscape:window-width="1848"
     inkscape:window-height="1016"
     id="namedview81"
     showgrid="false"
     inkscape:zoom="1.3885417"
     inkscape:cx="425.15092"
     inkscape:cy="126.31364"
     inkscape:window-x="72"
     inkscape:window-y="27"
     inkscape:window-maximized="1"
     inkscape:current-layer="svg79" />
  <clipPath
     id="g11efac50411_0_565.0">
    <path
       d="M 0,0 H 960 V 540 H 0 Z"
       clip-rule="nonzero"
       id="path2" />
  </clipPath>
  <g
     id="g150"
     transform="translate(-54.849083,-143.68636)">
    <g
       id="g11efac50411_0_565.1">
      <path
         fill="#ffffff"
         d="M 55.349083,144.18636 H 905.11288 v 69.48032 H 55.349083 Z"
         fill-rule="evenodd"
         id="path26" />
      <path
         stroke="#fa3d73"
         stroke-width="1"
         stroke-linejoin="round"
         stroke-linecap="butt"
         d="M 55.349083,144.18636 H 905.11288 v 69.48032 H 55.349083 Z"
         fill-rule="evenodd"
         id="path28" />
      <path
         fill="#000000"
         d="m 438.27078,167.26636 v -10.48438 h 7.1875 v 1.76563 h -5.0625 v 2.48437 h 4.375 v 1.78125 h -4.375 v 4.45313 z m 13.32764,-2.42188 2,0.34375 q -0.375,1.09375 -1.21875,1.67188 -0.82813,0.57812 -2.07813,0.57812 -1.98437,0 -2.9375,-1.29687 -0.75,-1.03125 -0.75,-2.625 0,-1.875 0.98438,-2.9375 0.98437,-1.07813 2.5,-1.07813 1.6875,0 2.67187,1.125 0.98438,1.10938 0.9375,3.42188 h -5.03125 q 0.0156,0.89062 0.48438,1.39062 0.46875,0.5 1.15625,0.5 0.46875,0 0.78125,-0.25 0.32812,-0.26562 0.5,-0.84375 z m 0.10937,-2.03125 q -0.0156,-0.875 -0.45312,-1.32812 -0.42188,-0.45313 -1.03125,-0.45313 -0.67188,0 -1.09375,0.48438 -0.42188,0.46875 -0.42188,1.29687 z m 5.15109,-0.82812 -1.82812,-0.32813 q 0.29687,-1.10937 1.04687,-1.625 0.76563,-0.53125 2.23438,-0.53125 1.35937,0 2.01562,0.3125 0.65625,0.3125 0.92188,0.8125 0.26562,0.48438 0.26562,1.79688 l -0.0156,2.34375 q 0,1 0.0937,1.48437 0.0937,0.46875 0.35937,1.01563 h -1.98437 q -0.0781,-0.20313 -0.20313,-0.59375 -0.0469,-0.17188 -0.0625,-0.23438 -0.51562,0.5 -1.10937,0.75 -0.57813,0.25 -1.25,0.25 -1.17188,0 -1.85938,-0.64062 -0.67187,-0.64063 -0.67187,-1.60938 0,-0.64062 0.3125,-1.14062 0.3125,-0.51563 0.85937,-0.78125 0.5625,-0.26563 1.60938,-0.46875 1.40625,-0.26563 1.95312,-0.48438 v -0.20312 q 0,-0.57813 -0.29687,-0.82813 -0.28125,-0.25 -1.07813,-0.25 -0.53125,0 -0.84375,0.21875 -0.29687,0.20313 -0.46875,0.73438 z m 2.6875,1.625 q -0.39062,0.14062 -1.23437,0.32812 -0.82813,0.17188 -1.09375,0.34375 -0.39063,0.26563 -0.39063,0.70313 0,0.42187 0.3125,0.73437 0.3125,0.29688 0.8125,0.29688 0.53125,0 1.03125,-0.35938 0.35938,-0.26562 0.48438,-0.65625 0.0781,-0.26562 0.0781,-0.98437 z m 7.43235,-3.9375 v 1.59375 h -1.375 v 3.0625 q 0,0.9375 0.0312,1.09375 0.0469,0.14062 0.1875,0.25 0.14062,0.0937 0.34375,0.0937 0.28125,0 0.8125,-0.1875 l 0.17187,1.5625 q -0.70312,0.29687 -1.59375,0.29687 -0.54687,0 -0.98437,-0.17187 -0.42188,-0.1875 -0.64063,-0.46875 -0.20312,-0.29688 -0.28125,-0.79688 -0.0625,-0.35937 -0.0625,-1.42187 v -3.3125 h -0.92187 v -1.59375 h 0.92187 v -1.51563 l 2.01563,-1.17187 v 2.6875 z m 6.3963,7.59375 v -1.14063 q -0.40625,0.60938 -1.09375,0.96875 -0.67188,0.34375 -1.42188,0.34375 -0.76562,0 -1.375,-0.32812 -0.60937,-0.34375 -0.875,-0.95313 -0.26562,-0.60937 -0.26562,-1.6875 v -4.79687 h 2 v 3.48437 q 0,1.60938 0.10937,1.96875 0.10938,0.35938 0.40625,0.57813 0.29688,0.20312 0.75,0.20312 0.51563,0 0.92188,-0.28125 0.40625,-0.28125 0.54687,-0.70312 0.15625,-0.42188 0.15625,-2.04688 v -3.20312 h 2.01563 v 7.59375 z m 5.8901,0 h -2.01562 v -7.59375 h 1.85937 v 1.07812 q 0.48438,-0.76562 0.85938,-1 0.39062,-0.25 0.875,-0.25 0.6875,0 1.32812,0.375 l -0.625,1.75 q -0.5,-0.32812 -0.9375,-0.32812 -0.42187,0 -0.71875,0.23437 -0.29687,0.23438 -0.46875,0.84375 -0.15625,0.60938 -0.15625,2.54688 z m 8.1724,-2.42188 2,0.34375 q -0.375,1.09375 -1.21875,1.67188 -0.82813,0.57812 -2.07813,0.57812 -1.98437,0 -2.9375,-1.29687 -0.75,-1.03125 -0.75,-2.625 0,-1.875 0.98438,-2.9375 0.98437,-1.07813 2.5,-1.07813 1.6875,0 2.67187,1.125 0.98438,1.10938 0.9375,3.42188 h -5.03125 q 0.0156,0.89062 0.48438,1.39062 0.46875,0.5 1.15625,0.5 0.46875,0 0.78125,-0.25 0.32812,-0.26562 0.5,-0.84375 z m 0.10937,-2.03125 q -0.0156,-0.875 -0.45312,-1.32812 -0.42188,-0.45313 -1.03125,-0.45313 -0.67188,0 -1.09375,0.48438 -0.42188,0.46875 -0.42188,1.29687 z m 6.3386,4.45313 -3.75,-10.48438 h 2.29687 l 2.64063,7.75 2.57812,-7.75 h 2.25 l -3.76562,10.48438 z m 6.80752,-8.625 v -1.85938 h 2.01563 v 1.85938 z m 0,8.625 v -7.59375 h 2.01563 v 7.59375 z m 8.47821,-2.42188 2,0.34375 q -0.375,1.09375 -1.21875,1.67188 -0.82812,0.57812 -2.07812,0.57812 -1.98438,0 -2.9375,-1.29687 -0.75,-1.03125 -0.75,-2.625 0,-1.875 0.98437,-2.9375 0.98438,-1.07813 2.5,-1.07813 1.6875,0 2.67188,1.125 0.98437,1.10938 0.9375,3.42188 h -5.03125 q 0.0156,0.89062 0.48437,1.39062 0.46875,0.5 1.15625,0.5 0.46875,0 0.78125,-0.25 0.32813,-0.26562 0.5,-0.84375 z m 0.10938,-2.03125 q -0.0156,-0.875 -0.45313,-1.32812 -0.42187,-0.45313 -1.03125,-0.45313 -0.67187,0 -1.09375,0.48438 -0.42187,0.46875 -0.42187,1.29687 z m 5.05734,4.45313 -2.40622,-7.59375 h 1.95309 l 1.42188,4.96875 1.3125,-4.96875 h 1.9375 l 1.26562,4.96875 1.45313,-4.96875 h 1.98437 l -2.4375,7.59375 h -1.9375 l -1.3125,-4.89063 -1.28125,4.89063 z"
         fill-rule="nonzero"
         id="path30" />
    </g>
    <path
       fill="#000000"
       fill-opacity="0"
       d="m 74.51181,189.30183 h 809.5748"
       fill-rule="evenodd"
       id="path33" />
    <path
       stroke="#595959"
       stroke-width="1"
       stroke-linejoin="round"
       stroke-linecap="butt"
       d="m 74.51181,189.30183 h 803.5748"
       fill-rule="evenodd"
       id="path35" />
    <path
       fill="#595959"
       stroke="#595959"
       stroke-width="1"
       stroke-linecap="butt"
       d="m 878.0866,190.95357 4.53809,-1.65173 -4.53809,-1.65174 z"
       fill-rule="evenodd"
       id="path37" />
    <path
       fill="#000000"
       fill-opacity="0"
       d="m 442.4909,181.46707 h 175.55908 v 37.16536 H 442.4909 Z"
       fill-rule="evenodd"
       id="path39" />
    <path
       fill="#000000"
       d="m 460.52216,195.26582 h -3.25 l -1.60938,9.28125 h -1.34375 l 1.60938,-9.28125 h -3.23438 l 0.20313,-1.14063 h 7.8125 z m 1.14563,9.28125 h -1.28125 l 1.34375,-7.75 h 1.28125 z m 1.0625,-10.5625 q 0.32812,-0.0156 0.54687,0.20312 0.21875,0.20313 0.21875,0.54688 0,0.32812 -0.21875,0.54687 -0.20312,0.21875 -0.54687,0.23438 -0.32813,0 -0.54688,-0.20313 -0.21875,-0.20312 -0.21875,-0.53125 0.0156,-0.34375 0.21875,-0.5625 0.21875,-0.23437 0.54688,-0.23437 z m 3.61468,2.8125 -0.17187,0.85937 q 0.96875,-1.03125 2.35937,-1 0.73438,0.0156 1.25,0.34375 0.51563,0.3125 0.70313,0.90625 1.09375,-1.28125 2.5625,-1.25 1.17187,0.0312 1.71875,0.78125 0.54687,0.75 0.40625,2.01563 l -0.85938,5.09375 h -1.28125 l 0.84375,-5.10938 q 0.0469,-0.35937 0,-0.67187 -0.14062,-0.96875 -1.28125,-1 -0.70312,-0.0156 -1.28125,0.45312 -0.57812,0.45313 -0.73437,1.1875 l -0.875,5.14063 h -1.3125 l 0.85937,-5.09375 q 0.0937,-0.79688 -0.25,-1.21875 -0.32812,-0.4375 -1.01562,-0.45313 -1.21875,-0.0312 -1.9375,1.10938 l -0.96875,5.65625 h -1.29688 l 1.34375,-7.75 z m 13.32767,7.89062 q -1.45312,-0.0312 -2.26562,-1.0625 -0.8125,-1.03125 -0.6875,-2.65625 l 0.0312,-0.3125 q 0.125,-1.14062 0.6875,-2.09375 0.5625,-0.95312 1.35937,-1.4375 0.8125,-0.48437 1.75,-0.46875 1.20313,0.0312 1.875,0.79688 0.6875,0.76562 0.75,2.07812 0.0156,0.46875 -0.0312,0.92188 l -0.0781,0.59375 h -5.0625 q -0.125,1.0625 0.34375,1.79687 0.48437,0.73438 1.42187,0.76563 1.15625,0.0312 2.125,-1.03125 l 0.75,0.625 q -0.5,0.70312 -1.26562,1.10937 -0.76563,0.39063 -1.70313,0.375 z m 0.8125,-6.95312 q -0.79687,-0.0156 -1.40625,0.54687 -0.59375,0.5625 -0.9375,1.6875 h 3.76563 l 0.0312,-0.10937 q 0.10937,-0.90625 -0.29688,-1.5 -0.40625,-0.59375 -1.15625,-0.625 z"
       fill-rule="nonzero"
       id="path41" />
    <path
       fill="#000000"
       fill-opacity="0"
       d="m 413.03412,221.7559 v 0 c 0,9.25403 0.62515,16.7559 1.39627,16.7559 h 163.9476 v 0 c 0.37036,0 0.72546,-1.76535 0.98737,-4.90768 0.26184,-3.14235 0.40893,-7.40428 0.40893,-11.84822 z"
       fill-rule="evenodd"
       id="path43" />
    <path
       fill="#000000"
       fill-opacity="0"
       d="m 413.03412,221.7559 v 0 c 0,9.25403 0.62515,16.7559 1.39627,16.7559 h 163.9476 v 0 c 0.37036,0 0.72546,-1.76535 0.98737,-4.90768 0.26184,-3.14235 0.40893,-7.40428 0.40893,-11.84822"
       fill-rule="evenodd"
       id="path45" />
    <path
       stroke="#595959"
       stroke-width="1"
       stroke-linejoin="round"
       stroke-linecap="butt"
       d="m 413.03412,221.7559 v 0 c 0,9.25403 0.62515,16.7559 1.39627,16.7559 h 163.9476 v 0 c 0.37036,0 0.72546,-1.76535 0.98737,-4.90768 0.26184,-3.14235 0.40893,-7.40428 0.40893,-11.84822"
       fill-rule="evenodd"
       id="path47" />
    <path
       fill="#000000"
       fill-opacity="0"
       d="m 425.74802,241.2441 h 157.8898 v 54.92912 h -157.8898 z"
       fill-rule="evenodd"
       id="path49" />
    <path
       fill="#000000"
       d="m 435.95114,264.3241 v -10.42188 h 3.40625 q 1.70312,0 2.54687,0.70313 0.85938,0.70312 0.85938,2.07812 0,0.73438 -0.42188,1.29688 -0.40625,0.54687 -1.125,0.85937 0.85938,0.23438 1.34375,0.90625 0.48438,0.65625 0.48438,1.57813 0,1.39062 -0.90625,2.20312 -0.90625,0.79688 -2.5625,0.79688 z m 1.375,-4.875 v 3.75 h 2.28125 q 0.95312,0 1.5,-0.5 0.5625,-0.5 0.5625,-1.35938 0,-1.89062 -2.04688,-1.89062 z m 0,-1.09375 h 2.07812 q 0.90625,0 1.4375,-0.45313 0.54688,-0.45312 0.54688,-1.23437 0,-0.85938 -0.5,-1.23438 -0.5,-0.39062 -1.53125,-0.39062 h -2.03125 z m 12.32752,5.96875 q -0.10938,-0.23438 -0.1875,-0.8125 -0.92188,0.95312 -2.20313,0.95312 -1.14062,0 -1.875,-0.64062 -0.73437,-0.65625 -0.73437,-1.64063 0,-1.21875 0.92187,-1.875 0.92188,-0.67187 2.57813,-0.67187 h 1.29687 v -0.60938 q 0,-0.70312 -0.42187,-1.10937 -0.40625,-0.40625 -1.21875,-0.40625 -0.70313,0 -1.1875,0.35937 -0.48438,0.34375 -0.48438,0.85938 h -1.32812 q 0,-0.57813 0.40625,-1.10938 0.42187,-0.54687 1.125,-0.85937 0.70312,-0.32813 1.54687,-0.32813 1.34375,0 2.09375,0.67188 0.76563,0.67187 0.79688,1.84375 v 3.5625 q 0,1.0625 0.26562,1.70312 v 0.10938 z m -2.20313,-1.01563 q 0.625,0 1.1875,-0.3125 0.5625,-0.32812 0.8125,-0.84375 v -1.57812 h -1.04687 q -2.42188,0 -2.42188,1.42187 0,0.625 0.40625,0.96875 0.42188,0.34375 1.0625,0.34375 z m 7.19095,-8.60937 v 1.875 h 1.45312 v 1.03125 h -1.45312 v 4.79687 q 0,0.46875 0.1875,0.70313 0.20312,0.23437 0.67187,0.23437 0.21875,0 0.625,-0.0937 v 1.07813 q -0.53125,0.14062 -1.01562,0.14062 -0.89063,0 -1.34375,-0.53125 -0.45313,-0.54687 -0.45313,-1.53125 v -4.79687 h -1.40625 v -1.03125 h 1.40625 v -1.875 z m 6.1001,8.6875 q 0.70312,0 1.23437,-0.42188 0.53125,-0.4375 0.59375,-1.07812 h 1.25 q -0.0312,0.65625 -0.45312,1.26562 -0.42188,0.59375 -1.14063,0.95313 -0.70312,0.35937 -1.48437,0.35937 -1.57813,0 -2.51563,-1.04687 -0.9375,-1.0625 -0.9375,-2.89063 v -0.21875 q 0,-1.14062 0.40625,-2.01562 0.42188,-0.875 1.20313,-1.35938 0.78125,-0.5 1.82812,-0.5 1.3125,0 2.17188,0.78125 0.85937,0.78125 0.92187,2.03125 h -1.25 q -0.0625,-0.75 -0.57812,-1.23437 -0.5,-0.48438 -1.26563,-0.48438 -1,0 -1.5625,0.73438 -0.54687,0.71875 -0.54687,2.09375 v 0.25 q 0,1.32812 0.54687,2.0625 0.54688,0.71875 1.57813,0.71875 z m 5.89038,-5.875 q 0.875,-1.07813 2.28125,-1.07813 2.46875,0 2.48437,2.78125 v 5.10938 h -1.32812 v -5.125 q 0,-0.84375 -0.375,-1.23438 -0.375,-0.40625 -1.17188,-0.40625 -0.64062,0 -1.14062,0.34375 -0.48438,0.34375 -0.75,0.90625 v 5.51563 h -1.32813 v -11 h 1.32813 z m 13.65381,2.17187 q -1.76563,-0.51562 -2.57813,-1.25 -0.79687,-0.75 -0.79687,-1.82812 0,-1.23438 0.98437,-2.03125 0.98438,-0.8125 2.54688,-0.8125 1.07812,0 1.92187,0.42187 0.84375,0.40625 1.29688,1.14063 0.46875,0.73437 0.46875,1.59375 h -1.39063 q 0,-0.9375 -0.60937,-1.48438 -0.59375,-0.54687 -1.6875,-0.54687 -1.01563,0 -1.57813,0.45312 -0.5625,0.45313 -0.5625,1.23438 0,0.64062 0.53125,1.09375 0.54688,0.4375 1.84375,0.79687 1.29688,0.35938 2.03125,0.8125 0.73438,0.4375 1.07813,1.03125 0.35937,0.57813 0.35937,1.375 0,1.26563 -0.98437,2.03125 -0.98438,0.75 -2.64063,0.75 -1.07812,0 -2.01562,-0.40625 -0.92188,-0.42187 -1.42188,-1.125 -0.5,-0.71875 -0.5,-1.625 h 1.375 q 0,0.9375 0.6875,1.48438 0.70313,0.54687 1.875,0.54687 1.09375,0 1.67188,-0.4375 0.57812,-0.45312 0.57812,-1.21875 0,-0.76562 -0.54687,-1.17187 -0.53125,-0.42188 -1.9375,-0.82813 z m 8.5231,3.70313 q 0.70312,0 1.23437,-0.42188 0.53125,-0.4375 0.59375,-1.07812 h 1.25 q -0.0312,0.65625 -0.45312,1.26562 -0.42188,0.59375 -1.14063,0.95313 -0.70312,0.35937 -1.48437,0.35937 -1.57813,0 -2.51563,-1.04687 -0.9375,-1.0625 -0.9375,-2.89063 v -0.21875 q 0,-1.14062 0.40625,-2.01562 0.42188,-0.875 1.20313,-1.35938 0.78125,-0.5 1.82812,-0.5 1.3125,0 2.17188,0.78125 0.85937,0.78125 0.92187,2.03125 h -1.25 q -0.0625,-0.75 -0.57812,-1.23437 -0.5,-0.48438 -1.26563,-0.48438 -1,0 -1.5625,0.73438 -0.54687,0.71875 -0.54687,2.09375 v 0.25 q 0,1.32812 0.54687,2.0625 0.54688,0.71875 1.57813,0.71875 z m 4.2185,-3 q 0,-1.14063 0.4375,-2.04688 0.45313,-0.92187 1.25,-1.40625 0.79688,-0.5 1.82813,-0.5 1.57812,0 2.54687,1.09375 0.98438,1.09375 0.98438,2.92188 v 0.0937 q 0,1.125 -0.4375,2.03125 -0.4375,0.89062 -1.25,1.39062 -0.79688,0.5 -1.84375,0.5 -1.5625,0 -2.54688,-1.09375 -0.96875,-1.09375 -0.96875,-2.89062 z m 1.32813,0.15625 q 0,1.28125 0.59375,2.0625 0.59375,0.78125 1.59375,0.78125 1.01562,0 1.60937,-0.78125 0.59375,-0.79688 0.59375,-2.21875 0,-1.28125 -0.60937,-2.0625 -0.59375,-0.79688 -1.59375,-0.79688 -0.98438,0 -1.59375,0.78125 -0.59375,0.78125 -0.59375,2.23438 z m 11.12427,-2.78125 q -0.3125,-0.0469 -0.65625,-0.0469 -1.29688,0 -1.76563,1.10938 v 5.5 h -1.32812 v -7.75 h 1.29687 l 0.0156,0.90625 q 0.65625,-1.04688 1.84375,-1.04688 0.39062,0 0.59375,0.10938 z m 2.64688,6.5625 h -1.32813 v -7.75 h 1.32813 z m -1.42188,-9.79688 q 0,-0.32812 0.1875,-0.54687 0.20313,-0.21875 0.57813,-0.21875 0.39062,0 0.59375,0.21875 0.20312,0.21875 0.20312,0.54687 0,0.32813 -0.20312,0.54688 -0.20313,0.20312 -0.59375,0.20312 -0.375,0 -0.57813,-0.20312 -0.1875,-0.21875 -0.1875,-0.54688 z m 4.79108,2.04688 0.0469,0.98437 q 0.89063,-1.125 2.3125,-1.125 2.46875,0 2.48438,2.78125 v 5.10938 h -1.32813 v -5.125 q 0,-0.84375 -0.375,-1.23438 -0.375,-0.40625 -1.17187,-0.40625 -0.64063,0 -1.14063,0.34375 -0.48437,0.34375 -0.75,0.90625 v 5.51563 h -1.32812 v -7.75 z m 6.52423,3.8125 q 0,-1.8125 0.82813,-2.875 0.84375,-1.07813 2.23437,-1.07813 1.40625,0 2.20313,1 l 0.0625,-0.85937 h 1.21875 v 7.5625 q 0,1.5 -0.89063,2.35937 -0.89062,0.875 -2.40625,0.875 -0.82812,0 -1.64062,-0.35937 -0.79688,-0.35938 -1.21875,-0.98438 l 0.6875,-0.78125 q 0.85937,1.04688 2.07812,1.04688 0.96875,0 1.5,-0.54688 0.54688,-0.54687 0.54688,-1.53125 v -0.65625 q -0.78125,0.90625 -2.15625,0.90625 -1.35938,0 -2.20313,-1.09375 -0.84375,-1.09375 -0.84375,-2.98437 z m 1.32813,0.15625 q 0,1.3125 0.53125,2.0625 0.54687,0.73437 1.51562,0.73437 1.25,0 1.82813,-1.14062 v -3.53125 q -0.60938,-1.10938 -1.8125,-1.10938 -0.96875,0 -1.51563,0.75 -0.54687,0.75 -0.54687,2.23438 z m 11.03845,3.78125 v -10.42188 h 2.95312 q 1.35938,0 2.39063,0.60938 1.04687,0.59375 1.60937,1.70312 0.57813,1.10938 0.59375,2.54688 v 0.67187 q 0,1.46875 -0.57812,2.57813 -0.5625,1.10937 -1.625,1.70312 -1.04688,0.59375 -2.45313,0.60938 z m 1.375,-9.28125 v 8.15625 h 1.45312 q 1.59375,0 2.46875,-0.98438 0.89063,-0.98437 0.89063,-2.8125 v -0.60937 q 0,-1.78125 -0.84375,-2.76563 -0.82813,-0.98437 -2.35938,-0.98437 z m 12.81408,9.28125 q -0.10937,-0.23438 -0.1875,-0.8125 -0.92187,0.95312 -2.20312,0.95312 -1.14063,0 -1.875,-0.64062 -0.73438,-0.65625 -0.73438,-1.64063 0,-1.21875 0.92188,-1.875 0.92187,-0.67187 2.57812,-0.67187 h 1.29688 v -0.60938 q 0,-0.70312 -0.42188,-1.10937 -0.40625,-0.40625 -1.21875,-0.40625 -0.70312,0 -1.1875,0.35937 -0.48437,0.34375 -0.48437,0.85938 h -1.32813 q 0,-0.57813 0.40625,-1.10938 0.42188,-0.54687 1.125,-0.85937 0.70313,-0.32813 1.54688,-0.32813 1.34375,0 2.09375,0.67188 0.76562,0.67187 0.79687,1.84375 v 3.5625 q 0,1.0625 0.26563,1.70312 v 0.10938 z m -2.20312,-1.01563 q 0.625,0 1.1875,-0.3125 0.5625,-0.32812 0.8125,-0.84375 v -1.57812 h -1.04688 q -2.42187,0 -2.42187,1.42187 0,0.625 0.40625,0.96875 0.42187,0.34375 1.0625,0.34375 z m 7.19098,-8.60937 v 1.875 h 1.45312 v 1.03125 h -1.45312 v 4.79687 q 0,0.46875 0.1875,0.70313 0.20312,0.23437 0.67187,0.23437 0.21875,0 0.625,-0.0937 v 1.07813 q -0.53125,0.14062 -1.01562,0.14062 -0.89063,0 -1.34375,-0.53125 -0.45313,-0.54687 -0.45313,-1.53125 v -4.79687 h -1.40625 v -1.03125 h 1.40625 v -1.875 z m 7.77197,9.625 q -0.10937,-0.23438 -0.1875,-0.8125 -0.92187,0.95312 -2.20312,0.95312 -1.14063,0 -1.875,-0.64062 -0.73438,-0.65625 -0.73438,-1.64063 0,-1.21875 0.92188,-1.875 0.92187,-0.67187 2.57812,-0.67187 h 1.29688 v -0.60938 q 0,-0.70312 -0.42188,-1.10937 -0.40625,-0.40625 -1.21875,-0.40625 -0.70312,0 -1.1875,0.35937 -0.48437,0.34375 -0.48437,0.85938 h -1.32813 q 0,-0.57813 0.40625,-1.10938 0.42188,-0.54687 1.125,-0.85937 0.70313,-0.32813 1.54688,-0.32813 1.34375,0 2.09375,0.67188 0.76562,0.67187 0.79687,1.84375 v 3.5625 q 0,1.0625 0.26563,1.70312 v 0.10938 z m -2.20312,-1.01563 q 0.625,0 1.1875,-0.3125 0.5625,-0.32812 0.8125,-0.84375 v -1.57812 h -1.04688 q -2.42187,0 -2.42187,1.42187 0,0.625 0.40625,0.96875 0.42187,0.34375 1.0625,0.34375 z"
       fill-rule="nonzero"
       id="path51" />
    <path
       fill="#000000"
       d="m 442.43552,281.9241 h -6.82813 v -0.95313 l 3.60938,-4 q 0.8125,-0.92187 1.10937,-1.48437 0.29688,-0.5625 0.29688,-1.17188 0,-0.82812 -0.5,-1.34375 -0.48438,-0.51562 -1.29688,-0.51562 -1,0 -1.54687,0.5625 -0.54688,0.5625 -0.54688,1.5625 h -1.3125 q 0,-1.4375 0.92188,-2.32813 0.92187,-0.89062 2.48437,-0.89062 1.45313,0 2.29688,0.76562 0.84375,0.76563 0.84375,2.03125 0,1.53125 -1.96875,3.65625 l -2.78125,3.03125 h 5.21875 z m 7.94858,-4.4375 q 0,2.3125 -0.79688,3.45312 -0.79687,1.125 -2.48437,1.125 -1.67188,0 -2.46875,-1.09375 -0.79688,-1.10937 -0.82813,-3.3125 v -1.76562 q 0,-2.29688 0.78125,-3.40625 0.79688,-1.125 2.5,-1.125 1.6875,0 2.46875,1.07812 0.79688,1.07813 0.82813,3.32813 z m -1.32813,-1.8125 q 0,-1.6875 -0.48437,-2.45313 -0.46875,-0.76562 -1.48438,-0.76562 -1.01562,0 -1.48437,0.76562 -0.46875,0.76563 -0.48438,2.34375 v 2.125 q 0,1.6875 0.48438,2.5 0.5,0.79688 1.5,0.79688 0.98437,0 1.45312,-0.75 0.46875,-0.76563 0.5,-2.40625 z m 9.83921,6.25 h -6.82813 v -0.95313 l 3.60938,-4 q 0.8125,-0.92187 1.10937,-1.48437 0.29688,-0.5625 0.29688,-1.17188 0,-0.82812 -0.5,-1.34375 -0.48438,-0.51562 -1.29688,-0.51562 -1,0 -1.54687,0.5625 -0.54688,0.5625 -0.54688,1.5625 h -1.3125 q 0,-1.4375 0.92188,-2.32813 0.92187,-0.89062 2.48437,-0.89062 1.45313,0 2.29688,0.76562 0.84375,0.76563 0.84375,2.03125 0,1.53125 -1.96875,3.65625 l -2.78125,3.03125 h 5.21875 z m 8.22982,0 h -6.82812 v -0.95313 l 3.60937,-4 q 0.8125,-0.92187 1.10938,-1.48437 0.29687,-0.5625 0.29687,-1.17188 0,-0.82812 -0.5,-1.34375 -0.48437,-0.51562 -1.29687,-0.51562 -1,0 -1.54688,0.5625 -0.54687,0.5625 -0.54687,1.5625 h -1.3125 q 0,-1.4375 0.92187,-2.32813 0.92188,-0.89062 2.48438,-0.89062 1.45312,0 2.29687,0.76562 0.84375,0.76563 0.84375,2.03125 0,1.53125 -1.96875,3.65625 l -2.78125,3.03125 h 5.21875 z m 1.80796,0.89062 h -1.14063 l 4.35938,-11.3125 h 1.125 z m 12.1806,-5.32812 q 0,2.3125 -0.79688,3.45312 -0.79687,1.125 -2.48437,1.125 -1.67188,0 -2.46875,-1.09375 -0.79688,-1.10937 -0.82813,-3.3125 v -1.76562 q 0,-2.29688 0.78125,-3.40625 0.79688,-1.125 2.5,-1.125 1.6875,0 2.46875,1.07812 0.79688,1.07813 0.82813,3.32813 z m -1.32813,-1.8125 q 0,-1.6875 -0.48437,-2.45313 -0.46875,-0.76562 -1.48438,-0.76562 -1.01562,0 -1.48437,0.76562 -0.46875,0.76563 -0.48438,2.34375 v 2.125 q 0,1.6875 0.48438,2.5 0.5,0.79688 1.5,0.79688 0.98437,0 1.45312,-0.75 0.46875,-0.76563 0.5,-2.40625 z m 4.94858,0.39062 h 0.98438 q 0.9375,-0.0156 1.46875,-0.48437 0.54687,-0.48438 0.54687,-1.29688 0,-1.82812 -1.82812,-1.82812 -0.85938,0 -1.375,0.48437 -0.5,0.48438 -0.5,1.29688 h -1.32813 q 0,-1.23438 0.90625,-2.04688 0.90625,-0.82812 2.29688,-0.82812 1.48437,0 2.3125,0.78125 0.84375,0.78125 0.84375,2.17187 0,0.67188 -0.45313,1.3125 -0.4375,0.64063 -1.1875,0.95313 0.85938,0.26562 1.32813,0.90625 0.46875,0.625 0.46875,1.53125 0,1.40625 -0.92188,2.23437 -0.90625,0.8125 -2.375,0.8125 -1.46875,0 -2.39062,-0.79687 -0.92188,-0.79688 -0.92188,-2.09375 h 1.32813 q 0,0.82812 0.53125,1.32812 0.54687,0.48438 1.45312,0.48438 0.95313,0 1.45313,-0.5 0.51562,-0.5 0.51562,-1.4375 0,-0.90625 -0.5625,-1.39063 -0.54687,-0.5 -1.60937,-0.5 h -0.98438 z m 6.69858,6.75 h -1.14062 l 4.35937,-11.3125 h 1.125 z m 7.57123,-6.75 h 0.98437 q 0.9375,-0.0156 1.46875,-0.48437 0.54688,-0.48438 0.54688,-1.29688 0,-1.82812 -1.82813,-1.82812 -0.85937,0 -1.375,0.48437 -0.5,0.48438 -0.5,1.29688 h -1.32812 q 0,-1.23438 0.90625,-2.04688 0.90625,-0.82812 2.29687,-0.82812 1.48438,0 2.3125,0.78125 0.84375,0.78125 0.84375,2.17187 0,0.67188 -0.45312,1.3125 -0.4375,0.64063 -1.1875,0.95313 0.85937,0.26562 1.32812,0.90625 0.46875,0.625 0.46875,1.53125 0,1.40625 -0.92187,2.23437 -0.90625,0.8125 -2.375,0.8125 -1.46875,0 -2.39063,-0.79687 -0.92187,-0.79688 -0.92187,-2.09375 h 1.32812 q 0,0.82812 0.53125,1.32812 0.54688,0.48438 1.45313,0.48438 0.95312,0 1.45312,-0.5 0.51563,-0.5 0.51563,-1.4375 0,-0.90625 -0.5625,-1.39063 -0.54688,-0.5 -1.60938,-0.5 h -0.98437 z m 12.8392,1.42188 q 0,2.3125 -0.79687,3.45312 -0.79688,1.125 -2.48438,1.125 -1.67187,0 -2.46875,-1.09375 -0.79687,-1.10937 -0.82812,-3.3125 v -1.76562 q 0,-2.29688 0.78125,-3.40625 0.79687,-1.125 2.5,-1.125 1.6875,0 2.46875,1.07812 0.79687,1.07813 0.82812,3.32813 z m -1.32812,-1.8125 q 0,-1.6875 -0.48438,-2.45313 -0.46875,-0.76562 -1.48437,-0.76562 -1.01563,0 -1.48438,0.76562 -0.46875,0.76563 -0.48437,2.34375 v 2.125 q 0,1.6875 0.48437,2.5 0.5,0.79688 1.5,0.79688 0.98438,0 1.45313,-0.75 0.46875,-0.76563 0.5,-2.40625 z"
       fill-rule="nonzero"
       id="path53" />
    <path
       fill="#000000"
       fill-opacity="0"
       d="m 586.65875,221.7559 v 0 c 0,9.25403 0.62512,16.7559 1.3963,16.7559 h 191.66412 v 0 c 0.37036,0 0.72547,-1.76535 0.98731,-4.90768 0.2619,-3.14235 0.40899,-7.40428 0.40899,-11.84822 z"
       fill-rule="evenodd"
       id="path55" />
    <path
       fill="#000000"
       fill-opacity="0"
       d="m 586.65875,221.7559 v 0 c 0,9.25403 0.62512,16.7559 1.3963,16.7559 h 191.66412 v 0 c 0.37036,0 0.72547,-1.76535 0.98731,-4.90768 0.2619,-3.14235 0.40899,-7.40428 0.40899,-11.84822"
       fill-rule="evenodd"
       id="path57" />
    <path
       stroke="#595959"
       stroke-width="1"
       stroke-linejoin="round"
       stroke-linecap="butt"
       d="m 586.65875,221.7559 v 0 c 0,9.25403 0.62512,16.7559 1.3963,16.7559 h 191.66412 v 0 c 0.37036,0 0.72547,-1.76535 0.98731,-4.90768 0.2619,-3.14235 0.40899,-7.40428 0.40899,-11.84822"
       fill-rule="evenodd"
       id="path59" />
    <path
       fill="#000000"
       fill-opacity="0"
       d="m 57.54331,221.7559 v 0 c 0,9.25403 0.62513,16.7559 1.396267,16.7559 H 401.69034 v 0 c 0.37033,0 0.72546,-1.76535 0.9873,-4.90768 0.26187,-3.14235 0.40897,-7.40428 0.40897,-11.84822 z"
       fill-rule="evenodd"
       id="path61" />
    <path
       fill="#000000"
       fill-opacity="0"
       d="m 57.54331,221.7559 v 0 c 0,9.25403 0.62513,16.7559 1.396267,16.7559 H 401.69034 v 0 c 0.37033,0 0.72546,-1.76535 0.9873,-4.90768 0.26187,-3.14235 0.40897,-7.40428 0.40897,-11.84822"
       fill-rule="evenodd"
       id="path63" />
    <path
       stroke="#595959"
       stroke-width="1"
       stroke-linejoin="round"
       stroke-linecap="butt"
       d="m 57.54331,221.7559 v 0 c 0,9.25403 0.62513,16.7559 1.396267,16.7559 H 401.69034 v 0 c 0.37033,0 0.72546,-1.76535 0.9873,-4.90768 0.26187,-3.14235 0.40897,-7.40428 0.40897,-11.84822"
       fill-rule="evenodd"
       id="path65" />
    <path
       fill="#000000"
       fill-opacity="0"
       d="m 79.16274,241.39633 h 134.51968 v 37.16534 H 79.16274 Z"
       fill-rule="evenodd"
       id="path67" />
    <path
       fill="#000000"
       d="m 96.56899,255.19507 h -3.34375 v 9.28125 h -1.375 v -9.28125 h -3.34375 v -1.14063 h 8.0625 z m 4.55173,2.71875 q -0.3125,-0.0469 -0.65625,-0.0469 -1.296878,0 -1.765628,1.10938 v 5.5 h -1.328125 v -7.75 h 1.296875 l 0.01563,0.90625 q 0.65625,-1.04688 1.843758,-1.04688 0.39062,0 0.59375,0.10938 z m 5.70416,6.5625 q -0.10938,-0.23438 -0.1875,-0.8125 -0.92188,0.95312 -2.20313,0.95312 -1.14062,0 -1.875,-0.64062 -0.73437,-0.65625 -0.73437,-1.64063 0,-1.21875 0.92187,-1.875 0.92188,-0.67187 2.57813,-0.67187 h 1.29687 v -0.60938 q 0,-0.70312 -0.42187,-1.10937 -0.40625,-0.40625 -1.21875,-0.40625 -0.70313,0 -1.1875,0.35937 -0.48438,0.34375 -0.48438,0.85938 h -1.32812 q 0,-0.57813 0.40625,-1.10938 0.42187,-0.54687 1.125,-0.85937 0.70312,-0.32813 1.54687,-0.32813 1.34375,0 2.09375,0.67188 0.76563,0.67187 0.79688,1.84375 v 3.5625 q 0,1.0625 0.26562,1.70312 v 0.10938 z m -2.20313,-1.01563 q 0.625,0 1.1875,-0.3125 0.5625,-0.32812 0.8125,-0.84375 v -1.57812 h -1.04687 q -2.42188,0 -2.42188,1.42187 0,0.625 0.40625,0.96875 0.42188,0.34375 1.0625,0.34375 z m 6.83158,1.01563 h -1.32813 v -7.75 h 1.32813 z m -1.42188,-9.79688 q 0,-0.32812 0.1875,-0.54687 0.20313,-0.21875 0.57813,-0.21875 0.39062,0 0.59375,0.21875 0.20312,0.21875 0.20312,0.54687 0,0.32813 -0.20312,0.54688 -0.20313,0.20312 -0.59375,0.20312 -0.375,0 -0.57813,-0.20312 -0.1875,-0.21875 -0.1875,-0.54688 z m 4.7911,2.04688 0.0469,0.98437 q 0.89063,-1.125 2.3125,-1.125 2.46875,0 2.48438,2.78125 v 5.10938 h -1.32813 v -5.125 q 0,-0.84375 -0.375,-1.23438 -0.375,-0.40625 -1.17187,-0.40625 -0.64063,0 -1.14063,0.34375 -0.48437,0.34375 -0.75,0.90625 v 5.51563 h -1.32812 v -7.75 z m 8.2742,7.75 h -1.32813 v -7.75 h 1.32813 z m -1.42188,-9.79688 q 0,-0.32812 0.1875,-0.54687 0.20313,-0.21875 0.57813,-0.21875 0.39062,0 0.59375,0.21875 0.20312,0.21875 0.20312,0.54687 0,0.32813 -0.20312,0.54688 -0.20313,0.20312 -0.59375,0.20312 -0.375,0 -0.57813,-0.20312 -0.1875,-0.21875 -0.1875,-0.54688 z m 4.79109,2.04688 0.0469,0.98437 q 0.89062,-1.125 2.3125,-1.125 2.46875,0 2.48438,2.78125 v 5.10938 h -1.32813 v -5.125 q 0,-0.84375 -0.375,-1.23438 -0.375,-0.40625 -1.17187,-0.40625 -0.64063,0 -1.14063,0.34375 -0.48438,0.34375 -0.75,0.90625 v 5.51563 h -1.32813 v -7.75 z m 6.52421,3.8125 q 0,-1.8125 0.82813,-2.875 0.84375,-1.07813 2.23437,-1.07813 1.40625,0 2.20313,1 l 0.0625,-0.85937 h 1.21875 v 7.5625 q 0,1.5 -0.89063,2.35937 -0.89062,0.875 -2.40625,0.875 -0.82812,0 -1.64062,-0.35937 -0.79688,-0.35938 -1.21875,-0.98438 l 0.6875,-0.78125 q 0.85937,1.04688 2.07812,1.04688 0.96875,0 1.5,-0.54688 0.54688,-0.54687 0.54688,-1.53125 v -0.65625 q -0.78125,0.90625 -2.15625,0.90625 -1.35938,0 -2.20313,-1.09375 -0.84375,-1.09375 -0.84375,-2.98437 z m 1.32813,0.15625 q 0,1.3125 0.53125,2.0625 0.54687,0.73437 1.51562,0.73437 1.25,0 1.82813,-1.14062 v -3.53125 q -0.60938,-1.10938 -1.8125,-1.10938 -0.96875,0 -1.51563,0.75 -0.54687,0.75 -0.54687,2.23438 z m 7.41017,3.78125 v -10.42188 h 2.95312 q 1.35938,0 2.39063,0.60938 1.04687,0.59375 1.60937,1.70312 0.57813,1.10938 0.59375,2.54688 v 0.67187 q 0,1.46875 -0.57812,2.57813 -0.5625,1.10937 -1.625,1.70312 -1.04688,0.59375 -2.45313,0.60938 z m 1.375,-9.28125 v 8.15625 h 1.45312 q 1.59375,0 2.46875,-0.98438 0.89063,-0.98437 0.89063,-2.8125 v -0.60937 q 0,-1.78125 -0.84375,-2.76563 -0.82813,-0.98437 -2.35938,-0.98437 z m 12.81413,9.28125 q -0.10938,-0.23438 -0.1875,-0.8125 -0.92188,0.95312 -2.20313,0.95312 -1.14062,0 -1.875,-0.64062 -0.73437,-0.65625 -0.73437,-1.64063 0,-1.21875 0.92187,-1.875 0.92188,-0.67187 2.57813,-0.67187 h 1.29687 v -0.60938 q 0,-0.70312 -0.42187,-1.10937 -0.40625,-0.40625 -1.21875,-0.40625 -0.70313,0 -1.1875,0.35937 -0.48438,0.34375 -0.48438,0.85938 h -1.32812 q 0,-0.57813 0.40625,-1.10938 0.42187,-0.54687 1.125,-0.85937 0.70312,-0.32813 1.54687,-0.32813 1.34375,0 2.09375,0.67188 0.76563,0.67187 0.79688,1.84375 v 3.5625 q 0,1.0625 0.26562,1.70312 v 0.10938 z m -2.20313,-1.01563 q 0.625,0 1.1875,-0.3125 0.5625,-0.32812 0.8125,-0.84375 v -1.57812 h -1.04687 q -2.42188,0 -2.42188,1.42187 0,0.625 0.40625,0.96875 0.42188,0.34375 1.0625,0.34375 z m 7.19095,-8.60937 v 1.875 h 1.45313 v 1.03125 h -1.45313 v 4.79687 q 0,0.46875 0.1875,0.70313 0.20313,0.23437 0.67188,0.23437 0.21875,0 0.625,-0.0937 v 1.07813 q -0.53125,0.14062 -1.01563,0.14062 -0.89062,0 -1.34375,-0.53125 -0.45312,-0.54687 -0.45312,-1.53125 v -4.79687 h -1.40625 v -1.03125 h 1.40625 v -1.875 z m 7.77199,9.625 q -0.10937,-0.23438 -0.1875,-0.8125 -0.92187,0.95312 -2.20312,0.95312 -1.14063,0 -1.875,-0.64062 -0.73438,-0.65625 -0.73438,-1.64063 0,-1.21875 0.92188,-1.875 0.92187,-0.67187 2.57812,-0.67187 h 1.29688 v -0.60938 q 0,-0.70312 -0.42188,-1.10937 -0.40625,-0.40625 -1.21875,-0.40625 -0.70312,0 -1.1875,0.35937 -0.48437,0.34375 -0.48437,0.85938 h -1.32813 q 0,-0.57813 0.40625,-1.10938 0.42188,-0.54687 1.125,-0.85937 0.70313,-0.32813 1.54688,-0.32813 1.34375,0 2.09375,0.67188 0.76562,0.67187 0.79687,1.84375 v 3.5625 q 0,1.0625 0.26563,1.70312 v 0.10938 z m -2.20312,-1.01563 q 0.625,0 1.1875,-0.3125 0.5625,-0.32812 0.8125,-0.84375 v -1.57812 h -1.04688 q -2.42187,0 -2.42187,1.42187 0,0.625 0.40625,0.96875 0.42187,0.34375 1.0625,0.34375 z m 11.58485,-0.78125 1.90625,-5.95312 h 1.35938 l -2.78125,7.75 h -1 l -2.8125,-7.75 h 1.35937 z m 8.75537,1.79688 h -1.32812 v -8.82813 l -2.67188,0.98438 v -1.20313 l 3.79688,-1.42187 h 0.20312 z"
       fill-rule="nonzero"
       id="path69" />
    <path
       fill="#000000"
       fill-opacity="0"
       d="m 609.74805,241.2441 h 152.34644 v 54.92912 H 609.74805 Z"
       fill-rule="evenodd"
       id="path71" />
    <path
       fill="#000000"
       d="m 619.9512,264.3241 v -10.42188 h 3.40625 q 1.70312,0 2.54687,0.70313 0.85938,0.70312 0.85938,2.07812 0,0.73438 -0.42188,1.29688 -0.40625,0.54687 -1.125,0.85937 0.85938,0.23438 1.34375,0.90625 0.48438,0.65625 0.48438,1.57813 0,1.39062 -0.90625,2.20312 -0.90625,0.79688 -2.5625,0.79688 z m 1.375,-4.875 v 3.75 h 2.28125 q 0.95312,0 1.5,-0.5 0.5625,-0.5 0.5625,-1.35938 0,-1.89062 -2.04688,-1.89062 z m 0,-1.09375 h 2.07812 q 0.90625,0 1.4375,-0.45313 0.54688,-0.45312 0.54688,-1.23437 0,-0.85938 -0.5,-1.23438 -0.5,-0.39062 -1.53125,-0.39062 h -2.03125 z m 12.32745,5.96875 q -0.10937,-0.23438 -0.1875,-0.8125 -0.92187,0.95312 -2.20312,0.95312 -1.14063,0 -1.875,-0.64062 -0.73438,-0.65625 -0.73438,-1.64063 0,-1.21875 0.92188,-1.875 0.92187,-0.67187 2.57812,-0.67187 h 1.29688 v -0.60938 q 0,-0.70312 -0.42188,-1.10937 -0.40625,-0.40625 -1.21875,-0.40625 -0.70312,0 -1.1875,0.35937 -0.48437,0.34375 -0.48437,0.85938 h -1.32813 q 0,-0.57813 0.40625,-1.10938 0.42188,-0.54687 1.125,-0.85937 0.70313,-0.32813 1.54688,-0.32813 1.34375,0 2.09375,0.67188 0.76562,0.67187 0.79687,1.84375 v 3.5625 q 0,1.0625 0.26563,1.70312 v 0.10938 z m -2.20312,-1.01563 q 0.625,0 1.1875,-0.3125 0.5625,-0.32812 0.8125,-0.84375 v -1.57812 h -1.04688 q -2.42187,0 -2.42187,1.42187 0,0.625 0.40625,0.96875 0.42187,0.34375 1.0625,0.34375 z m 7.19098,-8.60937 v 1.875 h 1.45312 v 1.03125 h -1.45312 v 4.79687 q 0,0.46875 0.1875,0.70313 0.20312,0.23437 0.67187,0.23437 0.21875,0 0.625,-0.0937 v 1.07813 q -0.53125,0.14062 -1.01562,0.14062 -0.89063,0 -1.34375,-0.53125 -0.45313,-0.54687 -0.45313,-1.53125 v -4.79687 h -1.40625 v -1.03125 h 1.40625 v -1.875 z m 6.1001,8.6875 q 0.70312,0 1.23437,-0.42188 0.53125,-0.4375 0.59375,-1.07812 h 1.25 q -0.0312,0.65625 -0.45312,1.26562 -0.42188,0.59375 -1.14063,0.95313 -0.70312,0.35937 -1.48437,0.35937 -1.57813,0 -2.51563,-1.04687 -0.9375,-1.0625 -0.9375,-2.89063 v -0.21875 q 0,-1.14062 0.40625,-2.01562 0.42188,-0.875 1.20313,-1.35938 0.78125,-0.5 1.82812,-0.5 1.3125,0 2.17188,0.78125 0.85937,0.78125 0.92187,2.03125 h -1.25 q -0.0625,-0.75 -0.57812,-1.23437 -0.5,-0.48438 -1.26563,-0.48438 -1,0 -1.5625,0.73438 -0.54687,0.71875 -0.54687,2.09375 v 0.25 q 0,1.32812 0.54687,2.0625 0.54688,0.71875 1.57813,0.71875 z m 5.89038,-5.875 q 0.875,-1.07813 2.28125,-1.07813 2.46875,0 2.48437,2.78125 v 5.10938 h -1.32812 v -5.125 q 0,-0.84375 -0.375,-1.23438 -0.375,-0.40625 -1.17188,-0.40625 -0.64062,0 -1.14062,0.34375 -0.48438,0.34375 -0.75,0.90625 v 5.51563 h -1.32813 v -11 h 1.32813 z m 13.65381,2.17187 q -1.76563,-0.51562 -2.57813,-1.25 -0.79687,-0.75 -0.79687,-1.82812 0,-1.23438 0.98437,-2.03125 0.98438,-0.8125 2.54688,-0.8125 1.07812,0 1.92187,0.42187 0.84375,0.40625 1.29688,1.14063 0.46875,0.73437 0.46875,1.59375 h -1.39063 q 0,-0.9375 -0.60937,-1.48438 -0.59375,-0.54687 -1.6875,-0.54687 -1.01563,0 -1.57813,0.45312 -0.5625,0.45313 -0.5625,1.23438 0,0.64062 0.53125,1.09375 0.54688,0.4375 1.84375,0.79687 1.29688,0.35938 2.03125,0.8125 0.73438,0.4375 1.07813,1.03125 0.35937,0.57813 0.35937,1.375 0,1.26563 -0.98437,2.03125 -0.98438,0.75 -2.64063,0.75 -1.07812,0 -2.01562,-0.40625 -0.92188,-0.42187 -1.42188,-1.125 -0.5,-0.71875 -0.5,-1.625 h 1.375 q 0,0.9375 0.6875,1.48438 0.70313,0.54687 1.875,0.54687 1.09375,0 1.67188,-0.4375 0.57812,-0.45312 0.57812,-1.21875 0,-0.76562 -0.54687,-1.17187 -0.53125,-0.42188 -1.9375,-0.82813 z m 8.52313,3.70313 q 0.70312,0 1.23437,-0.42188 0.53125,-0.4375 0.59375,-1.07812 h 1.25 q -0.0312,0.65625 -0.45312,1.26562 -0.42188,0.59375 -1.14063,0.95313 -0.70312,0.35937 -1.48437,0.35937 -1.57813,0 -2.51563,-1.04687 -0.9375,-1.0625 -0.9375,-2.89063 v -0.21875 q 0,-1.14062 0.40625,-2.01562 0.42188,-0.875 1.20313,-1.35938 0.78125,-0.5 1.82812,-0.5 1.3125,0 2.17188,0.78125 0.85937,0.78125 0.92187,2.03125 h -1.25 q -0.0625,-0.75 -0.57812,-1.23437 -0.5,-0.48438 -1.26563,-0.48438 -1,0 -1.5625,0.73438 -0.54687,0.71875 -0.54687,2.09375 v 0.25 q 0,1.32812 0.54687,2.0625 0.54688,0.71875 1.57813,0.71875 z m 4.2185,-3 q 0,-1.14063 0.4375,-2.04688 0.45313,-0.92187 1.25,-1.40625 0.79688,-0.5 1.82813,-0.5 1.57812,0 2.54687,1.09375 0.98438,1.09375 0.98438,2.92188 v 0.0937 q 0,1.125 -0.4375,2.03125 -0.4375,0.89062 -1.25,1.39062 -0.79688,0.5 -1.84375,0.5 -1.5625,0 -2.54688,-1.09375 -0.96875,-1.09375 -0.96875,-2.89062 z m 1.32813,0.15625 q 0,1.28125 0.59375,2.0625 0.59375,0.78125 1.59375,0.78125 1.01562,0 1.60937,-0.78125 0.59375,-0.79688 0.59375,-2.21875 0,-1.28125 -0.60937,-2.0625 -0.59375,-0.79688 -1.59375,-0.79688 -0.98438,0 -1.59375,0.78125 -0.59375,0.78125 -0.59375,2.23438 z m 11.12427,-2.78125 q -0.3125,-0.0469 -0.65625,-0.0469 -1.29688,0 -1.76563,1.10938 v 5.5 h -1.32812 v -7.75 h 1.29687 l 0.0156,0.90625 q 0.65625,-1.04688 1.84375,-1.04688 0.39062,0 0.59375,0.10938 z m 2.64685,6.5625 h -1.32813 v -7.75 h 1.32813 z m -1.42188,-9.79688 q 0,-0.32812 0.1875,-0.54687 0.20313,-0.21875 0.57813,-0.21875 0.39062,0 0.59375,0.21875 0.20312,0.21875 0.20312,0.54687 0,0.32813 -0.20312,0.54688 -0.20313,0.20312 -0.59375,0.20312 -0.375,0 -0.57813,-0.20312 -0.1875,-0.21875 -0.1875,-0.54688 z m 4.79108,2.04688 0.0469,0.98437 q 0.89063,-1.125 2.3125,-1.125 2.46875,0 2.48438,2.78125 v 5.10938 h -1.32813 v -5.125 q 0,-0.84375 -0.375,-1.23438 -0.375,-0.40625 -1.17187,-0.40625 -0.64063,0 -1.14063,0.34375 -0.48437,0.34375 -0.75,0.90625 v 5.51563 h -1.32812 v -7.75 z m 6.52423,3.8125 q 0,-1.8125 0.82813,-2.875 0.84375,-1.07813 2.23437,-1.07813 1.40625,0 2.20313,1 l 0.0625,-0.85937 h 1.21875 v 7.5625 q 0,1.5 -0.89063,2.35937 -0.89062,0.875 -2.40625,0.875 -0.82812,0 -1.64062,-0.35937 -0.79688,-0.35938 -1.21875,-0.98438 l 0.6875,-0.78125 q 0.85937,1.04688 2.07812,1.04688 0.96875,0 1.5,-0.54688 0.54688,-0.54687 0.54688,-1.53125 v -0.65625 q -0.78125,0.90625 -2.15625,0.90625 -1.35938,0 -2.20313,-1.09375 -0.84375,-1.09375 -0.84375,-2.98437 z m 1.32813,0.15625 q 0,1.3125 0.53125,2.0625 0.54687,0.73437 1.51562,0.73437 1.25,0 1.82813,-1.14062 v -3.53125 q -0.60938,-1.10938 -1.8125,-1.10938 -0.96875,0 -1.51563,0.75 -0.54687,0.75 -0.54687,2.23438 z m 11.03845,3.78125 v -10.42188 h 2.95312 q 1.35938,0 2.39063,0.60938 1.04687,0.59375 1.60937,1.70312 0.57813,1.10938 0.59375,2.54688 v 0.67187 q 0,1.46875 -0.57812,2.57813 -0.5625,1.10937 -1.625,1.70312 -1.04688,0.59375 -2.45313,0.60938 z m 1.375,-9.28125 v 8.15625 h 1.45312 q 1.59375,0 2.46875,-0.98438 0.89063,-0.98437 0.89063,-2.8125 v -0.60937 q 0,-1.78125 -0.84375,-2.76563 -0.82813,-0.98437 -2.35938,-0.98437 z m 12.81408,9.28125 q -0.10937,-0.23438 -0.1875,-0.8125 -0.92187,0.95312 -2.20312,0.95312 -1.14063,0 -1.875,-0.64062 -0.73438,-0.65625 -0.73438,-1.64063 0,-1.21875 0.92188,-1.875 0.92187,-0.67187 2.57812,-0.67187 h 1.29688 v -0.60938 q 0,-0.70312 -0.42188,-1.10937 -0.40625,-0.40625 -1.21875,-0.40625 -0.70312,0 -1.1875,0.35937 -0.48437,0.34375 -0.48437,0.85938 h -1.32813 q 0,-0.57813 0.40625,-1.10938 0.42188,-0.54687 1.125,-0.85937 0.70313,-0.32813 1.54688,-0.32813 1.34375,0 2.09375,0.67188 0.76562,0.67187 0.79687,1.84375 v 3.5625 q 0,1.0625 0.26563,1.70312 v 0.10938 z m -2.20312,-1.01563 q 0.625,0 1.1875,-0.3125 0.5625,-0.32812 0.8125,-0.84375 v -1.57812 h -1.04688 q -2.42187,0 -2.42187,1.42187 0,0.625 0.40625,0.96875 0.42187,0.34375 1.0625,0.34375 z m 7.19098,-8.60937 v 1.875 h 1.45312 v 1.03125 h -1.45312 v 4.79687 q 0,0.46875 0.1875,0.70313 0.20312,0.23437 0.67187,0.23437 0.21875,0 0.625,-0.0937 v 1.07813 q -0.53125,0.14062 -1.01562,0.14062 -0.89063,0 -1.34375,-0.53125 -0.45313,-0.54687 -0.45313,-1.53125 v -4.79687 h -1.40625 v -1.03125 h 1.40625 v -1.875 z m 7.77197,9.625 q -0.10937,-0.23438 -0.1875,-0.8125 -0.92187,0.95312 -2.20312,0.95312 -1.14063,0 -1.875,-0.64062 -0.73438,-0.65625 -0.73438,-1.64063 0,-1.21875 0.92188,-1.875 0.92187,-0.67187 2.57812,-0.67187 h 1.29688 v -0.60938 q 0,-0.70312 -0.42188,-1.10937 -0.40625,-0.40625 -1.21875,-0.40625 -0.70312,0 -1.1875,0.35937 -0.48437,0.34375 -0.48437,0.85938 h -1.32813 q 0,-0.57813 0.40625,-1.10938 0.42188,-0.54687 1.125,-0.85937 0.70313,-0.32813 1.54688,-0.32813 1.34375,0 2.09375,0.67188 0.76562,0.67187 0.79687,1.84375 v 3.5625 q 0,1.0625 0.26563,1.70312 v 0.10938 z m -2.20312,-1.01563 q 0.625,0 1.1875,-0.3125 0.5625,-0.32812 0.8125,-0.84375 v -1.57812 h -1.04688 q -2.42187,0 -2.42187,1.42187 0,0.625 0.40625,0.96875 0.42187,0.34375 1.0625,0.34375 z"
       fill-rule="nonzero"
       id="path73" />
    <path
       fill="#000000"
       d="m 626.43555,281.9241 h -6.82812 v -0.95313 l 3.60937,-4 q 0.8125,-0.92187 1.10938,-1.48437 0.29687,-0.5625 0.29687,-1.17188 0,-0.82812 -0.5,-1.34375 -0.48437,-0.51562 -1.29687,-0.51562 -1,0 -1.54688,0.5625 -0.54687,0.5625 -0.54687,1.5625 h -1.3125 q 0,-1.4375 0.92187,-2.32813 0.92188,-0.89062 2.48438,-0.89062 1.45312,0 2.29687,0.76562 0.84375,0.76563 0.84375,2.03125 0,1.53125 -1.96875,3.65625 l -2.78125,3.03125 h 5.21875 z m 7.94855,-4.4375 q 0,2.3125 -0.79688,3.45312 -0.79687,1.125 -2.48437,1.125 -1.67188,0 -2.46875,-1.09375 -0.79688,-1.10937 -0.82813,-3.3125 v -1.76562 q 0,-2.29688 0.78125,-3.40625 0.79688,-1.125 2.5,-1.125 1.6875,0 2.46875,1.07812 0.79688,1.07813 0.82813,3.32813 z m -1.32813,-1.8125 q 0,-1.6875 -0.48437,-2.45313 -0.46875,-0.76562 -1.48438,-0.76562 -1.01562,0 -1.48437,0.76562 -0.46875,0.76563 -0.48438,2.34375 v 2.125 q 0,1.6875 0.48438,2.5 0.5,0.79688 1.5,0.79688 0.98437,0 1.45312,-0.75 0.46875,-0.76563 0.5,-2.40625 z m 9.83924,6.25 h -6.82813 v -0.95313 l 3.60938,-4 q 0.8125,-0.92187 1.10937,-1.48437 0.29688,-0.5625 0.29688,-1.17188 0,-0.82812 -0.5,-1.34375 -0.48438,-0.51562 -1.29688,-0.51562 -1,0 -1.54687,0.5625 -0.54688,0.5625 -0.54688,1.5625 h -1.3125 q 0,-1.4375 0.92188,-2.32813 0.92187,-0.89062 2.48437,-0.89062 1.45313,0 2.29688,0.76562 0.84375,0.76563 0.84375,2.03125 0,1.53125 -1.96875,3.65625 l -2.78125,3.03125 h 5.21875 z m 8.22979,0 h -6.82812 v -0.95313 l 3.60937,-4 q 0.8125,-0.92187 1.10938,-1.48437 0.29687,-0.5625 0.29687,-1.17188 0,-0.82812 -0.5,-1.34375 -0.48437,-0.51562 -1.29687,-0.51562 -1,0 -1.54688,0.5625 -0.54687,0.5625 -0.54687,1.5625 h -1.3125 q 0,-1.4375 0.92187,-2.32813 0.92188,-0.89062 2.48438,-0.89062 1.45312,0 2.29687,0.76562 0.84375,0.76563 0.84375,2.03125 0,1.53125 -1.96875,3.65625 l -2.78125,3.03125 h 5.21875 z m 1.80799,0.89062 h -1.14063 l 4.35938,-11.3125 h 1.125 z m 12.1806,-5.32812 q 0,2.3125 -0.79688,3.45312 -0.79687,1.125 -2.48437,1.125 -1.67188,0 -2.46875,-1.09375 -0.79688,-1.10937 -0.82813,-3.3125 v -1.76562 q 0,-2.29688 0.78125,-3.40625 0.79688,-1.125 2.5,-1.125 1.6875,0 2.46875,1.07812 0.79688,1.07813 0.82813,3.32813 z m -1.32813,-1.8125 q 0,-1.6875 -0.48437,-2.45313 -0.46875,-0.76562 -1.48438,-0.76562 -1.01562,0 -1.48437,0.76562 -0.46875,0.76563 -0.48438,2.34375 v 2.125 q 0,1.6875 0.48438,2.5 0.5,0.79688 1.5,0.79688 0.98437,0 1.45312,-0.75 0.46875,-0.76563 0.5,-2.40625 z m 4.94855,0.39062 h 0.98438 q 0.9375,-0.0156 1.46875,-0.48437 0.54687,-0.48438 0.54687,-1.29688 0,-1.82812 -1.82812,-1.82812 -0.85938,0 -1.375,0.48437 -0.5,0.48438 -0.5,1.29688 h -1.32813 q 0,-1.23438 0.90625,-2.04688 0.90625,-0.82812 2.29688,-0.82812 1.48437,0 2.3125,0.78125 0.84375,0.78125 0.84375,2.17187 0,0.67188 -0.45313,1.3125 -0.4375,0.64063 -1.1875,0.95313 0.85938,0.26562 1.32813,0.90625 0.46875,0.625 0.46875,1.53125 0,1.40625 -0.92188,2.23437 -0.90625,0.8125 -2.375,0.8125 -1.46875,0 -2.39062,-0.79687 -0.92188,-0.79688 -0.92188,-2.09375 h 1.32813 q 0,0.82812 0.53125,1.32812 0.54687,0.48438 1.45312,0.48438 0.95313,0 1.45313,-0.5 0.51562,-0.5 0.51562,-1.4375 0,-0.90625 -0.5625,-1.39063 -0.54687,-0.5 -1.60937,-0.5 h -0.98438 z m 6.69861,6.75 h -1.14063 l 4.35938,-11.3125 h 1.125 z m 7.57123,-6.75 h 0.98437 q 0.9375,-0.0156 1.46875,-0.48437 0.54688,-0.48438 0.54688,-1.29688 0,-1.82812 -1.82813,-1.82812 -0.85937,0 -1.375,0.48437 -0.5,0.48438 -0.5,1.29688 h -1.32812 q 0,-1.23438 0.90625,-2.04688 0.90625,-0.82812 2.29687,-0.82812 1.48438,0 2.3125,0.78125 0.84375,0.78125 0.84375,2.17187 0,0.67188 -0.45312,1.3125 -0.4375,0.64063 -1.1875,0.95313 0.85937,0.26562 1.32812,0.90625 0.46875,0.625 0.46875,1.53125 0,1.40625 -0.92187,2.23437 -0.90625,0.8125 -2.375,0.8125 -1.46875,0 -2.39063,-0.79687 -0.92187,-0.79688 -0.92187,-2.09375 h 1.32812 q 0,0.82812 0.53125,1.32812 0.54688,0.48438 1.45313,0.48438 0.95312,0 1.45312,-0.5 0.51563,-0.5 0.51563,-1.4375 0,-0.90625 -0.5625,-1.39063 -0.54688,-0.5 -1.60938,-0.5 h -0.98437 z m 10.65167,5.85938 h -1.32813 v -8.82813 l -2.67187,0.98438 v -1.20313 l 3.79687,-1.42187 h 0.20313 z"
       fill-rule="nonzero"
       id="path75" />
  </g>
</svg>
