<svg fill="#000000" xmlns="http://www.w3.org/2000/svg"  viewBox="0 0 24 24" width="24px" height="24px"><path d="M 4 3 C 2.897 3 2 3.897 2 5 L 2 21 L 16 21 L 22 21 L 22 9 C 22 7.9069372 21.093063 7 20 7 L 16 7 L 16 5 C 16 3.897 15.103 3 14 3 L 4 3 z M 6 7 L 8 7 L 8 9 L 6 9 L 6 7 z M 10 7 L 12 7 L 12 9 L 10 9 L 10 7 z M 16 9 L 20 9 L 20 19 L 16 19 L 16 17 L 18 17 L 18 15 L 16 15 L 16 13 L 18 13 L 18 11 L 16 11 L 16 9 z M 6 11 L 8 11 L 8 13 L 6 13 L 6 11 z M 10 11 L 12 11 L 12 13 L 10 13 L 10 11 z M 6 15 L 8 15 L 8 17 L 6 17 L 6 15 z M 10 15 L 12 15 L 12 17 L 10 17 L 10 15 z"/></svg>