<?xml version="1.0"?><svg fill="#000000" xmlns="http://www.w3.org/2000/svg"  viewBox="0 0 30 30" width="30px" height="30px">    <path d="M 4 3 L 2 5 L 4 9 L 7 10 L 10.5 13.5 L 12.5 11.5 L 9 8 L 8 5 L 4 3 z M 22.066406 3.0097656 C 20.407875 2.9441875 18.729641 3.5425937 17.462891 4.8085938 C 15.826825 6.4446592 15.680345 8.412418 16.494141 10.263672 L 4.8789062 21.878906 C 3.7069063 23.050906 3.7069062 24.949094 4.8789062 26.121094 C 6.0509062 27.293094 7.9490937 27.293094 9.1210938 26.121094 L 20.736328 14.505859 C 22.587461 15.319359 24.555464 15.171777 26.191406 13.535156 C 27.880406 11.846156 28.381125 9.424875 27.703125 7.296875 L 23.998047 11.003906 L 20.796875 10.203125 L 19.996094 7.0019531 L 23.703125 3.296875 C 23.170875 3.127625 22.61925 3.031625 22.066406 3.0097656 z M 20.521484 17.636719 L 16.757812 21.400391 L 21.576172 26.220703 C 22.616172 27.260703 24.302797 27.260703 25.341797 26.220703 C 26.381797 25.180703 26.381797 23.495078 25.341797 22.455078 L 20.521484 17.636719 z M 7 23 C 7.552 23 8 23.448 8 24 C 8 24.552 7.552 25 7 25 C 6.448 25 6 24.552 6 24 C 6 23.448 6.448 23 7 23 z"/></svg>