<svg fill="#000000" xmlns="http://www.w3.org/2000/svg"  viewBox="0 0 64 64" width="64px" height="64px"><path d="M 44.5 6.1992188 C 41.1 6.1992188 37.699609 7.4996094 35.099609 10.099609 L 26.099609 19.099609 L 26 19.199219 C 30.2 18.399219 33.299219 20.799609 33.699219 21.099609 L 39.900391 14.900391 C 42.400391 12.400391 46.499609 12.400391 49.099609 14.900391 C 50.399609 16.200391 51 17.8 51 19.5 C 51 21.2 50.399609 22.799609 49.099609 24.099609 L 39.099609 34.099609 C 36.599609 36.599609 32.500391 36.599609 29.900391 34.099609 C 29.000391 33.199609 28.399219 32.1 28.199219 31 C 27.299219 31.5 25.099219 32.9 24.199219 35.5 C 24.699219 36.4 25.399609 37.200391 26.099609 37.900391 C 31.299609 43.100391 39.700391 43.100391 44.900391 37.900391 L 53.900391 28.900391 C 59.100391 23.700391 59.100391 15.299609 53.900391 10.099609 C 51.300391 7.4996094 47.9 6.1992188 44.5 6.1992188 z M 28.5 22.199219 C 25.1 22.199219 21.699609 23.499609 19.099609 26.099609 L 10.099609 35.099609 C 4.8996094 40.299609 4.8996094 48.700391 10.099609 53.900391 C 15.299609 59.100391 23.700391 59.100391 28.900391 53.900391 L 37.900391 44.900391 L 38 44.800781 C 33.8 45.600781 30.700781 43.200391 30.300781 42.900391 L 24.099609 49.099609 C 21.599609 51.599609 17.500391 51.599609 14.900391 49.099609 C 13.600391 47.799609 13 46.2 13 44.5 C 13 42.8 13.600391 41.200391 14.900391 39.900391 L 24.900391 29.900391 C 27.400391 27.400391 31.499609 27.400391 34.099609 29.900391 C 34.999609 30.800391 35.600781 31.9 35.800781 33 C 36.700781 32.5 39.000781 31.1 39.800781 28.5 C 39.300781 27.6 38.600391 26.799609 37.900391 26.099609 C 35.300391 23.499609 31.9 22.199219 28.5 22.199219 z"/></svg>