<svg xmlns="http://www.w3.org/2000/svg"  viewBox="0 0 64 64" width="48px" height="48px"><path fill="#c2cde7" d="M7,18V47c0,5.52,11.19,10,25,10s25-4.48,25-10V18Z"/><path fill="#ced8ed" d="M14,18H7V47c0,2.69,2.67,5.14,7,6.94Z"/><path fill="#b5c4e0" d="M42,18V56.17C50.83,54.62,57,51.1,57,47V18Z"/><path fill="#ced8ed" d="M32 7A25 10 0 1 0 32 27A25 10 0 1 0 32 7Z"/><path fill="#8d6c9f" d="M32,6C17.42,6,6,10.83,6,17V47c0,6.17,11.42,11,26,11s26-4.83,26-11V17C58,10.83,46.58,6,32,6ZM56,27c0,4.35-9.64,9-24,9S8,31.35,8,27V21.31c3.89,4,13.05,6.69,24,6.69s20.11-2.72,24-6.69ZM32,8c14.36,0,24,4.65,24,9s-9.64,9-24,9S8,21.35,8,17,17.64,8,32,8Zm0,48C17.64,56,8,51.35,8,47V41.29c3.21,3.3,10.08,5.78,18.86,6.5h.08a1,1,0,0,0,.08-2C16.18,44.91,8,41.12,8,37V31.31c3.89,4,13.05,6.69,24,6.69s20.11-2.72,24-6.69V37c0,1.73-1.53,3.52-4.32,5a1,1,0,0,0,1,1.76A14.1,14.1,0,0,0,56,41.34V47C56,51.35,46.36,56,32,56Z"/><path fill="#8d6c9f" d="M20.18 13.3a1 1 0 0 0 .24 0A49.34 49.34 0 0 1 32 12c1.33 0 2.65 0 3.94.13a1 1 0 1 0 .13-2C34.74 10 33.37 10 32 10a50.62 50.62 0 0 0-12.06 1.33 1 1 0 0 0 .24 2zM40.45 12.64c1.1.18 2.15.39 3.12.63a1 1 0 1 0 .49-1.94c-1-.26-2.13-.48-3.29-.67a1 1 0 1 0-.32 2zM32 44a1 1 0 0 0-1 1v2a1 1 0 0 0 2 0V45A1 1 0 0 0 32 44zM37 43.8a1 1 0 0 0-1 1v2a1 1 0 0 0 2 0v-2A1 1 0 0 0 37 43.8zM42 43.1a1 1 0 0 0-1 1v2a1 1 0 0 0 2 0v-2A1 1 0 0 0 42 43.1zM47 42a1 1 0 0 0-1 1v2a1 1 0 0 0 2 0V43A1 1 0 0 0 47 42z"/></svg>