<?xml version="1.0"?><svg fill="#000000" xmlns="http://www.w3.org/2000/svg"  viewBox="0 0 30 30" width="30px" height="30px">    <path d="M 11 3 C 9.895 3 9 3.895 9 5 C 9 5.017 9.0058594 5.0337812 9.0058594 5.0507812 C 8.8378594 5.0317812 8.673 5 8.5 5 C 6.015 5 4 7.015 4 9.5 C 4 9.971 4.0915625 10.415797 4.2265625 10.841797 C 3.4355625 11.369797 2.8117813 12.121 2.4257812 13 L 8 13 L 8 10.722656 C 7.405 10.375656 7 9.738 7 9 C 7 7.895 7.895 7 9 7 C 10.105 7 11 7.895 11 9 C 11 9.738 10.595 10.375656 10 10.722656 L 10 14 C 10 14.553 9.552 15 9 15 L 2 15 C 2 16.735 2.8845625 18.261203 4.2265625 19.158203 C 4.0915625 19.584203 4 20.029 4 20.5 C 4 22.83 5.777875 24.722125 8.046875 24.953125 C 8.260875 26.116125 9.275 27 10.5 27 C 11.881 27 13 25.881 13 24.5 L 13 21 L 10.722656 21 C 10.375656 21.595 9.738 22 9 22 C 7.895 22 7 21.105 7 20 C 7 18.895 7.895 18 9 18 C 9.738 18 10.375656 18.405 10.722656 19 L 13 19 L 13 5 C 13 3.895 12.105 3 11 3 z M 17 3 C 15.895 3 15 3.895 15 5 L 15 9 L 17.277344 9 C 17.624344 8.405 18.262 8 19 8 C 20.105 8 21 8.895 21 10 C 21 11.105 20.105 12 19 12 C 18.262 12 17.624344 11.595 17.277344 11 L 15 11 L 15 24.5 C 15 25.881 16.119 27 17.5 27 C 18.725 27 19.739125 26.116125 19.953125 24.953125 C 21.715125 24.774125 23.223531 23.629 23.769531 22 L 19 22 C 18.448 22 18 21.553 18 21 L 18 18.722656 C 17.405 18.376656 17 17.739 17 17 C 17 15.895 17.895 15 19 15 C 20.105 15 21 15.895 21 17 C 21 17.738 20.595 18.375656 20 18.722656 L 20 20 L 23.962891 20 C 23.866891 19.064 23.599609 18.662109 23.599609 18.662109 C 25.010609 18.043109 26 16.637 26 15 C 26 13.265 25.115437 11.738797 23.773438 10.841797 C 23.908438 10.415797 24 9.971 24 9.5 C 24 7.015 21.985 5 19.5 5 C 19.327 5 19.162141 5.0317812 18.994141 5.0507812 C 18.994141 5.0337812 19 5.017 19 5 C 19 3.895 18.105 3 17 3 z"/></svg>