<?xml version="1.0" encoding="UTF-8" standalone="no"?>
<svg
   xmlns:dc="http://purl.org/dc/elements/1.1/"
   xmlns:cc="http://creativecommons.org/ns#"
   xmlns:rdf="http://www.w3.org/1999/02/22-rdf-syntax-ns#"
   xmlns:svg="http://www.w3.org/2000/svg"
   xmlns="http://www.w3.org/2000/svg"
   xmlns:xlink="http://www.w3.org/1999/xlink"
   xmlns:sodipodi="http://sodipodi.sourceforge.net/DTD/sodipodi-0.dtd"
   xmlns:inkscape="http://www.inkscape.org/namespaces/inkscape"
   version="1.1"
   viewBox="0 0 649.80243 488.9465"
   fill="none"
   stroke="none"
   stroke-linecap="square"
   stroke-miterlimit="10"
   id="svg321"
   sodipodi:docname="Technical Docs - Diagrams.svg"
   width="649.80243"
   height="488.9465"
   inkscape:version="1.0.2 (e86c870879, 2021-01-15)">
  <metadata
     id="metadata327">
    <rdf:RDF>
      <cc:Work
         rdf:about="">
        <dc:format>image/svg+xml</dc:format>
        <dc:type
           rdf:resource="http://purl.org/dc/dcmitype/StillImage" />
      </cc:Work>
    </rdf:RDF>
  </metadata>
  <defs
     id="defs325">
    <defs
       id="defs290">
      <mask
         id="mask-g12a9b3a53ae_0_1114.2"
         maskUnits="userSpaceOnUse"
         x="420.0"
         y="187.58661364829396"
         width="24.062992125984238"
         height="25.09973700787404">
        <linearGradient
           gradientUnits="userSpaceOnUse"
           id="gradient-g12a9b3a53ae_0_1114.2"
           x1="420"
           y1="187.58653"
           x2="419.99994"
           y2="201.64243">
          <stop
             offset="0%"
             stop-color="#ffffff"
             stop-opacity="1.0"
             id="stop282" />
          <stop
             offset="100%"
             stop-color="#ffffff"
             stop-opacity="0.0"
             id="stop284" />
        </linearGradient>
        <rect
           fill="url(#gradient-g12a9b3a53ae_0_1114.2)"
           x="420"
           y="187.58661"
           width="24.062992"
           height="25.099737"
           id="rect287" />
      </mask>
    </defs>
  </defs>
  <sodipodi:namedview
     pagecolor="#ffffff"
     bordercolor="#666666"
     borderopacity="1"
     objecttolerance="10"
     gridtolerance="10"
     guidetolerance="10"
     inkscape:pageopacity="0"
     inkscape:pageshadow="2"
     inkscape:window-width="1848"
     inkscape:window-height="1016"
     id="namedview323"
     showgrid="false"
     inkscape:zoom="1.3885417"
     inkscape:cx="342.23885"
     inkscape:cy="234.43946"
     inkscape:window-x="72"
     inkscape:window-y="27"
     inkscape:window-maximized="1"
     inkscape:current-layer="svg321" />
  <clipPath
     id="g12a9b3a53ae_0_1114.0">
    <path
       d="M 0,0 H 960 V 540 H 0 Z"
       clip-rule="nonzero"
       id="path2" />
  </clipPath>
  <g
     id="g933"
     transform="translate(-137.76115,-35.56054)">
    <path
       fill="#ffffff"
       d="m 666.81354,153.42189 v 0 c 0,-7.04642 26.42114,-12.75867 59.01331,-12.75867 32.59216,0 59.0133,5.71225 59.0133,12.75867 v 51.03465 c 0,7.0464 -26.42114,12.75865 -59.0133,12.75865 -32.59217,0 -59.01331,-5.71224 -59.01331,-12.75865 z"
       fill-rule="evenodd"
       id="path16" />
    <path
       fill="#000000"
       fill-opacity="0"
       d="m 784.84015,153.42189 v 0 c 0,7.04642 -26.42114,12.75865 -59.01331,12.75865 -32.59216,0 -59.0133,-5.71223 -59.0133,-12.75865"
       fill-rule="evenodd"
       id="path18" />
    <path
       fill="#000000"
       fill-opacity="0"
       d="m 666.81354,153.42189 v 0 c 0,-7.04642 26.42114,-12.75867 59.01331,-12.75867 32.59216,0 59.0133,5.71225 59.0133,12.75867 v 51.03465 c 0,7.0464 -26.42114,12.75865 -59.0133,12.75865 -32.59217,0 -59.01331,-5.71224 -59.01331,-12.75865 z"
       fill-rule="evenodd"
       id="path20" />
    <path
       stroke="#595959"
       stroke-width="3"
       stroke-linejoin="round"
       stroke-linecap="butt"
       d="m 784.84015,153.42189 v 0 c 0,7.04642 -26.42114,12.75865 -59.01331,12.75865 -32.59216,0 -59.0133,-5.71223 -59.0133,-12.75865"
       fill-rule="evenodd"
       id="path22" />
    <path
       stroke="#595959"
       stroke-width="3"
       stroke-linejoin="round"
       stroke-linecap="butt"
       d="m 666.81354,153.42189 v 0 c 0,-7.04642 26.42114,-12.75867 59.01331,-12.75867 32.59216,0 59.0133,5.71225 59.0133,12.75867 v 51.03465 c 0,7.0464 -26.42114,12.75865 -59.0133,12.75865 -32.59217,0 -59.01331,-5.71224 -59.01331,-12.75865 z"
       fill-rule="evenodd"
       id="path24" />
    <path
       fill="#595959"
       d="m 721.3604,183.24355 h -3.75 v 3.875 h -1.95312 v -9.46875 h 6.17187 v 1.57812 h -4.21875 v 2.4375 h 3.75 z m 4.58698,4 q -1.54688,0 -2.53125,-0.9375 -0.96875,-0.95313 -0.96875,-2.53125 v -0.1875 q 0,-1.0625 0.40625,-1.89063 0.40625,-0.84375 1.15625,-1.29687 0.76562,-0.45313 1.71875,-0.45313 1.45312,0 2.28125,0.92188 0.82812,0.90625 0.82812,2.57812 v 0.76563 h -4.48437 q 0.0937,0.6875 0.54687,1.10937 0.46875,0.40625 1.17188,0.40625 1.07812,0 1.6875,-0.78125 l 0.92187,1.03125 q -0.42187,0.59375 -1.14062,0.9375 -0.71875,0.32813 -1.59375,0.32813 z m -0.21875,-5.78125 q -0.5625,0 -0.90625,0.39062 -0.34375,0.375 -0.45313,1.07813 h 2.625 v -0.15625 q -0.0156,-0.625 -0.34375,-0.96875 -0.32812,-0.34375 -0.92187,-0.34375 z m 8.25109,5.65625 q -0.125,-0.25 -0.1875,-0.625 -0.67187,0.75 -1.76562,0.75 -1.04688,0 -1.73438,-0.59375 -0.67187,-0.59375 -0.67187,-1.51563 0,-1.10937 0.82812,-1.70312 0.84375,-0.60938 2.40625,-0.60938 h 0.85938 v -0.40625 q 0,-0.48437 -0.25,-0.78125 -0.25,-0.29687 -0.78125,-0.29687 -0.48438,0 -0.75,0.23437 -0.26563,0.21875 -0.26563,0.625 h -1.89062 q 0,-0.60937 0.375,-1.125 0.39062,-0.53125 1.07812,-0.82812 0.6875,-0.29688 1.54688,-0.29688 1.29687,0 2.0625,0.65625 0.76562,0.65625 0.76562,1.84375 v 3.04688 q 0.0156,1 0.28125,1.51562 v 0.10938 z m -1.54687,-1.3125 q 0.40625,0 0.75,-0.17188 0.35937,-0.1875 0.53125,-0.5 v -1.21875 h -0.70313 q -1.40625,0 -1.5,0.98438 v 0.10937 q 0,0.34375 0.23438,0.57813 0.25,0.21875 0.6875,0.21875 z m 6.86444,-7.45313 v 1.71875 h 1.20313 v 1.39063 h -1.20313 v 3.51562 q 0,0.39063 0.15625,0.5625 0.15625,0.15625 0.57813,0.15625 0.3125,0 0.54687,-0.0469 v 1.4375 q -0.54687,0.15625 -1.14062,0.15625 -1.98438,0 -2.01563,-2 v -3.78125 h -1.03125 v -1.39063 h 1.03125 v -1.71875 z m 6.47217,8.04688 q -0.6875,0.84375 -1.92188,0.84375 -1.14062,0 -1.73437,-0.64063 -0.59375,-0.65625 -0.60938,-1.90625 v -4.625 h 1.89063 v 4.54688 q 0,1.10937 1,1.10937 0.95312,0 1.3125,-0.67187 v -4.98438 h 1.89062 v 7.04688 h -1.78125 z m 7.19238,-4.5625 q -0.375,-0.0469 -0.67187,-0.0469 -1.0625,0 -1.39063,0.71875 v 4.60938 h -1.89062 v -7.04688 h 1.78125 l 0.0469,0.84375 q 0.57813,-0.96875 1.57813,-0.96875 0.3125,0 0.57812,0.0781 z m 4.03461,5.40625 q -1.54688,0 -2.53125,-0.9375 -0.96875,-0.95313 -0.96875,-2.53125 v -0.1875 q 0,-1.0625 0.40625,-1.89063 0.40625,-0.84375 1.15625,-1.29687 0.76562,-0.45313 1.71875,-0.45313 1.45312,0 2.28125,0.92188 0.82812,0.90625 0.82812,2.57812 v 0.76563 h -4.48437 q 0.0937,0.6875 0.54687,1.10937 0.46875,0.40625 1.17188,0.40625 1.07812,0 1.6875,-0.78125 l 0.92187,1.03125 q -0.42187,0.59375 -1.14062,0.9375 -0.71875,0.32813 -1.59375,0.32813 z m -0.21875,-5.78125 q -0.5625,0 -0.90625,0.39062 -0.34375,0.375 -0.45313,1.07813 h 2.625 v -0.15625 q -0.0156,-0.625 -0.34375,-0.96875 -0.32812,-0.34375 -0.92187,-0.34375 z"
       fill-rule="nonzero"
       id="path26" />
    <path
       fill="#595959"
       d="m 720.57916,200.63417 q 0,-0.5625 -0.39063,-0.84375 -0.39062,-0.29688 -1.40625,-0.625 -1.01562,-0.32813 -1.60937,-0.65625 -1.625,-0.875 -1.625,-2.34375 0,-0.76563 0.4375,-1.35938 0.4375,-0.60937 1.25,-0.95312 0.8125,-0.34375 1.8125,-0.34375 1.01562,0 1.8125,0.375 0.79687,0.35937 1.23437,1.03125 0.4375,0.67187 0.4375,1.53125 h -1.95312 q 0,-0.65625 -0.40625,-1.01563 -0.40625,-0.35937 -1.15625,-0.35937 -0.71875,0 -1.125,0.3125 -0.39063,0.29687 -0.39063,0.78125 0,0.46875 0.46875,0.78125 0.46875,0.3125 1.375,0.57812 1.67188,0.5 2.42188,1.25 0.76562,0.73438 0.76562,1.84375 0,1.23438 -0.9375,1.9375 -0.92187,0.6875 -2.5,0.6875 -1.09375,0 -2,-0.39062 -0.89062,-0.40625 -1.35937,-1.09375 -0.46875,-0.70313 -0.46875,-1.625 h 1.95312 q 0,1.57812 1.875,1.57812 0.70313,0 1.09375,-0.28125 0.39063,-0.29687 0.39063,-0.79687 z m 5.39655,-6.28125 v 1.71875 h 1.20312 v 1.39062 h -1.20312 v 3.51563 q 0,0.39062 0.15625,0.5625 0.15625,0.15625 0.57812,0.15625 0.3125,0 0.54688,-0.0469 v 1.4375 q -0.54688,0.15625 -1.14063,0.15625 -1.98437,0 -2.01562,-2 v -3.78125 h -1.03125 v -1.39062 h 1.03125 v -1.71875 z m 1.76129,5.1875 q 0,-1.0625 0.40625,-1.875 0.40625,-0.82813 1.15625,-1.26563 0.76562,-0.45312 1.76562,-0.45312 1.4375,0 2.32813,0.875 0.90625,0.875 1.01562,2.35937 v 0.48438 q 0,1.625 -0.90625,2.60937 -0.89062,0.96875 -2.42187,0.96875 -1.51563,0 -2.4375,-0.96875 -0.90625,-0.98437 -0.90625,-2.65625 z m 1.89062,0.125 q 0,1 0.375,1.53125 0.375,0.53125 1.07813,0.53125 0.6875,0 1.0625,-0.51563 0.39062,-0.53125 0.39062,-1.67187 0,-0.98438 -0.39062,-1.53125 -0.375,-0.54688 -1.07813,-0.54688 -0.6875,0 -1.0625,0.54688 -0.375,0.53125 -0.375,1.65625 z m 9.89545,-1.82813 q -0.375,-0.0469 -0.67188,-0.0469 -1.0625,0 -1.39062,0.71875 v 4.60937 h -1.89063 v -7.04687 h 1.78125 l 0.0469,0.84375 q 0.57812,-0.96875 1.57812,-0.96875 0.3125,0 0.57813,0.0781 z m 4.03461,5.40625 q -1.54688,0 -2.53125,-0.9375 -0.96875,-0.95312 -0.96875,-2.53125 v -0.1875 q 0,-1.0625 0.40625,-1.89062 0.40625,-0.84375 1.15625,-1.29688 0.76562,-0.45312 1.71875,-0.45312 1.45312,0 2.28125,0.92187 0.82812,0.90625 0.82812,2.57813 v 0.76562 h -4.48437 q 0.0937,0.6875 0.54687,1.10938 0.46875,0.40625 1.17188,0.40625 1.07812,0 1.6875,-0.78125 l 0.92187,1.03125 q -0.42187,0.59375 -1.14062,0.9375 -0.71875,0.32812 -1.59375,0.32812 z m -0.21875,-5.78125 q -0.5625,0 -0.90625,0.39063 -0.34375,0.375 -0.45313,1.07812 h 2.625 v -0.15625 q -0.0156,-0.625 -0.34375,-0.96875 -0.32812,-0.34375 -0.92187,-0.34375 z"
       fill-rule="nonzero"
       id="path28" />
    <path
       fill="#ffffff"
       d="m 138.76115,146.78554 v 0 c 0,-2.53868 2.05801,-4.5967 4.59669,-4.5967 h 127.21607 c 1.21912,0 2.3883,0.4843 3.25033,1.34635 0.86207,0.86204 1.34635,2.03123 1.34635,3.25035 v 64.31842 c 0,2.5387 -2.05802,4.59669 -4.59668,4.59669 H 143.35784 v 0 c -2.53868,0 -4.59669,-2.05799 -4.59669,-4.59669 z"
       fill-rule="evenodd"
       id="path30" />
    <path
       stroke="#595959"
       stroke-width="2"
       stroke-linejoin="round"
       stroke-linecap="butt"
       d="m 138.76115,146.78554 v 0 c 0,-2.53868 2.05801,-4.5967 4.59669,-4.5967 h 127.21607 c 1.21912,0 2.3883,0.4843 3.25033,1.34635 0.86207,0.86204 1.34635,2.03123 1.34635,3.25035 v 64.31842 c 0,2.5387 -2.05802,4.59669 -4.59668,4.59669 H 143.35784 v 0 c -2.53868,0 -4.59669,-2.05799 -4.59669,-4.59669 z"
       fill-rule="evenodd"
       id="path32" />
    <path
       fill="#595959"
       d="M 184.95123,167.74475 V 158.276 h 3.32812 q 1.71875,0 2.60938,0.65625 0.89062,0.65625 0.89062,1.9375 0,0.6875 -0.35937,1.21875 -0.35938,0.53125 -1,0.78125 0.73437,0.1875 1.15625,0.75 0.42187,0.54687 0.42187,1.34375 0,1.35937 -0.875,2.0625 -0.875,0.70312 -2.48437,0.71875 z m 1.95312,-4.125 v 2.5625 h 1.67188 q 0.6875,0 1.07812,-0.32813 0.39063,-0.32812 0.39063,-0.92187 0,-1.29688 -1.34375,-1.3125 z m 0,-1.375 h 1.45313 q 1.46875,-0.0312 1.46875,-1.1875 0,-0.64063 -0.375,-0.92188 -0.375,-0.28125 -1.17188,-0.28125 h -1.375 z m 10.5058,5.5 q -0.125,-0.25 -0.1875,-0.625 -0.67187,0.75 -1.76562,0.75 -1.04688,0 -1.73438,-0.59375 -0.67187,-0.59375 -0.67187,-1.51563 0,-1.10937 0.82812,-1.70312 0.84375,-0.60938 2.40625,-0.60938 h 0.85938 v -0.40625 q 0,-0.48437 -0.25,-0.78125 -0.25,-0.29687 -0.78125,-0.29687 -0.48438,0 -0.75,0.23437 -0.26563,0.21875 -0.26563,0.625 h -1.89062 q 0,-0.60937 0.375,-1.125 0.39062,-0.53125 1.07812,-0.82812 0.6875,-0.29688 1.54688,-0.29688 1.29687,0 2.0625,0.65625 0.76562,0.65625 0.76562,1.84375 v 3.04688 q 0.0156,1 0.28125,1.51562 v 0.10938 z m -1.54687,-1.3125 q 0.40625,0 0.75,-0.17188 0.35937,-0.1875 0.53125,-0.5 v -1.21875 h -0.70313 q -1.40625,0 -1.5,0.98438 v 0.10937 q 0,0.34375 0.23438,0.57813 0.25,0.21875 0.6875,0.21875 z m 6.86439,-7.45313 v 1.71875 h 1.20313 v 1.39063 h -1.20313 v 3.51562 q 0,0.39063 0.15625,0.5625 0.15625,0.15625 0.57813,0.15625 0.3125,0 0.54687,-0.0469 v 1.4375 q -0.54687,0.15625 -1.14062,0.15625 -1.98438,0 -2.01563,-2 v -3.78125 h -1.03125 v -1.39063 h 1.03125 v -1.71875 z m 5.19095,7.375 q 0.51563,0 0.84375,-0.28125 0.32813,-0.28125 0.32813,-0.76562 h 1.76562 q 0,0.71875 -0.39062,1.3125 -0.375,0.59375 -1.04688,0.92187 -0.67187,0.32813 -1.46875,0.32813 -1.51562,0 -2.39062,-0.95313 -0.875,-0.96875 -0.875,-2.65625 v -0.125 q 0,-1.625 0.85937,-2.59375 0.875,-0.96875 2.39063,-0.96875 1.3125,0 2.10937,0.75 0.8125,0.75 0.8125,2 h -1.76562 q 0,-0.54687 -0.32813,-0.89062 -0.32812,-0.34375 -0.85937,-0.34375 -0.65625,0 -1,0.48437 -0.32813,0.48438 -0.32813,1.54688 v 0.20312 q 0,1.07813 0.32813,1.5625 0.32812,0.46875 1.01562,0.46875 z m 5.85666,-4.89062 q 0.75,-0.89063 1.875,-0.89063 2.29688,0 2.32813,2.65625 v 4.51563 h -1.89063 v -4.45313 q 0,-0.60937 -0.26562,-0.89062 -0.25,-0.29688 -0.85938,-0.29688 -0.82812,0 -1.1875,0.64063 v 5 h -1.89062 v -10 h 1.89062 z m 9.52704,7.09375 h -1.39063 l 3.48438,-10.28125 h 1.39062 z"
       fill-rule="nonzero"
       id="path34" />
    <path
       fill="#595959"
       d="m 192.73248,179.22913 q 0,1.39062 -0.5,2.45312 -0.48438,1.04688 -1.40625,1.625 -0.92188,0.5625 -2.10938,0.5625 -1.1875,0 -2.10937,-0.5625 -0.92188,-0.5625 -1.4375,-1.60937 -0.5,-1.0625 -0.5,-2.42188 v -0.46875 q 0,-1.40625 0.5,-2.46875 0.5,-1.0625 1.42187,-1.625 0.92188,-0.57812 2.10938,-0.57812 1.1875,0 2.10937,0.57812 0.92188,0.5625 1.42188,1.625 0.5,1.0625 0.5,2.45313 z m -1.96875,-0.4375 q 0,-1.48438 -0.54688,-2.25 -0.53125,-0.78125 -1.51562,-0.78125 -0.98438,0 -1.51563,0.76562 -0.53125,0.75 -0.54687,2.23438 v 0.46875 q 0,1.4375 0.53125,2.25 0.54687,0.79687 1.54687,0.79687 0.98438,0 1.5,-0.76562 0.53125,-0.78125 0.54688,-2.25 z m 9.60838,1.5 q 0,1.625 -0.75,2.60937 -0.73437,0.96875 -1.98437,0.96875 -1.0625,0 -1.71875,-0.73437 v 3.3125 h -1.89063 v -9.75 h 1.75 l 0.0625,0.6875 q 0.6875,-0.8125 1.78125,-0.8125 1.29688,0 2.01563,0.96875 0.73437,0.95312 0.73437,2.65625 z m -1.875,-0.14063 q 0,-0.98437 -0.35937,-1.51562 -0.34375,-0.53125 -1.01563,-0.53125 -0.875,0 -1.20312,0.67187 v 2.89063 q 0.34375,0.6875 1.21875,0.6875 1.35937,0 1.35937,-2.20313 z m 6.28484,3.71875 q -1.54688,0 -2.53125,-0.9375 -0.96875,-0.95312 -0.96875,-2.53125 v -0.1875 q 0,-1.0625 0.40625,-1.89062 0.40625,-0.84375 1.15625,-1.29688 0.76562,-0.45312 1.71875,-0.45312 1.45312,0 2.28125,0.92187 0.82812,0.90625 0.82812,2.57813 v 0.76562 h -4.48437 q 0.0937,0.6875 0.54687,1.10938 0.46875,0.40625 1.17188,0.40625 1.07812,0 1.6875,-0.78125 l 0.92187,1.03125 q -0.42187,0.59375 -1.14062,0.9375 -0.71875,0.32812 -1.59375,0.32812 z m -0.21875,-5.78125 q -0.5625,0 -0.90625,0.39063 -0.34375,0.375 -0.45313,1.07812 h 2.625 V 179.401 q -0.0156,-0.625 -0.34375,-0.96875 -0.32812,-0.34375 -0.92187,-0.34375 z m 8.1261,0.375 q -0.375,-0.0469 -0.67188,-0.0469 -1.0625,0 -1.39062,0.71875 v 4.60937 h -1.89063 v -7.04687 h 1.78125 l 0.0469,0.84375 q 0.57812,-0.96875 1.57812,-0.96875 0.3125,0 0.57813,0.0781 z m 4.79107,5.28125 q -0.125,-0.25 -0.1875,-0.625 -0.67187,0.75 -1.76562,0.75 -1.04688,0 -1.73438,-0.59375 -0.67187,-0.59375 -0.67187,-1.51562 0,-1.10938 0.82812,-1.70313 0.84375,-0.60937 2.40625,-0.60937 h 0.85938 v -0.40625 q 0,-0.48438 -0.25,-0.78125 -0.25,-0.29688 -0.78125,-0.29688 -0.48438,0 -0.75,0.23438 -0.26563,0.21875 -0.26563,0.625 h -1.89062 q 0,-0.60938 0.375,-1.125 0.39062,-0.53125 1.07812,-0.82813 0.6875,-0.29687 1.54688,-0.29687 1.29687,0 2.0625,0.65625 0.76562,0.65625 0.76562,1.84375 v 3.04687 q 0.0156,1 0.28125,1.51563 v 0.10937 z m -1.54687,-1.3125 q 0.40625,0 0.75,-0.17187 0.35937,-0.1875 0.53125,-0.5 v -1.21875 h -0.70313 q -1.40625,0 -1.5,0.98437 v 0.10938 q 0,0.34375 0.23438,0.57812 0.25,0.21875 0.6875,0.21875 z m 6.86439,-7.45312 v 1.71875 h 1.20313 v 1.39062 h -1.20313 v 3.51563 q 0,0.39062 0.15625,0.5625 0.15625,0.15625 0.57813,0.15625 0.3125,0 0.54687,-0.0469 v 1.4375 q -0.54687,0.15625 -1.14062,0.15625 -1.98438,0 -2.01563,-2 v -3.78125 h -1.03125 v -1.39062 h 1.03125 v -1.71875 z m 4.23783,8.76562 h -1.89063 v -7.04687 h 1.89063 z m -2,-8.85937 q 0,-0.42188 0.28125,-0.6875 0.29687,-0.28125 0.78125,-0.28125 0.48437,0 0.76562,0.28125 0.28125,0.26562 0.28125,0.6875 0,0.42187 -0.29687,0.70312 -0.28125,0.26563 -0.76563,0.26563 -0.46875,0 -0.76562,-0.26563 -0.28125,-0.28125 -0.28125,-0.70312 z m 3.25253,5.28125 q 0,-1.0625 0.40625,-1.875 0.40625,-0.82813 1.15625,-1.26563 0.76563,-0.45312 1.76563,-0.45312 1.4375,0 2.32812,0.875 0.90625,0.875 1.01563,2.35937 v 0.48438 q 0,1.625 -0.90625,2.60937 -0.89063,0.96875 -2.42188,0.96875 -1.51562,0 -2.4375,-0.96875 -0.90625,-0.98437 -0.90625,-2.65625 z m 1.89063,0.125 q 0,1 0.375,1.53125 0.375,0.53125 1.07812,0.53125 0.6875,0 1.0625,-0.51563 0.39063,-0.53125 0.39063,-1.67187 0,-0.98438 -0.39063,-1.53125 -0.375,-0.54688 -1.07812,-0.54688 -0.6875,0 -1.0625,0.54688 -0.375,0.53125 -0.375,1.65625 z m 7.67674,-3.59375 0.0625,0.8125 q 0.75,-0.9375 2.01562,-0.9375 1.125,0 1.67188,0.65625 0.54687,0.65625 0.5625,1.96875 v 4.54687 h -1.89063 v -4.5 q 0,-0.60937 -0.26562,-0.875 -0.25,-0.26562 -0.85938,-0.26562 -0.78125,0 -1.1875,0.67187 v 4.96875 h -1.875 v -7.04687 z m 9.80829,7.04687 q -0.125,-0.25 -0.1875,-0.625 -0.67188,0.75 -1.76563,0.75 -1.04687,0 -1.73437,-0.59375 -0.67188,-0.59375 -0.67188,-1.51562 0,-1.10938 0.82813,-1.70313 0.84375,-0.60937 2.40625,-0.60937 h 0.85937 v -0.40625 q 0,-0.48438 -0.25,-0.78125 -0.25,-0.29688 -0.78125,-0.29688 -0.48437,0 -0.75,0.23438 -0.26562,0.21875 -0.26562,0.625 h -1.89063 q 0,-0.60938 0.375,-1.125 0.39063,-0.53125 1.07813,-0.82813 0.6875,-0.29687 1.54687,-0.29687 1.29688,0 2.0625,0.65625 0.76563,0.65625 0.76563,1.84375 v 3.04687 q 0.0156,1 0.28125,1.51563 v 0.10937 z m -1.54688,-1.3125 q 0.40625,0 0.75,-0.17187 0.35938,-0.1875 0.53125,-0.5 v -1.21875 h -0.70312 q -1.40625,0 -1.5,0.98437 v 0.10938 q 0,0.34375 0.23437,0.57812 0.25,0.21875 0.6875,0.21875 z m 6.59877,1.3125 h -1.89062 v -10 h 1.89062 z"
       fill-rule="nonzero"
       id="path36" />
    <path
       fill="#595959"
       d="m 189.87311,197.26038 q 0,-0.5625 -0.39063,-0.84375 -0.39062,-0.29688 -1.40625,-0.625 -1.01562,-0.32813 -1.60937,-0.65625 -1.625,-0.875 -1.625,-2.34375 0,-0.76563 0.4375,-1.35938 0.4375,-0.60937 1.25,-0.95312 0.8125,-0.34375 1.8125,-0.34375 1.01562,0 1.8125,0.375 0.79687,0.35937 1.23437,1.03125 0.4375,0.67187 0.4375,1.53125 h -1.95312 q 0,-0.65625 -0.40625,-1.01563 -0.40625,-0.35937 -1.15625,-0.35937 -0.71875,0 -1.125,0.3125 -0.39063,0.29687 -0.39063,0.78125 0,0.46875 0.46875,0.78125 0.46875,0.3125 1.375,0.57812 1.67188,0.5 2.42188,1.25 0.76562,0.73438 0.76562,1.84375 0,1.23438 -0.9375,1.9375 -0.92187,0.6875 -2.5,0.6875 -1.09375,0 -2,-0.39062 -0.89062,-0.40625 -1.35937,-1.09375 -0.46875,-0.70313 -0.46875,-1.625 h 1.95312 q 0,1.57812 1.875,1.57812 0.70313,0 1.09375,-0.28125 0.39063,-0.29687 0.39063,-0.79687 z m 6.39655,2.60937 q -1.54688,0 -2.53125,-0.9375 -0.96875,-0.95312 -0.96875,-2.53125 v -0.1875 q 0,-1.0625 0.40625,-1.89062 0.40625,-0.84375 1.15625,-1.29688 0.76562,-0.45312 1.71875,-0.45312 1.45312,0 2.28125,0.92187 0.82812,0.90625 0.82812,2.57813 v 0.76562 h -4.48437 q 0.0937,0.6875 0.54687,1.10938 0.46875,0.40625 1.17188,0.40625 1.07812,0 1.6875,-0.78125 l 0.92187,1.03125 q -0.42187,0.59375 -1.14062,0.9375 -0.71875,0.32812 -1.59375,0.32812 z m -0.21875,-5.78125 q -0.5625,0 -0.90625,0.39063 -0.34375,0.375 -0.45313,1.07812 h 2.625 V 195.401 q -0.0156,-0.625 -0.34375,-0.96875 -0.32812,-0.34375 -0.92187,-0.34375 z m 8.12609,0.375 q -0.375,-0.0469 -0.67187,-0.0469 -1.0625,0 -1.39063,0.71875 v 4.60937 h -1.89062 v -7.04687 h 1.78125 l 0.0469,0.84375 q 0.57813,-0.96875 1.57813,-0.96875 0.3125,0 0.57812,0.0781 z m 3.66608,2.98438 1.3125,-4.75 h 1.95313 l -2.375,7.04687 h -1.79688 l -2.375,-7.04687 h 1.96875 z m 6.07941,2.29687 h -1.89063 v -7.04687 h 1.89063 z m -2,-8.85937 q 0,-0.42188 0.28125,-0.6875 0.29687,-0.28125 0.78125,-0.28125 0.48437,0 0.76562,0.28125 0.28125,0.26562 0.28125,0.6875 0,0.42187 -0.29687,0.70312 -0.28125,0.26563 -0.76563,0.26563 -0.46875,0 -0.76562,-0.26563 -0.28125,-0.28125 -0.28125,-0.70312 z m 6.48691,7.46875 q 0.51562,0 0.84375,-0.28125 0.32812,-0.28125 0.32812,-0.76563 h 1.76563 q 0,0.71875 -0.39063,1.3125 -0.375,0.59375 -1.04687,0.92188 -0.67188,0.32812 -1.46875,0.32812 -1.51563,0 -2.39063,-0.95312 -0.875,-0.96875 -0.875,-2.65625 v -0.125 q 0,-1.625 0.85938,-2.59375 0.875,-0.96875 2.39062,-0.96875 1.3125,0 2.10938,0.75 0.8125,0.75 0.8125,2 h -1.76563 q 0,-0.54688 -0.32812,-0.89063 -0.32813,-0.34375 -0.85938,-0.34375 -0.65625,0 -1,0.48438 -0.32812,0.48437 -0.32812,1.54687 v 0.20313 q 0,1.07812 0.32812,1.5625 0.32813,0.46875 1.01563,0.46875 z m 7.2629,1.51562 q -1.54687,0 -2.53125,-0.9375 -0.96875,-0.95312 -0.96875,-2.53125 v -0.1875 q 0,-1.0625 0.40625,-1.89062 0.40625,-0.84375 1.15625,-1.29688 0.76563,-0.45312 1.71875,-0.45312 1.45313,0 2.28125,0.92187 0.82813,0.90625 0.82813,2.57813 v 0.76562 h -4.48438 q 0.0937,0.6875 0.54688,1.10938 0.46875,0.40625 1.17187,0.40625 1.07813,0 1.6875,-0.78125 l 0.92188,1.03125 q -0.42188,0.59375 -1.14063,0.9375 -0.71875,0.32812 -1.59375,0.32812 z m -0.21875,-5.78125 q -0.5625,0 -0.90625,0.39063 -0.34375,0.375 -0.45312,1.07812 h 2.625 V 195.401 q -0.0156,-0.625 -0.34375,-0.96875 -0.32813,-0.34375 -0.92188,-0.34375 z m 7.98548,3.70313 q 0,-0.34375 -0.34375,-0.53125 -0.32813,-0.20313 -1.09375,-0.35938 -2.51563,-0.53125 -2.51563,-2.14062 0,-0.9375 0.78125,-1.5625 0.78125,-0.625 2.03125,-0.625 1.34375,0 2.14063,0.64062 0.8125,0.625 0.8125,1.625 h -1.875 q 0,-0.39062 -0.26563,-0.65625 -0.26562,-0.26562 -0.8125,-0.26562 -0.46875,0 -0.73437,0.21875 -0.26563,0.20312 -0.26563,0.54687 0,0.3125 0.29688,0.5 0.29687,0.1875 1,0.32813 0.70312,0.14062 1.1875,0.3125 1.48437,0.54687 1.48437,1.89062 0,0.96875 -0.82812,1.5625 -0.8125,0.59375 -2.125,0.59375 -0.89063,0 -1.57813,-0.3125 -0.6875,-0.3125 -1.07812,-0.85937 -0.39063,-0.54688 -0.39063,-1.1875 h 1.78125 q 0.0312,0.5 0.375,0.76562 0.34375,0.26563 0.92188,0.26563 0.54687,0 0.8125,-0.20313 0.28125,-0.20312 0.28125,-0.54687 z"
       fill-rule="nonzero"
       id="path38" />
    <path
       fill="#ffffff"
       d="m 146.38338,454.5919 v 0 c 0,-2.5387 2.058,-4.59671 4.59668,-4.59671 h 111.97197 c 1.21912,0 2.38831,0.48431 3.25037,1.34634 0.86203,0.86206 1.34634,2.03125 1.34634,3.25037 v 64.31839 c 0,2.5387 -2.05801,4.59674 -4.59671,4.59674 H 150.98006 c -2.53868,0 -4.59668,-2.05804 -4.59668,-4.59674 z"
       fill-rule="evenodd"
       id="path40" />
    <path
       stroke="#595959"
       stroke-width="2"
       stroke-linejoin="round"
       stroke-linecap="butt"
       d="m 146.38338,454.5919 v 0 c 0,-2.5387 2.058,-4.59671 4.59668,-4.59671 h 111.97197 c 1.21912,0 2.38831,0.48431 3.25037,1.34634 0.86203,0.86206 1.34634,2.03125 1.34634,3.25037 v 64.31839 c 0,2.5387 -2.05801,4.59674 -4.59671,4.59674 H 150.98006 c -2.53868,0 -4.59668,-2.05804 -4.59668,-4.59674 z"
       fill-rule="evenodd"
       id="path42" />
    <path
       fill="#595959"
       d="m 199.12032,482.08234 2.4375,6.85937 2.42187,-6.85937 h 2.5625 v 9.46875 h -1.95312 v -2.59375 l 0.1875,-4.46875 -2.54688,7.0625 h -1.34375 l -2.54687,-7.04688 0.1875,4.45313 v 2.59375 h -1.95313 v -9.46875 z m 8.70637,5.89062 q 0,-1.0625 0.40625,-1.875 0.40625,-0.82812 1.15625,-1.26562 0.76563,-0.45313 1.76563,-0.45313 1.4375,0 2.32812,0.875 0.90625,0.875 1.01563,2.35938 v 0.48437 q 0,1.625 -0.90625,2.60938 -0.89063,0.96875 -2.42188,0.96875 -1.51562,0 -2.4375,-0.96875 -0.90625,-0.98438 -0.90625,-2.65625 z m 1.89063,0.125 q 0,1 0.375,1.53125 0.375,0.53125 1.07812,0.53125 0.6875,0 1.0625,-0.51562 0.39063,-0.53125 0.39063,-1.67188 0,-0.98437 -0.39063,-1.53125 -0.375,-0.54687 -1.07812,-0.54687 -0.6875,0 -1.0625,0.54687 -0.375,0.53125 -0.375,1.65625 z m 5.64549,-0.125 q 0,-1.64062 0.73438,-2.60937 0.75,-0.98438 2.03125,-0.98438 1.03125,0 1.70312,0.76563 v -3.59375 h 1.89063 v 10 h -1.70313 l -0.0937,-0.75 q -0.70312,0.875 -1.8125,0.875 -1.23437,0 -2,-0.96875 -0.75,-0.98438 -0.75,-2.73438 z m 1.89063,0.14063 q 0,0.98437 0.34375,1.51562 0.34375,0.53125 1,0.53125 0.875,0 1.23437,-0.73437 v -2.78125 q -0.35937,-0.73438 -1.21875,-0.73438 -1.35937,0 -1.35937,2.20313 z m 9.16633,3.5625 q -1.54687,0 -2.53125,-0.9375 -0.96875,-0.95313 -0.96875,-2.53125 v -0.1875 q 0,-1.0625 0.40625,-1.89063 0.40625,-0.84375 1.15625,-1.29687 0.76563,-0.45313 1.71875,-0.45313 1.45313,0 2.28125,0.92188 0.82813,0.90625 0.82813,2.57812 v 0.76563 h -4.48438 q 0.0937,0.6875 0.54688,1.10937 0.46875,0.40625 1.17187,0.40625 1.07813,0 1.6875,-0.78125 l 0.92188,1.03125 q -0.42188,0.59375 -1.14063,0.9375 -0.71875,0.32813 -1.59375,0.32813 z m -0.21875,-5.78125 q -0.5625,0 -0.90625,0.39062 -0.34375,0.375 -0.45312,1.07813 h 2.625 v -0.15625 q -0.0156,-0.625 -0.34375,-0.96875 -0.32813,-0.34375 -0.92188,-0.34375 z m 6.15735,5.65625 h -1.89062 v -10 h 1.89062 z m 5.36191,-1.95313 q 0,-0.34375 -0.34375,-0.53125 -0.32812,-0.20312 -1.09375,-0.35937 -2.51562,-0.53125 -2.51562,-2.14063 0,-0.9375 0.78125,-1.5625 0.78125,-0.625 2.03125,-0.625 1.34375,0 2.14062,0.64063 0.8125,0.625 0.8125,1.625 h -1.875 q 0,-0.39063 -0.26562,-0.65625 -0.26563,-0.26563 -0.8125,-0.26563 -0.46875,0 -0.73438,0.21875 -0.26562,0.20313 -0.26562,0.54688 0,0.3125 0.29687,0.5 0.29688,0.1875 1,0.32812 0.70313,0.14063 1.1875,0.3125 1.48438,0.54688 1.48438,1.89063 0,0.96875 -0.82813,1.5625 -0.8125,0.59375 -2.125,0.59375 -0.89062,0 -1.57812,-0.3125 -0.6875,-0.3125 -1.07813,-0.85938 -0.39062,-0.54687 -0.39062,-1.1875 h 1.78125 q 0.0312,0.5 0.375,0.76563 0.34375,0.26562 0.92187,0.26562 0.54688,0 0.8125,-0.20312 0.28125,-0.20313 0.28125,-0.54688 z"
       fill-rule="nonzero"
       id="path44" />
    <path
       fill="#ffffff"
       d="m 152.40636,170.57274 h 20.40945 v 20.50394 h -20.40945 z"
       fill-rule="evenodd"
       id="path46" />
    <path
       stroke="#595959"
       stroke-width="2"
       stroke-linejoin="round"
       stroke-linecap="butt"
       d="m 152.40636,170.57274 h 20.40945 v 20.50394 h -20.40945 z"
       fill-rule="evenodd"
       id="path48" />
    <path
       fill="#ffffff"
       d="m 156.10199,169.97746 6.51968,-6.51968 6.51969,6.51968 h -3.25984 v 8.97638 h -6.51969 v -8.97638 z"
       fill-rule="evenodd"
       id="path50" />
    <path
       stroke="#595959"
       stroke-width="2"
       stroke-linejoin="round"
       stroke-linecap="butt"
       d="m 156.10199,169.97746 6.51968,-6.51968 6.51969,6.51968 h -3.25984 v 8.97638 h -6.51969 v -8.97638 z"
       fill-rule="evenodd"
       id="path52" />
    <path
       fill="#000000"
       fill-opacity="0"
       d="M 206.96605,449.99518 V 215.69598"
       fill-rule="evenodd"
       id="path54" />
    <path
       stroke="#595959"
       stroke-width="2"
       stroke-linejoin="round"
       stroke-linecap="butt"
       d="M 206.96605,449.9952 V 227.69596"
       fill-rule="evenodd"
       id="path56" />
    <path
       fill="#595959"
       stroke="#595959"
       stroke-width="2"
       stroke-linecap="butt"
       d="m 210.2695,227.69597 -3.30345,-9.0762 -3.30347,9.0762 z"
       fill-rule="evenodd"
       id="path58" />
    <path
       fill="#ffffff"
       d="m 160.16103,492.43484 v 0 c -0.0768,-3.68765 1.82355,-7.13257 4.97647,-9.02118 3.15292,-1.88861 7.07242,-1.92981 10.26398,-0.10791 3.19154,1.8219 5.16322,5.22611 5.16322,8.91458 h -10.20296 z"
       fill-rule="evenodd"
       id="path60" />
    <path
       stroke="#595959"
       stroke-width="2"
       stroke-linejoin="round"
       stroke-linecap="butt"
       d="m 160.16103,492.43484 v 0 c -0.0768,-3.68765 1.82355,-7.13257 4.97647,-9.02118 3.15292,-1.88861 7.07242,-1.92981 10.26398,-0.10791 3.19154,1.8219 5.16322,5.22611 5.16322,8.91458 h -10.20296 z"
       fill-rule="evenodd"
       id="path62" />
    <path
       fill="#ffffff"
       d="m 169.07109,480.67078 v 0 c 0,-0.71628 0.57785,-1.29694 1.29065,-1.29694 v 0 c 0.3423,0 0.67059,0.13663 0.91263,0.37986 0.24205,0.24322 0.37802,0.57312 0.37802,0.91708 v 0 c 0,0.71628 -0.57784,1.29694 -1.29065,1.29694 v 0 c -0.7128,0 -1.29065,-0.58066 -1.29065,-1.29694 z"
       fill-rule="evenodd"
       id="path64" />
    <path
       stroke="#595959"
       stroke-width="2"
       stroke-linejoin="round"
       stroke-linecap="butt"
       d="m 169.07109,480.67078 v 0 c 0,-0.71628 0.57785,-1.29694 1.29065,-1.29694 v 0 c 0.3423,0 0.67059,0.13663 0.91263,0.37986 0.24205,0.24322 0.37802,0.57312 0.37802,0.91708 v 0 c 0,0.71628 -0.57784,1.29694 -1.29065,1.29694 v 0 c -0.7128,0 -1.29065,-0.58066 -1.29065,-1.29694 z"
       fill-rule="evenodd"
       id="path66" />
    <path
       fill="#000000"
       fill-opacity="0"
       d="m 159.15117,495.2579 h 22.06339"
       fill-rule="evenodd"
       id="path68" />
    <path
       stroke="#595959"
       stroke-width="2"
       stroke-linejoin="round"
       stroke-linecap="butt"
       d="m 159.15117,495.2579 h 22.06339"
       fill-rule="evenodd"
       id="path70" />
    <path
       fill="#ffffff"
       d="m 665.39825,454.5919 v 0 c 0,-2.5387 2.05798,-4.59671 4.59668,-4.59671 h 111.97198 c 1.21912,0 2.38831,0.48431 3.25037,1.34634 0.862,0.86206 1.34631,2.03125 1.34631,3.25037 v 64.31839 c 0,2.5387 -2.05798,4.59674 -4.59668,4.59674 H 669.99493 c -2.5387,0 -4.59668,-2.05804 -4.59668,-4.59674 z"
       fill-rule="evenodd"
       id="path72" />
    <path
       stroke="#595959"
       stroke-width="2"
       stroke-linejoin="round"
       stroke-linecap="butt"
       d="m 665.39825,454.5919 v 0 c 0,-2.5387 2.05798,-4.59671 4.59668,-4.59671 h 111.97198 c 1.21912,0 2.38831,0.48431 3.25037,1.34634 0.862,0.86206 1.34631,2.03125 1.34631,3.25037 v 64.31839 c 0,2.5387 -2.05798,4.59674 -4.59668,4.59674 H 669.99493 c -2.5387,0 -4.59668,-2.05804 -4.59668,-4.59674 z"
       fill-rule="evenodd"
       id="path74" />
    <path
       fill="#595959"
       d="m 722.72894,475.66046 h -2.90625 v 7.89062 h -1.95313 v -7.89062 h -2.85937 v -1.57813 h 7.71875 z m 4.50983,2.60937 q -0.375,-0.0469 -0.67188,-0.0469 -1.0625,0 -1.39062,0.71875 v 4.60937 h -1.89063 v -7.04687 h 1.78125 l 0.0469,0.84375 q 0.57812,-0.96875 1.57812,-0.96875 0.3125,0 0.57813,0.0781 z m 4.79107,5.28125 q -0.125,-0.25 -0.1875,-0.625 -0.67187,0.75 -1.76562,0.75 -1.04688,0 -1.73438,-0.59375 -0.67187,-0.59375 -0.67187,-1.51562 0,-1.10938 0.82812,-1.70313 0.84375,-0.60937 2.40625,-0.60937 h 0.85938 v -0.40625 q 0,-0.48438 -0.25,-0.78125 -0.25,-0.29688 -0.78125,-0.29688 -0.48438,0 -0.75,0.23438 -0.26563,0.21875 -0.26563,0.625 h -1.89062 q 0,-0.60938 0.375,-1.125 0.39062,-0.53125 1.07812,-0.82813 0.6875,-0.29687 1.54688,-0.29687 1.29687,0 2.0625,0.65625 0.76562,0.65625 0.76562,1.84375 v 3.04687 q 0.0156,1 0.28125,1.51563 v 0.10937 z m -1.54687,-1.3125 q 0.40625,0 0.75,-0.17187 0.35937,-0.1875 0.53125,-0.5 v -1.21875 h -0.70313 q -1.40625,0 -1.5,0.98437 v 0.10938 q 0,0.34375 0.23438,0.57812 0.25,0.21875 0.6875,0.21875 z m 6.59875,1.3125 h -1.89062 v -7.04687 h 1.89062 z m -2,-8.85937 q 0,-0.42188 0.28125,-0.6875 0.29688,-0.28125 0.78125,-0.28125 0.48438,0 0.76563,0.28125 0.28125,0.26562 0.28125,0.6875 0,0.42187 -0.29688,0.70312 -0.28125,0.26563 -0.76562,0.26563 -0.46875,0 -0.76563,-0.26563 -0.28125,-0.28125 -0.28125,-0.70312 z m 5.28382,1.8125 0.0625,0.8125 q 0.75,-0.9375 2.01562,-0.9375 1.125,0 1.67188,0.65625 0.54687,0.65625 0.5625,1.96875 v 4.54687 h -1.89063 v -4.5 q 0,-0.60937 -0.26562,-0.875 -0.25,-0.26562 -0.85938,-0.26562 -0.78125,0 -1.1875,0.67187 v 4.96875 h -1.875 v -7.04687 z m 7.71454,7.04687 h -1.89063 v -7.04687 h 1.89063 z m -2,-8.85937 q 0,-0.42188 0.28125,-0.6875 0.29687,-0.28125 0.78125,-0.28125 0.48437,0 0.76562,0.28125 0.28125,0.26562 0.28125,0.6875 0,0.42187 -0.29687,0.70312 -0.28125,0.26563 -0.76563,0.26563 -0.46875,0 -0.76562,-0.26563 -0.28125,-0.28125 -0.28125,-0.70312 z m 5.28375,1.8125 0.0625,0.8125 q 0.75,-0.9375 2.01562,-0.9375 1.125,0 1.67188,0.65625 0.54687,0.65625 0.5625,1.96875 v 4.54687 h -1.89063 v -4.5 q 0,-0.60937 -0.26562,-0.875 -0.25,-0.26562 -0.85938,-0.26562 -0.78125,0 -1.1875,0.67187 v 4.96875 h -1.875 v -7.04687 z m 5.46454,3.46875 q 0,-1.60938 0.76562,-2.59375 0.76563,-1 2.07813,-1 1.15625,0 1.8125,0.79687 l 0.0781,-0.67187 h 1.70313 v 6.8125 q 0,0.92187 -0.42188,1.60937 -0.42187,0.6875 -1.1875,1.03125 -0.76562,0.35938 -1.78125,0.35938 -0.76562,0 -1.51562,-0.3125 -0.73438,-0.29688 -1.10938,-0.78125 l 0.84375,-1.15625 q 0.70313,0.79687 1.70313,0.79687 0.75,0 1.15625,-0.40625 0.42187,-0.40625 0.42187,-1.14062 v -0.375 q -0.65625,0.73437 -1.71875,0.73437 -1.26562,0 -2.04687,-0.98437 -0.78125,-1 -0.78125,-2.64063 z m 1.875,0.14062 q 0,0.95313 0.375,1.5 0.39062,0.54688 1.0625,0.54688 0.85937,0 1.23437,-0.64063 v -2.96875 q -0.375,-0.64062 -1.21875,-0.64062 -0.67187,0 -1.0625,0.5625 -0.39062,0.54687 -0.39062,1.64062 z"
       fill-rule="nonzero"
       id="path76" />
    <path
       fill="#595959"
       d="m 717.54144,496.20734 v 3.34375 h -1.95313 v -9.46875 h 3.70313 q 1.0625,0 1.875,0.39062 0.8125,0.39063 1.25,1.10938 0.4375,0.71875 0.4375,1.625 0,1.39062 -0.95313,2.20312 -0.95312,0.79688 -2.64062,0.79688 z m 0,-1.57813 h 1.75 q 0.76562,0 1.17187,-0.35937 0.40625,-0.375 0.40625,-1.04688 0,-0.6875 -0.40625,-1.10937 -0.40625,-0.4375 -1.125,-0.45313 h -1.79687 z m 8.50317,4.92188 h -1.89062 v -7.04688 h 1.89062 z m -2,-8.85938 q 0,-0.42187 0.28125,-0.6875 0.29688,-0.28125 0.78125,-0.28125 0.48438,0 0.76563,0.28125 0.28125,0.26563 0.28125,0.6875 0,0.42188 -0.29688,0.70313 -0.28125,0.26562 -0.76562,0.26562 -0.46875,0 -0.76563,-0.26562 -0.28125,-0.28125 -0.28125,-0.70313 z m 9.89313,5.40625 q 0,1.625 -0.75,2.60938 -0.73437,0.96875 -1.98437,0.96875 -1.0625,0 -1.71875,-0.73438 v 3.3125 h -1.89063 v -9.75 h 1.75 l 0.0625,0.6875 q 0.6875,-0.8125 1.78125,-0.8125 1.29688,0 2.01563,0.96875 0.73437,0.95313 0.73437,2.65625 z m -1.875,-0.14062 q 0,-0.98438 -0.35937,-1.51563 -0.34375,-0.53125 -1.01563,-0.53125 -0.875,0 -1.20312,0.67188 v 2.89062 q 0.34375,0.6875 1.21875,0.6875 1.35937,0 1.35937,-2.20312 z m 6.28485,3.71875 q -1.54687,0 -2.53125,-0.9375 -0.96875,-0.95313 -0.96875,-2.53125 v -0.1875 q 0,-1.0625 0.40625,-1.89063 0.40625,-0.84375 1.15625,-1.29687 0.76563,-0.45313 1.71875,-0.45313 1.45313,0 2.28125,0.92188 0.82813,0.90625 0.82813,2.57812 v 0.76563 h -4.48438 q 0.0937,0.6875 0.54688,1.10937 0.46875,0.40625 1.17187,0.40625 1.07813,0 1.6875,-0.78125 l 0.92188,1.03125 q -0.42188,0.59375 -1.14063,0.9375 -0.71875,0.32813 -1.59375,0.32813 z m -0.21875,-5.78125 q -0.5625,0 -0.90625,0.39062 -0.34375,0.375 -0.45312,1.07813 h 2.625 v -0.15625 q -0.0156,-0.625 -0.34375,-0.96875 -0.32813,-0.34375 -0.92188,-0.34375 z m 6.15735,5.65625 h -1.89062 v -10 h 1.89062 z m 3.53381,0 h -1.89062 v -7.04688 H 747.82 Z m -2,-8.85938 q 0,-0.42187 0.28125,-0.6875 0.29688,-0.28125 0.78125,-0.28125 0.48438,0 0.76563,0.28125 0.28125,0.26563 0.28125,0.6875 0,0.42188 -0.29688,0.70313 -0.28125,0.26562 -0.76562,0.26562 -0.46875,0 -0.76563,-0.26562 -0.28125,-0.28125 -0.28125,-0.70313 z m 5.28376,1.8125 0.0625,0.8125 q 0.75,-0.9375 2.01562,-0.9375 1.125,0 1.67188,0.65625 0.54687,0.65625 0.5625,1.96875 v 4.54688 h -1.89063 v -4.5 q 0,-0.60938 -0.26562,-0.875 -0.25,-0.26563 -0.85938,-0.26563 -0.78125,0 -1.1875,0.67188 v 4.96875 h -1.875 v -7.04688 z m 8.98016,7.17188 q -1.54687,0 -2.53125,-0.9375 -0.96875,-0.95313 -0.96875,-2.53125 v -0.1875 q 0,-1.0625 0.40625,-1.89063 0.40625,-0.84375 1.15625,-1.29687 0.76563,-0.45313 1.71875,-0.45313 1.45313,0 2.28125,0.92188 0.82813,0.90625 0.82813,2.57812 v 0.76563 h -4.48438 q 0.0937,0.6875 0.54688,1.10937 0.46875,0.40625 1.17187,0.40625 1.07813,0 1.6875,-0.78125 l 0.92188,1.03125 q -0.42188,0.59375 -1.14063,0.9375 -0.71875,0.32813 -1.59375,0.32813 z m -0.21875,-5.78125 q -0.5625,0 -0.90625,0.39062 -0.34375,0.375 -0.45312,1.07813 h 2.625 v -0.15625 q -0.0156,-0.625 -0.34375,-0.96875 -0.32813,-0.34375 -0.92188,-0.34375 z"
       fill-rule="nonzero"
       id="path78" />
    <path
       fill="#000000"
       fill-opacity="0"
       d="M 275.1706,178.94475 H 666.82416"
       fill-rule="evenodd"
       id="path80" />
    <path
       stroke="#595959"
       stroke-width="2"
       stroke-linejoin="round"
       stroke-linecap="butt"
       d="M 275.1706,178.94476 H 654.82416"
       fill-rule="evenodd"
       id="path82" />
    <path
       fill="#595959"
       stroke="#595959"
       stroke-width="2"
       stroke-linecap="butt"
       d="m 654.82416,182.24823 9.07617,-3.30347 -9.07617,-3.30346 z"
       fill-rule="evenodd"
       id="path84" />
    <path
       fill="#000000"
       fill-opacity="0"
       d="m 725.82684,217.2152 0.15747,232.7874"
       fill-rule="evenodd"
       id="path86" />
    <path
       stroke="#595959"
       stroke-width="2"
       stroke-linejoin="round"
       stroke-linecap="butt"
       d="m 725.82684,217.21521 0.14935,220.78738"
       fill-rule="evenodd"
       id="path88" />
    <path
       fill="#595959"
       stroke="#595959"
       stroke-width="2"
       stroke-linecap="butt"
       d="m 722.6727,438.00482 3.30963,9.07394 3.2973,-9.0784 z"
       fill-rule="evenodd"
       id="path90" />
    <path
       fill="#000000"
       fill-opacity="0"
       d="M 665.56445,486.7511 H 267.54873"
       fill-rule="evenodd"
       id="path92" />
    <path
       stroke="#595959"
       stroke-width="2"
       stroke-linejoin="round"
       stroke-linecap="butt"
       d="M 665.56445,486.7511 H 279.5487"
       fill-rule="evenodd"
       id="path94" />
    <path
       fill="#595959"
       stroke="#595959"
       stroke-width="2"
       stroke-linecap="butt"
       d="m 279.5487,483.44763 -9.07617,3.30347 9.07617,3.30346 z"
       fill-rule="evenodd"
       id="path96" />
    <path
       fill="#595959"
       d="m 691.50256,485.46884 v 0 c 6.73541,6.76978 6.83661,17.70926 0.22742,24.58667 l -4.78308,-4.64401 v 0 c 4.08856,-4.2547 4.02325,-11.0249 -0.14679,-15.21619 z"
       fill-rule="evenodd"
       id="path98" />
    <path
       stroke="#ffffff"
       stroke-width="1"
       stroke-linejoin="round"
       stroke-linecap="butt"
       d="m 691.50256,485.46884 v 0 c 6.73541,6.76978 6.83661,17.70926 0.22742,24.58667 l -4.78308,-4.64401 v 0 c 4.08856,-4.2547 4.02325,-11.0249 -0.14679,-15.21619 z"
       fill-rule="evenodd"
       id="path100" />
    <path
       fill="#595959"
       d="m 684.948,488.3931 v 0 c -6.73541,-6.76978 -6.83661,-17.70926 -0.22748,-24.58664 l 4.78308,4.64398 v 0 c -4.0885,4.2547 -4.02319,11.0249 0.14679,15.21622 z"
       fill-rule="evenodd"
       id="path102" />
    <path
       stroke="#ffffff"
       stroke-width="1"
       stroke-linejoin="round"
       stroke-linecap="butt"
       d="m 684.948,488.3931 v 0 c -6.73541,-6.76978 -6.83661,-17.70926 -0.22748,-24.58664 l 4.78308,4.64398 v 0 c -4.0885,4.2547 -4.02319,11.0249 0.14679,15.21622 z"
       fill-rule="evenodd"
       id="path104" />
    <path
       fill="#000000"
       fill-opacity="0"
       d="m 267.5349,467.04327 c 100.37009,0 150.55515,-66.24411 200.74017,-132.48819 50.18506,-66.24411 100.37006,-132.48819 200.74017,-132.48819"
       fill-rule="evenodd"
       id="path106" />
    <path
       stroke="#595959"
       stroke-width="2"
       stroke-linejoin="round"
       stroke-linecap="butt"
       d="m 279.53052,466.71854 0.66876,-0.037 c 0.37555,-0.0217 0.75043,-0.0445 1.12454,-0.0681 1.49649,-0.0948 2.98133,-0.20496 4.45466,-0.33029 5.89331,-0.50138 11.60281,-1.24534 17.1408,-2.21567 11.07602,-1.94077 21.46588,-4.7872 31.26767,-8.40991 19.60352,-7.24546 36.85465,-17.5961 52.53745,-30.01685 31.36566,-24.84155 56.45819,-57.96359 81.55069,-91.08563 C 518.46015,268.31098 568.64521,202.0669 669.01526,202.0669"
       fill-rule="evenodd"
       id="path108" />
    <path
       fill="#595959"
       stroke="#595959"
       stroke-width="2"
       stroke-linecap="butt"
       d="m 279.44113,463.4163 -8.98349,3.54785 9.16226,3.05667 z"
       fill-rule="evenodd"
       id="path110" />
    <path
       fill="#000000"
       fill-opacity="0"
       d="m 458.58734,83.51312 v 0"
       fill-rule="evenodd"
       id="path112" />
    <path
       stroke="#595959"
       stroke-width="1"
       stroke-linejoin="round"
       stroke-linecap="butt"
       d="m 458.58734,83.51312 v 0"
       fill-rule="evenodd"
       id="path114" />
    <path
       fill="#ffffff"
       fill-opacity="0.9382"
       d="m 408.86942,146.69965 v 0 c 0,-2.55283 2.06949,-4.62228 4.62231,-4.62228 h 90.69241 c 1.2259,0 2.40162,0.48698 3.26847,1.35383 0.86685,0.86685 1.35382,2.04254 1.35382,3.26845 v 64.67667 c 0,2.55283 -2.06946,4.6223 -4.62229,4.6223 h -90.69241 c -2.55282,0 -4.62231,-2.06947 -4.62231,-4.6223 z"
       fill-rule="evenodd"
       id="path116" />
    <path
       stroke="#595959"
       stroke-width="1"
       stroke-linejoin="round"
       stroke-linecap="butt"
       d="m 408.86942,146.69965 v 0 c 0,-2.55283 2.06949,-4.62228 4.62231,-4.62228 h 90.69241 c 1.2259,0 2.40162,0.48698 3.26847,1.35383 0.86685,0.86685 1.35382,2.04254 1.35382,3.26845 v 64.67667 c 0,2.55283 -2.06946,4.6223 -4.62229,4.6223 h -90.69241 c -2.55282,0 -4.62231,-2.06947 -4.62231,-4.6223 z"
       fill-rule="evenodd"
       id="path118" />
    <path
       fill="#595959"
       d="m 461.67563,171.96298 h -3.75 v 3.875 h -1.95313 v -9.46875 h 6.17188 v 1.57812 h -4.21875 v 2.4375 h 3.75 z m 4.58697,4 q -1.54687,0 -2.53125,-0.9375 -0.96875,-0.95313 -0.96875,-2.53125 v -0.1875 q 0,-1.0625 0.40625,-1.89063 0.40625,-0.84375 1.15625,-1.29687 0.76563,-0.45313 1.71875,-0.45313 1.45313,0 2.28125,0.92188 0.82813,0.90625 0.82813,2.57812 v 0.76563 h -4.48438 q 0.0937,0.6875 0.54688,1.10937 0.46875,0.40625 1.17187,0.40625 1.07813,0 1.6875,-0.78125 l 0.92188,1.03125 q -0.42188,0.59375 -1.14063,0.9375 -0.71875,0.32813 -1.59375,0.32813 z m -0.21875,-5.78125 q -0.5625,0 -0.90625,0.39062 -0.34375,0.375 -0.45312,1.07813 h 2.625 v -0.15625 q -0.0156,-0.625 -0.34375,-0.96875 -0.32813,-0.34375 -0.92188,-0.34375 z m 8.2511,5.65625 q -0.125,-0.25 -0.1875,-0.625 -0.67187,0.75 -1.76562,0.75 -1.04688,0 -1.73438,-0.59375 -0.67187,-0.59375 -0.67187,-1.51563 0,-1.10937 0.82812,-1.70312 0.84375,-0.60938 2.40625,-0.60938 h 0.85938 v -0.40625 q 0,-0.48437 -0.25,-0.78125 -0.25,-0.29687 -0.78125,-0.29687 -0.48438,0 -0.75,0.23437 -0.26563,0.21875 -0.26563,0.625 h -1.89062 q 0,-0.60937 0.375,-1.125 0.39062,-0.53125 1.07812,-0.82812 0.6875,-0.29688 1.54688,-0.29688 1.29687,0 2.0625,0.65625 0.76562,0.65625 0.76562,1.84375 v 3.04688 q 0.0156,1 0.28125,1.51562 v 0.10938 z m -1.54687,-1.3125 q 0.40625,0 0.75,-0.17188 0.35937,-0.1875 0.53125,-0.5 v -1.21875 h -0.70313 q -1.40625,0 -1.5,0.98438 v 0.10937 q 0,0.34375 0.23438,0.57813 0.25,0.21875 0.6875,0.21875 z m 6.86441,-7.45313 v 1.71875 h 1.20312 v 1.39063 h -1.20312 v 3.51562 q 0,0.39063 0.15625,0.5625 0.15625,0.15625 0.57812,0.15625 0.3125,0 0.54688,-0.0469 v 1.4375 q -0.54688,0.15625 -1.14063,0.15625 -1.98437,0 -2.01562,-2 v -3.78125 h -1.03125 v -1.39063 h 1.03125 v -1.71875 z m 6.4722,8.04688 q -0.6875,0.84375 -1.92188,0.84375 -1.14062,0 -1.73437,-0.64063 -0.59375,-0.65625 -0.60938,-1.90625 v -4.625 h 1.89063 v 4.54688 q 0,1.10937 1,1.10937 0.95312,0 1.3125,-0.67187 v -4.98438 h 1.89062 v 7.04688 h -1.78125 z m 7.19238,-4.5625 q -0.375,-0.0469 -0.67187,-0.0469 -1.0625,0 -1.39063,0.71875 v 4.60938 h -1.89062 v -7.04688 h 1.78125 l 0.0469,0.84375 q 0.57813,-0.96875 1.57813,-0.96875 0.3125,0 0.57812,0.0781 z m 4.03458,5.40625 q -1.54688,0 -2.53125,-0.9375 -0.96875,-0.95313 -0.96875,-2.53125 v -0.1875 q 0,-1.0625 0.40625,-1.89063 0.40625,-0.84375 1.15625,-1.29687 0.76562,-0.45313 1.71875,-0.45313 1.45312,0 2.28125,0.92188 0.82812,0.90625 0.82812,2.57812 v 0.76563 h -4.48437 q 0.0937,0.6875 0.54687,1.10937 0.46875,0.40625 1.17188,0.40625 1.07812,0 1.6875,-0.78125 l 0.92187,1.03125 q -0.42187,0.59375 -1.14062,0.9375 -0.71875,0.32813 -1.59375,0.32813 z m -0.21875,-5.78125 q -0.5625,0 -0.90625,0.39062 -0.34375,0.375 -0.45313,1.07813 h 2.625 v -0.15625 q -0.0156,-0.625 -0.34375,-0.96875 -0.32812,-0.34375 -0.92187,-0.34375 z"
       fill-rule="nonzero"
       id="path120" />
    <path
       fill="#595959"
       d="m 456.34738,188.49423 v 3.34375 h -1.95313 v -9.46875 h 3.70313 q 1.0625,0 1.875,0.39062 0.8125,0.39063 1.25,1.10938 0.4375,0.71875 0.4375,1.625 0,1.39062 -0.95313,2.20312 -0.95312,0.79688 -2.64062,0.79688 z m 0,-1.57813 h 1.75 q 0.76562,0 1.17187,-0.35937 0.40625,-0.375 0.40625,-1.04688 0,-0.6875 -0.40625,-1.10937 -0.40625,-0.4375 -1.125,-0.45313 h -1.79687 z m 8.50317,4.92188 h -1.89062 v -7.04688 h 1.89062 z m -2,-8.85938 q 0,-0.42187 0.28125,-0.6875 0.29688,-0.28125 0.78125,-0.28125 0.48438,0 0.76563,0.28125 0.28125,0.26563 0.28125,0.6875 0,0.42188 -0.29688,0.70313 -0.28125,0.26562 -0.76562,0.26562 -0.46875,0 -0.76563,-0.26562 -0.28125,-0.28125 -0.28125,-0.70313 z m 9.89316,5.40625 q 0,1.625 -0.75,2.60938 -0.73437,0.96875 -1.98437,0.96875 -1.0625,0 -1.71875,-0.73438 v 3.3125 h -1.89063 v -9.75 h 1.75 l 0.0625,0.6875 q 0.6875,-0.8125 1.78125,-0.8125 1.29688,0 2.01563,0.96875 0.73437,0.95313 0.73437,2.65625 z m -1.875,-0.14062 q 0,-0.98438 -0.35937,-1.51563 -0.34375,-0.53125 -1.01563,-0.53125 -0.875,0 -1.20312,0.67188 v 2.89062 q 0.34375,0.6875 1.21875,0.6875 1.35937,0 1.35937,-2.20312 z m 6.28482,3.71875 q -1.54687,0 -2.53125,-0.9375 -0.96875,-0.95313 -0.96875,-2.53125 v -0.1875 q 0,-1.0625 0.40625,-1.89063 0.40625,-0.84375 1.15625,-1.29687 0.76563,-0.45313 1.71875,-0.45313 1.45313,0 2.28125,0.92188 0.82813,0.90625 0.82813,2.57812 v 0.76563 h -4.48438 q 0.0937,0.6875 0.54688,1.10937 0.46875,0.40625 1.17187,0.40625 1.07813,0 1.6875,-0.78125 l 0.92188,1.03125 q -0.42188,0.59375 -1.14063,0.9375 -0.71875,0.32813 -1.59375,0.32813 z m -0.21875,-5.78125 q -0.5625,0 -0.90625,0.39062 -0.34375,0.375 -0.45312,1.07813 h 2.625 v -0.15625 q -0.0156,-0.625 -0.34375,-0.96875 -0.32813,-0.34375 -0.92188,-0.34375 z m 6.15735,5.65625 h -1.89062 v -10 h 1.89062 z m 3.53378,0 h -1.89062 v -7.04688 h 1.89062 z m -2,-8.85938 q 0,-0.42187 0.28125,-0.6875 0.29688,-0.28125 0.78125,-0.28125 0.48438,0 0.76563,0.28125 0.28125,0.26563 0.28125,0.6875 0,0.42188 -0.29688,0.70313 -0.28125,0.26562 -0.76562,0.26562 -0.46875,0 -0.76563,-0.26562 -0.28125,-0.28125 -0.28125,-0.70313 z m 5.28379,1.8125 0.0625,0.8125 q 0.75,-0.9375 2.01562,-0.9375 1.125,0 1.67188,0.65625 0.54687,0.65625 0.5625,1.96875 v 4.54688 h -1.89063 v -4.5 q 0,-0.60938 -0.26562,-0.875 -0.25,-0.26563 -0.85938,-0.26563 -0.78125,0 -1.1875,0.67188 v 4.96875 h -1.875 v -7.04688 z m 8.98016,7.17188 q -1.54687,0 -2.53125,-0.9375 -0.96875,-0.95313 -0.96875,-2.53125 v -0.1875 q 0,-1.0625 0.40625,-1.89063 0.40625,-0.84375 1.15625,-1.29687 0.76563,-0.45313 1.71875,-0.45313 1.45313,0 2.28125,0.92188 0.82813,0.90625 0.82813,2.57812 v 0.76563 h -4.48438 q 0.0937,0.6875 0.54688,1.10937 0.46875,0.40625 1.17187,0.40625 1.07813,0 1.6875,-0.78125 l 0.92188,1.03125 q -0.42188,0.59375 -1.14063,0.9375 -0.71875,0.32813 -1.59375,0.32813 z m -0.21875,-5.78125 q -0.5625,0 -0.90625,0.39062 -0.34375,0.375 -0.45312,1.07813 h 2.625 v -0.15625 q -0.0156,-0.625 -0.34375,-0.96875 -0.32813,-0.34375 -0.92188,-0.34375 z"
       fill-rule="nonzero"
       id="path122" />
    <path
       fill="#ffffff"
       d="m 408.86942,46.024933 v 0 c 0,-5.503277 22.37167,-9.964565 49.96851,-9.964565 27.59686,0 49.9685,4.461288 49.9685,9.964565 v 39.85827 c 0,5.503281 -22.37164,9.964569 -49.9685,9.964569 -27.59684,0 -49.96851,-4.461289 -49.96851,-9.964569 z"
       fill-rule="evenodd"
       id="path124" />
    <path
       fill="#000000"
       fill-opacity="0"
       d="m 508.80643,46.024933 v 0 c 0,5.503281 -22.37164,9.964569 -49.96851,9.964569 -27.59683,0 -49.9685,-4.461289 -49.9685,-9.964569"
       fill-rule="evenodd"
       id="path126" />
    <path
       fill="#000000"
       fill-opacity="0"
       d="m 408.86942,46.024933 v 0 c 0,-5.503277 22.37167,-9.964565 49.96851,-9.964565 27.59686,0 49.9685,4.461288 49.9685,9.964565 v 39.85827 c 0,5.503281 -22.37164,9.964569 -49.9685,9.964569 -27.59684,0 -49.96851,-4.461289 -49.96851,-9.964569 z"
       fill-rule="evenodd"
       id="path128" />
    <path
       stroke="#595959"
       stroke-width="1"
       stroke-linejoin="round"
       stroke-linecap="butt"
       stroke-dasharray="4, 3"
       d="m 508.80643,46.024933 v 0 c 0,5.503281 -22.37164,9.964569 -49.96851,9.964569 -27.59683,0 -49.9685,-4.461289 -49.9685,-9.964569"
       fill-rule="evenodd"
       id="path130" />
    <path
       stroke="#595959"
       stroke-width="1"
       stroke-linejoin="round"
       stroke-linecap="butt"
       stroke-dasharray="4, 3"
       d="m 408.86942,46.024933 v 0 c 0,-5.503277 22.37167,-9.964565 49.96851,-9.964565 27.59686,0 49.9685,4.461288 49.9685,9.964565 v 39.85827 c 0,5.503281 -22.37164,9.964569 -49.9685,9.964569 -27.59684,0 -49.96851,-4.461289 -49.96851,-9.964569 z"
       fill-rule="evenodd"
       id="path132" />
    <path
       fill="#595959"
       d="m 435.28647,68.36135 h -4.10938 v 3.359375 h 4.78125 v 1.015625 h -6.03125 V 63.2676 h 5.95313 v 1.015625 h -4.70313 V 67.3301 h 4.10938 z m 3.16891,-2.671875 0.0469,0.890625 q 0.79687,-1.015625 2.10937,-1.015625 2.23438,0 2.25,2.515625 v 4.65625 h -1.20312 V 68.0801 q -0.0156,-0.765625 -0.35938,-1.125 -0.32812,-0.375 -1.0625,-0.375 -0.57812,0 -1.03125,0.3125 -0.4375,0.3125 -0.6875,0.828125 v 5.015625 h -1.20312 v -7.046875 z m 7.85392,-1.703125 v 1.703125 h 1.3125 v 0.9375 h -1.3125 v 4.359375 q 0,0.421875 0.17187,0.640625 0.17188,0.21875 0.59375,0.21875 0.21875,0 0.57813,-0.07813 v 0.96875 q -0.46875,0.125 -0.92188,0.125 -0.8125,0 -1.21875,-0.484375 -0.40625,-0.484375 -0.40625,-1.390625 V 66.62697 h -1.28125 v -0.9375 h 1.28125 v -1.70312 z m 5.63501,8.875 q -1.42188,0 -2.32813,-0.9375 -0.89062,-0.9375 -0.89062,-2.515625 v -0.21875 q 0,-1.046875 0.39062,-1.859375 0.40625,-0.828125 1.125,-1.296875 0.71875,-0.46875 1.5625,-0.46875 1.375,0 2.125,0.90625 0.76563,0.90625 0.76563,2.59375 v 0.5 h -4.76563 q 0.0156,1.03125 0.59375,1.671875 0.59375,0.640625 1.48438,0.640625 0.64062,0 1.07812,-0.25 0.45313,-0.265625 0.78125,-0.6875 l 0.73438,0.5625 q -0.875,1.359375 -2.65625,1.359375 z m -0.14063,-6.3125 q -0.73437,0 -1.23437,0.53125 -0.48438,0.53125 -0.60938,1.484375 h 3.53125 v -0.07813 q -0.0469,-0.921875 -0.5,-1.421875 -0.4375,-0.515625 -1.1875,-0.515625 z m 7.68607,0.21875 q -0.26563,-0.03125 -0.59375,-0.03125 -1.1875,0 -1.60938,1 v 5 h -1.20312 v -7.046875 h 1.17187 l 0.0312,0.8125 q 0.57813,-0.9375 1.67188,-0.9375 0.34375,0 0.53125,0.09375 z m 7.05682,2.53125 q 0,1.609375 -0.73437,2.59375 -0.73438,0.96875 -2,0.96875 -1.28125,0 -2.01563,-0.8125 v 3.390625 h -1.20312 v -9.75 h 1.10937 l 0.0469,0.78125 q 0.75,-0.90625 2.04687,-0.90625 1.26563,0 2,0.953125 0.75,0.953125 0.75,2.671875 z m -1.20312,-0.140625 q 0,-1.1875 -0.51563,-1.875 -0.5,-0.703125 -1.39062,-0.703125 -1.09375,0 -1.64063,0.96875 v 3.375 q 0.54688,0.953125 1.65625,0.953125 0.875,0 1.375,-0.671875 0.51563,-0.6875 0.51563,-2.046875 z m 6.13382,-2.390625 q -0.26563,-0.03125 -0.59375,-0.03125 -1.1875,0 -1.60938,1 v 5 h -1.20312 v -7.046875 h 1.17187 l 0.0312,0.8125 q 0.57813,-0.9375 1.67188,-0.9375 0.34375,0 0.53125,0.09375 z m 2.41619,5.96875 h -1.20312 v -7.046875 h 1.20312 z m -1.29687,-8.90625 q 0,-0.296875 0.17187,-0.5 0.1875,-0.203125 0.53125,-0.203125 0.35938,0 0.53125,0.203125 0.1875,0.203125 0.1875,0.5 0,0.296875 -0.1875,0.5 -0.17187,0.1875 -0.53125,0.1875 -0.34375,0 -0.53125,-0.1875 -0.17187,-0.203125 -0.17187,-0.5 z m 7.32819,7.03125 q 0,-0.484375 -0.375,-0.75 -0.35938,-0.265625 -1.28125,-0.453125 -0.90625,-0.203125 -1.45313,-0.46875 -0.53125,-0.28125 -0.79687,-0.65625 -0.25,-0.390625 -0.25,-0.90625 0,-0.859375 0.73437,-1.453125 0.73438,-0.609375 1.875,-0.609375 1.1875,0 1.9375,0.625 0.75,0.609375 0.75,1.578125 h -1.21875 q 0,-0.5 -0.42187,-0.859375 -0.42188,-0.359375 -1.04688,-0.359375 -0.65625,0 -1.03125,0.296875 -0.375,0.28125 -0.375,0.75 0,0.421875 0.34375,0.65625 0.34375,0.21875 1.25,0.421875 0.90625,0.203125 1.45313,0.484375 0.5625,0.265625 0.82812,0.671875 0.28125,0.390625 0.28125,0.953125 0,0.9375 -0.76562,1.515625 -0.75,0.5625 -1.95313,0.5625 -0.84375,0 -1.5,-0.296875 -0.64062,-0.296875 -1.01562,-0.828125 -0.35938,-0.546875 -0.35938,-1.171875 h 1.20313 q 0.0312,0.609375 0.48437,0.96875 0.45313,0.34375 1.1875,0.34375 0.6875,0 1.09375,-0.265625 0.42188,-0.28125 0.42188,-0.75 z m 5.68481,2 q -1.42187,0 -2.32812,-0.9375 -0.89063,-0.9375 -0.89063,-2.515625 v -0.21875 q 0,-1.046875 0.39063,-1.859375 0.40625,-0.828125 1.125,-1.296875 0.71875,-0.46875 1.5625,-0.46875 1.375,0 2.125,0.90625 0.76562,0.90625 0.76562,2.59375 v 0.5 h -4.76562 q 0.0156,1.03125 0.59375,1.671875 0.59375,0.640625 1.48437,0.640625 0.64063,0 1.07813,-0.25 0.45312,-0.265625 0.78125,-0.6875 l 0.73437,0.5625 q -0.875,1.359375 -2.65625,1.359375 z m -0.14062,-6.3125 q -0.73438,0 -1.23438,0.53125 -0.48437,0.53125 -0.60937,1.484375 h 3.53125 v -0.07813 q -0.0469,-0.921875 -0.5,-1.421875 -0.4375,-0.515625 -1.1875,-0.515625 z"
       fill-rule="nonzero"
       id="path134" />
    <path
       fill="#595959"
       d="M 446.13498,88.73635 V 79.2676 h 2.6875 q 1.23437,0 2.17187,0.546875 0.95313,0.546875 1.46875,1.5625 0.53125,1 0.53125,2.296875 v 0.609375 q 0,1.34375 -0.51562,2.359375 -0.51563,1 -1.48438,1.546875 -0.95312,0.53125 -2.23437,0.546875 z m 1.25,-8.453125 v 7.4375 h 1.3125 q 1.45312,0 2.25,-0.890625 0.8125,-0.90625 0.8125,-2.578125 V 83.7051 q 0,-1.609375 -0.76563,-2.5 -0.75,-0.90625 -2.14062,-0.921875 z m 11.66196,8.453125 q -0.10938,-0.203125 -0.17188,-0.734375 -0.84375,0.859375 -2.01562,0.859375 -1.03125,0 -1.70313,-0.578125 -0.67187,-0.59375 -0.67187,-1.5 0,-1.09375 0.82812,-1.703125 0.84375,-0.609375 2.35938,-0.609375 h 1.17187 v -0.5625 q 0,-0.625 -0.375,-1 -0.375,-0.375 -1.10937,-0.375 -0.64063,0 -1.07813,0.328125 -0.4375,0.328125 -0.4375,0.78125 h -1.20312 q 0,-0.515625 0.35937,-1 0.375,-0.5 1.01563,-0.78125 0.65625,-0.296875 1.42187,-0.296875 1.21875,0 1.90625,0.609375 0.6875,0.609375 0.71875,1.671875 v 3.25 q 0,0.96875 0.23438,1.53125 v 0.109375 z m -2,-0.921875 q 0.5625,0 1.0625,-0.28125 0.51562,-0.296875 0.73437,-0.765625 v -1.453125 h -0.9375 q -2.21875,0 -2.21875,1.296875 0,0.5625 0.375,0.890625 0.39063,0.3125 0.98438,0.3125 z m 6.53103,-7.828125 v 1.703125 h 1.3125 v 0.9375 h -1.3125 v 4.359375 q 0,0.421875 0.17188,0.640625 0.17187,0.21875 0.59375,0.21875 0.21875,0 0.57812,-0.07813 v 0.96875 q -0.46875,0.125 -0.92187,0.125 -0.8125,0 -1.21875,-0.484375 -0.40625,-0.484375 -0.40625,-1.390625 V 82.62697 h -1.28125 v -0.9375 h 1.28125 v -1.70312 z m 7.07251,8.75 q -0.10937,-0.203125 -0.17187,-0.734375 -0.84375,0.859375 -2.01563,0.859375 -1.03125,0 -1.70312,-0.578125 -0.67188,-0.59375 -0.67188,-1.5 0,-1.09375 0.82813,-1.703125 0.84375,-0.609375 2.35937,-0.609375 h 1.17188 v -0.5625 q 0,-0.625 -0.375,-1 -0.375,-0.375 -1.10938,-0.375 -0.64062,0 -1.07812,0.328125 -0.4375,0.328125 -0.4375,0.78125 h -1.20313 q 0,-0.515625 0.35938,-1 0.375,-0.5 1.01562,-0.78125 0.65625,-0.296875 1.42188,-0.296875 1.21875,0 1.90625,0.609375 0.6875,0.609375 0.71875,1.671875 v 3.25 q 0,0.96875 0.23437,1.53125 v 0.109375 z m -2,-0.921875 q 0.5625,0 1.0625,-0.28125 0.51563,-0.296875 0.73438,-0.765625 v -1.453125 h -0.9375 q -2.21875,0 -2.21875,1.296875 0,0.5625 0.375,0.890625 0.39062,0.3125 0.98437,0.3125 z"
       fill-rule="nonzero"
       id="path136" />
    <path
       fill="#000000"
       fill-opacity="0"
       d="m 458.83792,95.84777 v 46.23621"
       fill-rule="evenodd"
       id="path138" />
    <path
       stroke="#595959"
       stroke-width="2"
       stroke-linejoin="round"
       stroke-linecap="butt"
       d="m 458.83792,95.84777 v 34.23621"
       fill-rule="evenodd"
       id="path140" />
    <path
       fill="#595959"
       stroke="#595959"
       stroke-width="2"
       stroke-linecap="butt"
       d="m 455.53445,130.08398 3.30347,9.0762 3.30346,-9.0762 z"
       fill-rule="evenodd"
       id="path142" />
    <path
       fill="#ffffff"
       d="m 677.7877,195.94159 v 0 c 0,-1.18825 4.93842,-2.15152 11.03021,-2.15152 6.09186,0 11.03021,0.96327 11.03021,2.15152 v 8.60605 c 0,1.18825 -4.93835,2.15152 -11.03021,2.15152 -6.0918,0 -11.03021,-0.96327 -11.03021,-2.15152 z"
       fill-rule="evenodd"
       id="path144" />
    <path
       fill="#000000"
       fill-opacity="0"
       d="m 699.84814,195.94159 v 0 c 0,1.18825 -4.93835,2.1515 -11.03021,2.1515 -6.0918,0 -11.03021,-0.96325 -11.03021,-2.1515"
       fill-rule="evenodd"
       id="path146" />
    <path
       fill="#000000"
       fill-opacity="0"
       d="m 677.7877,195.94159 v 0 c 0,-1.18825 4.93842,-2.15152 11.03021,-2.15152 6.09186,0 11.03021,0.96327 11.03021,2.15152 v 8.60605 c 0,1.18825 -4.93835,2.15152 -11.03021,2.15152 -6.0918,0 -11.03021,-0.96327 -11.03021,-2.15152 z"
       fill-rule="evenodd"
       id="path148" />
    <path
       stroke="#595959"
       stroke-width="2"
       stroke-linejoin="round"
       stroke-linecap="butt"
       d="m 699.84814,195.94159 v 0 c 0,1.18825 -4.93835,2.1515 -11.03021,2.1515 -6.0918,0 -11.03021,-0.96325 -11.03021,-2.1515"
       fill-rule="evenodd"
       id="path150" />
    <path
       stroke="#595959"
       stroke-width="2"
       stroke-linejoin="round"
       stroke-linecap="butt"
       d="m 677.7877,195.94159 v 0 c 0,-1.18825 4.93842,-2.15152 11.03021,-2.15152 6.09186,0 11.03021,0.96327 11.03021,2.15152 v 8.60605 c 0,1.18825 -4.93835,2.15152 -11.03021,2.15152 -6.0918,0 -11.03021,-0.96327 -11.03021,-2.15152 z"
       fill-rule="evenodd"
       id="path152" />
    <path
       fill="#000000"
       fill-opacity="0"
       d="m 693.8584,193.95735 3.07568,3.53941"
       fill-rule="evenodd"
       id="path154" />
    <path
       stroke="#595959"
       stroke-width="1"
       stroke-linejoin="round"
       stroke-linecap="butt"
       d="m 693.8584,193.95735 3.07568,3.53941"
       fill-rule="evenodd"
       id="path156" />
    <path
       fill="#000000"
       fill-opacity="0"
       d="m 697.14667,194.64333 1.95941,2.16829"
       fill-rule="evenodd"
       id="path158" />
    <path
       stroke="#595959"
       stroke-width="1"
       stroke-linejoin="round"
       stroke-linecap="butt"
       d="m 697.14667,194.64333 1.95941,2.16829"
       fill-rule="evenodd"
       id="path160" />
    <path
       fill="#000000"
       fill-opacity="0"
       d="m 683.5809,193.95735 3.27338,4.07352"
       fill-rule="evenodd"
       id="path162" />
    <path
       stroke="#595959"
       stroke-width="1"
       stroke-linejoin="round"
       stroke-linecap="butt"
       d="m 683.5809,193.95735 3.27338,4.07352"
       fill-rule="evenodd"
       id="path164" />
    <path
       fill="#000000"
       fill-opacity="0"
       d="m 685.7378,193.79012 3.86066,4.24092"
       fill-rule="evenodd"
       id="path166" />
    <path
       stroke="#595959"
       stroke-width="1"
       stroke-linejoin="round"
       stroke-linecap="butt"
       d="m 685.7378,193.79012 3.86066,4.24092"
       fill-rule="evenodd"
       id="path168" />
    <path
       fill="#000000"
       fill-opacity="0"
       d="m 688.4791,193.79012 3.59314,4.28876"
       fill-rule="evenodd"
       id="path170" />
    <path
       stroke="#595959"
       stroke-width="1"
       stroke-linejoin="round"
       stroke-linecap="butt"
       d="m 688.4791,193.79012 3.59314,4.28876"
       fill-rule="evenodd"
       id="path172" />
    <path
       fill="#000000"
       fill-opacity="0"
       d="m 691.5191,193.95735 3.22107,3.75465"
       fill-rule="evenodd"
       id="path174" />
    <path
       stroke="#595959"
       stroke-width="1"
       stroke-linejoin="round"
       stroke-linecap="butt"
       d="m 691.5191,193.95735 3.22107,3.75465"
       fill-rule="evenodd"
       id="path176" />
    <path
       fill="#000000"
       fill-opacity="0"
       d="m 678.8276,195.17232 1.72681,2.05669"
       fill-rule="evenodd"
       id="path178" />
    <path
       stroke="#595959"
       stroke-width="1"
       stroke-linejoin="round"
       stroke-linecap="butt"
       d="m 678.8276,195.17232 1.72681,2.05669"
       fill-rule="evenodd"
       id="path180" />
    <path
       fill="#000000"
       fill-opacity="0"
       d="m 681.1351,194.42747 2.8606,3.41983"
       fill-rule="evenodd"
       id="path182" />
    <path
       stroke="#595959"
       stroke-width="1"
       stroke-linejoin="round"
       stroke-linecap="butt"
       d="m 681.1351,194.42747 2.8606,3.41983"
       fill-rule="evenodd"
       id="path184" />
    <path
       fill="#c4efe1"
       fill-opacity="0.7318"
       d="m 678.99585,195.0499 v 0 c 0,-0.33405 0.98901,-0.65442 2.74939,-0.89063 1.76044,-0.2362 4.14801,-0.36889 6.63763,-0.36889 v 0 c 5.18427,0 9.38697,0.5639 9.38697,1.25952 v 0 c 0,0.69562 -4.2027,1.25952 -9.38697,1.25952 v 0 c -5.18432,0 -9.38702,-0.5639 -9.38702,-1.25952 z"
       fill-rule="evenodd"
       id="path186" />
    <path
       stroke="#595959"
       stroke-width="1"
       stroke-linejoin="round"
       stroke-linecap="butt"
       d="m 678.99585,195.0499 v 0 c 0,-0.33405 0.98901,-0.65442 2.74939,-0.89063 1.76044,-0.2362 4.14801,-0.36889 6.63763,-0.36889 v 0 c 5.18427,0 9.38697,0.5639 9.38697,1.25952 v 0 c 0,0.69562 -4.2027,1.25952 -9.38697,1.25952 v 0 c -5.18432,0 -9.38702,-0.5639 -9.38702,-1.25952 z"
       fill-rule="evenodd"
       id="path188" />
    <path
       fill="#ffffff"
       d="m 677.7877,184.28879 v 0 c 0,-1.18825 4.93842,-2.15152 11.03021,-2.15152 6.09186,0 11.03021,0.96327 11.03021,2.15152 v 8.60605 c 0,1.18825 -4.93835,2.1515 -11.03021,2.1515 -6.0918,0 -11.03021,-0.96325 -11.03021,-2.1515 z"
       fill-rule="evenodd"
       id="path190" />
    <path
       fill="#000000"
       fill-opacity="0"
       d="m 699.84814,184.28879 v 0 c 0,1.18825 -4.93835,2.1515 -11.03021,2.1515 -6.0918,0 -11.03021,-0.96325 -11.03021,-2.1515"
       fill-rule="evenodd"
       id="path192" />
    <path
       fill="#000000"
       fill-opacity="0"
       d="m 677.7877,184.28879 v 0 c 0,-1.18825 4.93842,-2.15152 11.03021,-2.15152 6.09186,0 11.03021,0.96327 11.03021,2.15152 v 8.60605 c 0,1.18825 -4.93835,2.1515 -11.03021,2.1515 -6.0918,0 -11.03021,-0.96325 -11.03021,-2.1515 z"
       fill-rule="evenodd"
       id="path194" />
    <path
       stroke="#595959"
       stroke-width="2"
       stroke-linejoin="round"
       stroke-linecap="butt"
       d="m 699.84814,184.28879 v 0 c 0,1.18825 -4.93835,2.1515 -11.03021,2.1515 -6.0918,0 -11.03021,-0.96325 -11.03021,-2.1515"
       fill-rule="evenodd"
       id="path196" />
    <path
       stroke="#595959"
       stroke-width="2"
       stroke-linejoin="round"
       stroke-linecap="butt"
       d="m 677.7877,184.28879 v 0 c 0,-1.18825 4.93842,-2.15152 11.03021,-2.15152 6.09186,0 11.03021,0.96327 11.03021,2.15152 v 8.60605 c 0,1.18825 -4.93835,2.1515 -11.03021,2.1515 -6.0918,0 -11.03021,-0.96325 -11.03021,-2.1515 z"
       fill-rule="evenodd"
       id="path198" />
    <path
       fill="#000000"
       fill-opacity="0"
       d="m 693.8584,182.30455 3.07568,3.53941"
       fill-rule="evenodd"
       id="path200" />
    <path
       stroke="#595959"
       stroke-width="1"
       stroke-linejoin="round"
       stroke-linecap="butt"
       d="m 693.8584,182.30455 3.07568,3.53941"
       fill-rule="evenodd"
       id="path202" />
    <path
       fill="#000000"
       fill-opacity="0"
       d="m 697.14667,182.99052 1.95941,2.16829"
       fill-rule="evenodd"
       id="path204" />
    <path
       stroke="#595959"
       stroke-width="1"
       stroke-linejoin="round"
       stroke-linecap="butt"
       d="m 697.14667,182.99052 1.95941,2.16829"
       fill-rule="evenodd"
       id="path206" />
    <path
       fill="#000000"
       fill-opacity="0"
       d="m 683.5809,182.30455 3.27338,4.07352"
       fill-rule="evenodd"
       id="path208" />
    <path
       stroke="#595959"
       stroke-width="1"
       stroke-linejoin="round"
       stroke-linecap="butt"
       d="m 683.5809,182.30455 3.27338,4.07352"
       fill-rule="evenodd"
       id="path210" />
    <path
       fill="#000000"
       fill-opacity="0"
       d="m 685.7378,182.13731 3.86066,4.24092"
       fill-rule="evenodd"
       id="path212" />
    <path
       stroke="#595959"
       stroke-width="1"
       stroke-linejoin="round"
       stroke-linecap="butt"
       d="m 685.7378,182.13731 3.86066,4.24092"
       fill-rule="evenodd"
       id="path214" />
    <path
       fill="#000000"
       fill-opacity="0"
       d="m 688.4791,182.13731 3.59314,4.28876"
       fill-rule="evenodd"
       id="path216" />
    <path
       stroke="#595959"
       stroke-width="1"
       stroke-linejoin="round"
       stroke-linecap="butt"
       d="m 688.4791,182.13731 3.59314,4.28876"
       fill-rule="evenodd"
       id="path218" />
    <path
       fill="#000000"
       fill-opacity="0"
       d="m 691.5191,182.30455 3.22107,3.75464"
       fill-rule="evenodd"
       id="path220" />
    <path
       stroke="#595959"
       stroke-width="1"
       stroke-linejoin="round"
       stroke-linecap="butt"
       d="m 691.5191,182.30455 3.22107,3.75464"
       fill-rule="evenodd"
       id="path222" />
    <path
       fill="#000000"
       fill-opacity="0"
       d="m 678.8276,183.51952 1.72681,2.05669"
       fill-rule="evenodd"
       id="path224" />
    <path
       stroke="#595959"
       stroke-width="1"
       stroke-linejoin="round"
       stroke-linecap="butt"
       d="m 678.8276,183.51952 1.72681,2.05669"
       fill-rule="evenodd"
       id="path226" />
    <path
       fill="#000000"
       fill-opacity="0"
       d="m 681.1351,182.77466 2.8606,3.41985"
       fill-rule="evenodd"
       id="path228" />
    <path
       stroke="#595959"
       stroke-width="1"
       stroke-linejoin="round"
       stroke-linecap="butt"
       d="m 681.1351,182.77466 2.8606,3.41985"
       fill-rule="evenodd"
       id="path230" />
    <path
       fill="#c4efe1"
       fill-opacity="0.7318"
       d="m 678.99585,183.3971 v 0 c 0,-0.33405 0.98901,-0.65442 2.74939,-0.89063 1.76044,-0.2362 4.14801,-0.36889 6.63763,-0.36889 v 0 c 5.18427,0 9.38697,0.5639 9.38697,1.25952 v 0 c 0,0.69562 -4.2027,1.25952 -9.38697,1.25952 v 0 c -5.18432,0 -9.38702,-0.5639 -9.38702,-1.25952 z"
       fill-rule="evenodd"
       id="path232" />
    <path
       stroke="#595959"
       stroke-width="1"
       stroke-linejoin="round"
       stroke-linecap="butt"
       d="m 678.99585,183.3971 v 0 c 0,-0.33405 0.98901,-0.65442 2.74939,-0.89063 1.76044,-0.2362 4.14801,-0.36889 6.63763,-0.36889 v 0 c 5.18427,0 9.38697,0.5639 9.38697,1.25952 v 0 c 0,0.69562 -4.2027,1.25952 -9.38697,1.25952 v 0 c -5.18432,0 -9.38702,-0.5639 -9.38702,-1.25952 z"
       fill-rule="evenodd"
       id="path234" />
    <path
       fill="#ffffff"
       d="m 677.7877,172.72289 v 0 c 0,-1.18825 4.93842,-2.1515 11.03021,-2.1515 6.09186,0 11.03021,0.96325 11.03021,2.1515 v 8.60606 c 0,1.18825 -4.93835,2.15151 -11.03021,2.15151 -6.0918,0 -11.03021,-0.96326 -11.03021,-2.15151 z"
       fill-rule="evenodd"
       id="path236" />
    <path
       fill="#000000"
       fill-opacity="0"
       d="m 699.84814,172.72289 v 0 c 0,1.18825 -4.93835,2.15152 -11.03021,2.15152 -6.0918,0 -11.03021,-0.96327 -11.03021,-2.15152"
       fill-rule="evenodd"
       id="path238" />
    <path
       fill="#000000"
       fill-opacity="0"
       d="m 677.7877,172.72289 v 0 c 0,-1.18825 4.93842,-2.1515 11.03021,-2.1515 6.09186,0 11.03021,0.96325 11.03021,2.1515 v 8.60606 c 0,1.18825 -4.93835,2.15151 -11.03021,2.15151 -6.0918,0 -11.03021,-0.96326 -11.03021,-2.15151 z"
       fill-rule="evenodd"
       id="path240" />
    <path
       stroke="#595959"
       stroke-width="2"
       stroke-linejoin="round"
       stroke-linecap="butt"
       d="m 699.84814,172.72289 v 0 c 0,1.18825 -4.93835,2.15152 -11.03021,2.15152 -6.0918,0 -11.03021,-0.96327 -11.03021,-2.15152"
       fill-rule="evenodd"
       id="path242" />
    <path
       stroke="#595959"
       stroke-width="2"
       stroke-linejoin="round"
       stroke-linecap="butt"
       d="m 677.7877,172.72289 v 0 c 0,-1.18825 4.93842,-2.1515 11.03021,-2.1515 6.09186,0 11.03021,0.96325 11.03021,2.1515 v 8.60606 c 0,1.18825 -4.93835,2.15151 -11.03021,2.15151 -6.0918,0 -11.03021,-0.96326 -11.03021,-2.15151 z"
       fill-rule="evenodd"
       id="path244" />
    <path
       fill="#000000"
       fill-opacity="0"
       d="m 693.8584,170.73866 3.07568,3.53941"
       fill-rule="evenodd"
       id="path246" />
    <path
       stroke="#595959"
       stroke-width="1"
       stroke-linejoin="round"
       stroke-linecap="butt"
       d="m 693.8584,170.73866 3.07568,3.53941"
       fill-rule="evenodd"
       id="path248" />
    <path
       fill="#000000"
       fill-opacity="0"
       d="m 697.14667,171.42464 1.95941,2.16829"
       fill-rule="evenodd"
       id="path250" />
    <path
       stroke="#595959"
       stroke-width="1"
       stroke-linejoin="round"
       stroke-linecap="butt"
       d="m 697.14667,171.42464 1.95941,2.16829"
       fill-rule="evenodd"
       id="path252" />
    <path
       fill="#000000"
       fill-opacity="0"
       d="m 683.5809,170.73866 3.27338,4.0735"
       fill-rule="evenodd"
       id="path254" />
    <path
       stroke="#595959"
       stroke-width="1"
       stroke-linejoin="round"
       stroke-linecap="butt"
       d="m 683.5809,170.73866 3.27338,4.0735"
       fill-rule="evenodd"
       id="path256" />
    <path
       fill="#000000"
       fill-opacity="0"
       d="m 685.7378,170.57143 3.86066,4.24092"
       fill-rule="evenodd"
       id="path258" />
    <path
       stroke="#595959"
       stroke-width="1"
       stroke-linejoin="round"
       stroke-linecap="butt"
       d="m 685.7378,170.57143 3.86066,4.24092"
       fill-rule="evenodd"
       id="path260" />
    <path
       fill="#000000"
       fill-opacity="0"
       d="m 688.4791,170.57143 3.59314,4.28874"
       fill-rule="evenodd"
       id="path262" />
    <path
       stroke="#595959"
       stroke-width="1"
       stroke-linejoin="round"
       stroke-linecap="butt"
       d="m 688.4791,170.57143 3.59314,4.28874"
       fill-rule="evenodd"
       id="path264" />
    <path
       fill="#000000"
       fill-opacity="0"
       d="m 691.5191,170.73866 3.22107,3.75464"
       fill-rule="evenodd"
       id="path266" />
    <path
       stroke="#595959"
       stroke-width="1"
       stroke-linejoin="round"
       stroke-linecap="butt"
       d="m 691.5191,170.73866 3.22107,3.75464"
       fill-rule="evenodd"
       id="path268" />
    <path
       fill="#000000"
       fill-opacity="0"
       d="m 678.8276,171.95363 1.72681,2.05669"
       fill-rule="evenodd"
       id="path270" />
    <path
       stroke="#595959"
       stroke-width="1"
       stroke-linejoin="round"
       stroke-linecap="butt"
       d="m 678.8276,171.95363 1.72681,2.05669"
       fill-rule="evenodd"
       id="path272" />
    <path
       fill="#000000"
       fill-opacity="0"
       d="m 681.1351,171.20877 2.8606,3.41985"
       fill-rule="evenodd"
       id="path274" />
    <path
       stroke="#595959"
       stroke-width="1"
       stroke-linejoin="round"
       stroke-linecap="butt"
       d="m 681.1351,171.20877 2.8606,3.41985"
       fill-rule="evenodd"
       id="path276" />
    <g
       mask="url(#mask-g12a9b3a53ae_0_1114.2)"
       id="g280">
      <use
         xlink:href="#g12a9b3a53ae_0_1114.2"
         transform="matrix(1,0,0,-1,0,371.17323)"
         id="use278"
         x="0"
         y="0"
         width="100%"
         height="100%" />
    </g>
    <g
       id="g12a9b3a53ae_0_1114.2">
      <path
         fill="#000000"
         fill-opacity="0"
         d="m 424.67715,159.48688 h 14.70868 c 2.03082,0 3.67715,5.17105 3.67715,11.54987 0,6.37881 -1.64633,11.54986 -3.67715,11.54986 h -14.70868 v 0 c -2.03082,0 -3.67715,-5.17105 -3.67715,-11.54986 0,-6.37882 1.64633,-11.54987 3.67715,-11.54987 z"
         fill-rule="evenodd"
         id="path292" />
      <path
         fill="#000000"
         fill-opacity="0"
         d="m 439.38583,182.58661 c -2.03085,0 -3.67719,-5.17105 -3.67719,-11.54987 0,-6.37881 1.64634,-11.54986 3.67719,-11.54986"
         fill-rule="evenodd"
         id="path294" />
      <path
         fill="#000000"
         fill-opacity="0"
         d="m 424.67715,159.48688 h 14.70868 c 2.03082,0 3.67715,5.17105 3.67715,11.54987 0,6.37881 -1.64633,11.54986 -3.67715,11.54986 h -14.70868 v 0 c -2.03082,0 -3.67715,-5.17105 -3.67715,-11.54986 0,-6.37882 1.64633,-11.54987 3.67715,-11.54987 z"
         fill-rule="evenodd"
         id="path296" />
      <path
         stroke="#595959"
         stroke-width="2"
         stroke-linejoin="round"
         stroke-linecap="butt"
         d="m 439.38583,182.58661 c -2.03085,0 -3.67719,-5.17105 -3.67719,-11.54987 0,-6.37881 1.64634,-11.54986 3.67719,-11.54986"
         fill-rule="evenodd"
         id="path298" />
      <path
         stroke="#595959"
         stroke-width="2"
         stroke-linejoin="round"
         stroke-linecap="butt"
         d="m 424.67715,159.48688 h 14.70868 c 2.03082,0 3.67715,5.17105 3.67715,11.54987 0,6.37881 -1.64633,11.54986 -3.67715,11.54986 h -14.70868 v 0 c -2.03082,0 -3.67715,-5.17105 -3.67715,-11.54986 0,-6.37882 1.64633,-11.54987 3.67715,-11.54987 z"
         fill-rule="evenodd"
         id="path300" />
    </g>
    <path
       fill="#ffffff"
       d="M 451.17587,277.64304 H 565.0971 V 302.8714 H 451.17587 Z"
       fill-rule="evenodd"
       id="path303" />
    <path
       stroke="#cfe2f3"
       stroke-width="1"
       stroke-linejoin="round"
       stroke-linecap="butt"
       stroke-dasharray="1, 3"
       d="M 451.17587,277.64304 H 565.0971 V 302.8714 H 451.17587 Z"
       fill-rule="evenodd"
       id="path305" />
    <path
       fill="#5e5e5e"
       d="m 475.25214,284.3566 v -1.1875 h -3.23438 v -2.0625 h 3.64063 v -1.1875 h -5.10938 v 7.57813 h 1.46875 v -3.14063 z m 4.37915,3.25 q 0.8125,0 1.40625,-0.3125 0.60938,-0.32812 0.875,-0.71875 l -0.71875,-0.78125 q -0.25,0.32813 -0.65625,0.48438 -0.39062,0.15625 -0.82812,0.15625 -0.29688,0 -0.5625,-0.0937 -0.25,-0.0937 -0.4375,-0.26563 -0.1875,-0.15625 -0.3125,-0.35937 -0.10938,-0.21875 -0.1875,-0.54688 v -0.0156 h 3.82812 v -0.60938 q 0,-0.625 -0.17187,-1.14062 -0.17188,-0.51563 -0.5,-0.875 -0.34375,-0.35938 -0.82813,-0.5625 -0.46875,-0.20313 -1.07812,-0.20313 -0.57813,0 -1.07813,0.21875 -0.5,0.20313 -0.85937,0.59375 -0.375,0.39063 -0.57813,0.92188 -0.20312,0.53125 -0.20312,1.17187 v 0.20313 q 0,0.57812 0.20312,1.07812 0.21875,0.48438 0.59375,0.85938 0.375,0.35937 0.90625,0.57812 0.53125,0.21875 1.1875,0.21875 z m -0.17187,-4.67187 q 0.26562,0 0.46875,0.0937 0.21875,0.0781 0.375,0.21875 0.14062,0.15625 0.21875,0.35937 0.0937,0.20313 0.0937,0.4375 v 0.10938 h -2.375 q 0.0469,-0.28125 0.15625,-0.5 0.10937,-0.21875 0.26562,-0.39063 0.14063,-0.15625 0.34375,-0.23437 0.20313,-0.0937 0.45313,-0.0937 z m 7.34793,4.5625 h 1.46875 v -0.0937 q -0.10938,-0.20313 -0.17188,-0.5 -0.0469,-0.29688 -0.0469,-0.75 v -2.42188 q 0,-0.48437 -0.1875,-0.85937 -0.1875,-0.375 -0.5,-0.60938 -0.32813,-0.25 -0.76563,-0.375 -0.4375,-0.125 -0.95312,-0.125 -0.5625,0 -1,0.14063 -0.4375,0.14062 -0.75,0.39062 -0.29688,0.25 -0.46875,0.57813 -0.15625,0.3125 -0.15625,0.67187 h 1.45312 q 0,-0.15625 0.0469,-0.28125 0.0469,-0.125 0.14062,-0.20312 0.0937,-0.10938 0.25,-0.15625 0.17188,-0.0625 0.40625,-0.0625 0.26563,0 0.45313,0.0781 0.20312,0.0625 0.32812,0.17188 0.125,0.125 0.1875,0.28125 0.0625,0.15625 0.0625,0.35937 v 0.32813 h -0.8125 q -0.60937,0 -1.09375,0.10937 -0.48437,0.10938 -0.8125,0.32813 -0.35937,0.23437 -0.54687,0.59375 -0.1875,0.35937 -0.1875,0.82812 0,0.35938 0.14062,0.67188 0.15625,0.3125 0.42188,0.53125 0.25,0.23437 0.60937,0.35937 0.375,0.125 0.79688,0.125 0.26562,0 0.48437,-0.0625 0.23438,-0.0469 0.4375,-0.125 0.1875,-0.0937 0.34375,-0.20312 0.15625,-0.10938 0.26563,-0.25 0.0312,0.15625 0.0625,0.29687 0.0469,0.125 0.0937,0.23438 z m -1.375,-1.01563 q -0.20313,0 -0.35938,-0.0469 -0.15625,-0.0469 -0.25,-0.14063 -0.10937,-0.0781 -0.17187,-0.20312 -0.0469,-0.14063 -0.0469,-0.28125 0,-0.20313 0.0625,-0.35938 0.0781,-0.17187 0.23438,-0.28125 0.15625,-0.125 0.39062,-0.1875 0.23438,-0.0625 0.57813,-0.0625 h 0.73437 v 0.96875 q -0.0625,0.10938 -0.17187,0.21875 -0.10938,0.10938 -0.26563,0.1875 -0.14062,0.0781 -0.32812,0.14063 -0.1875,0.0469 -0.40625,0.0469 z m 6.9104,-6 h -1.45313 v 1.39063 h -1.28125 v 1.0625 h 1.28125 v 2.5625 q 0,0.54687 0.14063,0.95312 0.15625,0.39063 0.42187,0.65625 0.26563,0.25 0.64063,0.375 0.375,0.125 0.84375,0.125 0.23437,0 0.48437,-0.0312 0.25,-0.0156 0.48438,-0.0625 0.21875,-0.0312 0.42187,-0.0937 0.20313,-0.0781 0.35938,-0.15625 l -0.14063,-1 q -0.0937,0.0312 -0.23437,0.0625 -0.14063,0.0156 -0.29688,0.0312 -0.15625,0.0312 -0.34375,0.0469 -0.17187,0.0156 -0.32812,0.0156 -0.23438,0 -0.42188,-0.0469 -0.1875,-0.0625 -0.3125,-0.1875 -0.125,-0.10938 -0.20312,-0.3125 -0.0625,-0.21875 -0.0625,-0.51563 v -2.42187 h 2.09375 v -1.0625 h -2.09375 z m 7.41043,7.01563 h 1.3125 v -5.625 h -1.45313 v 3.9375 q -0.0625,0.14062 -0.15625,0.25 -0.0937,0.10937 -0.21875,0.1875 -0.14062,0.0937 -0.32812,0.14062 -0.1875,0.0469 -0.40625,0.0469 -0.26563,0 -0.4375,-0.0625 -0.17188,-0.0625 -0.28125,-0.21875 -0.10938,-0.14063 -0.15625,-0.375 -0.0469,-0.23438 -0.0469,-0.57813 v -3.32812 h -1.45312 v 3.32812 q 0,0.64063 0.14062,1.09375 0.14063,0.45313 0.40625,0.75 0.26563,0.29688 0.625,0.4375 0.35938,0.125 0.79688,0.125 0.48437,0 0.875,-0.23437 0.40625,-0.25 0.70312,-0.67188 z m 6.76977,-5.73438 q -0.57812,0 -1.0625,0.28125 -0.46875,0.26563 -0.8125,0.75 l -0.0156,-0.125 -0.0469,-0.79687 h -1.34375 v 5.625 h 1.4375 v -3.375 q 0.0937,-0.25 0.25,-0.42188 0.15625,-0.17187 0.35938,-0.29687 0.1875,-0.0937 0.40625,-0.14063 0.23437,-0.0469 0.51562,-0.0469 0.26563,0 0.5625,0.0312 0.29688,0.0312 0.59375,0.0937 l 0.20313,-1.4375 q -0.17188,-0.0469 -0.45313,-0.0937 -0.26562,-0.0469 -0.59375,-0.0469 z m 5.08231,5.84375 q 0.81247,0 1.40622,-0.3125 0.60937,-0.32812 0.875,-0.71875 l -0.71875,-0.78125 q -0.25,0.32813 -0.65625,0.48438 -0.39063,0.15625 -0.8281,0.15625 -0.29687,0 -0.5625,-0.0937 -0.25,-0.0937 -0.4375,-0.26563 -0.1875,-0.15625 -0.3125,-0.35937 -0.10937,-0.21875 -0.1875,-0.54688 v -0.0156 h 3.8281 v -0.60938 q 0,-0.625 -0.17188,-1.14062 -0.17187,-0.51563 -0.5,-0.875 -0.34375,-0.35938 -0.82812,-0.5625 -0.46875,-0.20313 -1.0781,-0.20313 -0.57812,0 -1.07812,0.21875 -0.5,0.20313 -0.85938,0.59375 -0.375,0.39063 -0.57812,0.92188 -0.20313,0.53125 -0.20313,1.17187 v 0.20313 q 0,0.57812 0.20313,1.07812 0.21875,0.48438 0.59375,0.85938 0.375,0.35937 0.90625,0.57812 0.53125,0.21875 1.1875,0.21875 z m -0.17188,-4.67187 q 0.26563,0 0.46875,0.0937 0.21872,0.0781 0.37497,0.21875 0.14063,0.15625 0.21875,0.35937 0.0937,0.20313 0.0937,0.4375 v 0.10938 h -2.37497 q 0.0469,-0.28125 0.15625,-0.5 0.10938,-0.21875 0.26563,-0.39063 0.14062,-0.15625 0.34375,-0.23437 0.20312,-0.0937 0.45312,-0.0937 z m 11.94584,4.5625 h 1.48437 l 2.29688,-7.57813 h -1.60938 l -1.29687,4.9375 -0.14063,0.51563 -0.125,-0.5 -1.28125,-4.95313 h -1.625 z m 5.06665,-5.625 v 1.17187 h 1.59375 v 3.28125 h -1.59375 v 1.17188 h 4.57812 v -1.17188 h -1.51562 v -4.45312 z m 1.5,-1.45313 q 0,0.17188 0.0469,0.3125 0.0625,0.14063 0.17188,0.25 0.10937,0.0937 0.26562,0.15625 0.15625,0.0625 0.34375,0.0625 0.375,0 0.59375,-0.21875 0.23438,-0.21875 0.23438,-0.5625 0,-0.32812 -0.23438,-0.54687 -0.21875,-0.21875 -0.59375,-0.21875 -0.1875,0 -0.34375,0.0625 -0.15625,0.0469 -0.26562,0.15625 -0.10938,0.0937 -0.17188,0.25 -0.0469,0.14062 -0.0469,0.29687 z m 7.23852,7.1875 q 0.8125,0 1.40625,-0.3125 0.60938,-0.32812 0.875,-0.71875 l -0.71875,-0.78125 q -0.25,0.32813 -0.65625,0.48438 -0.39062,0.15625 -0.82812,0.15625 -0.29688,0 -0.5625,-0.0937 -0.25,-0.0937 -0.4375,-0.26563 -0.1875,-0.15625 -0.3125,-0.35937 -0.10938,-0.21875 -0.1875,-0.54688 v -0.0156 h 3.82812 v -0.60938 q 0,-0.625 -0.17187,-1.14062 -0.17188,-0.51563 -0.5,-0.875 -0.34375,-0.35938 -0.82813,-0.5625 -0.46875,-0.20313 -1.07812,-0.20313 -0.57813,0 -1.07813,0.21875 -0.5,0.20313 -0.85937,0.59375 -0.375,0.39063 -0.57813,0.92188 -0.20312,0.53125 -0.20312,1.17187 v 0.20313 q 0,0.57812 0.20312,1.07812 0.21875,0.48438 0.59375,0.85938 0.375,0.35937 0.90625,0.57812 0.53125,0.21875 1.1875,0.21875 z m -0.17187,-4.67187 q 0.26562,0 0.46875,0.0937 0.21875,0.0781 0.375,0.21875 0.14062,0.15625 0.21875,0.35937 0.0937,0.20313 0.0937,0.4375 v 0.10938 h -2.375 q 0.0469,-0.28125 0.15625,-0.5 0.10937,-0.21875 0.26562,-0.39063 0.14063,-0.15625 0.34375,-0.23437 0.20313,-0.0937 0.45313,-0.0937 z m 4.25421,4.5625 h 1.26562 l 0.59375,-3 0.10938,-0.57813 0.125,0.57813 0.625,3 h 1.26562 l 1.01563,-5.625 h -1.32813 l -0.42187,3.3125 -0.0781,0.54687 -0.0937,-0.53125 -0.60937,-3.32812 h -0.96875 l -0.60938,3.34375 -0.0937,0.53125 -0.0625,-0.53125 -0.42187,-3.34375 h -1.32813 z"
       fill-rule="nonzero"
       id="path307" />
    <path
       fill="#5e5e5e"
       d="m 482.1313,297.26285 v -1.09375 q 0,-0.51562 -0.0937,-0.96875 -0.0937,-0.46875 -0.28125,-0.85937 -0.17188,-0.32813 -0.40625,-0.60938 -0.21875,-0.28125 -0.53125,-0.48437 -0.3125,-0.20313 -0.70313,-0.3125 -0.375,-0.125 -0.8125,-0.125 -0.42187,0 -0.79687,0.10937 -0.35938,0.10938 -0.65625,0.3125 -0.3125,0.21875 -0.54688,0.51563 -0.21875,0.28125 -0.39062,0.64062 -0.15625,0.375 -0.25,0.82813 -0.0781,0.45312 -0.0781,0.95312 v 1.09375 q 0,0.46875 0.0625,0.89063 0.0781,0.42187 0.23438,0.78125 0.15625,0.39062 0.39062,0.70312 0.25,0.3125 0.54688,0.53125 0.3125,0.20313 0.67187,0.32813 0.375,0.10937 0.82813,0.10937 0.40625,0 0.76562,-0.10937 0.375,-0.0937 0.67188,-0.28125 0.32812,-0.20313 0.59375,-0.51563 0.26562,-0.3125 0.4375,-0.6875 0.17187,-0.375 0.25,-0.8125 0.0937,-0.4375 0.0937,-0.9375 z m -1.48438,-1.10937 v 1.10937 q 0,0.28125 -0.0312,0.54688 -0.0312,0.25 -0.0781,0.46875 -0.0781,0.28125 -0.20313,0.51562 -0.125,0.21875 -0.29687,0.35938 -0.14063,0.125 -0.32813,0.1875 -0.17187,0.0625 -0.39062,0.0625 -0.23438,0 -0.42188,-0.0625 -0.17187,-0.0781 -0.3125,-0.20313 -0.14062,-0.14062 -0.26562,-0.35937 -0.10938,-0.23438 -0.15625,-0.51563 -0.0625,-0.21875 -0.0781,-0.46875 -0.0156,-0.25 -0.0156,-0.53125 v -1.10937 q 0,-0.29688 0.0156,-0.5625 0.0312,-0.26563 0.0781,-0.48438 0.0625,-0.29687 0.1875,-0.51562 0.125,-0.21875 0.29687,-0.35938 0.14063,-0.0937 0.29688,-0.14062 0.15625,-0.0625 0.35937,-0.0625 0.21875,0 0.39063,0.0625 0.17187,0.0469 0.3125,0.15625 0.1875,0.14062 0.3125,0.35937 0.125,0.21875 0.20312,0.5 0.0625,0.23438 0.0937,0.5 0.0312,0.25 0.0312,0.54688 z m 2.64481,4.34375 h 1.45313 v -4 q 0.0781,-0.10938 0.15625,-0.20313 0.0937,-0.0937 0.20312,-0.17187 0.125,-0.0937 0.29688,-0.14063 0.1875,-0.0469 0.39062,-0.0469 0.25,0 0.4375,0.0625 0.20313,0.0469 0.34375,0.17187 0.14063,0.125 0.21875,0.34375 0.0781,0.20313 0.0781,0.54688 v 3.4375 h 1.45312 v -3.46875 q 0,-0.60938 -0.15625,-1.03125 -0.14062,-0.4375 -0.39062,-0.71875 -0.26563,-0.26563 -0.625,-0.39063 -0.34375,-0.125 -0.76563,-0.125 -0.34375,0 -0.64062,0.0937 -0.29688,0.0937 -0.53125,0.26563 -0.15625,0.10937 -0.28125,0.25 -0.125,0.125 -0.23438,0.28125 l -0.0937,-0.78125 h -1.3125 z m 6.69165,-8 v 1.1875 h 1.6875 v 5.64062 h -1.6875 v 1.17188 h 4.76563 v -1.17188 h -1.60938 v -6.82812 z m 6.48856,2.375 v 1.17187 h 1.59375 v 3.28125 h -1.59375 v 1.17188 h 4.57812 v -1.17188 h -1.51562 v -4.45312 z m 1.5,-1.45313 q 0,0.17188 0.0469,0.3125 0.0625,0.14063 0.17188,0.25 0.10937,0.0937 0.26562,0.15625 0.15625,0.0625 0.34375,0.0625 0.375,0 0.59375,-0.21875 0.23438,-0.21875 0.23438,-0.5625 0,-0.32812 -0.23438,-0.54687 -0.21875,-0.21875 -0.59375,-0.21875 -0.1875,0 -0.34375,0.0625 -0.15625,0.0469 -0.26562,0.15625 -0.10938,0.0937 -0.17188,0.25 -0.0469,0.14062 -0.0469,0.29687 z m 4.50415,7.07813 h 1.45312 v -4 q 0.0781,-0.10938 0.15625,-0.20313 0.0937,-0.0937 0.20313,-0.17187 0.125,-0.0937 0.29687,-0.14063 0.1875,-0.0469 0.39063,-0.0469 0.25,0 0.4375,0.0625 0.20312,0.0469 0.34375,0.17187 0.14062,0.125 0.21875,0.34375 0.0781,0.20313 0.0781,0.54688 v 3.4375 h 1.45313 v -3.46875 q 0,-0.60938 -0.15625,-1.03125 -0.14063,-0.4375 -0.39063,-0.71875 -0.26562,-0.26563 -0.625,-0.39063 -0.34375,-0.125 -0.76562,-0.125 -0.34375,0 -0.64063,0.0937 -0.29687,0.0937 -0.53125,0.26563 -0.15625,0.10937 -0.28125,0.25 -0.125,0.125 -0.23437,0.28125 l -0.0937,-0.78125 h -1.3125 z m 9.12918,0.10937 q 0.81247,0 1.40622,-0.3125 0.60937,-0.32812 0.875,-0.71875 l -0.71875,-0.78125 q -0.25,0.32813 -0.65625,0.48438 -0.39063,0.15625 -0.8281,0.15625 -0.29687,0 -0.5625,-0.0937 -0.25,-0.0937 -0.4375,-0.26563 -0.1875,-0.15625 -0.3125,-0.35937 -0.10937,-0.21875 -0.1875,-0.54688 v -0.0156 h 3.8281 v -0.60938 q 0,-0.625 -0.17188,-1.14062 -0.17187,-0.51563 -0.5,-0.875 -0.34375,-0.35938 -0.82812,-0.5625 -0.46875,-0.20313 -1.0781,-0.20313 -0.57812,0 -1.07812,0.21875 -0.5,0.20313 -0.85938,0.59375 -0.375,0.39063 -0.57812,0.92188 -0.20313,0.53125 -0.20313,1.17187 v 0.20313 q 0,0.57812 0.20313,1.07812 0.21875,0.48438 0.59375,0.85938 0.375,0.35937 0.90625,0.57812 0.53125,0.21875 1.1875,0.21875 z m -0.17188,-4.67187 q 0.26563,0 0.46875,0.0937 0.21872,0.0781 0.37497,0.21875 0.14063,0.15625 0.21875,0.35937 0.0937,0.20313 0.0937,0.4375 v 0.10938 h -2.37497 q 0.0469,-0.28125 0.15625,-0.5 0.10938,-0.21875 0.26563,-0.39063 0.14062,-0.15625 0.34375,-0.23437 0.20312,-0.0937 0.45312,-0.0937 z m 13.89896,2.98437 0.4375,1.57813 h 1.54687 l -2.4375,-7.57813 h -1.32812 l -2.48438,7.57813 h 1.54688 l 0.45312,-1.57813 z m -1.90625,-1.25 0.78125,-2.78125 0.78125,2.78125 z m 6.12915,0.0469 h 1.125 q 0.625,0 1.125,-0.17188 0.5,-0.17187 0.85938,-0.5 0.34375,-0.3125 0.53125,-0.73437 0.1875,-0.4375 0.1875,-0.95313 0,-0.54687 -0.1875,-0.98437 -0.1875,-0.45313 -0.53125,-0.78125 -0.35938,-0.3125 -0.85938,-0.48438 -0.5,-0.1875 -1.125,-0.1875 h -2.57812 v 7.57813 h 1.45312 z m 0,-1.1875 v -2.42188 h 1.125 q 0.3125,0 0.54688,0.10938 0.23437,0.0937 0.39062,0.26562 0.14063,0.17188 0.21875,0.40625 0.0781,0.21875 0.0781,0.48438 0,0.23437 -0.0781,0.45312 -0.0781,0.20313 -0.21875,0.35938 -0.15625,0.15625 -0.39062,0.25 -0.23438,0.0937 -0.54688,0.0937 z m 5.1604,-3.60938 v 1.1875 h 1.45313 v 5.21875 h -1.45313 v 1.17188 h 4.39063 v -1.17188 h -1.48438 v -5.21875 h 1.48438 v -1.1875 z"
       fill-rule="nonzero"
       id="path309" />
    <path
       fill="#ffffff"
       d="m 672.9502,276.15927 h 113.92126 v 25.22836 H 672.9502 Z"
       fill-rule="evenodd"
       id="path311" />
    <path
       stroke="#cfe2f3"
       stroke-width="1"
       stroke-linejoin="round"
       stroke-linecap="butt"
       stroke-dasharray="1, 3"
       d="m 672.9502,276.15927 h 113.92126 v 25.22836 H 672.9502 Z"
       fill-rule="evenodd"
       id="path313" />
    <path
       fill="#5e5e5e"
       d="m 697.0265,282.87283 v -1.1875 h -3.23437 v -2.0625 h 3.64062 v -1.1875 h -5.10937 v 7.57813 h 1.46875 v -3.14063 z m 4.37915,3.25 q 0.8125,0 1.40625,-0.3125 0.60938,-0.32812 0.875,-0.71875 l -0.71875,-0.78125 q -0.25,0.32813 -0.65625,0.48438 -0.39062,0.15625 -0.82812,0.15625 -0.29688,0 -0.5625,-0.0937 -0.25,-0.0937 -0.4375,-0.26563 -0.1875,-0.15625 -0.3125,-0.35937 -0.10938,-0.21875 -0.1875,-0.54688 v -0.0156 h 3.82812 v -0.60938 q 0,-0.625 -0.17187,-1.14062 -0.17188,-0.51563 -0.5,-0.875 -0.34375,-0.35938 -0.82813,-0.5625 -0.46875,-0.20313 -1.07812,-0.20313 -0.57813,0 -1.07813,0.21875 -0.5,0.20313 -0.85937,0.59375 -0.375,0.39063 -0.57813,0.92188 -0.20312,0.53125 -0.20312,1.17187 v 0.20313 q 0,0.57812 0.20312,1.07812 0.21875,0.48438 0.59375,0.85938 0.375,0.35937 0.90625,0.57812 0.53125,0.21875 1.1875,0.21875 z m -0.17187,-4.67187 q 0.26562,0 0.46875,0.0937 0.21875,0.0781 0.375,0.21875 0.14062,0.15625 0.21875,0.35937 0.0937,0.20313 0.0937,0.4375 v 0.10938 h -2.375 q 0.0469,-0.28125 0.15625,-0.5 0.10937,-0.21875 0.26562,-0.39063 0.14063,-0.15625 0.34375,-0.23437 0.20313,-0.0937 0.45313,-0.0937 z m 7.3479,4.5625 h 1.46875 v -0.0937 q -0.10938,-0.20313 -0.17188,-0.5 -0.0469,-0.29688 -0.0469,-0.75 v -2.42188 q 0,-0.48437 -0.1875,-0.85937 -0.1875,-0.375 -0.5,-0.60938 -0.32813,-0.25 -0.76563,-0.375 -0.4375,-0.125 -0.95312,-0.125 -0.5625,0 -1,0.14063 -0.4375,0.14062 -0.75,0.39062 -0.29688,0.25 -0.46875,0.57813 -0.15625,0.3125 -0.15625,0.67187 h 1.45312 q 0,-0.15625 0.0469,-0.28125 0.0469,-0.125 0.14062,-0.20312 0.0937,-0.10938 0.25,-0.15625 0.17188,-0.0625 0.40625,-0.0625 0.26563,0 0.45313,0.0781 0.20312,0.0625 0.32812,0.17188 0.125,0.125 0.1875,0.28125 0.0625,0.15625 0.0625,0.35937 v 0.32813 h -0.8125 q -0.60937,0 -1.09375,0.10937 -0.48437,0.10938 -0.8125,0.32813 -0.35937,0.23437 -0.54687,0.59375 -0.1875,0.35937 -0.1875,0.82812 0,0.35938 0.14062,0.67188 0.15625,0.3125 0.42188,0.53125 0.25,0.23437 0.60937,0.35937 0.375,0.125 0.79688,0.125 0.26562,0 0.48437,-0.0625 0.23438,-0.0469 0.4375,-0.125 0.1875,-0.0937 0.34375,-0.20312 0.15625,-0.10938 0.26563,-0.25 0.0312,0.15625 0.0625,0.29687 0.0469,0.125 0.0937,0.23438 z m -1.375,-1.01563 q -0.20313,0 -0.35938,-0.0469 -0.15625,-0.0469 -0.25,-0.14063 -0.10937,-0.0781 -0.17187,-0.20312 -0.0469,-0.14063 -0.0469,-0.28125 0,-0.20313 0.0625,-0.35938 0.0781,-0.17187 0.23438,-0.28125 0.15625,-0.125 0.39062,-0.1875 0.23438,-0.0625 0.57813,-0.0625 h 0.73437 v 0.96875 q -0.0625,0.10938 -0.17187,0.21875 -0.10938,0.10938 -0.26563,0.1875 -0.14062,0.0781 -0.32812,0.14063 -0.1875,0.0469 -0.40625,0.0469 z m 6.9104,-6 h -1.45313 v 1.39063 h -1.28125 v 1.0625 h 1.28125 v 2.5625 q 0,0.54687 0.14063,0.95312 0.15625,0.39063 0.42187,0.65625 0.26563,0.25 0.64063,0.375 0.375,0.125 0.84375,0.125 0.23437,0 0.48437,-0.0312 0.25,-0.0156 0.48438,-0.0625 0.21875,-0.0312 0.42187,-0.0937 0.20313,-0.0781 0.35938,-0.15625 l -0.14063,-1 q -0.0937,0.0312 -0.23437,0.0625 -0.14063,0.0156 -0.29688,0.0312 -0.15625,0.0312 -0.34375,0.0469 -0.17187,0.0156 -0.32812,0.0156 -0.23438,0 -0.42188,-0.0469 -0.1875,-0.0625 -0.3125,-0.1875 -0.125,-0.10938 -0.20312,-0.3125 -0.0625,-0.21875 -0.0625,-0.51563 v -2.42187 h 2.09375 v -1.0625 h -2.09375 z m 7.41046,7.01563 h 1.3125 v -5.625 h -1.45313 v 3.9375 q -0.0625,0.14062 -0.15625,0.25 -0.0937,0.10937 -0.21875,0.1875 -0.14062,0.0937 -0.32812,0.14062 -0.1875,0.0469 -0.40625,0.0469 -0.26563,0 -0.4375,-0.0625 -0.17188,-0.0625 -0.28125,-0.21875 -0.10938,-0.14063 -0.15625,-0.375 -0.0469,-0.23438 -0.0469,-0.57813 v -3.32812 h -1.45312 v 3.32812 q 0,0.64063 0.14062,1.09375 0.14063,0.45313 0.40625,0.75 0.26563,0.29688 0.625,0.4375 0.35938,0.125 0.79688,0.125 0.48437,0 0.875,-0.23437 0.40625,-0.25 0.70312,-0.67188 z m 6.76977,-5.73438 q -0.57812,0 -1.0625,0.28125 -0.46875,0.26563 -0.8125,0.75 l -0.0156,-0.125 -0.0469,-0.79687 h -1.34375 v 5.625 h 1.4375 v -3.375 q 0.0937,-0.25 0.25,-0.42188 0.15625,-0.17187 0.35938,-0.29687 0.1875,-0.0937 0.40625,-0.14063 0.23437,-0.0469 0.51562,-0.0469 0.26563,0 0.5625,0.0312 0.29688,0.0312 0.59375,0.0937 l 0.20313,-1.4375 q -0.17188,-0.0469 -0.45313,-0.0937 -0.26562,-0.0469 -0.59375,-0.0469 z m 5.08228,5.84375 q 0.8125,0 1.40625,-0.3125 0.60937,-0.32812 0.875,-0.71875 l -0.71875,-0.78125 q -0.25,0.32813 -0.65625,0.48438 -0.39063,0.15625 -0.82813,0.15625 -0.29687,0 -0.5625,-0.0937 -0.25,-0.0937 -0.4375,-0.26563 -0.1875,-0.15625 -0.3125,-0.35937 -0.10937,-0.21875 -0.1875,-0.54688 v -0.0156 h 3.82813 v -0.60938 q 0,-0.625 -0.17188,-1.14062 -0.17187,-0.51563 -0.5,-0.875 -0.34375,-0.35938 -0.82812,-0.5625 -0.46875,-0.20313 -1.07813,-0.20313 -0.57812,0 -1.07812,0.21875 -0.5,0.20313 -0.85938,0.59375 -0.375,0.39063 -0.57812,0.92188 -0.20313,0.53125 -0.20313,1.17187 v 0.20313 q 0,0.57812 0.20313,1.07812 0.21875,0.48438 0.59375,0.85938 0.375,0.35937 0.90625,0.57812 0.53125,0.21875 1.1875,0.21875 z m -0.17188,-4.67187 q 0.26563,0 0.46875,0.0937 0.21875,0.0781 0.375,0.21875 0.14063,0.15625 0.21875,0.35937 0.0937,0.20313 0.0937,0.4375 v 0.10938 h -2.375 q 0.0469,-0.28125 0.15625,-0.5 0.10938,-0.21875 0.26563,-0.39063 0.14062,-0.15625 0.34375,-0.23437 0.20312,-0.0937 0.45312,-0.0937 z m 11.94587,4.5625 h 1.48437 l 2.29688,-7.57813 h -1.60938 l -1.29687,4.9375 -0.14063,0.51563 -0.125,-0.5 -1.28125,-4.95313 h -1.625 z m 5.06665,-5.625 v 1.17187 h 1.59375 v 3.28125 h -1.59375 v 1.17188 h 4.57812 v -1.17188 h -1.51562 v -4.45312 z m 1.5,-1.45313 q 0,0.17188 0.0469,0.3125 0.0625,0.14063 0.17188,0.25 0.10937,0.0937 0.26562,0.15625 0.15625,0.0625 0.34375,0.0625 0.375,0 0.59375,-0.21875 0.23438,-0.21875 0.23438,-0.5625 0,-0.32812 -0.23438,-0.54687 -0.21875,-0.21875 -0.59375,-0.21875 -0.1875,0 -0.34375,0.0625 -0.15625,0.0469 -0.26562,0.15625 -0.10938,0.0937 -0.17188,0.25 -0.0469,0.14062 -0.0469,0.29687 z m 7.23852,7.1875 q 0.8125,0 1.40625,-0.3125 0.60938,-0.32812 0.875,-0.71875 l -0.71875,-0.78125 q -0.25,0.32813 -0.65625,0.48438 -0.39062,0.15625 -0.82812,0.15625 -0.29688,0 -0.5625,-0.0937 -0.25,-0.0937 -0.4375,-0.26563 -0.1875,-0.15625 -0.3125,-0.35937 -0.10938,-0.21875 -0.1875,-0.54688 v -0.0156 h 3.82812 v -0.60938 q 0,-0.625 -0.17187,-1.14062 -0.17188,-0.51563 -0.5,-0.875 -0.34375,-0.35938 -0.82813,-0.5625 -0.46875,-0.20313 -1.07812,-0.20313 -0.57813,0 -1.07813,0.21875 -0.5,0.20313 -0.85937,0.59375 -0.375,0.39063 -0.57813,0.92188 -0.20312,0.53125 -0.20312,1.17187 v 0.20313 q 0,0.57812 0.20312,1.07812 0.21875,0.48438 0.59375,0.85938 0.375,0.35937 0.90625,0.57812 0.53125,0.21875 1.1875,0.21875 z m -0.17187,-4.67187 q 0.26562,0 0.46875,0.0937 0.21875,0.0781 0.375,0.21875 0.14062,0.15625 0.21875,0.35937 0.0937,0.20313 0.0937,0.4375 v 0.10938 h -2.375 q 0.0469,-0.28125 0.15625,-0.5 0.10937,-0.21875 0.26562,-0.39063 0.14063,-0.15625 0.34375,-0.23437 0.20313,-0.0937 0.45313,-0.0937 z m 4.25415,4.5625 h 1.26562 l 0.59375,-3 0.10938,-0.57813 0.125,0.57813 0.625,3 h 1.26562 l 1.01563,-5.625 h -1.32813 l -0.42187,3.3125 -0.0781,0.54687 -0.0937,-0.53125 -0.60937,-3.32812 h -0.96875 l -0.60938,3.34375 -0.0937,0.53125 -0.0625,-0.53125 -0.42187,-3.34375 h -1.32813 z"
       fill-rule="nonzero"
       id="path315" />
    <path
       fill="#5e5e5e"
       d="m 700.70825,295.77908 v -1.09375 q 0,-0.51562 -0.0937,-0.96875 -0.0937,-0.46875 -0.28125,-0.85937 -0.17187,-0.32813 -0.40625,-0.60938 -0.21875,-0.28125 -0.53125,-0.48437 -0.3125,-0.20313 -0.70312,-0.3125 -0.375,-0.125 -0.8125,-0.125 -0.42188,0 -0.79688,0.10937 -0.35937,0.10938 -0.65625,0.3125 -0.3125,0.21875 -0.54687,0.51563 -0.21875,0.28125 -0.39063,0.64062 -0.15625,0.375 -0.25,0.82813 -0.0781,0.45312 -0.0781,0.95312 v 1.09375 q 0,0.46875 0.0625,0.89063 0.0781,0.42187 0.23437,0.78125 0.15625,0.39062 0.39063,0.70312 0.25,0.3125 0.54687,0.53125 0.3125,0.20313 0.67188,0.32813 0.375,0.10937 0.82812,0.10937 0.40625,0 0.76563,-0.10937 0.375,-0.0937 0.67187,-0.28125 0.32813,-0.20313 0.59375,-0.51563 0.26563,-0.3125 0.4375,-0.6875 0.17188,-0.375 0.25,-0.8125 0.0937,-0.4375 0.0937,-0.9375 z m -1.48437,-1.10937 v 1.10937 q 0,0.28125 -0.0312,0.54688 -0.0312,0.25 -0.0781,0.46875 -0.0781,0.28125 -0.20312,0.51562 -0.125,0.21875 -0.29688,0.35938 -0.14062,0.125 -0.32812,0.1875 -0.17188,0.0625 -0.39063,0.0625 -0.23437,0 -0.42187,-0.0625 -0.17188,-0.0781 -0.3125,-0.20313 -0.14063,-0.14062 -0.26563,-0.35937 -0.10937,-0.23438 -0.15625,-0.51563 -0.0625,-0.21875 -0.0781,-0.46875 -0.0156,-0.25 -0.0156,-0.53125 v -1.10937 q 0,-0.29688 0.0156,-0.5625 0.0312,-0.26563 0.0781,-0.48438 0.0625,-0.29687 0.1875,-0.51562 0.125,-0.21875 0.29688,-0.35938 0.14062,-0.0937 0.29687,-0.14062 0.15625,-0.0625 0.35938,-0.0625 0.21875,0 0.39062,0.0625 0.17188,0.0469 0.3125,0.15625 0.1875,0.14062 0.3125,0.35937 0.125,0.21875 0.20313,0.5 0.0625,0.23438 0.0937,0.5 0.0312,0.25 0.0312,0.54688 z m 4.05102,4.34375 h 1.4375 v -4.5625 h 2.03125 v -1.0625 h -2.03125 v -0.3125 q 0,-0.25 0.0625,-0.4375 0.0781,-0.20313 0.20313,-0.34375 0.15625,-0.15625 0.40625,-0.23438 0.26562,-0.0937 0.625,-0.0937 0.34375,0 0.59375,0.0312 0.25,0.0312 0.4375,0.0781 l 0.0937,-1.14063 q -0.17188,-0.0312 -0.34375,-0.0469 -0.15625,-0.0312 -0.3125,-0.0469 -0.17188,-0.0312 -0.34375,-0.0312 -0.15625,-0.0156 -0.34375,-0.0156 -0.57813,0 -1.04688,0.14062 -0.46875,0.14063 -0.79687,0.4375 -0.32813,0.29688 -0.5,0.71875 -0.17188,0.42188 -0.17188,0.98438 v 0.3125 h -1.48437 v 1.0625 h 1.48437 z m 6.39478,0 h 1.4375 v -4.5625 h 2.03125 v -1.0625 h -2.03125 v -0.3125 q 0,-0.25 0.0625,-0.4375 0.0781,-0.20313 0.20312,-0.34375 0.15625,-0.15625 0.40625,-0.23438 0.26563,-0.0937 0.625,-0.0937 0.34375,0 0.59375,0.0312 0.25,0.0312 0.4375,0.0781 l 0.0937,-1.14063 q -0.17187,-0.0312 -0.34375,-0.0469 -0.15625,-0.0312 -0.3125,-0.0469 -0.17187,-0.0312 -0.34375,-0.0312 -0.15625,-0.0156 -0.34375,-0.0156 -0.57812,0 -1.04687,0.14062 -0.46875,0.14063 -0.79688,0.4375 -0.32812,0.29688 -0.5,0.71875 -0.17187,0.42188 -0.17187,0.98438 v 0.3125 h -1.48438 v 1.0625 h 1.48438 z m 5.28546,-8 v 1.1875 h 1.6875 v 5.64062 h -1.6875 v 1.17188 h 4.76562 v -1.17188 h -1.60937 v -6.82812 z m 6.48852,2.375 v 1.17187 h 1.59375 v 3.28125 h -1.59375 v 1.17188 h 4.57813 v -1.17188 h -1.51563 v -4.45312 z m 1.5,-1.45313 q 0,0.17188 0.0469,0.3125 0.0625,0.14063 0.17187,0.25 0.10938,0.0937 0.26563,0.15625 0.15625,0.0625 0.34375,0.0625 0.375,0 0.59375,-0.21875 0.23437,-0.21875 0.23437,-0.5625 0,-0.32812 -0.23437,-0.54687 -0.21875,-0.21875 -0.59375,-0.21875 -0.1875,0 -0.34375,0.0625 -0.15625,0.0469 -0.26563,0.15625 -0.10937,0.0937 -0.17187,0.25 -0.0469,0.14062 -0.0469,0.29687 z m 4.50415,7.07813 h 1.45313 v -4 q 0.0781,-0.10938 0.15625,-0.20313 0.0937,-0.0937 0.20312,-0.17187 0.125,-0.0937 0.29688,-0.14063 0.1875,-0.0469 0.39062,-0.0469 0.25,0 0.4375,0.0625 0.20313,0.0469 0.34375,0.17187 0.14063,0.125 0.21875,0.34375 0.0781,0.20313 0.0781,0.54688 v 3.4375 h 1.45312 v -3.46875 q 0,-0.60938 -0.15625,-1.03125 -0.14062,-0.4375 -0.39062,-0.71875 -0.26563,-0.26563 -0.625,-0.39063 -0.34375,-0.125 -0.76563,-0.125 -0.34375,0 -0.64062,0.0937 -0.29688,0.0937 -0.53125,0.26563 -0.15625,0.10937 -0.28125,0.25 -0.125,0.125 -0.23438,0.28125 l -0.0937,-0.78125 h -1.3125 z m 9.12915,0.10937 q 0.8125,0 1.40625,-0.3125 0.60938,-0.32812 0.875,-0.71875 l -0.71875,-0.78125 q -0.25,0.32813 -0.65625,0.48438 -0.39062,0.15625 -0.82812,0.15625 -0.29688,0 -0.5625,-0.0937 -0.25,-0.0937 -0.4375,-0.26563 -0.1875,-0.15625 -0.3125,-0.35937 -0.10938,-0.21875 -0.1875,-0.54688 v -0.0156 h 3.82812 v -0.60938 q 0,-0.625 -0.17187,-1.14062 -0.17188,-0.51563 -0.5,-0.875 -0.34375,-0.35938 -0.82813,-0.5625 -0.46875,-0.20313 -1.07812,-0.20313 -0.57813,0 -1.07813,0.21875 -0.5,0.20313 -0.85937,0.59375 -0.375,0.39063 -0.57813,0.92188 -0.20312,0.53125 -0.20312,1.17187 v 0.20313 q 0,0.57812 0.20312,1.07812 0.21875,0.48438 0.59375,0.85938 0.375,0.35937 0.90625,0.57812 0.53125,0.21875 1.1875,0.21875 z m -0.17187,-4.67187 q 0.26562,0 0.46875,0.0937 0.21875,0.0781 0.375,0.21875 0.14062,0.15625 0.21875,0.35937 0.0937,0.20313 0.0937,0.4375 v 0.10938 h -2.375 q 0.0469,-0.28125 0.15625,-0.5 0.10937,-0.21875 0.26562,-0.39063 0.14063,-0.15625 0.34375,-0.23437 0.20313,-0.0937 0.45313,-0.0937 z m 13.89898,2.98437 0.4375,1.57813 h 1.54688 l -2.4375,-7.57813 h -1.32813 l -2.48437,7.57813 h 1.54687 l 0.45313,-1.57813 z m -1.90625,-1.25 0.78125,-2.78125 0.78125,2.78125 z m 6.12916,0.0469 h 1.125 q 0.625,0 1.125,-0.17188 0.5,-0.17187 0.85937,-0.5 0.34375,-0.3125 0.53125,-0.73437 0.1875,-0.4375 0.1875,-0.95313 0,-0.54687 -0.1875,-0.98437 -0.1875,-0.45313 -0.53125,-0.78125 -0.35937,-0.3125 -0.85937,-0.48438 -0.5,-0.1875 -1.125,-0.1875 h -2.57813 v 7.57813 h 1.45313 z m 0,-1.1875 v -2.42188 h 1.125 q 0.3125,0 0.54687,0.10938 0.23438,0.0937 0.39063,0.26562 0.14062,0.17188 0.21875,0.40625 0.0781,0.21875 0.0781,0.48438 0,0.23437 -0.0781,0.45312 -0.0781,0.20313 -0.21875,0.35938 -0.15625,0.15625 -0.39063,0.25 -0.23437,0.0937 -0.54687,0.0937 z m 5.1604,-3.60938 v 1.1875 h 1.45312 v 5.21875 h -1.45312 v 1.17188 h 4.39062 v -1.17188 h -1.48437 v -5.21875 h 1.48437 v -1.1875 z"
       fill-rule="nonzero"
       id="path317" />
  </g>
</svg>
